%TF.GenerationSoftware,KiCad,Pcbnew,(6.0.0-0)*%
%TF.CreationDate,2022-04-04T00:03:27-05:00*%
%TF.ProjectId,SmartNeonPSU,536d6172-744e-4656-9f6e-5053552e6b69,rev?*%
%TF.SameCoordinates,Original*%
%TF.FileFunction,Copper,L2,Bot*%
%TF.FilePolarity,Positive*%
%FSLAX46Y46*%
G04 Gerber Fmt 4.6, Leading zero omitted, Abs format (unit mm)*
G04 Created by KiCad (PCBNEW (6.0.0-0)) date 2022-04-04 00:03:27*
%MOMM*%
%LPD*%
G01*
G04 APERTURE LIST*
G04 Aperture macros list*
%AMRoundRect*
0 Rectangle with rounded corners*
0 $1 Rounding radius*
0 $2 $3 $4 $5 $6 $7 $8 $9 X,Y pos of 4 corners*
0 Add a 4 corners polygon primitive as box body*
4,1,4,$2,$3,$4,$5,$6,$7,$8,$9,$2,$3,0*
0 Add four circle primitives for the rounded corners*
1,1,$1+$1,$2,$3*
1,1,$1+$1,$4,$5*
1,1,$1+$1,$6,$7*
1,1,$1+$1,$8,$9*
0 Add four rect primitives between the rounded corners*
20,1,$1+$1,$2,$3,$4,$5,0*
20,1,$1+$1,$4,$5,$6,$7,0*
20,1,$1+$1,$6,$7,$8,$9,0*
20,1,$1+$1,$8,$9,$2,$3,0*%
%AMFreePoly0*
4,1,22,0.500000,-0.750000,0.000000,-0.750000,0.000000,-0.745033,-0.079941,-0.743568,-0.215256,-0.701293,-0.333266,-0.622738,-0.424486,-0.514219,-0.481581,-0.384460,-0.499164,-0.250000,-0.500000,-0.250000,-0.500000,0.250000,-0.499164,0.250000,-0.499963,0.256109,-0.478152,0.396186,-0.417904,0.524511,-0.324060,0.630769,-0.204165,0.706417,-0.067858,0.745374,0.000000,0.744959,0.000000,0.750000,
0.500000,0.750000,0.500000,-0.750000,0.500000,-0.750000,$1*%
%AMFreePoly1*
4,1,20,0.000000,0.744959,0.073905,0.744508,0.209726,0.703889,0.328688,0.626782,0.421226,0.519385,0.479903,0.390333,0.500000,0.250000,0.500000,-0.250000,0.499851,-0.262216,0.476331,-0.402017,0.414519,-0.529596,0.319384,-0.634700,0.198574,-0.708877,0.061801,-0.746166,0.000000,-0.745033,0.000000,-0.750000,-0.500000,-0.750000,-0.500000,0.750000,0.000000,0.750000,0.000000,0.744959,
0.000000,0.744959,$1*%
G04 Aperture macros list end*
%TA.AperFunction,EtchedComponent*%
%ADD10C,0.200000*%
%TD*%
%TA.AperFunction,ComponentPad*%
%ADD11C,0.800000*%
%TD*%
%TA.AperFunction,ComponentPad*%
%ADD12C,6.400000*%
%TD*%
%TA.AperFunction,ComponentPad*%
%ADD13O,6.000000X2.700000*%
%TD*%
%TA.AperFunction,ComponentPad*%
%ADD14RoundRect,0.250200X0.649800X-0.649800X0.649800X0.649800X-0.649800X0.649800X-0.649800X-0.649800X0*%
%TD*%
%TA.AperFunction,ComponentPad*%
%ADD15C,1.800000*%
%TD*%
%TA.AperFunction,ComponentPad*%
%ADD16C,1.440000*%
%TD*%
%TA.AperFunction,ComponentPad*%
%ADD17R,1.700000X1.700000*%
%TD*%
%TA.AperFunction,ComponentPad*%
%ADD18O,1.700000X1.700000*%
%TD*%
%TA.AperFunction,SMDPad,CuDef*%
%ADD19RoundRect,0.250000X0.250000X0.475000X-0.250000X0.475000X-0.250000X-0.475000X0.250000X-0.475000X0*%
%TD*%
%TA.AperFunction,SMDPad,CuDef*%
%ADD20FreePoly0,180.000000*%
%TD*%
%TA.AperFunction,SMDPad,CuDef*%
%ADD21FreePoly1,180.000000*%
%TD*%
%TA.AperFunction,SMDPad,CuDef*%
%ADD22RoundRect,0.249999X0.850001X-0.450001X0.850001X0.450001X-0.850001X0.450001X-0.850001X-0.450001X0*%
%TD*%
%TA.AperFunction,ViaPad*%
%ADD23C,0.800000*%
%TD*%
%TA.AperFunction,ViaPad*%
%ADD24C,1.200000*%
%TD*%
%TA.AperFunction,ViaPad*%
%ADD25C,1.000000*%
%TD*%
%TA.AperFunction,ViaPad*%
%ADD26C,0.900000*%
%TD*%
%TA.AperFunction,Conductor*%
%ADD27C,0.500000*%
%TD*%
%TA.AperFunction,Conductor*%
%ADD28C,0.250000*%
%TD*%
%TA.AperFunction,Conductor*%
%ADD29C,0.300000*%
%TD*%
%TA.AperFunction,Conductor*%
%ADD30C,1.270000*%
%TD*%
G04 APERTURE END LIST*
D10*
%TO.C,JP2*%
X126480000Y-116080000D02*
X126980000Y-116080000D01*
X126980000Y-116080000D02*
X126980000Y-116680000D01*
X126980000Y-116680000D02*
X126480000Y-116680000D01*
X126480000Y-116680000D02*
X126480000Y-116080000D01*
G36*
X126980000Y-116680000D02*
G01*
X126480000Y-116680000D01*
X126480000Y-116080000D01*
X126980000Y-116080000D01*
X126980000Y-116680000D01*
G37*
X126980000Y-116680000D02*
X126480000Y-116680000D01*
X126480000Y-116080000D01*
X126980000Y-116080000D01*
X126980000Y-116680000D01*
%TO.C,JP1*%
X126480000Y-121160000D02*
X126980000Y-121160000D01*
X126980000Y-121160000D02*
X126980000Y-121760000D01*
X126980000Y-121760000D02*
X126480000Y-121760000D01*
X126480000Y-121760000D02*
X126480000Y-121160000D01*
G36*
X126980000Y-121760000D02*
G01*
X126480000Y-121760000D01*
X126480000Y-121160000D01*
X126980000Y-121160000D01*
X126980000Y-121760000D01*
G37*
X126980000Y-121760000D02*
X126480000Y-121760000D01*
X126480000Y-121160000D01*
X126980000Y-121160000D01*
X126980000Y-121760000D01*
%TD*%
D11*
%TO.P,H4,1,1*%
%TO.N,GND*%
X175302944Y-76602944D03*
X178697056Y-79997056D03*
X178697056Y-76602944D03*
X179400000Y-78300000D03*
X175302944Y-79997056D03*
X177000000Y-80700000D03*
X174600000Y-78300000D03*
X177000000Y-75900000D03*
D12*
X177000000Y-78300000D03*
%TD*%
D11*
%TO.P,H3,1,1*%
%TO.N,GND*%
X178697056Y-128602944D03*
X175302944Y-128602944D03*
X177000000Y-127900000D03*
X174600000Y-130300000D03*
X175302944Y-131997056D03*
D12*
X177000000Y-130300000D03*
D11*
X178697056Y-131997056D03*
X177000000Y-132700000D03*
X179400000Y-130300000D03*
%TD*%
D13*
%TO.P,J5,1,Pin_1*%
%TO.N,/HV*%
X160500000Y-97550000D03*
X160500000Y-106050000D03*
%TD*%
D14*
%TO.P,U1,1,OUT*%
%TO.N,/GPI35*%
X178225000Y-117740000D03*
D15*
%TO.P,U1,2,GND*%
%TO.N,GND*%
X178225000Y-115200000D03*
%TO.P,U1,3,Vs*%
%TO.N,+3V3*%
X178225000Y-112660000D03*
%TD*%
D16*
%TO.P,RV2,1,1*%
%TO.N,GND*%
X120225000Y-104675000D03*
%TO.P,RV2,2,2*%
%TO.N,/BBR*%
X122765000Y-102135000D03*
%TO.P,RV2,3,3*%
%TO.N,/V5*%
X125305000Y-104675000D03*
%TD*%
D13*
%TO.P,J6,1,Pin_1*%
%TO.N,/CSEN*%
X139500000Y-106050000D03*
X139500000Y-97550000D03*
%TD*%
D11*
%TO.P,H2,1,1*%
%TO.N,GND*%
X121302944Y-131997056D03*
X124697056Y-128602944D03*
X123000000Y-127900000D03*
X125400000Y-130300000D03*
X123000000Y-132700000D03*
X120600000Y-130300000D03*
X121302944Y-128602944D03*
D12*
X123000000Y-130300000D03*
D11*
X124697056Y-131997056D03*
%TD*%
D17*
%TO.P,J3,1,Pin_1*%
%TO.N,GND*%
X121000000Y-124000000D03*
D18*
%TO.P,J3,2,Pin_2*%
%TO.N,/ABR*%
X121000000Y-121460000D03*
%TO.P,J3,3,Pin_3*%
%TO.N,/BBR*%
X121000000Y-118920000D03*
%TO.P,J3,4,Pin_4*%
%TO.N,/BC*%
X121000000Y-116380000D03*
%TO.P,J3,5,Pin_5*%
%TO.N,/TPS_EN*%
X121000000Y-113840000D03*
%TO.P,J3,6,Pin_6*%
%TO.N,/FAULT*%
X121000000Y-111300000D03*
%TO.P,J3,7,Pin_7*%
%TO.N,GND*%
X121000000Y-108760000D03*
%TD*%
D17*
%TO.P,J1,1,Pin_1*%
%TO.N,GND*%
X121000000Y-67000000D03*
D18*
%TO.P,J1,2,Pin_2*%
%TO.N,Net-(F1-Pad2)*%
X121000000Y-64460000D03*
%TD*%
D11*
%TO.P,H1,1,1*%
%TO.N,GND*%
X121302944Y-79997056D03*
X123000000Y-75900000D03*
X124697056Y-79997056D03*
X125400000Y-78300000D03*
X120600000Y-78300000D03*
X124697056Y-76602944D03*
X121302944Y-76602944D03*
X123000000Y-80700000D03*
D12*
X123000000Y-78300000D03*
%TD*%
D16*
%TO.P,RV1,1,1*%
%TO.N,GND*%
X120225000Y-98925000D03*
%TO.P,RV1,2,2*%
%TO.N,/ABR*%
X122765000Y-96385000D03*
%TO.P,RV1,3,3*%
%TO.N,/VREF*%
X125305000Y-98925000D03*
%TD*%
D17*
%TO.P,J4,1,Pin_1*%
%TO.N,/GPIO0*%
X178975000Y-69475000D03*
D18*
%TO.P,J4,2,Pin_2*%
%TO.N,GND*%
X178975000Y-66935000D03*
%TO.P,J4,3,Pin_3*%
%TO.N,/GPIO2*%
X178975000Y-64395000D03*
%TD*%
D17*
%TO.P,J2,1,Pin_1*%
%TO.N,GND*%
X179000000Y-108200000D03*
D18*
%TO.P,J2,2,Pin_2*%
%TO.N,/~{RTS}*%
X179000000Y-105660000D03*
%TO.P,J2,3,Pin_3*%
%TO.N,+3V3*%
X179000000Y-103120000D03*
%TO.P,J2,4,Pin_4*%
%TO.N,/GPIO3*%
X179000000Y-100580000D03*
%TO.P,J2,5,Pin_5*%
%TO.N,/GPIO1*%
X179000000Y-98040000D03*
%TO.P,J2,6,Pin_6*%
%TO.N,/~{DTR}*%
X179000000Y-95500000D03*
%TO.P,J2,7,Pin_7*%
%TO.N,/GPIO5*%
X179000000Y-92960000D03*
%TO.P,J2,8,Pin_8*%
%TO.N,/GPIO4*%
X179000000Y-90420000D03*
%TO.P,J2,9,Pin_9*%
%TO.N,/GPIO2*%
X179000000Y-87880000D03*
%TO.P,J2,10,Pin_10*%
%TO.N,/GPIO0*%
X179000000Y-85340000D03*
%TD*%
D19*
%TO.P,C2,1*%
%TO.N,+12V*%
X143950000Y-84950000D03*
%TO.P,C2,2*%
%TO.N,GND*%
X142050000Y-84950000D03*
%TD*%
D20*
%TO.P,JP2,1,A*%
%TO.N,/ESP_BC*%
X127380000Y-116380000D03*
D21*
%TO.P,JP2,2,B*%
%TO.N,/BC*%
X126080000Y-116380000D03*
%TD*%
D20*
%TO.P,JP1,1,A*%
%TO.N,/ESP_ABR*%
X127380000Y-121460000D03*
D21*
%TO.P,JP1,2,B*%
%TO.N,/ABR*%
X126080000Y-121460000D03*
%TD*%
D22*
%TO.P,C21,1*%
%TO.N,/HV*%
X153722317Y-96050000D03*
%TO.P,C21,2*%
%TO.N,/VSEN*%
X153722317Y-91950000D03*
%TD*%
D23*
%TO.N,+12V*%
X144000000Y-73700000D03*
X144000000Y-74950000D03*
X144750000Y-88450000D03*
X143500000Y-85950000D03*
X144750000Y-85950000D03*
X143500000Y-87200000D03*
X139000000Y-72200000D03*
X145250000Y-73700000D03*
X142750000Y-73700000D03*
X137750000Y-72200000D03*
X144750000Y-87200000D03*
X140250000Y-72200000D03*
X141500000Y-72200000D03*
X145250000Y-74950000D03*
X143500000Y-88450000D03*
D24*
X152850000Y-115350000D03*
D23*
%TO.N,GND*%
X172750000Y-116450000D03*
X139600000Y-57050000D03*
X165000000Y-113700000D03*
X141000000Y-79200000D03*
X137250000Y-89450000D03*
X150500000Y-114450000D03*
X150000000Y-117450000D03*
X130250000Y-67200000D03*
X132250000Y-70700000D03*
X150000000Y-116450000D03*
X126500000Y-91700000D03*
X148250000Y-118950000D03*
X135250000Y-89450000D03*
X133250000Y-70700000D03*
X136250000Y-127700000D03*
X133250000Y-113700000D03*
X125500000Y-90950000D03*
X139750000Y-127700000D03*
X164250000Y-124950000D03*
X148250000Y-116950000D03*
X132250000Y-67200000D03*
X138000000Y-126450000D03*
X129250000Y-89450000D03*
X133250000Y-67200000D03*
X139750000Y-81700000D03*
X139750000Y-79200000D03*
X150000000Y-118450000D03*
X150000000Y-119450000D03*
X151000000Y-118450000D03*
X152000000Y-116950000D03*
X139750000Y-125200000D03*
D25*
X132075181Y-81624819D03*
D23*
X136250000Y-125200000D03*
X151000000Y-116450000D03*
X150500000Y-115450000D03*
X130250000Y-70700000D03*
X151000000Y-117450000D03*
X141000000Y-81700000D03*
X128250000Y-108700000D03*
X152000000Y-117950000D03*
X133250000Y-89450000D03*
X131250000Y-67200000D03*
X142250000Y-85950000D03*
X160400000Y-57050000D03*
X127750000Y-96700000D03*
X170000000Y-108700000D03*
X152000000Y-118950000D03*
X131250000Y-70700000D03*
X151000000Y-119450000D03*
X128750000Y-78350000D03*
X139750000Y-80450000D03*
X148250000Y-117950000D03*
X141000000Y-80450000D03*
X142250000Y-87200000D03*
%TO.N,/ABR*%
X123085011Y-86756257D03*
%TO.N,/BBR*%
X124250000Y-83700000D03*
D25*
%TO.N,+3V3*%
X161548817Y-123514710D03*
%TO.N,/V5*%
X137500000Y-81800000D03*
X124750000Y-73200000D03*
%TO.N,/VREF*%
X130075472Y-81624528D03*
D23*
%TO.N,/ESP_EN*%
X143268409Y-126074813D03*
X157974500Y-125174500D03*
D26*
%TO.N,/VSEN*%
X135014348Y-93020948D03*
D23*
%TO.N,Net-(D2-Pad2)*%
X168500000Y-121700000D03*
X170250000Y-117700000D03*
%TO.N,/GPIO5*%
X130605789Y-128464705D03*
X156400000Y-132681414D03*
X180770325Y-121002235D03*
%TO.N,/GPIO3*%
X139400000Y-122200000D03*
%TO.N,/GPIO1*%
X140500000Y-122200000D03*
%TO.N,/GPIO4*%
X129706733Y-119071923D03*
%TO.N,/GPIO2*%
X165000000Y-127750000D03*
X133000000Y-118294502D03*
%TO.N,/GPIO0*%
X163500000Y-127750000D03*
X174999861Y-123999861D03*
X129158288Y-117036343D03*
%TO.N,/BC*%
X124250000Y-84700000D03*
%TO.N,/TPS_EN*%
X143750000Y-119700000D03*
X130426138Y-88999876D03*
X154750000Y-120700000D03*
%TO.N,/FAULT*%
X142500000Y-120450000D03*
X158100000Y-132685346D03*
X161750000Y-120700000D03*
X143900498Y-129200000D03*
X131250000Y-89749500D03*
D26*
%TO.N,/OCP*%
X140750000Y-88950000D03*
X126461878Y-89872168D03*
D23*
%TO.N,/GPI35*%
X147099502Y-123677761D03*
%TO.N,/ESP_ABR*%
X143929068Y-124677860D03*
%TO.N,/ESP_BC*%
X143250000Y-121200000D03*
%TD*%
D27*
%TO.N,+12V*%
X139250000Y-90450000D02*
X141500000Y-90450000D01*
X143500000Y-88450000D02*
X141500000Y-90450000D01*
X139394601Y-113262803D02*
X150762803Y-113262803D01*
X127999999Y-101868201D02*
X127999999Y-101700001D01*
X150762803Y-113262803D02*
X152850000Y-115350000D01*
X139250000Y-90450000D02*
G75*
G03*
X127999999Y-101700001I0J-11250001D01*
G01*
X139394601Y-113262803D02*
G75*
G02*
X127999999Y-101868201I1J11394603D01*
G01*
D28*
%TO.N,/ABR*%
X122765000Y-96385000D02*
X122750000Y-96370000D01*
X122750000Y-95450000D02*
X123085011Y-95114989D01*
X122750000Y-96370000D02*
X122750000Y-95450000D01*
X121000000Y-121460000D02*
X126080000Y-121460000D01*
X123085011Y-95114989D02*
X123085011Y-86756257D01*
%TO.N,/BBR*%
X122765000Y-97965000D02*
X121720489Y-96920489D01*
X122359055Y-95090945D02*
X122359055Y-86449295D01*
X123250000Y-84672947D02*
X124222947Y-83700000D01*
X122765000Y-102135000D02*
X122765000Y-97965000D01*
X124222947Y-83700000D02*
X124250000Y-83700000D01*
X123250000Y-85558350D02*
X123250000Y-84672947D01*
X121720489Y-96920489D02*
X121720489Y-95729511D01*
X121720489Y-95729511D02*
X122359055Y-95090945D01*
X122359055Y-86449295D02*
X123250000Y-85558350D01*
D29*
%TO.N,+3V3*%
X177750000Y-104370000D02*
X179000000Y-103120000D01*
X163185290Y-123514710D02*
X161548817Y-123514710D01*
X177750000Y-110700000D02*
X177750000Y-104370000D01*
X178225000Y-112660000D02*
X174040000Y-112660000D01*
X178225000Y-112660000D02*
X178225000Y-111175000D01*
X174040000Y-112660000D02*
X163185290Y-123514710D01*
X178225000Y-111175000D02*
X177750000Y-110700000D01*
D28*
%TO.N,/V5*%
X124260489Y-85939511D02*
X124260489Y-99460489D01*
D29*
X124750000Y-73200000D02*
X129500000Y-77950000D01*
D28*
X129500000Y-80700000D02*
X136400000Y-80700000D01*
X136400000Y-80700000D02*
X137500000Y-81800000D01*
X125305000Y-100505000D02*
X125305000Y-104675000D01*
X129500000Y-80700000D02*
X124260489Y-85939511D01*
X124260489Y-99460489D02*
X125305000Y-100505000D01*
D29*
X129500000Y-77950000D02*
X129500000Y-80700000D01*
D28*
%TO.N,/VREF*%
X129325470Y-81624528D02*
X130075472Y-81624528D01*
X124750000Y-86199998D02*
X129325470Y-81624528D01*
X124750000Y-98370000D02*
X124750000Y-86199998D01*
X125305000Y-98925000D02*
X124750000Y-98370000D01*
%TO.N,/ESP_EN*%
X148250000Y-125450000D02*
X143893222Y-125450000D01*
X143893222Y-125450000D02*
X143268409Y-126074813D01*
X148750000Y-124950000D02*
X148250000Y-125450000D01*
X157000000Y-124950000D02*
X148750000Y-124950000D01*
X157974500Y-125174500D02*
X157224500Y-125174500D01*
X157224500Y-125174500D02*
X157000000Y-124950000D01*
D30*
%TO.N,/HV*%
X153722317Y-96050000D02*
X155222317Y-97550000D01*
X155222317Y-97550000D02*
X160500000Y-97550000D01*
D27*
%TO.N,/VSEN*%
X143929052Y-93020948D02*
X145000000Y-91950000D01*
X135014348Y-93020948D02*
X143929052Y-93020948D01*
X145000000Y-91950000D02*
X153722317Y-91950000D01*
D28*
%TO.N,Net-(D2-Pad2)*%
X169250000Y-118950000D02*
X169250000Y-118700000D01*
X169250000Y-118700000D02*
X170250000Y-117700000D01*
X168500000Y-120700000D02*
X169250000Y-119950000D01*
X168500000Y-121700000D02*
X168500000Y-120700000D01*
X169250000Y-119950000D02*
X169250000Y-118950000D01*
%TO.N,/GPIO5*%
X179947765Y-121002235D02*
X180770325Y-121002235D01*
X164830500Y-128950000D02*
X168580500Y-125200000D01*
X164830500Y-128950000D02*
X160131414Y-128950000D01*
X130605789Y-128464705D02*
X152183291Y-128464705D01*
X175750000Y-125200000D02*
X179947765Y-121002235D01*
X168580500Y-125200000D02*
X175750000Y-125200000D01*
X160131414Y-128950000D02*
X156400000Y-132681414D01*
X152183291Y-128464705D02*
X156400000Y-132681414D01*
%TO.N,/GPIO3*%
X140150000Y-122950000D02*
X139400000Y-122200000D01*
X177250000Y-102330000D02*
X177250000Y-108450000D01*
X179000000Y-100580000D02*
X177250000Y-102330000D01*
X163250000Y-122450000D02*
X161250000Y-122450000D01*
X177250000Y-108450000D02*
X163250000Y-122450000D01*
X160750000Y-122950000D02*
X140150000Y-122950000D01*
X161250000Y-122450000D02*
X160750000Y-122950000D01*
%TO.N,/GPIO1*%
X162973371Y-121976629D02*
X176750000Y-108200000D01*
X176750000Y-100290000D02*
X179000000Y-98040000D01*
X176750000Y-108200000D02*
X176750000Y-100290000D01*
X160500000Y-122450000D02*
X160973371Y-121976629D01*
X141066656Y-122200000D02*
X141316656Y-122450000D01*
X141066656Y-122200000D02*
X140500000Y-122200000D01*
X141316656Y-122450000D02*
X160500000Y-122450000D01*
X160973371Y-121976629D02*
X162973371Y-121976629D01*
%TO.N,/GPIO4*%
X176250000Y-107950000D02*
X176250000Y-99950000D01*
X138250000Y-121450000D02*
X141000000Y-121450000D01*
X160250000Y-121950000D02*
X160750000Y-121450000D01*
X133096166Y-116296166D02*
X138250000Y-121450000D01*
X162750000Y-121450000D02*
X176250000Y-107950000D01*
X177750000Y-98450000D02*
X177750000Y-91670000D01*
X141000000Y-121450000D02*
X141500000Y-121950000D01*
X128421810Y-116740696D02*
X128866340Y-116296166D01*
X128421810Y-117787000D02*
X128421810Y-116740696D01*
X176250000Y-99950000D02*
X177750000Y-98450000D01*
X160750000Y-121450000D02*
X162750000Y-121450000D01*
X141500000Y-121950000D02*
X160250000Y-121950000D01*
X129706733Y-119071923D02*
X128421810Y-117787000D01*
X177750000Y-91670000D02*
X179000000Y-90420000D01*
X128866340Y-116296166D02*
X133096166Y-116296166D01*
%TO.N,/GPIO2*%
X133000000Y-118294502D02*
X133594502Y-118294502D01*
X162750000Y-127700000D02*
X162750000Y-128061414D01*
X163180263Y-128491677D02*
X164258323Y-128491677D01*
X168000000Y-124750000D02*
X175274320Y-124750000D01*
X139250000Y-123950000D02*
X145500000Y-123950000D01*
X145500000Y-123950000D02*
X146500000Y-124950000D01*
X164258323Y-128491677D02*
X165000000Y-127750000D01*
X146500000Y-124950000D02*
X148000000Y-124950000D01*
X165000000Y-127750000D02*
X168000000Y-124750000D01*
X180624022Y-119400298D02*
X175274320Y-124750000D01*
X162750000Y-128061414D02*
X163180263Y-128491677D01*
X133594502Y-118294502D02*
X139250000Y-123950000D01*
X179000000Y-87880000D02*
X181000000Y-85880000D01*
X181000000Y-85880000D02*
X181000000Y-66420000D01*
X181000000Y-66420000D02*
X178975000Y-64395000D01*
X179000000Y-87880000D02*
X180624022Y-89504022D01*
X148500000Y-124450000D02*
X159500000Y-124450000D01*
X148000000Y-124950000D02*
X148500000Y-124450000D01*
X180624022Y-89504022D02*
X180624022Y-119400298D01*
X159500000Y-124450000D02*
X162750000Y-127700000D01*
%TO.N,/GPIO0*%
X147750000Y-124450000D02*
X146750000Y-124450000D01*
X180524511Y-83815489D02*
X180524511Y-71024511D01*
X148250000Y-123950000D02*
X147750000Y-124450000D01*
X174500139Y-123999861D02*
X174999861Y-123999861D01*
X163500000Y-127750000D02*
X164250000Y-127000000D01*
X165000000Y-127000000D02*
X167750000Y-124250000D01*
X179393059Y-89152049D02*
X180174511Y-89933501D01*
X163500000Y-127750000D02*
X159700000Y-123950000D01*
X178611039Y-89152049D02*
X179393059Y-89152049D01*
X146750000Y-124450000D02*
X145750000Y-123450000D01*
X180174511Y-89933501D02*
X180174511Y-118825211D01*
X145750000Y-123450000D02*
X139500000Y-123450000D01*
X164250000Y-127000000D02*
X165000000Y-127000000D01*
X177825489Y-86514511D02*
X177825489Y-88366499D01*
X159700000Y-123950000D02*
X148250000Y-123950000D01*
X167750000Y-124250000D02*
X174250000Y-124250000D01*
X180174511Y-118825211D02*
X174999861Y-123999861D01*
X174250000Y-124250000D02*
X174500139Y-123999861D01*
X179000000Y-85340000D02*
X180524511Y-83815489D01*
X133086343Y-117036343D02*
X129158288Y-117036343D01*
X179000000Y-85340000D02*
X177825489Y-86514511D01*
X180524511Y-71024511D02*
X178975000Y-69475000D01*
X139500000Y-123450000D02*
X133086343Y-117036343D01*
X177825489Y-88366499D02*
X178611039Y-89152049D01*
%TO.N,/BC*%
X119371265Y-114751265D02*
X119371265Y-107078735D01*
X119371265Y-107078735D02*
X123809511Y-102640489D01*
X121000000Y-116380000D02*
X126080000Y-116380000D01*
X123809511Y-85140489D02*
X124250000Y-84700000D01*
X121000000Y-116380000D02*
X119371265Y-114751265D01*
X123809511Y-102640489D02*
X123809511Y-85140489D01*
%TO.N,/TPS_EN*%
X122250000Y-112590000D02*
X122250000Y-110700000D01*
X145000000Y-120950000D02*
X154000000Y-120950000D01*
X154250000Y-120700000D02*
X154750000Y-120700000D01*
X131549876Y-88999876D02*
X130426138Y-88999876D01*
X154000000Y-120950000D02*
X154250000Y-120700000D01*
X126812132Y-95216745D02*
X132000000Y-90028877D01*
X133750000Y-114700000D02*
X121860000Y-114700000D01*
X122250000Y-110700000D02*
X126812132Y-106137868D01*
X138750000Y-119700000D02*
X133750000Y-114700000D01*
X121860000Y-114700000D02*
X121000000Y-113840000D01*
X132000000Y-90028877D02*
X132000000Y-89450000D01*
X143750000Y-119700000D02*
X145000000Y-120950000D01*
X143750000Y-119700000D02*
X138750000Y-119700000D01*
X121000000Y-113840000D02*
X122250000Y-112590000D01*
X126812132Y-106137868D02*
X126812132Y-95216745D01*
X132000000Y-89450000D02*
X131549876Y-88999876D01*
%TO.N,/FAULT*%
X121000000Y-111300000D02*
X126349511Y-105950489D01*
X157375212Y-133410134D02*
X158100000Y-132685346D01*
X160750000Y-120700000D02*
X160000000Y-121450000D01*
X143900498Y-129200000D02*
X151881894Y-129200000D01*
X156092028Y-133410134D02*
X157375212Y-133410134D01*
X144750000Y-121450000D02*
X143750000Y-120450000D01*
X143750000Y-120450000D02*
X142500000Y-120450000D01*
X126349511Y-94649989D02*
X131250000Y-89749500D01*
X161750000Y-120700000D02*
X160750000Y-120700000D01*
X144750000Y-121450000D02*
X160000000Y-121450000D01*
X133500000Y-115200000D02*
X120698990Y-115200000D01*
X138750000Y-120450000D02*
X133500000Y-115200000D01*
X120698990Y-115200000D02*
X119823820Y-114324830D01*
X142500000Y-120450000D02*
X138750000Y-120450000D01*
X119823820Y-112476180D02*
X121000000Y-111300000D01*
X126349511Y-105950489D02*
X126349511Y-94649989D01*
X151881894Y-129200000D02*
X156092028Y-133410134D01*
X119823820Y-114324830D02*
X119823820Y-112476180D01*
D27*
%TO.N,/OCP*%
X126461878Y-87238122D02*
X129250000Y-84450000D01*
X126461878Y-89872168D02*
X126461878Y-87238122D01*
X136250000Y-84450000D02*
X140750000Y-88950000D01*
X129250000Y-84450000D02*
X136250000Y-84450000D01*
D28*
%TO.N,/GPI35*%
X175000000Y-123200000D02*
X178225000Y-119975000D01*
X174500000Y-123200000D02*
X175000000Y-123200000D01*
X147772239Y-123677761D02*
X148000000Y-123450000D01*
X164750000Y-126450000D02*
X167500000Y-123700000D01*
X148000000Y-123450000D02*
X160000000Y-123450000D01*
X178225000Y-119975000D02*
X178225000Y-117740000D01*
X163000000Y-126450000D02*
X164750000Y-126450000D01*
X147099502Y-123677761D02*
X147772239Y-123677761D01*
X174000000Y-123700000D02*
X174500000Y-123200000D01*
X167500000Y-123700000D02*
X174000000Y-123700000D01*
X160000000Y-123450000D02*
X163000000Y-126450000D01*
%TO.N,/ESP_ABR*%
X136010000Y-121460000D02*
X127380000Y-121460000D01*
X139000000Y-124450000D02*
X136010000Y-121460000D01*
X143929068Y-124677860D02*
X143227860Y-124677860D01*
X143227860Y-124677860D02*
X143000000Y-124450000D01*
X143000000Y-124450000D02*
X139000000Y-124450000D01*
%TO.N,/ESP_BC*%
X141500000Y-121200000D02*
X141250000Y-120950000D01*
X141250000Y-120950000D02*
X138500000Y-120950000D01*
X143250000Y-121200000D02*
X141500000Y-121200000D01*
X138500000Y-120950000D02*
X133250000Y-115700000D01*
X128060000Y-115700000D02*
X127380000Y-116380000D01*
X133250000Y-115700000D02*
X128060000Y-115700000D01*
%TD*%
%TA.AperFunction,Conductor*%
%TO.N,GND*%
G36*
X159652177Y-54791358D02*
G01*
X159695820Y-54795597D01*
X159826038Y-54808246D01*
X159836456Y-54810739D01*
X159836617Y-54809839D01*
X159844191Y-54811197D01*
X159849237Y-54812547D01*
X159850729Y-54812771D01*
X159860399Y-54816565D01*
X159864150Y-54816494D01*
X159867685Y-54817766D01*
X159878075Y-54817274D01*
X159878076Y-54817274D01*
X159878579Y-54817250D01*
X159904720Y-54818735D01*
X161404193Y-55062015D01*
X161407134Y-55062528D01*
X162935121Y-55347742D01*
X162938049Y-55348325D01*
X164458825Y-55669654D01*
X164461701Y-55670297D01*
X165974514Y-56027582D01*
X165977342Y-56028286D01*
X166473163Y-56157861D01*
X167481230Y-56421303D01*
X167484086Y-56422086D01*
X167541609Y-56438584D01*
X168978212Y-56850615D01*
X168981072Y-56851472D01*
X170464598Y-57315269D01*
X170467437Y-57316193D01*
X171939623Y-57815028D01*
X171942439Y-57816020D01*
X173402345Y-58349577D01*
X173405136Y-58350635D01*
X174851992Y-58918629D01*
X174854758Y-58919753D01*
X176287758Y-59521869D01*
X176290496Y-59523058D01*
X176672415Y-59694288D01*
X177708812Y-60158947D01*
X177711486Y-60160184D01*
X179114429Y-60829540D01*
X179117024Y-60830815D01*
X180349371Y-61455040D01*
X180503714Y-61533220D01*
X180506361Y-61534601D01*
X181679583Y-62164240D01*
X181730147Y-62214077D01*
X181746000Y-62275262D01*
X181746000Y-132914348D01*
X181743568Y-132938986D01*
X181741024Y-132951745D01*
X181743439Y-132963916D01*
X181743433Y-132976325D01*
X181742789Y-132976325D01*
X181743457Y-132987069D01*
X181742820Y-132995917D01*
X181728769Y-133191100D01*
X181726202Y-133208894D01*
X181697391Y-133341041D01*
X181677003Y-133434551D01*
X181671930Y-133451798D01*
X181591115Y-133668162D01*
X181583639Y-133684511D01*
X181472856Y-133887169D01*
X181463138Y-133902277D01*
X181390362Y-133999399D01*
X181324637Y-134087112D01*
X181312858Y-134100693D01*
X181149466Y-134263932D01*
X181135874Y-134275698D01*
X181002158Y-134375700D01*
X180951711Y-134413428D01*
X180950923Y-134414017D01*
X180935797Y-134423728D01*
X180834410Y-134479029D01*
X180733026Y-134534327D01*
X180716669Y-134541787D01*
X180500240Y-134622396D01*
X180482991Y-134627453D01*
X180257278Y-134676443D01*
X180239489Y-134678992D01*
X180035440Y-134693490D01*
X180024699Y-134692811D01*
X180024699Y-134693456D01*
X180012293Y-134693451D01*
X180000121Y-134691024D01*
X179987181Y-134693592D01*
X179962665Y-134696000D01*
X120037425Y-134696000D01*
X120012847Y-134693579D01*
X120000000Y-134691024D01*
X119987829Y-134693445D01*
X119975419Y-134693445D01*
X119975419Y-134692802D01*
X119964674Y-134693473D01*
X119760509Y-134678871D01*
X119742715Y-134676313D01*
X119699540Y-134666921D01*
X119516900Y-134627190D01*
X119499652Y-134622126D01*
X119283119Y-134541363D01*
X119266775Y-134533898D01*
X119063946Y-134423145D01*
X119048827Y-134413428D01*
X118863824Y-134274936D01*
X118850238Y-134263163D01*
X118686836Y-134099761D01*
X118675063Y-134086175D01*
X118536573Y-133901174D01*
X118526854Y-133886051D01*
X118428811Y-133706499D01*
X118416100Y-133683221D01*
X118408635Y-133666876D01*
X118327875Y-133450349D01*
X118322810Y-133433100D01*
X118273687Y-133207283D01*
X118271129Y-133189489D01*
X118256527Y-132985324D01*
X118257198Y-132974579D01*
X118256555Y-132974579D01*
X118256555Y-132962169D01*
X118258976Y-132949998D01*
X118256421Y-132937151D01*
X118254000Y-132912573D01*
X118254000Y-124868828D01*
X119896001Y-124868828D01*
X119897209Y-124881088D01*
X119908315Y-124936931D01*
X119917633Y-124959427D01*
X119959983Y-125022808D01*
X119977192Y-125040017D01*
X120040575Y-125082368D01*
X120063066Y-125091684D01*
X120118915Y-125102793D01*
X120131170Y-125104000D01*
X120727885Y-125104000D01*
X120743124Y-125099525D01*
X120744329Y-125098135D01*
X120746000Y-125090452D01*
X120746000Y-125085884D01*
X121254000Y-125085884D01*
X121258475Y-125101123D01*
X121259865Y-125102328D01*
X121267548Y-125103999D01*
X121868828Y-125103999D01*
X121881088Y-125102791D01*
X121936931Y-125091685D01*
X121959427Y-125082367D01*
X122022808Y-125040017D01*
X122040017Y-125022808D01*
X122082368Y-124959425D01*
X122091684Y-124936934D01*
X122102793Y-124881085D01*
X122104000Y-124868830D01*
X122104000Y-124272115D01*
X122099525Y-124256876D01*
X122098135Y-124255671D01*
X122090452Y-124254000D01*
X121272115Y-124254000D01*
X121256876Y-124258475D01*
X121255671Y-124259865D01*
X121254000Y-124267548D01*
X121254000Y-125085884D01*
X120746000Y-125085884D01*
X120746000Y-124272115D01*
X120741525Y-124256876D01*
X120740135Y-124255671D01*
X120732452Y-124254000D01*
X119914116Y-124254000D01*
X119898877Y-124258475D01*
X119897672Y-124259865D01*
X119896001Y-124267548D01*
X119896001Y-124868828D01*
X118254000Y-124868828D01*
X118254000Y-123727885D01*
X119896000Y-123727885D01*
X119900475Y-123743124D01*
X119901865Y-123744329D01*
X119909548Y-123746000D01*
X120727885Y-123746000D01*
X120743124Y-123741525D01*
X120744329Y-123740135D01*
X120746000Y-123732452D01*
X120746000Y-123727885D01*
X121254000Y-123727885D01*
X121258475Y-123743124D01*
X121259865Y-123744329D01*
X121267548Y-123746000D01*
X122085884Y-123746000D01*
X122101123Y-123741525D01*
X122102328Y-123740135D01*
X122103999Y-123732452D01*
X122103999Y-123131172D01*
X122102791Y-123118912D01*
X122091685Y-123063069D01*
X122082367Y-123040573D01*
X122040017Y-122977192D01*
X122022808Y-122959983D01*
X121959425Y-122917632D01*
X121936934Y-122908316D01*
X121881085Y-122897207D01*
X121868830Y-122896000D01*
X121272115Y-122896000D01*
X121256876Y-122900475D01*
X121255671Y-122901865D01*
X121254000Y-122909548D01*
X121254000Y-123727885D01*
X120746000Y-123727885D01*
X120746000Y-122914116D01*
X120741525Y-122898877D01*
X120740135Y-122897672D01*
X120732452Y-122896001D01*
X120131172Y-122896001D01*
X120118912Y-122897209D01*
X120063069Y-122908315D01*
X120040573Y-122917633D01*
X119977192Y-122959983D01*
X119959983Y-122977192D01*
X119917632Y-123040575D01*
X119908316Y-123063066D01*
X119897207Y-123118915D01*
X119896000Y-123131170D01*
X119896000Y-123727885D01*
X118254000Y-123727885D01*
X118254000Y-118890964D01*
X119891148Y-118890964D01*
X119896207Y-118968158D01*
X119903556Y-119080271D01*
X119904424Y-119093522D01*
X119905845Y-119099118D01*
X119905846Y-119099123D01*
X119938986Y-119229609D01*
X119954392Y-119290269D01*
X119956809Y-119295512D01*
X119991721Y-119371242D01*
X120039377Y-119474616D01*
X120042710Y-119479332D01*
X120149083Y-119629847D01*
X120156533Y-119640389D01*
X120301938Y-119782035D01*
X120470720Y-119894812D01*
X120476023Y-119897090D01*
X120476026Y-119897092D01*
X120564707Y-119935192D01*
X120657228Y-119974942D01*
X120730244Y-119991464D01*
X120849579Y-120018467D01*
X120849584Y-120018468D01*
X120855216Y-120019742D01*
X120860987Y-120019969D01*
X120860989Y-120019969D01*
X120920756Y-120022317D01*
X121058053Y-120027712D01*
X121176183Y-120010584D01*
X121253231Y-119999413D01*
X121253236Y-119999412D01*
X121258945Y-119998584D01*
X121264409Y-119996729D01*
X121264414Y-119996728D01*
X121445693Y-119935192D01*
X121445698Y-119935190D01*
X121451165Y-119933334D01*
X121628276Y-119834147D01*
X121690934Y-119782035D01*
X121779913Y-119708031D01*
X121784345Y-119704345D01*
X121849582Y-119625907D01*
X121910453Y-119552718D01*
X121910455Y-119552715D01*
X121914147Y-119548276D01*
X121999582Y-119395721D01*
X122010510Y-119376208D01*
X122010511Y-119376206D01*
X122013334Y-119371165D01*
X122015190Y-119365698D01*
X122015192Y-119365693D01*
X122076728Y-119184414D01*
X122076729Y-119184409D01*
X122078584Y-119178945D01*
X122079412Y-119173236D01*
X122079413Y-119173231D01*
X122101557Y-119020500D01*
X122107712Y-118978053D01*
X122109232Y-118920000D01*
X122094550Y-118760211D01*
X122091187Y-118723613D01*
X122091186Y-118723610D01*
X122090658Y-118717859D01*
X122085897Y-118700978D01*
X122037125Y-118528046D01*
X122037124Y-118528044D01*
X122035557Y-118522487D01*
X122024978Y-118501033D01*
X121948331Y-118345609D01*
X121945776Y-118340428D01*
X121824320Y-118177779D01*
X121675258Y-118039987D01*
X121670375Y-118036906D01*
X121670371Y-118036903D01*
X121508464Y-117934748D01*
X121503581Y-117931667D01*
X121315039Y-117856446D01*
X121309379Y-117855320D01*
X121309375Y-117855319D01*
X121121613Y-117817971D01*
X121121610Y-117817971D01*
X121115946Y-117816844D01*
X121110171Y-117816768D01*
X121110167Y-117816768D01*
X121008793Y-117815441D01*
X120912971Y-117814187D01*
X120907274Y-117815166D01*
X120907273Y-117815166D01*
X120776920Y-117837565D01*
X120712910Y-117848564D01*
X120522463Y-117918824D01*
X120348010Y-118022612D01*
X120343670Y-118026418D01*
X120343666Y-118026421D01*
X120214047Y-118140095D01*
X120195392Y-118156455D01*
X120069720Y-118315869D01*
X120067031Y-118320980D01*
X120067029Y-118320983D01*
X120048829Y-118355576D01*
X119975203Y-118495515D01*
X119915007Y-118689378D01*
X119891148Y-118890964D01*
X118254000Y-118890964D01*
X118254000Y-114733141D01*
X118986945Y-114733141D01*
X118988169Y-114743482D01*
X118990892Y-114766488D01*
X118991242Y-114772419D01*
X118991337Y-114772411D01*
X118991765Y-114777589D01*
X118991765Y-114782789D01*
X118992619Y-114787918D01*
X118992619Y-114787921D01*
X118994934Y-114801830D01*
X118995771Y-114807708D01*
X118998553Y-114831210D01*
X119001795Y-114858606D01*
X119005758Y-114866858D01*
X119007261Y-114875891D01*
X119012208Y-114885060D01*
X119012209Y-114885062D01*
X119031599Y-114920997D01*
X119034296Y-114926290D01*
X119053050Y-114965347D01*
X119053053Y-114965351D01*
X119056484Y-114972497D01*
X119060079Y-114976773D01*
X119062002Y-114978696D01*
X119063774Y-114980628D01*
X119063817Y-114980707D01*
X119063693Y-114980820D01*
X119064169Y-114981360D01*
X119067255Y-114987079D01*
X119074900Y-114994146D01*
X119106851Y-115023681D01*
X119110417Y-115027111D01*
X119936477Y-115853171D01*
X119970503Y-115915483D01*
X119967715Y-115979630D01*
X119961514Y-115999602D01*
X119915007Y-116149378D01*
X119891148Y-116350964D01*
X119904424Y-116553522D01*
X119905845Y-116559118D01*
X119905846Y-116559123D01*
X119947790Y-116724275D01*
X119954392Y-116750269D01*
X119956809Y-116755512D01*
X119991803Y-116831419D01*
X120039377Y-116934616D01*
X120042710Y-116939332D01*
X120145293Y-117084484D01*
X120156533Y-117100389D01*
X120301938Y-117242035D01*
X120306742Y-117245245D01*
X120334799Y-117263992D01*
X120470720Y-117354812D01*
X120476023Y-117357090D01*
X120476026Y-117357092D01*
X120633317Y-117424669D01*
X120657228Y-117434942D01*
X120730244Y-117451464D01*
X120849579Y-117478467D01*
X120849584Y-117478468D01*
X120855216Y-117479742D01*
X120860987Y-117479969D01*
X120860989Y-117479969D01*
X120920756Y-117482317D01*
X121058053Y-117487712D01*
X121158499Y-117473148D01*
X121253231Y-117459413D01*
X121253236Y-117459412D01*
X121258945Y-117458584D01*
X121264409Y-117456729D01*
X121264414Y-117456728D01*
X121445693Y-117395192D01*
X121445698Y-117395190D01*
X121451165Y-117393334D01*
X121457210Y-117389949D01*
X121549369Y-117338337D01*
X121628276Y-117294147D01*
X121664534Y-117263992D01*
X121779913Y-117168031D01*
X121784345Y-117164345D01*
X121841463Y-117095669D01*
X121910453Y-117012718D01*
X121910455Y-117012715D01*
X121914147Y-117008276D01*
X122013334Y-116831165D01*
X122013787Y-116831419D01*
X122057368Y-116780151D01*
X122126488Y-116759500D01*
X125229518Y-116759500D01*
X125297639Y-116779502D01*
X125344132Y-116833158D01*
X125350454Y-116850138D01*
X125355491Y-116867361D01*
X125358946Y-116879178D01*
X125418226Y-117009557D01*
X125457864Y-117071538D01*
X125551354Y-117180039D01*
X125606796Y-117228404D01*
X125610557Y-117230842D01*
X125610560Y-117230844D01*
X125671358Y-117270251D01*
X125726981Y-117306304D01*
X125793769Y-117337164D01*
X125851189Y-117354336D01*
X125926689Y-117376915D01*
X125926694Y-117376916D01*
X125930987Y-117378200D01*
X125935419Y-117378862D01*
X125935422Y-117378863D01*
X125999319Y-117388412D01*
X125999322Y-117388412D01*
X126003750Y-117389074D01*
X126073655Y-117389501D01*
X126142491Y-117389922D01*
X126142496Y-117389922D01*
X126146971Y-117389949D01*
X126149440Y-117389611D01*
X126153282Y-117389486D01*
X126580000Y-117389486D01*
X126679301Y-117369734D01*
X126685331Y-117365705D01*
X126752373Y-117358497D01*
X126772905Y-117364527D01*
X126780699Y-117369734D01*
X126880000Y-117389486D01*
X127370743Y-117389486D01*
X127371513Y-117389488D01*
X127442485Y-117389922D01*
X127442491Y-117389922D01*
X127446971Y-117389949D01*
X127451414Y-117389340D01*
X127451420Y-117389340D01*
X127482016Y-117385148D01*
X127519862Y-117379964D01*
X127524169Y-117378733D01*
X127524174Y-117378732D01*
X127653260Y-117341839D01*
X127653259Y-117341839D01*
X127657571Y-117340607D01*
X127662394Y-117338450D01*
X127720639Y-117312396D01*
X127720640Y-117312396D01*
X127724730Y-117310566D01*
X127845858Y-117234140D01*
X127846454Y-117235084D01*
X127908411Y-117212585D01*
X127977651Y-117228277D01*
X128027417Y-117278912D01*
X128042310Y-117338337D01*
X128042310Y-117733080D01*
X128039761Y-117757028D01*
X128039682Y-117758693D01*
X128037490Y-117768876D01*
X128038714Y-117779217D01*
X128041437Y-117802223D01*
X128041787Y-117808154D01*
X128041882Y-117808146D01*
X128042310Y-117813324D01*
X128042310Y-117818524D01*
X128043164Y-117823653D01*
X128043164Y-117823656D01*
X128045479Y-117837565D01*
X128046316Y-117843443D01*
X128052340Y-117894341D01*
X128056303Y-117902593D01*
X128057806Y-117911626D01*
X128062753Y-117920795D01*
X128062754Y-117920797D01*
X128082144Y-117956732D01*
X128084841Y-117962025D01*
X128103595Y-118001082D01*
X128103598Y-118001086D01*
X128107029Y-118008232D01*
X128110624Y-118012508D01*
X128112547Y-118014431D01*
X128114319Y-118016363D01*
X128114362Y-118016442D01*
X128114238Y-118016555D01*
X128114714Y-118017095D01*
X128117800Y-118022814D01*
X128125445Y-118029881D01*
X128157396Y-118059416D01*
X128160962Y-118062846D01*
X129016982Y-118918866D01*
X129051008Y-118981178D01*
X129052809Y-119024405D01*
X129047462Y-119065019D01*
X129064846Y-119222476D01*
X129067456Y-119229607D01*
X129067456Y-119229609D01*
X129097308Y-119311183D01*
X129119286Y-119371242D01*
X129123522Y-119377545D01*
X129123522Y-119377546D01*
X129191920Y-119479332D01*
X129207641Y-119502728D01*
X129213260Y-119507841D01*
X129213261Y-119507842D01*
X129274239Y-119563327D01*
X129324809Y-119609342D01*
X129464026Y-119684931D01*
X129617255Y-119725130D01*
X129701210Y-119726449D01*
X129768052Y-119727499D01*
X129768055Y-119727499D01*
X129775649Y-119727618D01*
X129930065Y-119692252D01*
X130021324Y-119646354D01*
X130064805Y-119624486D01*
X130064808Y-119624484D01*
X130071588Y-119621074D01*
X130077359Y-119616145D01*
X130077362Y-119616143D01*
X130186269Y-119523127D01*
X130186269Y-119523126D01*
X130192047Y-119518192D01*
X130284488Y-119389547D01*
X130343575Y-119242564D01*
X130354804Y-119163664D01*
X130365314Y-119089814D01*
X130365314Y-119089811D01*
X130365895Y-119085730D01*
X130366040Y-119071923D01*
X130364294Y-119057490D01*
X130352835Y-118962803D01*
X130347009Y-118914656D01*
X130291013Y-118766469D01*
X130250900Y-118708104D01*
X130205588Y-118642174D01*
X130205587Y-118642172D01*
X130201286Y-118635915D01*
X130083008Y-118530534D01*
X129943007Y-118456407D01*
X129789366Y-118417815D01*
X129781767Y-118417775D01*
X129781766Y-118417775D01*
X129721359Y-118417459D01*
X129640068Y-118417033D01*
X129572054Y-118396675D01*
X129551634Y-118380130D01*
X129077703Y-117906199D01*
X129043677Y-117843887D01*
X129048742Y-117773072D01*
X129091289Y-117716236D01*
X129157809Y-117691425D01*
X129168771Y-117691120D01*
X129190554Y-117691462D01*
X129219607Y-117691919D01*
X129219610Y-117691919D01*
X129227204Y-117692038D01*
X129381620Y-117656672D01*
X129452030Y-117621260D01*
X129516360Y-117588906D01*
X129516363Y-117588904D01*
X129523143Y-117585494D01*
X129528914Y-117580565D01*
X129528917Y-117580563D01*
X129637830Y-117487542D01*
X129637831Y-117487541D01*
X129643602Y-117482612D01*
X129653874Y-117468317D01*
X129709869Y-117424669D01*
X129756197Y-117415843D01*
X132791516Y-117415843D01*
X132859637Y-117435845D01*
X132906130Y-117489501D01*
X132916234Y-117559775D01*
X132886740Y-117624355D01*
X132820930Y-117664362D01*
X132777563Y-117674773D01*
X132777560Y-117674774D01*
X132770184Y-117676545D01*
X132629414Y-117749202D01*
X132510039Y-117853340D01*
X132418950Y-117982946D01*
X132361406Y-118130539D01*
X132360414Y-118138072D01*
X132360414Y-118138073D01*
X132345791Y-118249151D01*
X132340729Y-118287598D01*
X132343966Y-118316916D01*
X132356910Y-118434156D01*
X132358113Y-118445055D01*
X132360723Y-118452186D01*
X132360723Y-118452188D01*
X132408521Y-118582802D01*
X132412553Y-118593821D01*
X132416789Y-118600124D01*
X132416789Y-118600125D01*
X132484560Y-118700978D01*
X132500908Y-118725307D01*
X132506527Y-118730420D01*
X132506528Y-118730421D01*
X132612460Y-118826811D01*
X132618076Y-118831921D01*
X132757293Y-118907510D01*
X132910522Y-118947709D01*
X132994477Y-118949028D01*
X133061319Y-118950078D01*
X133061322Y-118950078D01*
X133068916Y-118950197D01*
X133223332Y-118914831D01*
X133293742Y-118879419D01*
X133358072Y-118847065D01*
X133358075Y-118847063D01*
X133364855Y-118843653D01*
X133406868Y-118807771D01*
X133471657Y-118778740D01*
X133541857Y-118789345D01*
X133577793Y-118814487D01*
X135628711Y-120865405D01*
X135662737Y-120927717D01*
X135657672Y-120998532D01*
X135615125Y-121055368D01*
X135548605Y-121080179D01*
X135539616Y-121080500D01*
X128230633Y-121080500D01*
X128162512Y-121060498D01*
X128116019Y-121006842D01*
X128109277Y-120988392D01*
X128104044Y-120969649D01*
X128051983Y-120851332D01*
X128048164Y-120842653D01*
X128048162Y-120842650D01*
X128046361Y-120838556D01*
X128029004Y-120810670D01*
X128009848Y-120779894D01*
X128009844Y-120779888D01*
X128007484Y-120776097D01*
X128004608Y-120772676D01*
X128004604Y-120772670D01*
X127918212Y-120669894D01*
X127918211Y-120669893D01*
X127915327Y-120666462D01*
X127891154Y-120644849D01*
X127863827Y-120620415D01*
X127863822Y-120620411D01*
X127860480Y-120617423D01*
X127856747Y-120614938D01*
X127856743Y-120614935D01*
X127744983Y-120540541D01*
X127744977Y-120540538D01*
X127741255Y-120538060D01*
X127674850Y-120506386D01*
X127670575Y-120505051D01*
X127670569Y-120505048D01*
X127542431Y-120465015D01*
X127542426Y-120465014D01*
X127538144Y-120463676D01*
X127465519Y-120451914D01*
X127338456Y-120449585D01*
X127326794Y-120449371D01*
X127322320Y-120449289D01*
X127317878Y-120449842D01*
X127313398Y-120450079D01*
X127313392Y-120449973D01*
X127304668Y-120450514D01*
X126880000Y-120450514D01*
X126780699Y-120470266D01*
X126774669Y-120474295D01*
X126707627Y-120481503D01*
X126687095Y-120475473D01*
X126679301Y-120470266D01*
X126580000Y-120450514D01*
X126090309Y-120450514D01*
X126088000Y-120450493D01*
X126026793Y-120449371D01*
X126022320Y-120449289D01*
X125949310Y-120458383D01*
X125811130Y-120496056D01*
X125787258Y-120506386D01*
X125747734Y-120523489D01*
X125747729Y-120523491D01*
X125743610Y-120525274D01*
X125621558Y-120600214D01*
X125564952Y-120647209D01*
X125561953Y-120650522D01*
X125561949Y-120650526D01*
X125500973Y-120717891D01*
X125468838Y-120753393D01*
X125466331Y-120757109D01*
X125466330Y-120757111D01*
X125455836Y-120772670D01*
X125427696Y-120814389D01*
X125425740Y-120818426D01*
X125425739Y-120818428D01*
X125417828Y-120834757D01*
X125365249Y-120943281D01*
X125363884Y-120947559D01*
X125349443Y-120992808D01*
X125309677Y-121051623D01*
X125244426Y-121079602D01*
X125229408Y-121080500D01*
X122122792Y-121080500D01*
X122054671Y-121060498D01*
X122009786Y-121010228D01*
X121948331Y-120885609D01*
X121945776Y-120880428D01*
X121824320Y-120717779D01*
X121697139Y-120600214D01*
X121679503Y-120583911D01*
X121675258Y-120579987D01*
X121670375Y-120576906D01*
X121670371Y-120576903D01*
X121508464Y-120474748D01*
X121503581Y-120471667D01*
X121315039Y-120396446D01*
X121309379Y-120395320D01*
X121309375Y-120395319D01*
X121121613Y-120357971D01*
X121121610Y-120357971D01*
X121115946Y-120356844D01*
X121110171Y-120356768D01*
X121110167Y-120356768D01*
X121008793Y-120355441D01*
X120912971Y-120354187D01*
X120907274Y-120355166D01*
X120907273Y-120355166D01*
X120723647Y-120386719D01*
X120712910Y-120388564D01*
X120522463Y-120458824D01*
X120348010Y-120562612D01*
X120343670Y-120566418D01*
X120343666Y-120566421D01*
X120232999Y-120663474D01*
X120195392Y-120696455D01*
X120069720Y-120855869D01*
X120067031Y-120860980D01*
X120067029Y-120860983D01*
X120054073Y-120885609D01*
X119975203Y-121035515D01*
X119915007Y-121229378D01*
X119891148Y-121430964D01*
X119898968Y-121550273D01*
X119902989Y-121611620D01*
X119904424Y-121633522D01*
X119905845Y-121639118D01*
X119905846Y-121639123D01*
X119922357Y-121704134D01*
X119954392Y-121830269D01*
X119956809Y-121835512D01*
X119991803Y-121911419D01*
X120039377Y-122014616D01*
X120042710Y-122019332D01*
X120138543Y-122154933D01*
X120156533Y-122180389D01*
X120301938Y-122322035D01*
X120470720Y-122434812D01*
X120476023Y-122437090D01*
X120476026Y-122437092D01*
X120564707Y-122475192D01*
X120657228Y-122514942D01*
X120730244Y-122531464D01*
X120849579Y-122558467D01*
X120849584Y-122558468D01*
X120855216Y-122559742D01*
X120860987Y-122559969D01*
X120860989Y-122559969D01*
X120920756Y-122562317D01*
X121058053Y-122567712D01*
X121158499Y-122553148D01*
X121253231Y-122539413D01*
X121253236Y-122539412D01*
X121258945Y-122538584D01*
X121264409Y-122536729D01*
X121264414Y-122536728D01*
X121445693Y-122475192D01*
X121445698Y-122475190D01*
X121451165Y-122473334D01*
X121457210Y-122469949D01*
X121549167Y-122418450D01*
X121628276Y-122374147D01*
X121652502Y-122353999D01*
X121757761Y-122266455D01*
X121784345Y-122244345D01*
X121864673Y-122147762D01*
X121910453Y-122092718D01*
X121910455Y-122092715D01*
X121914147Y-122088276D01*
X122013334Y-121911165D01*
X122013787Y-121911419D01*
X122057368Y-121860151D01*
X122126488Y-121839500D01*
X125229518Y-121839500D01*
X125297639Y-121859502D01*
X125344132Y-121913158D01*
X125350454Y-121930138D01*
X125358946Y-121959178D01*
X125418226Y-122089557D01*
X125457864Y-122151538D01*
X125551354Y-122260039D01*
X125606796Y-122308404D01*
X125610557Y-122310842D01*
X125610560Y-122310844D01*
X125676102Y-122353326D01*
X125726981Y-122386304D01*
X125793769Y-122417164D01*
X125851189Y-122434336D01*
X125926689Y-122456915D01*
X125926694Y-122456916D01*
X125930987Y-122458200D01*
X125935419Y-122458862D01*
X125935422Y-122458863D01*
X125999319Y-122468412D01*
X125999322Y-122468412D01*
X126003750Y-122469074D01*
X126073655Y-122469501D01*
X126142491Y-122469922D01*
X126142496Y-122469922D01*
X126146971Y-122469949D01*
X126149440Y-122469611D01*
X126153282Y-122469486D01*
X126580000Y-122469486D01*
X126679301Y-122449734D01*
X126685331Y-122445705D01*
X126752373Y-122438497D01*
X126772905Y-122444527D01*
X126780699Y-122449734D01*
X126880000Y-122469486D01*
X127370743Y-122469486D01*
X127371513Y-122469488D01*
X127442485Y-122469922D01*
X127442491Y-122469922D01*
X127446971Y-122469949D01*
X127451414Y-122469340D01*
X127451420Y-122469340D01*
X127482016Y-122465148D01*
X127519862Y-122459964D01*
X127524169Y-122458733D01*
X127524174Y-122458732D01*
X127653260Y-122421839D01*
X127653259Y-122421839D01*
X127657571Y-122420607D01*
X127662394Y-122418450D01*
X127720639Y-122392396D01*
X127720640Y-122392396D01*
X127724730Y-122390566D01*
X127845858Y-122314140D01*
X127901888Y-122266455D01*
X127977898Y-122180389D01*
X127993726Y-122162467D01*
X127993726Y-122162466D01*
X127996696Y-122159104D01*
X128037087Y-122097614D01*
X128041472Y-122088276D01*
X128096050Y-121972029D01*
X128096051Y-121972027D01*
X128097956Y-121967969D01*
X128099266Y-121963685D01*
X128099270Y-121963674D01*
X128109975Y-121928660D01*
X128149020Y-121869364D01*
X128213925Y-121840591D01*
X128230469Y-121839500D01*
X135800616Y-121839500D01*
X135868737Y-121859502D01*
X135889711Y-121876405D01*
X138693522Y-124680216D01*
X138708664Y-124698964D01*
X138709779Y-124700189D01*
X138715429Y-124708940D01*
X138723607Y-124715387D01*
X138723609Y-124715389D01*
X138741800Y-124729729D01*
X138746242Y-124733676D01*
X138746304Y-124733603D01*
X138750267Y-124736961D01*
X138753944Y-124740638D01*
X138758173Y-124743660D01*
X138769646Y-124751859D01*
X138774392Y-124755422D01*
X138792851Y-124769973D01*
X138814647Y-124787156D01*
X138823283Y-124790189D01*
X138830735Y-124795514D01*
X138877400Y-124809470D01*
X138879855Y-124810204D01*
X138885502Y-124812039D01*
X138926370Y-124826391D01*
X138926372Y-124826391D01*
X138933851Y-124829018D01*
X138939416Y-124829500D01*
X138942123Y-124829500D01*
X138944755Y-124829614D01*
X138944856Y-124829644D01*
X138944849Y-124829807D01*
X138945549Y-124829851D01*
X138951778Y-124831714D01*
X139002559Y-124829718D01*
X139005650Y-124829597D01*
X139010598Y-124829500D01*
X142790616Y-124829500D01*
X142858737Y-124849502D01*
X142879711Y-124866405D01*
X142921382Y-124908076D01*
X142936524Y-124926824D01*
X142937639Y-124928049D01*
X142943289Y-124936800D01*
X142951467Y-124943247D01*
X142951469Y-124943249D01*
X142969660Y-124957589D01*
X142974101Y-124961535D01*
X142974163Y-124961462D01*
X142978127Y-124964821D01*
X142981804Y-124968498D01*
X142997552Y-124979752D01*
X143002222Y-124983258D01*
X143042507Y-125015016D01*
X143051141Y-125018048D01*
X143058594Y-125023374D01*
X143107710Y-125038063D01*
X143113352Y-125039896D01*
X143143543Y-125050498D01*
X143161711Y-125056878D01*
X143167276Y-125057360D01*
X143169984Y-125057360D01*
X143172618Y-125057474D01*
X143172716Y-125057503D01*
X143172709Y-125057667D01*
X143173413Y-125057711D01*
X143179638Y-125059573D01*
X143233495Y-125057457D01*
X143238442Y-125057360D01*
X143329209Y-125057360D01*
X143397330Y-125077362D01*
X143424590Y-125101029D01*
X143425740Y-125102361D01*
X143429976Y-125108665D01*
X143435594Y-125113777D01*
X143472545Y-125147400D01*
X143509467Y-125208040D01*
X143507744Y-125279016D01*
X143476840Y-125329688D01*
X143422820Y-125383708D01*
X143360508Y-125417734D01*
X143333067Y-125420611D01*
X143192630Y-125419875D01*
X143185250Y-125421647D01*
X143185248Y-125421647D01*
X143045972Y-125455084D01*
X143045969Y-125455085D01*
X143038593Y-125456856D01*
X142897823Y-125529513D01*
X142778448Y-125633651D01*
X142687359Y-125763257D01*
X142629815Y-125910850D01*
X142628823Y-125918383D01*
X142628823Y-125918384D01*
X142622629Y-125965436D01*
X142609138Y-126067909D01*
X142626522Y-126225366D01*
X142680962Y-126374132D01*
X142769317Y-126505618D01*
X142774936Y-126510731D01*
X142774937Y-126510732D01*
X142786312Y-126521082D01*
X142886485Y-126612232D01*
X143025702Y-126687821D01*
X143178931Y-126728020D01*
X143262886Y-126729339D01*
X143329728Y-126730389D01*
X143329731Y-126730389D01*
X143337325Y-126730508D01*
X143491741Y-126695142D01*
X143562151Y-126659730D01*
X143626481Y-126627376D01*
X143626484Y-126627374D01*
X143633264Y-126623964D01*
X143639035Y-126619035D01*
X143639038Y-126619033D01*
X143747945Y-126526017D01*
X143747945Y-126526016D01*
X143753723Y-126521082D01*
X143846164Y-126392437D01*
X143905251Y-126245454D01*
X143927571Y-126088620D01*
X143927716Y-126074813D01*
X143921846Y-126026309D01*
X143933518Y-125956281D01*
X143957838Y-125922078D01*
X144013511Y-125866405D01*
X144075823Y-125832379D01*
X144102606Y-125829500D01*
X148196080Y-125829500D01*
X148220028Y-125832049D01*
X148221693Y-125832128D01*
X148231876Y-125834320D01*
X148242217Y-125833096D01*
X148265223Y-125830373D01*
X148271154Y-125830023D01*
X148271146Y-125829928D01*
X148276324Y-125829500D01*
X148281524Y-125829500D01*
X148286653Y-125828646D01*
X148286656Y-125828646D01*
X148300565Y-125826331D01*
X148306443Y-125825494D01*
X148347001Y-125820694D01*
X148347002Y-125820694D01*
X148357341Y-125819470D01*
X148365593Y-125815507D01*
X148374626Y-125814004D01*
X148383795Y-125809057D01*
X148383797Y-125809056D01*
X148419732Y-125789666D01*
X148425025Y-125786969D01*
X148464082Y-125768215D01*
X148464086Y-125768212D01*
X148471232Y-125764781D01*
X148475508Y-125761186D01*
X148477431Y-125759263D01*
X148479363Y-125757491D01*
X148479442Y-125757448D01*
X148479555Y-125757572D01*
X148480095Y-125757096D01*
X148485814Y-125754010D01*
X148522417Y-125714413D01*
X148525846Y-125710848D01*
X148870289Y-125366405D01*
X148932601Y-125332379D01*
X148959384Y-125329500D01*
X156790616Y-125329500D01*
X156858737Y-125349502D01*
X156879711Y-125366405D01*
X156918022Y-125404716D01*
X156933164Y-125423464D01*
X156934279Y-125424689D01*
X156939929Y-125433440D01*
X156948107Y-125439887D01*
X156948109Y-125439889D01*
X156966300Y-125454229D01*
X156970741Y-125458175D01*
X156970803Y-125458102D01*
X156974767Y-125461461D01*
X156978444Y-125465138D01*
X156994192Y-125476392D01*
X156998862Y-125479898D01*
X157039147Y-125511656D01*
X157047781Y-125514688D01*
X157055234Y-125520014D01*
X157104350Y-125534703D01*
X157109992Y-125536536D01*
X157150867Y-125550890D01*
X157158351Y-125553518D01*
X157163916Y-125554000D01*
X157166624Y-125554000D01*
X157169258Y-125554114D01*
X157169356Y-125554143D01*
X157169349Y-125554307D01*
X157170053Y-125554351D01*
X157176278Y-125556213D01*
X157230135Y-125554097D01*
X157235082Y-125554000D01*
X157374641Y-125554000D01*
X157442762Y-125574002D01*
X157470022Y-125597669D01*
X157471172Y-125599001D01*
X157475408Y-125605305D01*
X157592576Y-125711919D01*
X157731793Y-125787508D01*
X157885022Y-125827707D01*
X157968977Y-125829026D01*
X158035819Y-125830076D01*
X158035822Y-125830076D01*
X158043416Y-125830195D01*
X158197832Y-125794829D01*
X158278992Y-125754010D01*
X158332572Y-125727063D01*
X158332575Y-125727061D01*
X158339355Y-125723651D01*
X158345126Y-125718722D01*
X158345129Y-125718720D01*
X158454036Y-125625704D01*
X158454036Y-125625703D01*
X158459814Y-125620769D01*
X158552255Y-125492124D01*
X158611342Y-125345141D01*
X158627615Y-125230799D01*
X158633081Y-125192391D01*
X158633081Y-125192388D01*
X158633662Y-125188307D01*
X158633807Y-125174500D01*
X158614776Y-125017233D01*
X158608279Y-125000039D01*
X158602909Y-124929248D01*
X158636665Y-124866790D01*
X158698830Y-124832496D01*
X158726144Y-124829500D01*
X159290616Y-124829500D01*
X159358737Y-124849502D01*
X159379711Y-124866405D01*
X162333595Y-127820289D01*
X162367621Y-127882601D01*
X162370500Y-127909384D01*
X162370500Y-128007494D01*
X162367951Y-128031442D01*
X162367872Y-128033107D01*
X162365680Y-128043290D01*
X162366904Y-128053631D01*
X162369627Y-128076637D01*
X162369977Y-128082568D01*
X162370072Y-128082560D01*
X162370500Y-128087738D01*
X162370500Y-128092938D01*
X162371354Y-128098067D01*
X162371354Y-128098070D01*
X162373669Y-128111979D01*
X162374506Y-128117857D01*
X162375581Y-128126936D01*
X162380530Y-128168755D01*
X162384493Y-128177007D01*
X162385996Y-128186040D01*
X162390943Y-128195209D01*
X162390944Y-128195211D01*
X162410334Y-128231146D01*
X162413031Y-128236439D01*
X162431785Y-128275496D01*
X162431788Y-128275500D01*
X162435219Y-128282646D01*
X162438814Y-128286922D01*
X162440737Y-128288845D01*
X162442509Y-128290777D01*
X162442552Y-128290856D01*
X162442428Y-128290969D01*
X162442904Y-128291509D01*
X162445990Y-128297228D01*
X162453635Y-128304295D01*
X162485586Y-128333830D01*
X162489152Y-128337260D01*
X162507297Y-128355405D01*
X162541323Y-128417717D01*
X162536258Y-128488532D01*
X162493711Y-128545368D01*
X162427191Y-128570179D01*
X162418202Y-128570500D01*
X160185334Y-128570500D01*
X160161387Y-128567951D01*
X160159721Y-128567872D01*
X160149538Y-128565680D01*
X160139196Y-128566904D01*
X160139193Y-128566904D01*
X160116201Y-128569626D01*
X160110260Y-128569977D01*
X160110268Y-128570072D01*
X160105088Y-128570500D01*
X160099890Y-128570500D01*
X160094768Y-128571353D01*
X160094763Y-128571353D01*
X160080841Y-128573671D01*
X160074964Y-128574508D01*
X160068463Y-128575277D01*
X160034411Y-128579307D01*
X160034409Y-128579308D01*
X160024073Y-128580531D01*
X160015824Y-128584492D01*
X160006788Y-128585996D01*
X159997619Y-128590943D01*
X159997617Y-128590944D01*
X159961654Y-128610348D01*
X159956365Y-128613043D01*
X159936898Y-128622391D01*
X159910182Y-128635220D01*
X159905906Y-128638814D01*
X159903966Y-128640754D01*
X159902055Y-128642507D01*
X159901965Y-128642556D01*
X159901853Y-128642433D01*
X159901318Y-128642905D01*
X159895600Y-128645990D01*
X159888533Y-128653635D01*
X159858998Y-128685586D01*
X159855568Y-128689152D01*
X156554411Y-131990309D01*
X156492099Y-132024335D01*
X156464658Y-132027212D01*
X156333335Y-132026524D01*
X156265321Y-132006166D01*
X156244901Y-131989621D01*
X152489769Y-128234489D01*
X152474627Y-128215741D01*
X152473512Y-128214516D01*
X152467862Y-128205765D01*
X152459684Y-128199318D01*
X152459682Y-128199316D01*
X152441491Y-128184976D01*
X152437050Y-128181030D01*
X152436988Y-128181103D01*
X152433024Y-128177744D01*
X152429347Y-128174067D01*
X152413599Y-128162813D01*
X152408929Y-128159307D01*
X152368644Y-128127549D01*
X152360010Y-128124517D01*
X152352557Y-128119191D01*
X152303441Y-128104502D01*
X152297799Y-128102669D01*
X152256924Y-128088315D01*
X152256923Y-128088315D01*
X152249440Y-128085687D01*
X152243875Y-128085205D01*
X152241167Y-128085205D01*
X152238533Y-128085091D01*
X152238435Y-128085062D01*
X152238442Y-128084898D01*
X152237738Y-128084854D01*
X152231513Y-128082992D01*
X152177656Y-128085108D01*
X152172709Y-128085205D01*
X131205471Y-128085205D01*
X131137350Y-128065203D01*
X131110903Y-128039565D01*
X131109667Y-128040654D01*
X131104644Y-128034956D01*
X131100342Y-128028697D01*
X130982064Y-127923316D01*
X130974678Y-127919405D01*
X130848777Y-127852744D01*
X130848778Y-127852744D01*
X130842063Y-127849189D01*
X130688422Y-127810597D01*
X130680823Y-127810557D01*
X130680822Y-127810557D01*
X130614970Y-127810212D01*
X130530010Y-127809767D01*
X130522630Y-127811539D01*
X130522628Y-127811539D01*
X130383352Y-127844976D01*
X130383349Y-127844977D01*
X130375973Y-127846748D01*
X130235203Y-127919405D01*
X130115828Y-128023543D01*
X130024739Y-128153149D01*
X129967195Y-128300742D01*
X129966203Y-128308275D01*
X129966203Y-128308276D01*
X129959999Y-128355405D01*
X129946518Y-128457801D01*
X129947352Y-128465351D01*
X129961218Y-128590944D01*
X129963902Y-128615258D01*
X129966512Y-128622389D01*
X129966512Y-128622391D01*
X129973847Y-128642433D01*
X130018342Y-128764024D01*
X130106697Y-128895510D01*
X130112316Y-128900623D01*
X130112317Y-128900624D01*
X130123692Y-128910974D01*
X130223865Y-129002124D01*
X130363082Y-129077713D01*
X130516311Y-129117912D01*
X130600266Y-129119231D01*
X130667108Y-129120281D01*
X130667111Y-129120281D01*
X130674705Y-129120400D01*
X130829121Y-129085034D01*
X130940617Y-129028958D01*
X130963861Y-129017268D01*
X130963864Y-129017266D01*
X130970644Y-129013856D01*
X130976415Y-129008927D01*
X130976418Y-129008925D01*
X131085331Y-128915904D01*
X131085332Y-128915903D01*
X131091103Y-128910974D01*
X131101375Y-128896679D01*
X131157370Y-128853031D01*
X131203698Y-128844205D01*
X143152333Y-128844205D01*
X143220454Y-128864207D01*
X143266947Y-128917863D01*
X143277051Y-128988137D01*
X143269726Y-129015974D01*
X143261904Y-129036037D01*
X143260912Y-129043570D01*
X143260912Y-129043571D01*
X143250798Y-129120400D01*
X143241227Y-129193096D01*
X143249919Y-129271824D01*
X143256819Y-129334320D01*
X143258611Y-129350553D01*
X143313051Y-129499319D01*
X143317287Y-129505622D01*
X143317287Y-129505623D01*
X143391730Y-129616405D01*
X143401406Y-129630805D01*
X143407025Y-129635918D01*
X143407026Y-129635919D01*
X143418401Y-129646269D01*
X143518574Y-129737419D01*
X143657791Y-129813008D01*
X143811020Y-129853207D01*
X143894975Y-129854526D01*
X143961817Y-129855576D01*
X143961820Y-129855576D01*
X143969414Y-129855695D01*
X144123830Y-129820329D01*
X144194240Y-129784917D01*
X144258570Y-129752563D01*
X144258573Y-129752561D01*
X144265353Y-129749151D01*
X144271124Y-129744222D01*
X144271127Y-129744220D01*
X144380040Y-129651199D01*
X144380041Y-129651198D01*
X144385812Y-129646269D01*
X144396084Y-129631974D01*
X144452079Y-129588326D01*
X144498407Y-129579500D01*
X151672510Y-129579500D01*
X151740631Y-129599502D01*
X151761605Y-129616405D01*
X155785550Y-133640350D01*
X155800692Y-133659098D01*
X155801807Y-133660323D01*
X155807457Y-133669074D01*
X155815635Y-133675521D01*
X155815637Y-133675523D01*
X155833828Y-133689863D01*
X155838269Y-133693809D01*
X155838331Y-133693736D01*
X155842295Y-133697095D01*
X155845972Y-133700772D01*
X155861720Y-133712026D01*
X155866390Y-133715532D01*
X155906675Y-133747290D01*
X155915309Y-133750322D01*
X155922762Y-133755648D01*
X155971878Y-133770337D01*
X155977520Y-133772170D01*
X156018227Y-133786465D01*
X156025879Y-133789152D01*
X156031444Y-133789634D01*
X156034152Y-133789634D01*
X156036786Y-133789748D01*
X156036884Y-133789777D01*
X156036877Y-133789941D01*
X156037581Y-133789985D01*
X156043806Y-133791847D01*
X156097663Y-133789731D01*
X156102610Y-133789634D01*
X157321292Y-133789634D01*
X157345240Y-133792183D01*
X157346905Y-133792262D01*
X157357088Y-133794454D01*
X157367429Y-133793230D01*
X157390435Y-133790507D01*
X157396366Y-133790157D01*
X157396358Y-133790062D01*
X157401536Y-133789634D01*
X157406736Y-133789634D01*
X157411865Y-133788780D01*
X157411868Y-133788780D01*
X157425777Y-133786465D01*
X157431655Y-133785628D01*
X157472213Y-133780828D01*
X157472214Y-133780828D01*
X157482553Y-133779604D01*
X157490805Y-133775641D01*
X157499838Y-133774138D01*
X157509007Y-133769191D01*
X157509009Y-133769190D01*
X157544944Y-133749800D01*
X157550237Y-133747103D01*
X157589294Y-133728349D01*
X157589298Y-133728346D01*
X157596444Y-133724915D01*
X157600720Y-133721320D01*
X157602643Y-133719397D01*
X157604575Y-133717625D01*
X157604654Y-133717582D01*
X157604767Y-133717706D01*
X157605307Y-133717230D01*
X157611026Y-133714144D01*
X157647629Y-133674547D01*
X157651058Y-133670982D01*
X157946178Y-133375862D01*
X158008490Y-133341836D01*
X158037252Y-133338973D01*
X158161318Y-133340922D01*
X158161321Y-133340922D01*
X158168916Y-133341041D01*
X158323332Y-133305675D01*
X158393742Y-133270263D01*
X158458072Y-133237909D01*
X158458075Y-133237907D01*
X158464855Y-133234497D01*
X158470626Y-133229568D01*
X158470629Y-133229566D01*
X158579536Y-133136550D01*
X158579536Y-133136549D01*
X158585314Y-133131615D01*
X158677755Y-133002970D01*
X158736842Y-132855987D01*
X158759162Y-132699153D01*
X158759307Y-132685346D01*
X158758335Y-132677309D01*
X158745595Y-132572037D01*
X158740276Y-132528079D01*
X158684280Y-132379892D01*
X158642652Y-132319322D01*
X158598855Y-132255597D01*
X158598854Y-132255595D01*
X158594553Y-132249338D01*
X158476275Y-132143957D01*
X158468889Y-132140046D01*
X158342988Y-132073385D01*
X158342989Y-132073385D01*
X158336274Y-132069830D01*
X158182633Y-132031238D01*
X158175034Y-132031198D01*
X158175033Y-132031198D01*
X158109181Y-132030853D01*
X158024221Y-132030408D01*
X158016841Y-132032180D01*
X158016839Y-132032180D01*
X157884209Y-132064022D01*
X157813301Y-132060475D01*
X157755567Y-132019155D01*
X157729337Y-131953182D01*
X157742939Y-131883500D01*
X157765700Y-131852408D01*
X160251703Y-129366405D01*
X160314015Y-129332379D01*
X160340798Y-129329500D01*
X164776580Y-129329500D01*
X164800528Y-129332049D01*
X164802193Y-129332128D01*
X164812376Y-129334320D01*
X164822717Y-129333096D01*
X164845723Y-129330373D01*
X164851654Y-129330023D01*
X164851646Y-129329928D01*
X164856824Y-129329500D01*
X164862024Y-129329500D01*
X164867153Y-129328646D01*
X164867156Y-129328646D01*
X164881065Y-129326331D01*
X164886943Y-129325494D01*
X164927501Y-129320694D01*
X164927502Y-129320694D01*
X164937841Y-129319470D01*
X164946093Y-129315507D01*
X164955126Y-129314004D01*
X164964295Y-129309057D01*
X164964297Y-129309056D01*
X165000232Y-129289666D01*
X165005525Y-129286969D01*
X165044582Y-129268215D01*
X165044586Y-129268212D01*
X165051732Y-129264781D01*
X165056008Y-129261186D01*
X165057931Y-129259263D01*
X165059863Y-129257491D01*
X165059942Y-129257448D01*
X165060055Y-129257572D01*
X165060595Y-129257096D01*
X165066314Y-129254010D01*
X165102917Y-129214413D01*
X165106346Y-129210848D01*
X168700789Y-125616405D01*
X168763101Y-125582379D01*
X168789884Y-125579500D01*
X175696080Y-125579500D01*
X175720028Y-125582049D01*
X175721693Y-125582128D01*
X175731876Y-125584320D01*
X175742217Y-125583096D01*
X175765223Y-125580373D01*
X175771154Y-125580023D01*
X175771146Y-125579928D01*
X175776324Y-125579500D01*
X175781524Y-125579500D01*
X175786653Y-125578646D01*
X175786656Y-125578646D01*
X175800565Y-125576331D01*
X175806443Y-125575494D01*
X175847001Y-125570694D01*
X175847002Y-125570694D01*
X175857341Y-125569470D01*
X175865593Y-125565507D01*
X175874626Y-125564004D01*
X175883795Y-125559057D01*
X175883797Y-125559056D01*
X175919732Y-125539666D01*
X175925025Y-125536969D01*
X175964082Y-125518215D01*
X175964086Y-125518212D01*
X175971232Y-125514781D01*
X175975508Y-125511186D01*
X175977431Y-125509263D01*
X175979363Y-125507491D01*
X175979442Y-125507448D01*
X175979555Y-125507572D01*
X175980095Y-125507096D01*
X175985814Y-125504010D01*
X176022417Y-125464413D01*
X176025846Y-125460848D01*
X180068054Y-121418640D01*
X180130366Y-121384614D01*
X180157149Y-121381735D01*
X180170466Y-121381735D01*
X180238587Y-121401737D01*
X180265847Y-121425404D01*
X180266997Y-121426736D01*
X180271233Y-121433040D01*
X180388401Y-121539654D01*
X180527618Y-121615243D01*
X180680847Y-121655442D01*
X180764802Y-121656761D01*
X180831644Y-121657811D01*
X180831647Y-121657811D01*
X180839241Y-121657930D01*
X180993657Y-121622564D01*
X181097814Y-121570179D01*
X181128397Y-121554798D01*
X181128400Y-121554796D01*
X181135180Y-121551386D01*
X181140951Y-121546457D01*
X181140954Y-121546455D01*
X181249861Y-121453439D01*
X181249861Y-121453438D01*
X181255639Y-121448504D01*
X181348080Y-121319859D01*
X181407167Y-121172876D01*
X181421737Y-121070500D01*
X181428906Y-121020126D01*
X181428906Y-121020123D01*
X181429487Y-121016042D01*
X181429632Y-121002235D01*
X181410601Y-120844968D01*
X181354605Y-120696781D01*
X181298354Y-120614935D01*
X181269180Y-120572486D01*
X181269179Y-120572484D01*
X181264878Y-120566227D01*
X181246972Y-120550273D01*
X181218913Y-120525274D01*
X181146600Y-120460846D01*
X181139214Y-120456935D01*
X181076272Y-120423609D01*
X181006599Y-120386719D01*
X180852958Y-120348127D01*
X180845359Y-120348087D01*
X180845358Y-120348087D01*
X180779506Y-120347742D01*
X180694546Y-120347297D01*
X180687166Y-120349069D01*
X180687164Y-120349069D01*
X180547888Y-120382506D01*
X180547885Y-120382507D01*
X180540509Y-120384278D01*
X180516934Y-120396446D01*
X180507799Y-120401161D01*
X180438092Y-120414630D01*
X180372168Y-120388275D01*
X180330959Y-120330463D01*
X180327547Y-120259548D01*
X180360914Y-120200100D01*
X180854238Y-119706776D01*
X180872986Y-119691634D01*
X180874211Y-119690519D01*
X180882962Y-119684869D01*
X180889409Y-119676691D01*
X180889411Y-119676689D01*
X180903751Y-119658498D01*
X180907700Y-119654054D01*
X180907626Y-119653992D01*
X180910979Y-119650035D01*
X180914660Y-119646354D01*
X180925887Y-119630644D01*
X180929443Y-119625907D01*
X180930564Y-119624486D01*
X180961178Y-119585651D01*
X180964211Y-119577014D01*
X180969535Y-119569564D01*
X180984224Y-119520449D01*
X180986056Y-119514812D01*
X181000412Y-119473931D01*
X181000412Y-119473930D01*
X181003040Y-119466447D01*
X181003522Y-119460882D01*
X181003522Y-119458174D01*
X181003636Y-119455540D01*
X181003665Y-119455442D01*
X181003829Y-119455449D01*
X181003873Y-119454745D01*
X181005735Y-119448520D01*
X181003619Y-119394663D01*
X181003522Y-119389716D01*
X181003522Y-89557942D01*
X181006071Y-89533994D01*
X181006150Y-89532329D01*
X181008342Y-89522146D01*
X181004395Y-89488799D01*
X181004045Y-89482868D01*
X181003950Y-89482876D01*
X181003522Y-89477698D01*
X181003522Y-89472498D01*
X181001072Y-89457779D01*
X181000353Y-89453457D01*
X180999516Y-89447579D01*
X180994716Y-89407021D01*
X180994716Y-89407020D01*
X180993492Y-89396681D01*
X180989529Y-89388429D01*
X180988026Y-89379396D01*
X180963687Y-89334288D01*
X180960991Y-89328997D01*
X180942237Y-89289940D01*
X180942234Y-89289936D01*
X180938803Y-89282790D01*
X180935208Y-89278514D01*
X180933285Y-89276591D01*
X180931513Y-89274659D01*
X180931470Y-89274580D01*
X180931594Y-89274467D01*
X180931118Y-89273927D01*
X180928032Y-89268208D01*
X180888435Y-89231605D01*
X180884870Y-89228176D01*
X180062281Y-88405587D01*
X180028255Y-88343275D01*
X180032063Y-88275991D01*
X180076728Y-88144413D01*
X180076728Y-88144412D01*
X180078584Y-88138945D01*
X180079412Y-88133236D01*
X180079413Y-88133231D01*
X180107179Y-87941727D01*
X180107712Y-87938053D01*
X180109232Y-87880000D01*
X180090658Y-87677859D01*
X180035557Y-87482487D01*
X180036058Y-87482346D01*
X180030618Y-87415289D01*
X180064894Y-87351800D01*
X181230216Y-86186478D01*
X181248964Y-86171336D01*
X181250189Y-86170221D01*
X181258940Y-86164571D01*
X181265387Y-86156393D01*
X181265389Y-86156391D01*
X181279729Y-86138200D01*
X181283678Y-86133756D01*
X181283604Y-86133694D01*
X181286957Y-86129737D01*
X181290638Y-86126056D01*
X181301865Y-86110346D01*
X181305421Y-86105609D01*
X181330708Y-86073532D01*
X181337156Y-86065353D01*
X181340189Y-86056716D01*
X181345513Y-86049266D01*
X181360202Y-86000151D01*
X181362034Y-85994514D01*
X181376390Y-85953633D01*
X181376390Y-85953632D01*
X181379018Y-85946149D01*
X181379500Y-85940584D01*
X181379500Y-85937876D01*
X181379614Y-85935242D01*
X181379643Y-85935144D01*
X181379807Y-85935151D01*
X181379851Y-85934447D01*
X181381713Y-85928222D01*
X181379597Y-85874365D01*
X181379500Y-85869418D01*
X181379500Y-66473920D01*
X181382049Y-66449973D01*
X181382128Y-66448307D01*
X181384320Y-66438124D01*
X181383096Y-66427782D01*
X181383096Y-66427779D01*
X181380374Y-66404787D01*
X181380023Y-66398846D01*
X181379928Y-66398854D01*
X181379500Y-66393674D01*
X181379500Y-66388476D01*
X181376329Y-66369424D01*
X181375492Y-66363547D01*
X181370693Y-66322997D01*
X181370692Y-66322995D01*
X181369469Y-66312659D01*
X181365508Y-66304410D01*
X181364004Y-66295374D01*
X181359056Y-66286203D01*
X181339652Y-66250240D01*
X181336957Y-66244951D01*
X181318212Y-66205915D01*
X181314780Y-66198768D01*
X181311186Y-66194492D01*
X181309246Y-66192552D01*
X181307493Y-66190641D01*
X181307444Y-66190551D01*
X181307567Y-66190439D01*
X181307095Y-66189904D01*
X181304010Y-66184186D01*
X181264413Y-66147583D01*
X181260848Y-66144154D01*
X180037281Y-64920587D01*
X180003255Y-64858275D01*
X180007063Y-64790991D01*
X180015795Y-64765269D01*
X180053584Y-64653945D01*
X180054412Y-64648236D01*
X180054413Y-64648231D01*
X180073825Y-64514344D01*
X180082712Y-64453053D01*
X180084232Y-64395000D01*
X180065658Y-64192859D01*
X180064090Y-64187299D01*
X180012125Y-64003046D01*
X180012124Y-64003044D01*
X180010557Y-63997487D01*
X179999978Y-63976033D01*
X179923331Y-63820609D01*
X179920776Y-63815428D01*
X179799320Y-63652779D01*
X179650258Y-63514987D01*
X179645375Y-63511906D01*
X179645371Y-63511903D01*
X179483464Y-63409748D01*
X179478581Y-63406667D01*
X179290039Y-63331446D01*
X179284379Y-63330320D01*
X179284375Y-63330319D01*
X179096613Y-63292971D01*
X179096610Y-63292971D01*
X179090946Y-63291844D01*
X179085171Y-63291768D01*
X179085167Y-63291768D01*
X178983793Y-63290441D01*
X178887971Y-63289187D01*
X178882274Y-63290166D01*
X178882273Y-63290166D01*
X178693607Y-63322585D01*
X178687910Y-63323564D01*
X178497463Y-63393824D01*
X178323010Y-63497612D01*
X178318670Y-63501418D01*
X178318666Y-63501421D01*
X178224605Y-63583911D01*
X178170392Y-63631455D01*
X178044720Y-63790869D01*
X178042031Y-63795980D01*
X178042029Y-63795983D01*
X178007831Y-63860983D01*
X177950203Y-63970515D01*
X177890007Y-64164378D01*
X177866148Y-64365964D01*
X177879424Y-64568522D01*
X177880845Y-64574118D01*
X177880846Y-64574123D01*
X177916176Y-64713231D01*
X177929392Y-64765269D01*
X177931809Y-64770512D01*
X177972268Y-64858275D01*
X178014377Y-64949616D01*
X178017710Y-64954332D01*
X178112372Y-65088276D01*
X178131533Y-65115389D01*
X178276938Y-65257035D01*
X178445720Y-65369812D01*
X178451023Y-65372090D01*
X178451026Y-65372092D01*
X178589540Y-65431602D01*
X178632228Y-65449942D01*
X178705244Y-65466464D01*
X178824579Y-65493467D01*
X178824584Y-65493468D01*
X178830216Y-65494742D01*
X178835987Y-65494969D01*
X178835989Y-65494969D01*
X178895756Y-65497317D01*
X179033053Y-65502712D01*
X179133499Y-65488148D01*
X179228231Y-65474413D01*
X179228236Y-65474412D01*
X179233945Y-65473584D01*
X179370991Y-65427063D01*
X179441926Y-65424107D01*
X179500587Y-65457281D01*
X180583595Y-66540290D01*
X180617621Y-66602602D01*
X180620500Y-66629385D01*
X180620500Y-70279616D01*
X180600498Y-70347737D01*
X180546842Y-70394230D01*
X180476568Y-70404334D01*
X180411988Y-70374840D01*
X180405405Y-70368711D01*
X180116405Y-70079711D01*
X180082379Y-70017399D01*
X180079500Y-69990616D01*
X180079499Y-68606123D01*
X180079499Y-68599934D01*
X180064734Y-68525699D01*
X180008484Y-68441516D01*
X179924301Y-68385266D01*
X179850067Y-68370500D01*
X178975142Y-68370500D01*
X178099934Y-68370501D01*
X178064182Y-68377612D01*
X178037874Y-68382844D01*
X178037872Y-68382845D01*
X178025699Y-68385266D01*
X178015379Y-68392161D01*
X178015378Y-68392162D01*
X177954985Y-68432516D01*
X177941516Y-68441516D01*
X177885266Y-68525699D01*
X177870500Y-68599933D01*
X177870501Y-70350066D01*
X177877612Y-70385818D01*
X177881295Y-70404334D01*
X177885266Y-70424301D01*
X177941516Y-70508484D01*
X178025699Y-70564734D01*
X178099933Y-70579500D01*
X178252851Y-70579500D01*
X179490614Y-70579499D01*
X179558735Y-70599501D01*
X179579710Y-70616404D01*
X180108107Y-71144802D01*
X180142132Y-71207114D01*
X180145011Y-71233897D01*
X180145011Y-83606105D01*
X180125009Y-83674226D01*
X180108106Y-83695200D01*
X179525144Y-84278162D01*
X179462832Y-84312188D01*
X179389360Y-84306097D01*
X179315039Y-84276446D01*
X179309379Y-84275320D01*
X179309375Y-84275319D01*
X179121613Y-84237971D01*
X179121610Y-84237971D01*
X179115946Y-84236844D01*
X179110171Y-84236768D01*
X179110167Y-84236768D01*
X179008793Y-84235441D01*
X178912971Y-84234187D01*
X178907274Y-84235166D01*
X178907273Y-84235166D01*
X178739517Y-84263992D01*
X178712910Y-84268564D01*
X178522463Y-84338824D01*
X178348010Y-84442612D01*
X178343670Y-84446418D01*
X178343666Y-84446421D01*
X178199733Y-84572648D01*
X178195392Y-84576455D01*
X178191817Y-84580990D01*
X178191816Y-84580991D01*
X178172168Y-84605915D01*
X178069720Y-84735869D01*
X178067031Y-84740980D01*
X178067029Y-84740983D01*
X178029770Y-84811800D01*
X177975203Y-84915515D01*
X177915007Y-85109378D01*
X177891148Y-85310964D01*
X177904424Y-85513522D01*
X177905845Y-85519118D01*
X177905846Y-85519123D01*
X177926119Y-85598945D01*
X177954392Y-85710269D01*
X177961375Y-85725417D01*
X177971730Y-85795652D01*
X177942468Y-85860338D01*
X177936044Y-85867262D01*
X177595273Y-86208033D01*
X177576525Y-86223175D01*
X177575300Y-86224290D01*
X177566549Y-86229940D01*
X177560102Y-86238118D01*
X177560100Y-86238120D01*
X177545760Y-86256311D01*
X177541814Y-86260752D01*
X177541887Y-86260814D01*
X177538528Y-86264778D01*
X177534851Y-86268455D01*
X177523597Y-86284203D01*
X177520091Y-86288873D01*
X177488333Y-86329158D01*
X177485301Y-86337792D01*
X177479975Y-86345245D01*
X177476990Y-86355226D01*
X177465288Y-86394355D01*
X177463453Y-86400003D01*
X177457580Y-86416728D01*
X177446471Y-86448362D01*
X177445989Y-86453927D01*
X177445989Y-86456635D01*
X177445875Y-86459269D01*
X177445846Y-86459367D01*
X177445682Y-86459360D01*
X177445638Y-86460064D01*
X177443776Y-86466289D01*
X177444185Y-86476694D01*
X177445892Y-86520146D01*
X177445989Y-86525093D01*
X177445989Y-88312579D01*
X177443440Y-88336527D01*
X177443361Y-88338192D01*
X177441169Y-88348375D01*
X177442393Y-88358716D01*
X177445116Y-88381722D01*
X177445466Y-88387653D01*
X177445561Y-88387645D01*
X177445989Y-88392823D01*
X177445989Y-88398023D01*
X177446843Y-88403152D01*
X177446843Y-88403155D01*
X177449158Y-88417064D01*
X177449995Y-88422942D01*
X177454330Y-88459565D01*
X177456019Y-88473840D01*
X177459982Y-88482092D01*
X177461485Y-88491125D01*
X177466432Y-88500294D01*
X177466433Y-88500296D01*
X177485823Y-88536231D01*
X177488520Y-88541524D01*
X177507274Y-88580581D01*
X177507277Y-88580585D01*
X177510708Y-88587731D01*
X177514303Y-88592007D01*
X177516226Y-88593930D01*
X177517998Y-88595862D01*
X177518041Y-88595941D01*
X177517917Y-88596054D01*
X177518393Y-88596594D01*
X177521479Y-88602313D01*
X177529124Y-88609380D01*
X177561061Y-88638902D01*
X177564628Y-88642332D01*
X178304508Y-89382213D01*
X178338533Y-89444525D01*
X178333468Y-89515341D01*
X178298490Y-89566040D01*
X178195392Y-89656455D01*
X178069720Y-89815869D01*
X178067031Y-89820980D01*
X178067029Y-89820983D01*
X178042261Y-89868060D01*
X177975203Y-89995515D01*
X177915007Y-90189378D01*
X177891148Y-90390964D01*
X177904424Y-90593522D01*
X177905845Y-90599118D01*
X177905846Y-90599123D01*
X177946589Y-90759545D01*
X177954392Y-90790269D01*
X177961375Y-90805417D01*
X177971730Y-90875652D01*
X177942468Y-90940338D01*
X177936044Y-90947262D01*
X177519784Y-91363522D01*
X177501036Y-91378664D01*
X177499811Y-91379779D01*
X177491060Y-91385429D01*
X177484613Y-91393607D01*
X177484611Y-91393609D01*
X177470271Y-91411800D01*
X177466325Y-91416241D01*
X177466398Y-91416303D01*
X177463039Y-91420267D01*
X177459362Y-91423944D01*
X177448108Y-91439692D01*
X177444602Y-91444362D01*
X177412844Y-91484647D01*
X177409812Y-91493281D01*
X177404486Y-91500734D01*
X177401501Y-91510715D01*
X177389799Y-91549844D01*
X177387964Y-91555492D01*
X177370982Y-91603851D01*
X177370500Y-91609416D01*
X177370500Y-91612124D01*
X177370386Y-91614758D01*
X177370357Y-91614856D01*
X177370193Y-91614849D01*
X177370149Y-91615553D01*
X177368287Y-91621778D01*
X177368696Y-91632183D01*
X177370403Y-91675635D01*
X177370500Y-91680582D01*
X177370500Y-98240616D01*
X177350498Y-98308737D01*
X177333595Y-98329711D01*
X176019784Y-99643522D01*
X176001036Y-99658664D01*
X175999811Y-99659779D01*
X175991060Y-99665429D01*
X175984613Y-99673607D01*
X175984611Y-99673609D01*
X175970271Y-99691800D01*
X175966325Y-99696241D01*
X175966398Y-99696303D01*
X175963039Y-99700267D01*
X175959362Y-99703944D01*
X175948108Y-99719692D01*
X175944602Y-99724362D01*
X175912844Y-99764647D01*
X175909812Y-99773281D01*
X175904486Y-99780734D01*
X175892447Y-99820991D01*
X175889799Y-99829844D01*
X175887964Y-99835492D01*
X175873610Y-99876367D01*
X175870982Y-99883851D01*
X175870500Y-99889416D01*
X175870500Y-99892124D01*
X175870386Y-99894758D01*
X175870357Y-99894856D01*
X175870193Y-99894849D01*
X175870149Y-99895553D01*
X175868287Y-99901778D01*
X175868696Y-99912183D01*
X175870403Y-99955635D01*
X175870500Y-99960582D01*
X175870500Y-107740616D01*
X175850498Y-107808737D01*
X175833595Y-107829711D01*
X162629711Y-121033595D01*
X162567399Y-121067621D01*
X162540616Y-121070500D01*
X162492951Y-121070500D01*
X162424830Y-121050498D01*
X162378337Y-120996842D01*
X162368233Y-120926568D01*
X162376043Y-120897505D01*
X162384007Y-120877694D01*
X162384008Y-120877692D01*
X162386842Y-120870641D01*
X162409162Y-120713807D01*
X162409307Y-120700000D01*
X162390276Y-120542733D01*
X162334280Y-120394546D01*
X162312627Y-120363040D01*
X162248855Y-120270251D01*
X162248854Y-120270249D01*
X162244553Y-120263992D01*
X162236120Y-120256478D01*
X162175385Y-120202366D01*
X162126275Y-120158611D01*
X162118889Y-120154700D01*
X162057401Y-120122144D01*
X161986274Y-120084484D01*
X161832633Y-120045892D01*
X161825034Y-120045852D01*
X161825033Y-120045852D01*
X161759181Y-120045507D01*
X161674221Y-120045062D01*
X161666841Y-120046834D01*
X161666839Y-120046834D01*
X161527563Y-120080271D01*
X161527560Y-120080272D01*
X161520184Y-120082043D01*
X161379414Y-120154700D01*
X161260039Y-120258838D01*
X161255675Y-120265048D01*
X161255667Y-120265057D01*
X161254336Y-120266951D01*
X161253013Y-120268005D01*
X161250589Y-120270697D01*
X161250140Y-120270293D01*
X161198802Y-120311183D01*
X161151250Y-120320500D01*
X160803920Y-120320500D01*
X160779972Y-120317951D01*
X160778307Y-120317872D01*
X160768124Y-120315680D01*
X160757783Y-120316904D01*
X160734777Y-120319627D01*
X160728846Y-120319977D01*
X160728854Y-120320072D01*
X160723676Y-120320500D01*
X160718476Y-120320500D01*
X160713347Y-120321354D01*
X160713344Y-120321354D01*
X160699435Y-120323669D01*
X160693557Y-120324506D01*
X160652999Y-120329306D01*
X160652998Y-120329306D01*
X160642659Y-120330530D01*
X160634407Y-120334493D01*
X160625374Y-120335996D01*
X160580227Y-120360356D01*
X160574963Y-120363037D01*
X160528768Y-120385220D01*
X160524492Y-120388814D01*
X160522552Y-120390754D01*
X160520641Y-120392507D01*
X160520551Y-120392556D01*
X160520439Y-120392433D01*
X160519904Y-120392905D01*
X160514186Y-120395990D01*
X160507119Y-120403635D01*
X160477584Y-120435586D01*
X160474154Y-120439152D01*
X159879711Y-121033595D01*
X159817399Y-121067621D01*
X159790616Y-121070500D01*
X155492951Y-121070500D01*
X155424830Y-121050498D01*
X155378337Y-120996842D01*
X155368233Y-120926568D01*
X155376043Y-120897505D01*
X155384007Y-120877694D01*
X155384008Y-120877692D01*
X155386842Y-120870641D01*
X155409162Y-120713807D01*
X155409307Y-120700000D01*
X155390276Y-120542733D01*
X155334280Y-120394546D01*
X155312627Y-120363040D01*
X155248855Y-120270251D01*
X155248854Y-120270249D01*
X155244553Y-120263992D01*
X155236120Y-120256478D01*
X155175385Y-120202366D01*
X155126275Y-120158611D01*
X155118889Y-120154700D01*
X155057401Y-120122144D01*
X154986274Y-120084484D01*
X154832633Y-120045892D01*
X154825034Y-120045852D01*
X154825033Y-120045852D01*
X154759181Y-120045507D01*
X154674221Y-120045062D01*
X154666841Y-120046834D01*
X154666839Y-120046834D01*
X154527563Y-120080271D01*
X154527560Y-120080272D01*
X154520184Y-120082043D01*
X154379414Y-120154700D01*
X154373695Y-120159689D01*
X154287857Y-120234571D01*
X154260039Y-120258838D01*
X154248100Y-120275826D01*
X154192564Y-120320056D01*
X154159827Y-120328498D01*
X154153003Y-120329306D01*
X154152999Y-120329307D01*
X154142659Y-120330531D01*
X154134410Y-120334492D01*
X154125374Y-120335996D01*
X154116205Y-120340943D01*
X154116203Y-120340944D01*
X154080240Y-120360348D01*
X154074951Y-120363043D01*
X154035915Y-120381788D01*
X154028768Y-120385220D01*
X154024492Y-120388814D01*
X154022552Y-120390754D01*
X154020641Y-120392507D01*
X154020551Y-120392556D01*
X154020439Y-120392433D01*
X154019904Y-120392905D01*
X154014186Y-120395990D01*
X154007119Y-120403635D01*
X153977584Y-120435586D01*
X153974154Y-120439152D01*
X153879711Y-120533595D01*
X153817399Y-120567621D01*
X153790616Y-120570500D01*
X145209384Y-120570500D01*
X145141263Y-120550498D01*
X145120289Y-120533595D01*
X144440143Y-119853449D01*
X144406117Y-119791137D01*
X144404495Y-119746601D01*
X144408581Y-119717892D01*
X144408581Y-119717886D01*
X144409162Y-119713807D01*
X144409236Y-119706776D01*
X144409264Y-119704134D01*
X144409264Y-119704128D01*
X144409307Y-119700000D01*
X144408370Y-119692252D01*
X144403747Y-119654054D01*
X144390276Y-119542733D01*
X144334280Y-119394546D01*
X144283390Y-119320500D01*
X144248855Y-119270251D01*
X144248854Y-119270249D01*
X144244553Y-119263992D01*
X144126275Y-119158611D01*
X144118889Y-119154700D01*
X144003344Y-119093522D01*
X143986274Y-119084484D01*
X143832633Y-119045892D01*
X143825034Y-119045852D01*
X143825033Y-119045852D01*
X143759181Y-119045507D01*
X143674221Y-119045062D01*
X143666841Y-119046834D01*
X143666839Y-119046834D01*
X143527563Y-119080271D01*
X143527560Y-119080272D01*
X143520184Y-119082043D01*
X143379414Y-119154700D01*
X143260039Y-119258838D01*
X143255672Y-119265051D01*
X143255667Y-119265057D01*
X143254336Y-119266951D01*
X143253013Y-119268005D01*
X143250589Y-119270697D01*
X143250140Y-119270293D01*
X143198802Y-119311183D01*
X143151250Y-119320500D01*
X138959385Y-119320500D01*
X138891264Y-119300498D01*
X138870290Y-119283595D01*
X134056478Y-114469784D01*
X134041336Y-114451036D01*
X134040221Y-114449811D01*
X134034571Y-114441060D01*
X134026393Y-114434613D01*
X134026391Y-114434611D01*
X134008200Y-114420271D01*
X134003759Y-114416325D01*
X134003697Y-114416398D01*
X133999733Y-114413039D01*
X133996056Y-114409362D01*
X133980308Y-114398108D01*
X133975638Y-114394602D01*
X133935353Y-114362844D01*
X133926719Y-114359812D01*
X133919266Y-114354486D01*
X133870150Y-114339797D01*
X133864508Y-114337964D01*
X133823633Y-114323610D01*
X133823632Y-114323610D01*
X133816149Y-114320982D01*
X133810584Y-114320500D01*
X133807876Y-114320500D01*
X133805242Y-114320386D01*
X133805144Y-114320357D01*
X133805151Y-114320193D01*
X133804447Y-114320149D01*
X133798222Y-114318287D01*
X133744365Y-114320403D01*
X133739418Y-114320500D01*
X122179209Y-114320500D01*
X122111088Y-114300498D01*
X122064595Y-114246842D01*
X122054491Y-114176568D01*
X122059896Y-114153999D01*
X122076728Y-114104414D01*
X122076729Y-114104409D01*
X122078584Y-114098945D01*
X122079412Y-114093236D01*
X122079413Y-114093231D01*
X122107179Y-113901727D01*
X122107712Y-113898053D01*
X122109232Y-113840000D01*
X122096082Y-113696889D01*
X122091187Y-113643613D01*
X122091186Y-113643610D01*
X122090658Y-113637859D01*
X122081121Y-113604043D01*
X122037127Y-113448053D01*
X122037126Y-113448051D01*
X122035557Y-113442487D01*
X122036058Y-113442346D01*
X122030618Y-113375289D01*
X122064894Y-113311800D01*
X122480216Y-112896478D01*
X122498964Y-112881336D01*
X122500189Y-112880221D01*
X122508940Y-112874571D01*
X122515387Y-112866393D01*
X122515389Y-112866391D01*
X122529729Y-112848200D01*
X122533675Y-112843759D01*
X122533602Y-112843697D01*
X122536961Y-112839733D01*
X122540638Y-112836056D01*
X122551892Y-112820308D01*
X122555398Y-112815638D01*
X122587156Y-112775353D01*
X122590188Y-112766719D01*
X122595514Y-112759266D01*
X122610203Y-112710150D01*
X122612036Y-112704508D01*
X122626390Y-112663633D01*
X122626390Y-112663632D01*
X122629018Y-112656149D01*
X122629500Y-112650584D01*
X122629500Y-112647876D01*
X122629614Y-112645242D01*
X122629643Y-112645144D01*
X122629807Y-112645151D01*
X122629851Y-112644447D01*
X122631713Y-112638222D01*
X122629597Y-112584365D01*
X122629500Y-112579418D01*
X122629500Y-110909384D01*
X122649502Y-110841263D01*
X122666405Y-110820289D01*
X127042348Y-106444346D01*
X127061096Y-106429204D01*
X127062321Y-106428089D01*
X127071072Y-106422439D01*
X127077519Y-106414261D01*
X127077521Y-106414259D01*
X127091861Y-106396068D01*
X127095807Y-106391627D01*
X127095734Y-106391565D01*
X127099093Y-106387601D01*
X127102770Y-106383924D01*
X127114024Y-106368176D01*
X127117530Y-106363506D01*
X127149288Y-106323221D01*
X127152320Y-106314587D01*
X127157646Y-106307134D01*
X127172335Y-106258018D01*
X127174168Y-106252376D01*
X127188522Y-106211501D01*
X127188522Y-106211500D01*
X127191150Y-106204017D01*
X127191632Y-106198452D01*
X127191632Y-106195744D01*
X127191746Y-106193110D01*
X127191775Y-106193012D01*
X127191939Y-106193019D01*
X127191983Y-106192315D01*
X127193845Y-106186090D01*
X127191729Y-106132233D01*
X127191632Y-106127286D01*
X127191632Y-95426129D01*
X127211634Y-95358008D01*
X127228537Y-95337034D01*
X132230216Y-90335355D01*
X132248964Y-90320213D01*
X132250189Y-90319098D01*
X132258940Y-90313448D01*
X132265387Y-90305270D01*
X132265389Y-90305268D01*
X132279729Y-90287077D01*
X132283678Y-90282633D01*
X132283604Y-90282571D01*
X132286957Y-90278614D01*
X132290638Y-90274933D01*
X132301865Y-90259223D01*
X132305421Y-90254486D01*
X132320231Y-90235700D01*
X132337156Y-90214230D01*
X132340189Y-90205593D01*
X132345513Y-90198143D01*
X132360202Y-90149028D01*
X132362034Y-90143391D01*
X132376390Y-90102510D01*
X132376390Y-90102509D01*
X132379018Y-90095026D01*
X132379500Y-90089461D01*
X132379500Y-90086753D01*
X132379614Y-90084119D01*
X132379643Y-90084021D01*
X132379807Y-90084028D01*
X132379851Y-90083324D01*
X132381713Y-90077099D01*
X132379597Y-90023242D01*
X132379500Y-90018295D01*
X132379500Y-89503920D01*
X132382049Y-89479973D01*
X132382128Y-89478307D01*
X132384320Y-89468124D01*
X132383096Y-89457782D01*
X132383096Y-89457779D01*
X132380374Y-89434787D01*
X132380023Y-89428846D01*
X132379928Y-89428854D01*
X132379500Y-89423674D01*
X132379500Y-89418476D01*
X132378508Y-89412512D01*
X132376329Y-89399427D01*
X132375492Y-89393547D01*
X132370693Y-89352997D01*
X132370692Y-89352995D01*
X132369469Y-89342659D01*
X132365508Y-89334410D01*
X132364004Y-89325374D01*
X132359056Y-89316203D01*
X132339652Y-89280240D01*
X132336957Y-89274951D01*
X132318212Y-89235915D01*
X132314780Y-89228768D01*
X132311186Y-89224492D01*
X132309246Y-89222552D01*
X132307493Y-89220641D01*
X132307444Y-89220551D01*
X132307567Y-89220439D01*
X132307095Y-89219904D01*
X132304010Y-89214186D01*
X132264413Y-89177583D01*
X132260848Y-89174154D01*
X131856354Y-88769660D01*
X131841212Y-88750912D01*
X131840097Y-88749687D01*
X131834447Y-88740936D01*
X131826269Y-88734489D01*
X131826267Y-88734487D01*
X131808076Y-88720147D01*
X131803635Y-88716201D01*
X131803573Y-88716274D01*
X131799609Y-88712915D01*
X131795932Y-88709238D01*
X131780184Y-88697984D01*
X131775514Y-88694478D01*
X131735229Y-88662720D01*
X131726595Y-88659688D01*
X131719142Y-88654362D01*
X131670026Y-88639673D01*
X131664384Y-88637840D01*
X131623509Y-88623486D01*
X131623508Y-88623486D01*
X131616025Y-88620858D01*
X131610460Y-88620376D01*
X131607752Y-88620376D01*
X131605118Y-88620262D01*
X131605020Y-88620233D01*
X131605027Y-88620069D01*
X131604323Y-88620025D01*
X131598098Y-88618163D01*
X131544241Y-88620279D01*
X131539294Y-88620376D01*
X131025820Y-88620376D01*
X130957699Y-88600374D01*
X130931252Y-88574736D01*
X130930016Y-88575825D01*
X130924993Y-88570127D01*
X130920691Y-88563868D01*
X130895613Y-88541524D01*
X130838376Y-88490529D01*
X130802413Y-88458487D01*
X130795027Y-88454576D01*
X130669126Y-88387915D01*
X130669127Y-88387915D01*
X130662412Y-88384360D01*
X130508771Y-88345768D01*
X130501172Y-88345728D01*
X130501171Y-88345728D01*
X130435319Y-88345383D01*
X130350359Y-88344938D01*
X130342979Y-88346710D01*
X130342977Y-88346710D01*
X130203701Y-88380147D01*
X130203698Y-88380148D01*
X130196322Y-88381919D01*
X130055552Y-88454576D01*
X129936177Y-88558714D01*
X129845088Y-88688320D01*
X129817073Y-88760176D01*
X129811833Y-88773616D01*
X129787544Y-88835913D01*
X129786552Y-88843446D01*
X129786552Y-88843447D01*
X129770568Y-88964862D01*
X129766867Y-88992972D01*
X129767701Y-89000522D01*
X129782661Y-89136024D01*
X129784251Y-89150429D01*
X129786861Y-89157560D01*
X129786861Y-89157562D01*
X129833438Y-89284839D01*
X129838691Y-89299195D01*
X129842927Y-89305498D01*
X129842927Y-89305499D01*
X129919261Y-89419095D01*
X129927046Y-89430681D01*
X129932665Y-89435794D01*
X129932666Y-89435795D01*
X130038598Y-89532185D01*
X130044214Y-89537295D01*
X130183431Y-89612884D01*
X130336660Y-89653083D01*
X130406870Y-89654186D01*
X130470201Y-89655181D01*
X130537999Y-89676250D01*
X130583644Y-89730630D01*
X130593461Y-89767341D01*
X130596963Y-89799068D01*
X130584556Y-89868972D01*
X130560819Y-89901987D01*
X126119295Y-94343511D01*
X126100547Y-94358653D01*
X126099322Y-94359768D01*
X126090571Y-94365418D01*
X126084124Y-94373596D01*
X126084122Y-94373598D01*
X126069782Y-94391789D01*
X126065836Y-94396230D01*
X126065909Y-94396292D01*
X126062550Y-94400256D01*
X126058873Y-94403933D01*
X126047619Y-94419681D01*
X126044113Y-94424351D01*
X126012355Y-94464636D01*
X126009323Y-94473270D01*
X126003997Y-94480723D01*
X126001012Y-94490704D01*
X125989310Y-94529833D01*
X125987475Y-94535481D01*
X125970493Y-94583840D01*
X125970011Y-94589405D01*
X125970011Y-94592113D01*
X125969897Y-94594747D01*
X125969868Y-94594845D01*
X125969704Y-94594838D01*
X125969660Y-94595542D01*
X125967798Y-94601767D01*
X125968207Y-94612172D01*
X125969914Y-94655624D01*
X125970011Y-94660571D01*
X125970011Y-97965327D01*
X125950009Y-98033448D01*
X125896353Y-98079941D01*
X125826079Y-98090045D01*
X125784082Y-98076163D01*
X125783337Y-98075760D01*
X125684461Y-98022298D01*
X125501899Y-97965785D01*
X125495781Y-97965142D01*
X125495776Y-97965141D01*
X125317965Y-97946453D01*
X125317963Y-97946453D01*
X125311836Y-97945809D01*
X125266920Y-97949897D01*
X125197267Y-97936152D01*
X125146102Y-97886931D01*
X125129500Y-97824416D01*
X125129500Y-89864736D01*
X125752243Y-89864736D01*
X125770954Y-90034223D01*
X125829554Y-90194353D01*
X125833790Y-90200656D01*
X125833791Y-90200659D01*
X125920418Y-90329575D01*
X125920421Y-90329578D01*
X125924658Y-90335884D01*
X125930278Y-90340998D01*
X125930280Y-90341000D01*
X126026831Y-90428854D01*
X126050777Y-90450643D01*
X126200630Y-90532006D01*
X126365564Y-90575276D01*
X126452474Y-90576641D01*
X126528460Y-90577835D01*
X126528463Y-90577835D01*
X126536059Y-90577954D01*
X126543464Y-90576258D01*
X126543465Y-90576258D01*
X126604350Y-90562313D01*
X126702271Y-90539887D01*
X126778438Y-90501579D01*
X126847823Y-90466683D01*
X126847826Y-90466681D01*
X126854606Y-90463271D01*
X126984267Y-90352529D01*
X127083770Y-90214056D01*
X127147370Y-90055845D01*
X127171396Y-89887030D01*
X127171552Y-89872168D01*
X127151067Y-89702887D01*
X127090794Y-89543379D01*
X127069094Y-89511805D01*
X126998514Y-89409111D01*
X126998513Y-89409110D01*
X126997560Y-89407724D01*
X126997559Y-89407721D01*
X126994212Y-89402852D01*
X126995024Y-89402294D01*
X126967819Y-89344048D01*
X126966378Y-89325049D01*
X126966378Y-87499283D01*
X126986380Y-87431162D01*
X127003283Y-87410188D01*
X129422066Y-84991405D01*
X129484378Y-84957379D01*
X129511161Y-84954500D01*
X135988839Y-84954500D01*
X136056960Y-84974502D01*
X136077934Y-84991405D01*
X140010474Y-88923945D01*
X140044500Y-88986257D01*
X140046618Y-88999213D01*
X140059076Y-89112055D01*
X140117676Y-89272185D01*
X140121912Y-89278488D01*
X140121913Y-89278491D01*
X140208540Y-89407407D01*
X140208543Y-89407410D01*
X140212780Y-89413716D01*
X140218400Y-89418830D01*
X140218402Y-89418832D01*
X140333283Y-89523365D01*
X140338899Y-89528475D01*
X140488752Y-89609838D01*
X140653686Y-89653108D01*
X140740596Y-89654473D01*
X140816582Y-89655667D01*
X140816585Y-89655667D01*
X140824181Y-89655786D01*
X140831586Y-89654090D01*
X140831587Y-89654090D01*
X140892472Y-89640145D01*
X140990393Y-89617719D01*
X141093146Y-89566040D01*
X141135945Y-89544515D01*
X141135948Y-89544513D01*
X141142728Y-89541103D01*
X141272389Y-89430361D01*
X141371892Y-89291888D01*
X141435492Y-89133677D01*
X141459518Y-88964862D01*
X141459674Y-88950000D01*
X141439189Y-88780719D01*
X141378916Y-88621211D01*
X141347723Y-88575825D01*
X141286636Y-88486943D01*
X141286635Y-88486942D01*
X141282334Y-88480684D01*
X141276663Y-88475631D01*
X141160693Y-88372305D01*
X141160690Y-88372303D01*
X141155021Y-88367252D01*
X141148307Y-88363697D01*
X141011037Y-88291016D01*
X141011035Y-88291015D01*
X141004324Y-88287462D01*
X140996959Y-88285612D01*
X140846317Y-88247773D01*
X140846313Y-88247773D01*
X140838946Y-88245922D01*
X140831345Y-88245882D01*
X140831344Y-88245882D01*
X140810775Y-88245774D01*
X140742760Y-88225415D01*
X140722342Y-88208871D01*
X136656677Y-84143206D01*
X136649135Y-84133766D01*
X136648755Y-84134089D01*
X136642937Y-84127253D01*
X136638147Y-84119661D01*
X136598140Y-84084328D01*
X136592454Y-84078983D01*
X136581120Y-84067649D01*
X136572845Y-84061447D01*
X136565000Y-84055060D01*
X136536557Y-84029940D01*
X136529830Y-84023999D01*
X136521708Y-84020186D01*
X136518907Y-84018346D01*
X136504912Y-84009937D01*
X136501949Y-84008315D01*
X136494764Y-84002930D01*
X136486354Y-83999777D01*
X136486352Y-83999776D01*
X136450818Y-83986454D01*
X136441502Y-83982529D01*
X136399018Y-83962583D01*
X136390144Y-83961201D01*
X136386917Y-83960215D01*
X136371134Y-83956075D01*
X136367856Y-83955354D01*
X136359448Y-83952202D01*
X136345691Y-83951180D01*
X136312643Y-83948724D01*
X136302596Y-83947570D01*
X136294114Y-83946249D01*
X136294111Y-83946249D01*
X136289303Y-83945500D01*
X136273938Y-83945500D01*
X136264601Y-83945154D01*
X136257048Y-83944593D01*
X136215333Y-83941493D01*
X136206558Y-83943366D01*
X136197862Y-83943959D01*
X136183262Y-83945500D01*
X129320624Y-83945500D01*
X129308619Y-83944159D01*
X129308579Y-83944655D01*
X129299632Y-83943935D01*
X129290876Y-83941954D01*
X129247339Y-83944655D01*
X129237619Y-83945258D01*
X129229817Y-83945500D01*
X129213774Y-83945500D01*
X129209344Y-83946135D01*
X129209337Y-83946135D01*
X129203536Y-83946966D01*
X129193481Y-83947996D01*
X129155601Y-83950346D01*
X129155599Y-83950346D01*
X129146642Y-83950902D01*
X129138201Y-83953949D01*
X129134923Y-83954628D01*
X129119055Y-83958584D01*
X129115831Y-83959527D01*
X129106948Y-83960799D01*
X129098779Y-83964513D01*
X129098773Y-83964515D01*
X129064221Y-83980225D01*
X129054853Y-83984039D01*
X129010716Y-83999972D01*
X129003466Y-84005269D01*
X129000499Y-84006846D01*
X128986386Y-84015093D01*
X128983563Y-84016898D01*
X128975395Y-84020612D01*
X128968598Y-84026469D01*
X128968596Y-84026470D01*
X128939847Y-84051243D01*
X128931936Y-84057525D01*
X128921056Y-84065473D01*
X128910194Y-84076335D01*
X128903348Y-84082693D01*
X128865918Y-84114944D01*
X128861034Y-84122479D01*
X128855301Y-84129051D01*
X128846074Y-84140455D01*
X126155084Y-86831445D01*
X126145644Y-86838987D01*
X126145967Y-86839367D01*
X126139131Y-86845185D01*
X126131539Y-86849975D01*
X126125597Y-86856703D01*
X126096207Y-86889981D01*
X126090861Y-86895668D01*
X126079527Y-86907002D01*
X126076842Y-86910585D01*
X126076840Y-86910587D01*
X126073325Y-86915277D01*
X126066940Y-86923120D01*
X126035877Y-86958292D01*
X126032064Y-86966414D01*
X126030224Y-86969215D01*
X126021815Y-86983210D01*
X126020193Y-86986173D01*
X126014808Y-86993358D01*
X126011655Y-87001768D01*
X126011654Y-87001770D01*
X125998332Y-87037304D01*
X125994408Y-87046617D01*
X125974461Y-87089104D01*
X125973079Y-87097978D01*
X125972093Y-87101205D01*
X125967953Y-87116988D01*
X125967232Y-87120266D01*
X125964080Y-87128674D01*
X125963415Y-87137625D01*
X125960602Y-87175479D01*
X125959448Y-87185526D01*
X125957378Y-87198819D01*
X125957378Y-87214184D01*
X125957032Y-87223521D01*
X125953371Y-87272789D01*
X125955244Y-87281564D01*
X125955837Y-87290260D01*
X125957378Y-87304860D01*
X125957378Y-89324884D01*
X125934465Y-89397334D01*
X125912318Y-89428846D01*
X125836440Y-89536811D01*
X125800001Y-89630272D01*
X125790054Y-89655786D01*
X125774500Y-89695679D01*
X125773508Y-89703212D01*
X125773508Y-89703213D01*
X125758677Y-89815869D01*
X125752243Y-89864736D01*
X125129500Y-89864736D01*
X125129500Y-86409382D01*
X125149502Y-86341261D01*
X125166405Y-86320287D01*
X129346392Y-82140300D01*
X129408704Y-82106274D01*
X129479519Y-82111339D01*
X129526123Y-82141868D01*
X129586594Y-82204487D01*
X129586599Y-82204491D01*
X129591493Y-82209559D01*
X129733132Y-82302245D01*
X129891787Y-82361248D01*
X129898768Y-82362179D01*
X129898770Y-82362180D01*
X130052590Y-82382704D01*
X130052594Y-82382704D01*
X130059571Y-82383635D01*
X130066582Y-82382997D01*
X130066586Y-82382997D01*
X130221124Y-82368933D01*
X130228145Y-82368294D01*
X130389131Y-82315986D01*
X130534528Y-82229312D01*
X130657110Y-82112580D01*
X130734958Y-81995410D01*
X130746882Y-81977463D01*
X130746883Y-81977461D01*
X130750783Y-81971591D01*
X130810892Y-81813352D01*
X130823307Y-81725017D01*
X130833899Y-81649651D01*
X130833899Y-81649646D01*
X130834450Y-81645728D01*
X130834746Y-81624528D01*
X130817202Y-81468115D01*
X130816663Y-81463308D01*
X130816662Y-81463305D01*
X130815878Y-81456312D01*
X130760210Y-81296457D01*
X130745097Y-81272271D01*
X130725960Y-81203902D01*
X130746825Y-81136040D01*
X130801066Y-81090232D01*
X130851950Y-81079500D01*
X136190616Y-81079500D01*
X136258737Y-81099502D01*
X136279711Y-81116405D01*
X136720920Y-81557614D01*
X136754946Y-81619926D01*
X136756831Y-81662500D01*
X136740800Y-81789399D01*
X136757318Y-81957862D01*
X136810748Y-82118479D01*
X136814397Y-82124504D01*
X136872233Y-82220002D01*
X136898435Y-82263267D01*
X136903326Y-82268332D01*
X136903327Y-82268333D01*
X136938447Y-82304701D01*
X137016021Y-82385031D01*
X137157660Y-82477717D01*
X137316315Y-82536720D01*
X137323296Y-82537651D01*
X137323298Y-82537652D01*
X137477118Y-82558176D01*
X137477122Y-82558176D01*
X137484099Y-82559107D01*
X137491110Y-82558469D01*
X137491114Y-82558469D01*
X137645652Y-82544405D01*
X137652673Y-82543766D01*
X137813659Y-82491458D01*
X137959056Y-82404784D01*
X138081638Y-82288052D01*
X138085539Y-82282181D01*
X138171410Y-82152935D01*
X138171411Y-82152933D01*
X138175311Y-82147063D01*
X138235420Y-81988824D01*
X138258978Y-81821200D01*
X138259274Y-81800000D01*
X138249423Y-81712170D01*
X138241191Y-81638780D01*
X138241190Y-81638777D01*
X138240406Y-81631784D01*
X138184738Y-81471929D01*
X138095038Y-81328379D01*
X137975764Y-81208269D01*
X137832844Y-81117569D01*
X137782106Y-81099502D01*
X137680016Y-81063149D01*
X137680011Y-81063148D01*
X137673381Y-81060787D01*
X137666395Y-81059954D01*
X137666391Y-81059953D01*
X137547287Y-81045751D01*
X137505301Y-81040745D01*
X137498298Y-81041481D01*
X137498297Y-81041481D01*
X137358878Y-81056134D01*
X137289040Y-81043362D01*
X137256613Y-81019919D01*
X136706478Y-80469784D01*
X136691336Y-80451036D01*
X136690221Y-80449811D01*
X136684571Y-80441060D01*
X136676393Y-80434613D01*
X136676391Y-80434611D01*
X136658200Y-80420271D01*
X136653759Y-80416325D01*
X136653697Y-80416398D01*
X136649733Y-80413039D01*
X136646056Y-80409362D01*
X136630308Y-80398108D01*
X136625638Y-80394602D01*
X136585353Y-80362844D01*
X136576719Y-80359812D01*
X136569266Y-80354486D01*
X136520150Y-80339797D01*
X136514508Y-80337964D01*
X136473633Y-80323610D01*
X136473632Y-80323610D01*
X136466149Y-80320982D01*
X136460584Y-80320500D01*
X136457876Y-80320500D01*
X136455242Y-80320386D01*
X136455144Y-80320357D01*
X136455151Y-80320193D01*
X136454447Y-80320149D01*
X136448222Y-80318287D01*
X136394365Y-80320403D01*
X136389418Y-80320500D01*
X130030500Y-80320500D01*
X129962379Y-80300498D01*
X129915886Y-80246842D01*
X129904500Y-80194500D01*
X129904500Y-77918166D01*
X129904499Y-77918160D01*
X129904499Y-77885934D01*
X129897606Y-77864718D01*
X129892990Y-77845493D01*
X129891049Y-77833241D01*
X129889498Y-77823445D01*
X129879366Y-77803560D01*
X129871801Y-77785296D01*
X129867970Y-77773507D01*
X129867969Y-77773506D01*
X129864904Y-77764071D01*
X129851791Y-77746022D01*
X129841457Y-77729161D01*
X129835826Y-77718109D01*
X129831326Y-77709277D01*
X129740723Y-77618674D01*
X125532979Y-73410929D01*
X125498953Y-73348617D01*
X125497300Y-73304299D01*
X125508426Y-73225125D01*
X125508978Y-73221200D01*
X125509274Y-73200000D01*
X125490406Y-73031784D01*
X125434738Y-72871929D01*
X125345038Y-72728379D01*
X125318585Y-72701740D01*
X125230726Y-72613266D01*
X125225764Y-72608269D01*
X125082844Y-72517569D01*
X125055442Y-72507812D01*
X124930016Y-72463149D01*
X124930011Y-72463148D01*
X124923381Y-72460787D01*
X124916395Y-72459954D01*
X124916391Y-72459953D01*
X124797287Y-72445751D01*
X124755301Y-72440745D01*
X124748298Y-72441481D01*
X124748297Y-72441481D01*
X124593965Y-72457701D01*
X124593961Y-72457702D01*
X124586957Y-72458438D01*
X124580286Y-72460709D01*
X124433387Y-72510717D01*
X124433384Y-72510718D01*
X124426717Y-72512988D01*
X124420719Y-72516678D01*
X124420717Y-72516679D01*
X124288543Y-72597993D01*
X124288541Y-72597995D01*
X124282544Y-72601684D01*
X124161605Y-72720117D01*
X124157794Y-72726031D01*
X124157792Y-72726033D01*
X124138257Y-72756345D01*
X124069909Y-72862400D01*
X124067498Y-72869025D01*
X124014425Y-73014840D01*
X124014424Y-73014845D01*
X124012015Y-73021463D01*
X123990800Y-73189399D01*
X124007318Y-73357862D01*
X124060748Y-73518479D01*
X124148435Y-73663267D01*
X124266021Y-73785031D01*
X124407660Y-73877717D01*
X124566315Y-73936720D01*
X124573296Y-73937651D01*
X124573298Y-73937652D01*
X124727118Y-73958176D01*
X124727122Y-73958176D01*
X124734099Y-73959107D01*
X124741111Y-73958469D01*
X124741115Y-73958469D01*
X124861349Y-73947527D01*
X124931002Y-73961273D01*
X124961863Y-73983913D01*
X129058595Y-78080644D01*
X129092621Y-78142956D01*
X129095500Y-78169739D01*
X129095500Y-80515616D01*
X129075498Y-80583737D01*
X129058595Y-80604711D01*
X125091417Y-84571889D01*
X125029105Y-84605915D01*
X124958290Y-84600850D01*
X124901454Y-84558303D01*
X124884456Y-84527332D01*
X124879291Y-84513662D01*
X124834280Y-84394546D01*
X124773491Y-84306097D01*
X124748839Y-84270228D01*
X124726739Y-84202759D01*
X124744625Y-84134052D01*
X124750349Y-84125345D01*
X124827755Y-84017624D01*
X124886842Y-83870641D01*
X124909162Y-83713807D01*
X124909307Y-83700000D01*
X124890276Y-83542733D01*
X124834280Y-83394546D01*
X124744553Y-83263992D01*
X124626275Y-83158611D01*
X124618889Y-83154700D01*
X124492988Y-83088039D01*
X124492989Y-83088039D01*
X124486274Y-83084484D01*
X124332633Y-83045892D01*
X124325034Y-83045852D01*
X124325033Y-83045852D01*
X124259181Y-83045507D01*
X124174221Y-83045062D01*
X124166841Y-83046834D01*
X124166839Y-83046834D01*
X124027563Y-83080271D01*
X124027560Y-83080272D01*
X124020184Y-83082043D01*
X123879414Y-83154700D01*
X123760039Y-83258838D01*
X123668950Y-83388444D01*
X123611406Y-83536037D01*
X123610414Y-83543570D01*
X123610414Y-83543571D01*
X123595311Y-83658295D01*
X123590729Y-83693096D01*
X123594274Y-83725202D01*
X123581869Y-83795104D01*
X123558130Y-83828123D01*
X123019784Y-84366469D01*
X123001036Y-84381611D01*
X122999811Y-84382726D01*
X122991060Y-84388376D01*
X122984613Y-84396554D01*
X122984611Y-84396556D01*
X122970271Y-84414747D01*
X122966325Y-84419188D01*
X122966398Y-84419250D01*
X122963039Y-84423214D01*
X122959362Y-84426891D01*
X122948128Y-84442612D01*
X122944602Y-84447309D01*
X122912844Y-84487594D01*
X122909812Y-84496228D01*
X122904486Y-84503681D01*
X122901501Y-84513662D01*
X122889799Y-84552791D01*
X122887964Y-84558439D01*
X122873610Y-84599314D01*
X122870982Y-84606798D01*
X122870500Y-84612363D01*
X122870500Y-84615071D01*
X122870386Y-84617705D01*
X122870357Y-84617803D01*
X122870193Y-84617796D01*
X122870149Y-84618500D01*
X122868287Y-84624725D01*
X122870403Y-84678582D01*
X122870500Y-84683529D01*
X122870500Y-85348966D01*
X122850498Y-85417087D01*
X122833595Y-85438061D01*
X122128839Y-86142817D01*
X122110091Y-86157959D01*
X122108866Y-86159074D01*
X122100115Y-86164724D01*
X122093668Y-86172902D01*
X122093666Y-86172904D01*
X122079326Y-86191095D01*
X122075380Y-86195536D01*
X122075453Y-86195598D01*
X122072094Y-86199562D01*
X122068417Y-86203239D01*
X122057163Y-86218987D01*
X122053657Y-86223657D01*
X122021899Y-86263942D01*
X122018867Y-86272576D01*
X122013541Y-86280029D01*
X122010556Y-86290010D01*
X121998854Y-86329139D01*
X121997019Y-86334787D01*
X121989151Y-86357192D01*
X121980037Y-86383146D01*
X121979555Y-86388711D01*
X121979555Y-86391419D01*
X121979441Y-86394053D01*
X121979412Y-86394151D01*
X121979248Y-86394144D01*
X121979204Y-86394848D01*
X121977342Y-86401073D01*
X121979174Y-86447712D01*
X121979458Y-86454930D01*
X121979555Y-86459877D01*
X121979555Y-94881561D01*
X121959553Y-94949682D01*
X121942650Y-94970656D01*
X121490273Y-95423033D01*
X121471525Y-95438175D01*
X121470300Y-95439290D01*
X121461549Y-95444940D01*
X121455102Y-95453118D01*
X121455100Y-95453120D01*
X121440760Y-95471311D01*
X121436814Y-95475752D01*
X121436887Y-95475814D01*
X121433528Y-95479778D01*
X121429851Y-95483455D01*
X121418597Y-95499203D01*
X121415091Y-95503873D01*
X121383333Y-95544158D01*
X121380301Y-95552792D01*
X121374975Y-95560245D01*
X121371990Y-95570226D01*
X121360288Y-95609355D01*
X121358453Y-95615003D01*
X121341471Y-95663362D01*
X121340989Y-95668927D01*
X121340989Y-95671635D01*
X121340875Y-95674269D01*
X121340846Y-95674367D01*
X121340682Y-95674360D01*
X121340638Y-95675064D01*
X121338776Y-95681289D01*
X121339185Y-95691694D01*
X121340892Y-95735146D01*
X121340989Y-95740093D01*
X121340989Y-96866569D01*
X121338440Y-96890517D01*
X121338361Y-96892182D01*
X121336169Y-96902365D01*
X121339944Y-96934263D01*
X121340116Y-96935712D01*
X121340466Y-96941643D01*
X121340561Y-96941635D01*
X121340989Y-96946813D01*
X121340989Y-96952013D01*
X121341843Y-96957142D01*
X121341843Y-96957145D01*
X121344158Y-96971054D01*
X121344995Y-96976932D01*
X121349232Y-97012728D01*
X121351019Y-97027830D01*
X121354982Y-97036082D01*
X121356485Y-97045115D01*
X121361432Y-97054284D01*
X121361433Y-97054286D01*
X121380823Y-97090221D01*
X121383520Y-97095514D01*
X121402274Y-97134571D01*
X121402277Y-97134575D01*
X121405708Y-97141721D01*
X121409303Y-97145997D01*
X121411226Y-97147920D01*
X121412998Y-97149852D01*
X121413041Y-97149931D01*
X121412917Y-97150044D01*
X121413393Y-97150584D01*
X121416479Y-97156303D01*
X121424124Y-97163370D01*
X121456075Y-97192905D01*
X121459641Y-97196335D01*
X122348595Y-98085289D01*
X122382621Y-98147601D01*
X122385500Y-98174384D01*
X122385500Y-101157408D01*
X122365498Y-101225529D01*
X122317875Y-101269070D01*
X122234278Y-101312773D01*
X122234273Y-101312776D01*
X122228818Y-101315628D01*
X122079879Y-101435378D01*
X121957036Y-101581776D01*
X121954068Y-101587174D01*
X121954065Y-101587179D01*
X121890573Y-101702672D01*
X121864969Y-101749246D01*
X121807183Y-101931410D01*
X121785880Y-102121328D01*
X121801872Y-102311767D01*
X121854549Y-102495473D01*
X121857367Y-102500955D01*
X121857368Y-102500959D01*
X121939085Y-102659963D01*
X121939088Y-102659967D01*
X121941905Y-102665449D01*
X122060612Y-102815220D01*
X122065306Y-102819215D01*
X122158688Y-102898689D01*
X122206149Y-102939082D01*
X122211527Y-102942088D01*
X122211529Y-102942089D01*
X122289560Y-102985699D01*
X122372972Y-103032316D01*
X122549791Y-103089768D01*
X122549793Y-103089769D01*
X122554728Y-103091372D01*
X122554423Y-103092310D01*
X122611736Y-103123765D01*
X122645626Y-103186151D01*
X122640408Y-103256956D01*
X122611543Y-103301763D01*
X121390370Y-104522936D01*
X121328058Y-104556962D01*
X121257243Y-104551897D01*
X121200407Y-104509350D01*
X121180653Y-104470259D01*
X121131646Y-104307941D01*
X121126972Y-104296600D01*
X121078421Y-104205289D01*
X121068561Y-104195208D01*
X121061433Y-104197777D01*
X119752444Y-105506766D01*
X119745684Y-105519146D01*
X119750593Y-105525704D01*
X119827793Y-105568849D01*
X119839033Y-105573760D01*
X120008967Y-105628975D01*
X120009922Y-105629185D01*
X120010370Y-105629431D01*
X120014836Y-105630882D01*
X120014560Y-105631731D01*
X120072159Y-105663347D01*
X120106048Y-105725733D01*
X120100828Y-105796538D01*
X120071964Y-105841342D01*
X119141049Y-106772257D01*
X119122301Y-106787399D01*
X119121076Y-106788514D01*
X119112325Y-106794164D01*
X119105878Y-106802342D01*
X119105876Y-106802344D01*
X119091536Y-106820535D01*
X119087590Y-106824976D01*
X119087663Y-106825038D01*
X119084304Y-106829002D01*
X119080627Y-106832679D01*
X119069373Y-106848427D01*
X119065867Y-106853097D01*
X119034109Y-106893382D01*
X119031077Y-106902016D01*
X119025751Y-106909469D01*
X119022766Y-106919450D01*
X119011064Y-106958579D01*
X119009229Y-106964227D01*
X119006513Y-106971962D01*
X118992247Y-107012586D01*
X118991765Y-107018151D01*
X118991765Y-107020859D01*
X118991651Y-107023493D01*
X118991622Y-107023591D01*
X118991458Y-107023584D01*
X118991414Y-107024288D01*
X118989552Y-107030513D01*
X118989961Y-107040918D01*
X118991668Y-107084370D01*
X118991765Y-107089317D01*
X118991765Y-114697345D01*
X118989216Y-114721293D01*
X118989137Y-114722958D01*
X118986945Y-114733141D01*
X118254000Y-114733141D01*
X118254000Y-104667478D01*
X119246898Y-104667478D01*
X119261850Y-104845534D01*
X119264065Y-104857601D01*
X119313316Y-105029361D01*
X119317835Y-105040773D01*
X119371399Y-105144997D01*
X119381118Y-105155216D01*
X119387918Y-105152872D01*
X119852978Y-104687812D01*
X119860592Y-104673868D01*
X119860461Y-104672035D01*
X119856210Y-104665420D01*
X119393157Y-104202367D01*
X119380777Y-104195607D01*
X119374389Y-104200389D01*
X119328402Y-104284037D01*
X119323565Y-104295322D01*
X119269536Y-104465644D01*
X119266988Y-104477633D01*
X119247069Y-104655210D01*
X119246898Y-104667478D01*
X118254000Y-104667478D01*
X118254000Y-103831296D01*
X119745014Y-103831296D01*
X119747469Y-103838259D01*
X120212188Y-104302978D01*
X120226132Y-104310592D01*
X120227965Y-104310461D01*
X120234580Y-104306210D01*
X120697746Y-103843044D01*
X120704506Y-103830664D01*
X120699847Y-103824441D01*
X120609687Y-103775691D01*
X120598380Y-103770939D01*
X120427684Y-103718099D01*
X120415672Y-103715633D01*
X120237961Y-103696955D01*
X120225693Y-103696870D01*
X120047746Y-103713064D01*
X120035697Y-103715362D01*
X119864280Y-103765813D01*
X119852903Y-103770410D01*
X119755163Y-103821507D01*
X119745014Y-103831296D01*
X118254000Y-103831296D01*
X118254000Y-99769146D01*
X119745684Y-99769146D01*
X119750593Y-99775704D01*
X119827793Y-99818849D01*
X119839033Y-99823760D01*
X120008977Y-99878978D01*
X120020951Y-99881611D01*
X120198391Y-99902769D01*
X120210640Y-99903026D01*
X120388810Y-99889317D01*
X120400888Y-99887187D01*
X120572983Y-99839137D01*
X120584433Y-99834696D01*
X120695197Y-99778745D01*
X120705483Y-99769098D01*
X120703245Y-99762455D01*
X120237812Y-99297022D01*
X120223868Y-99289408D01*
X120222035Y-99289539D01*
X120215420Y-99293790D01*
X119752444Y-99756766D01*
X119745684Y-99769146D01*
X118254000Y-99769146D01*
X118254000Y-98917478D01*
X119246898Y-98917478D01*
X119261850Y-99095534D01*
X119264065Y-99107601D01*
X119313316Y-99279361D01*
X119317835Y-99290773D01*
X119371399Y-99394997D01*
X119381118Y-99405216D01*
X119387918Y-99402872D01*
X119852978Y-98937812D01*
X119859356Y-98926132D01*
X120589408Y-98926132D01*
X120589539Y-98927965D01*
X120593790Y-98934580D01*
X121056723Y-99397513D01*
X121069103Y-99404273D01*
X121075837Y-99399232D01*
X121116052Y-99328442D01*
X121121047Y-99317221D01*
X121177443Y-99147688D01*
X121180164Y-99135710D01*
X121202888Y-98955831D01*
X121203380Y-98948802D01*
X121203664Y-98928522D01*
X121203369Y-98921494D01*
X121185675Y-98741033D01*
X121183292Y-98728998D01*
X121131646Y-98557941D01*
X121126972Y-98546600D01*
X121078421Y-98455289D01*
X121068561Y-98445208D01*
X121061433Y-98447777D01*
X120597022Y-98912188D01*
X120589408Y-98926132D01*
X119859356Y-98926132D01*
X119860592Y-98923868D01*
X119860461Y-98922035D01*
X119856210Y-98915420D01*
X119393157Y-98452367D01*
X119380777Y-98445607D01*
X119374389Y-98450389D01*
X119328402Y-98534037D01*
X119323565Y-98545322D01*
X119269536Y-98715644D01*
X119266988Y-98727633D01*
X119247069Y-98905210D01*
X119246898Y-98917478D01*
X118254000Y-98917478D01*
X118254000Y-98081296D01*
X119745014Y-98081296D01*
X119747469Y-98088259D01*
X120212188Y-98552978D01*
X120226132Y-98560592D01*
X120227965Y-98560461D01*
X120234580Y-98556210D01*
X120697746Y-98093044D01*
X120704506Y-98080664D01*
X120699847Y-98074441D01*
X120609687Y-98025691D01*
X120598380Y-98020939D01*
X120427684Y-97968099D01*
X120415672Y-97965633D01*
X120237961Y-97946955D01*
X120225693Y-97946870D01*
X120047746Y-97963064D01*
X120035697Y-97965362D01*
X119864280Y-98015813D01*
X119852903Y-98020410D01*
X119755163Y-98071507D01*
X119745014Y-98081296D01*
X118254000Y-98081296D01*
X118254000Y-67868828D01*
X119896001Y-67868828D01*
X119897209Y-67881088D01*
X119908315Y-67936931D01*
X119917633Y-67959427D01*
X119959983Y-68022808D01*
X119977192Y-68040017D01*
X120040575Y-68082368D01*
X120063066Y-68091684D01*
X120118915Y-68102793D01*
X120131170Y-68104000D01*
X120727885Y-68104000D01*
X120743124Y-68099525D01*
X120744329Y-68098135D01*
X120746000Y-68090452D01*
X120746000Y-68085884D01*
X121254000Y-68085884D01*
X121258475Y-68101123D01*
X121259865Y-68102328D01*
X121267548Y-68103999D01*
X121868828Y-68103999D01*
X121881088Y-68102791D01*
X121936931Y-68091685D01*
X121959427Y-68082367D01*
X122022808Y-68040017D01*
X122040017Y-68022808D01*
X122082368Y-67959425D01*
X122091684Y-67936934D01*
X122102793Y-67881085D01*
X122104000Y-67868830D01*
X122104000Y-67272115D01*
X122099525Y-67256876D01*
X122098135Y-67255671D01*
X122090452Y-67254000D01*
X121272115Y-67254000D01*
X121256876Y-67258475D01*
X121255671Y-67259865D01*
X121254000Y-67267548D01*
X121254000Y-68085884D01*
X120746000Y-68085884D01*
X120746000Y-67272115D01*
X120741525Y-67256876D01*
X120740135Y-67255671D01*
X120732452Y-67254000D01*
X119914116Y-67254000D01*
X119898877Y-67258475D01*
X119897672Y-67259865D01*
X119896001Y-67267548D01*
X119896001Y-67868828D01*
X118254000Y-67868828D01*
X118254000Y-66727885D01*
X119896000Y-66727885D01*
X119900475Y-66743124D01*
X119901865Y-66744329D01*
X119909548Y-66746000D01*
X120727885Y-66746000D01*
X120743124Y-66741525D01*
X120744329Y-66740135D01*
X120746000Y-66732452D01*
X120746000Y-66727885D01*
X121254000Y-66727885D01*
X121258475Y-66743124D01*
X121259865Y-66744329D01*
X121267548Y-66746000D01*
X122085884Y-66746000D01*
X122101123Y-66741525D01*
X122102328Y-66740135D01*
X122103999Y-66732452D01*
X122103999Y-66131172D01*
X122102791Y-66118912D01*
X122091685Y-66063069D01*
X122082367Y-66040573D01*
X122040017Y-65977192D01*
X122022808Y-65959983D01*
X121959425Y-65917632D01*
X121936934Y-65908316D01*
X121881085Y-65897207D01*
X121868830Y-65896000D01*
X121272115Y-65896000D01*
X121256876Y-65900475D01*
X121255671Y-65901865D01*
X121254000Y-65909548D01*
X121254000Y-66727885D01*
X120746000Y-66727885D01*
X120746000Y-65914116D01*
X120741525Y-65898877D01*
X120740135Y-65897672D01*
X120732452Y-65896001D01*
X120131172Y-65896001D01*
X120118912Y-65897209D01*
X120063069Y-65908315D01*
X120040573Y-65917633D01*
X119977192Y-65959983D01*
X119959983Y-65977192D01*
X119917632Y-66040575D01*
X119908316Y-66063066D01*
X119897207Y-66118915D01*
X119896000Y-66131170D01*
X119896000Y-66727885D01*
X118254000Y-66727885D01*
X118254000Y-64430964D01*
X119891148Y-64430964D01*
X119904424Y-64633522D01*
X119905845Y-64639118D01*
X119905846Y-64639123D01*
X119952971Y-64824674D01*
X119954392Y-64830269D01*
X119956809Y-64835512D01*
X119994010Y-64916208D01*
X120039377Y-65014616D01*
X120156533Y-65180389D01*
X120301938Y-65322035D01*
X120470720Y-65434812D01*
X120476023Y-65437090D01*
X120476026Y-65437092D01*
X120560964Y-65473584D01*
X120657228Y-65514942D01*
X120730244Y-65531464D01*
X120849579Y-65558467D01*
X120849584Y-65558468D01*
X120855216Y-65559742D01*
X120860987Y-65559969D01*
X120860989Y-65559969D01*
X120920756Y-65562317D01*
X121058053Y-65567712D01*
X121158499Y-65553148D01*
X121253231Y-65539413D01*
X121253236Y-65539412D01*
X121258945Y-65538584D01*
X121264409Y-65536729D01*
X121264414Y-65536728D01*
X121445693Y-65475192D01*
X121445698Y-65475190D01*
X121451165Y-65473334D01*
X121492935Y-65449942D01*
X121539066Y-65424107D01*
X121628276Y-65374147D01*
X121633489Y-65369812D01*
X121779913Y-65248031D01*
X121784345Y-65244345D01*
X121841463Y-65175669D01*
X121910453Y-65092718D01*
X121910455Y-65092715D01*
X121914147Y-65088276D01*
X121994738Y-64944371D01*
X122010510Y-64916208D01*
X122010511Y-64916206D01*
X122013334Y-64911165D01*
X122015190Y-64905698D01*
X122015192Y-64905693D01*
X122076728Y-64724414D01*
X122076729Y-64724409D01*
X122078584Y-64718945D01*
X122079412Y-64713236D01*
X122079413Y-64713231D01*
X122100394Y-64568522D01*
X122107712Y-64518053D01*
X122109232Y-64460000D01*
X122090658Y-64257859D01*
X122089090Y-64252299D01*
X122037125Y-64068046D01*
X122037124Y-64068044D01*
X122035557Y-64062487D01*
X122024978Y-64041033D01*
X121948331Y-63885609D01*
X121945776Y-63880428D01*
X121824320Y-63717779D01*
X121675258Y-63579987D01*
X121670375Y-63576906D01*
X121670371Y-63576903D01*
X121508464Y-63474748D01*
X121503581Y-63471667D01*
X121315039Y-63396446D01*
X121309379Y-63395320D01*
X121309375Y-63395319D01*
X121121613Y-63357971D01*
X121121610Y-63357971D01*
X121115946Y-63356844D01*
X121110171Y-63356768D01*
X121110167Y-63356768D01*
X121008793Y-63355441D01*
X120912971Y-63354187D01*
X120907274Y-63355166D01*
X120907273Y-63355166D01*
X120718607Y-63387585D01*
X120712910Y-63388564D01*
X120522463Y-63458824D01*
X120348010Y-63562612D01*
X120343670Y-63566418D01*
X120343666Y-63566421D01*
X120239915Y-63657409D01*
X120195392Y-63696455D01*
X120069720Y-63855869D01*
X120067031Y-63860980D01*
X120067029Y-63860983D01*
X120054073Y-63885609D01*
X119975203Y-64035515D01*
X119915007Y-64229378D01*
X119891148Y-64430964D01*
X118254000Y-64430964D01*
X118254000Y-62275250D01*
X118274002Y-62207129D01*
X118320412Y-62164231D01*
X119488209Y-61537439D01*
X119490846Y-61536063D01*
X120871924Y-60836269D01*
X120874593Y-60834956D01*
X122271804Y-60167950D01*
X122274503Y-60166701D01*
X123687000Y-59532888D01*
X123689727Y-59531702D01*
X125116896Y-58931356D01*
X125119651Y-58930236D01*
X125146316Y-58919753D01*
X126560484Y-58363784D01*
X126563255Y-58362731D01*
X128017157Y-57830405D01*
X128019962Y-57829416D01*
X129485945Y-57331578D01*
X129488772Y-57330655D01*
X130966123Y-56867545D01*
X130968971Y-56866689D01*
X132456816Y-56438584D01*
X132459683Y-56437795D01*
X133957297Y-56044903D01*
X133960183Y-56044183D01*
X134667707Y-55876310D01*
X135466569Y-55686765D01*
X135469398Y-55686128D01*
X136983936Y-55364334D01*
X136986820Y-55363757D01*
X138508396Y-55077823D01*
X138511326Y-55077308D01*
X138918560Y-55010690D01*
X140004439Y-54833055D01*
X140027416Y-54831719D01*
X140029082Y-54831466D01*
X140041477Y-54832037D01*
X140048183Y-54829614D01*
X140055318Y-54829555D01*
X140066744Y-54824710D01*
X140078894Y-54822188D01*
X140079040Y-54822891D01*
X140089420Y-54820066D01*
X140167218Y-54809839D01*
X140251022Y-54798823D01*
X140269600Y-54797767D01*
X140369145Y-54799477D01*
X140458645Y-54801015D01*
X140477184Y-54802709D01*
X140663679Y-54833776D01*
X140681767Y-54838183D01*
X140861658Y-54896394D01*
X140878897Y-54903418D01*
X140946740Y-54937102D01*
X141048238Y-54987496D01*
X141064256Y-54996984D01*
X141219367Y-55105102D01*
X141233811Y-55116847D01*
X141371290Y-55246633D01*
X141383847Y-55260378D01*
X141465404Y-55364110D01*
X141500709Y-55409015D01*
X141511102Y-55424461D01*
X141604781Y-55588685D01*
X141612786Y-55605493D01*
X141681244Y-55781729D01*
X141686685Y-55799533D01*
X141728430Y-55983944D01*
X141731187Y-56002355D01*
X141743356Y-56164886D01*
X141742706Y-56175622D01*
X141743425Y-56175621D01*
X141743435Y-56188032D01*
X141741024Y-56200203D01*
X141743454Y-56212369D01*
X141743560Y-56212899D01*
X141746000Y-56237578D01*
X141746000Y-71320000D01*
X141725998Y-71388121D01*
X141672342Y-71434614D01*
X141620000Y-71446000D01*
X137126000Y-71446000D01*
X137122653Y-71446360D01*
X137122649Y-71446360D01*
X137075374Y-71451442D01*
X137075367Y-71451443D01*
X137072010Y-71451804D01*
X137068710Y-71452522D01*
X137068709Y-71452522D01*
X137021322Y-71462830D01*
X137021315Y-71462832D01*
X137019668Y-71463190D01*
X136993445Y-71470384D01*
X136952680Y-71493597D01*
X136912702Y-71516362D01*
X136912698Y-71516365D01*
X136907324Y-71519425D01*
X136853668Y-71565918D01*
X136822227Y-71598502D01*
X136776291Y-71686319D01*
X136756289Y-71754440D01*
X136746000Y-71826000D01*
X136746000Y-72647810D01*
X136747455Y-72674957D01*
X136750334Y-72701740D01*
X136779950Y-72796325D01*
X136813976Y-72858637D01*
X136816671Y-72862237D01*
X136854603Y-72912908D01*
X136854607Y-72912912D01*
X136857300Y-72916510D01*
X137783490Y-73842700D01*
X137784743Y-73843826D01*
X137784753Y-73843835D01*
X137795762Y-73853724D01*
X137803712Y-73860865D01*
X137824686Y-73877768D01*
X137912509Y-73923709D01*
X137918447Y-73925452D01*
X137918448Y-73925453D01*
X137936278Y-73930688D01*
X137980630Y-73943711D01*
X137985089Y-73944352D01*
X137985093Y-73944353D01*
X138007170Y-73947527D01*
X138052190Y-73954000D01*
X141092600Y-73954000D01*
X141160721Y-73974002D01*
X141181695Y-73990905D01*
X142709095Y-75518305D01*
X142743121Y-75580617D01*
X142746000Y-75607400D01*
X142746000Y-88438339D01*
X142725998Y-88506460D01*
X142709095Y-88527434D01*
X141327934Y-89908595D01*
X141265622Y-89942621D01*
X141238839Y-89945500D01*
X139302913Y-89945500D01*
X139282008Y-89943754D01*
X139262453Y-89940464D01*
X139256369Y-89940390D01*
X139254866Y-89940371D01*
X139254861Y-89940371D01*
X139250000Y-89940312D01*
X139245593Y-89940943D01*
X139242647Y-89941080D01*
X138592438Y-89959323D01*
X138592434Y-89959323D01*
X138590660Y-89959373D01*
X138588895Y-89959522D01*
X138588893Y-89959522D01*
X137935148Y-90014665D01*
X137935140Y-90014666D01*
X137933396Y-90014813D01*
X137931663Y-90015058D01*
X137931660Y-90015058D01*
X137745417Y-90041351D01*
X137280273Y-90107018D01*
X136633348Y-90235700D01*
X135994656Y-90400452D01*
X135366207Y-90600757D01*
X135364555Y-90601388D01*
X135364551Y-90601389D01*
X134751642Y-90835348D01*
X134751628Y-90835354D01*
X134749977Y-90835984D01*
X134748382Y-90836698D01*
X134748362Y-90836706D01*
X134229864Y-91068720D01*
X134147906Y-91105394D01*
X134146351Y-91106197D01*
X134146333Y-91106206D01*
X133693243Y-91340279D01*
X133561888Y-91408138D01*
X132993767Y-91743264D01*
X132992299Y-91744245D01*
X132446804Y-92108732D01*
X132446785Y-92108745D01*
X132445331Y-92109717D01*
X132443912Y-92110785D01*
X131950984Y-92481751D01*
X131918304Y-92506345D01*
X131414346Y-92931900D01*
X130935042Y-93385043D01*
X130481899Y-93864347D01*
X130056344Y-94368305D01*
X130055281Y-94369717D01*
X130055275Y-94369725D01*
X129783625Y-94730686D01*
X129659716Y-94895332D01*
X129658744Y-94896786D01*
X129658731Y-94896805D01*
X129341189Y-95372041D01*
X129293263Y-95443768D01*
X128958137Y-96011889D01*
X128957323Y-96013465D01*
X128656205Y-96596334D01*
X128656196Y-96596352D01*
X128655393Y-96597907D01*
X128654674Y-96599514D01*
X128654672Y-96599518D01*
X128386705Y-97198363D01*
X128386697Y-97198383D01*
X128385983Y-97199978D01*
X128385353Y-97201629D01*
X128385347Y-97201643D01*
X128178408Y-97743768D01*
X128150756Y-97816208D01*
X127950451Y-98444657D01*
X127785699Y-99083349D01*
X127657017Y-99730274D01*
X127636392Y-99876367D01*
X127570394Y-100343861D01*
X127564812Y-100383397D01*
X127564665Y-100385141D01*
X127564664Y-100385149D01*
X127509521Y-101038894D01*
X127509372Y-101040661D01*
X127509322Y-101042435D01*
X127509322Y-101042439D01*
X127508280Y-101079585D01*
X127491201Y-101688300D01*
X127490349Y-101693774D01*
X127490924Y-101698173D01*
X127490873Y-101700001D01*
X127491163Y-101700001D01*
X127491512Y-101702670D01*
X127491512Y-101702672D01*
X127494435Y-101725022D01*
X127495499Y-101741360D01*
X127495499Y-101815288D01*
X127493753Y-101836193D01*
X127490463Y-101855748D01*
X127490311Y-101868201D01*
X127490900Y-101872313D01*
X127490979Y-101874011D01*
X127508570Y-102500959D01*
X127509543Y-102535652D01*
X127565665Y-103201002D01*
X127565911Y-103202746D01*
X127565913Y-103202762D01*
X127654559Y-103830664D01*
X127659005Y-103862159D01*
X127789269Y-104517042D01*
X127956048Y-105163591D01*
X128158817Y-105799772D01*
X128225354Y-105974079D01*
X128381800Y-106383924D01*
X128396938Y-106423582D01*
X128397652Y-106425177D01*
X128397660Y-106425197D01*
X128668522Y-107030513D01*
X128669662Y-107033060D01*
X128670465Y-107034615D01*
X128670474Y-107034633D01*
X128888710Y-107457068D01*
X128976130Y-107626286D01*
X129053401Y-107757279D01*
X129314476Y-108199868D01*
X129314487Y-108199885D01*
X129315378Y-108201396D01*
X129316359Y-108202864D01*
X129685355Y-108755106D01*
X129685368Y-108755124D01*
X129686340Y-108756579D01*
X129687408Y-108757998D01*
X130066095Y-109261185D01*
X130087847Y-109290089D01*
X130088984Y-109291435D01*
X130088986Y-109291438D01*
X130116483Y-109324001D01*
X130518637Y-109800247D01*
X130977354Y-110285448D01*
X131462555Y-110744165D01*
X131972713Y-111174955D01*
X131974125Y-111176018D01*
X131974133Y-111176024D01*
X132229168Y-111367957D01*
X132506223Y-111576462D01*
X132507678Y-111577434D01*
X132507696Y-111577447D01*
X132940184Y-111866426D01*
X133061406Y-111947424D01*
X133062917Y-111948315D01*
X133062934Y-111948326D01*
X133323386Y-112101962D01*
X133636516Y-112286672D01*
X133638092Y-112287486D01*
X134228169Y-112592328D01*
X134228187Y-112592337D01*
X134229742Y-112593140D01*
X134231349Y-112593859D01*
X134231353Y-112593861D01*
X134837605Y-112865142D01*
X134837625Y-112865150D01*
X134839220Y-112865864D01*
X134840872Y-112866494D01*
X134840885Y-112866500D01*
X135040278Y-112942612D01*
X135463030Y-113103985D01*
X136099211Y-113306754D01*
X136745760Y-113473533D01*
X137165539Y-113557032D01*
X137398913Y-113603453D01*
X137398917Y-113603454D01*
X137400643Y-113603797D01*
X137402383Y-113604043D01*
X137402385Y-113604043D01*
X138060040Y-113696889D01*
X138060056Y-113696891D01*
X138061800Y-113697137D01*
X138323449Y-113719207D01*
X138725383Y-113753110D01*
X138725385Y-113753110D01*
X138727150Y-113753259D01*
X138728924Y-113753309D01*
X138728928Y-113753309D01*
X139372992Y-113771380D01*
X139378305Y-113771692D01*
X139382148Y-113772339D01*
X139388260Y-113772414D01*
X139389741Y-113772432D01*
X139389745Y-113772432D01*
X139394601Y-113772491D01*
X139421939Y-113768576D01*
X139439800Y-113767303D01*
X150501642Y-113767303D01*
X150569763Y-113787305D01*
X150590737Y-113804208D01*
X151962157Y-115175628D01*
X151996183Y-115237940D01*
X151998372Y-115277893D01*
X151990793Y-115350000D01*
X151991483Y-115356565D01*
X151994672Y-115386901D01*
X152009569Y-115528639D01*
X152011609Y-115534917D01*
X152011609Y-115534918D01*
X152032594Y-115599502D01*
X152065075Y-115699471D01*
X152154887Y-115855029D01*
X152159305Y-115859936D01*
X152159306Y-115859937D01*
X152209320Y-115915483D01*
X152275078Y-115988515D01*
X152280420Y-115992396D01*
X152280422Y-115992398D01*
X152415054Y-116090214D01*
X152420396Y-116094095D01*
X152426424Y-116096779D01*
X152426426Y-116096780D01*
X152575427Y-116163119D01*
X152584490Y-116167154D01*
X152671723Y-116185696D01*
X152753731Y-116203128D01*
X152753736Y-116203128D01*
X152760188Y-116204500D01*
X152939812Y-116204500D01*
X152946264Y-116203128D01*
X152946269Y-116203128D01*
X153028277Y-116185696D01*
X153115510Y-116167154D01*
X153124573Y-116163119D01*
X153273574Y-116096780D01*
X153273576Y-116096779D01*
X153279604Y-116094095D01*
X153284946Y-116090214D01*
X153419578Y-115992398D01*
X153419580Y-115992396D01*
X153424922Y-115988515D01*
X153490680Y-115915483D01*
X153540694Y-115859937D01*
X153540695Y-115859936D01*
X153545113Y-115855029D01*
X153634925Y-115699471D01*
X153667407Y-115599502D01*
X153688391Y-115534918D01*
X153688391Y-115534917D01*
X153690431Y-115528639D01*
X153705329Y-115386901D01*
X153708517Y-115356565D01*
X153709207Y-115350000D01*
X153694448Y-115209580D01*
X153691121Y-115177925D01*
X153691121Y-115177924D01*
X153690431Y-115171361D01*
X153642988Y-115025344D01*
X153636967Y-115006813D01*
X153636966Y-115006811D01*
X153634925Y-115000529D01*
X153621210Y-114976773D01*
X153559359Y-114869646D01*
X153545113Y-114844971D01*
X153529814Y-114827979D01*
X153429344Y-114716396D01*
X153429343Y-114716395D01*
X153424922Y-114711485D01*
X153279604Y-114605905D01*
X153273576Y-114603221D01*
X153273574Y-114603220D01*
X153121541Y-114535531D01*
X153121540Y-114535531D01*
X153115510Y-114532846D01*
X153027661Y-114514173D01*
X152946269Y-114496872D01*
X152946264Y-114496872D01*
X152939812Y-114495500D01*
X152761161Y-114495500D01*
X152693040Y-114475498D01*
X152672066Y-114458595D01*
X151432566Y-113219095D01*
X151398540Y-113156783D01*
X151403605Y-113085968D01*
X151446152Y-113029132D01*
X151512672Y-113004321D01*
X151521661Y-113004000D01*
X160462598Y-113004000D01*
X160487164Y-113006418D01*
X160500032Y-113008976D01*
X160501921Y-113008600D01*
X160511526Y-113008321D01*
X160708319Y-113002602D01*
X161148208Y-112989819D01*
X161150043Y-112989659D01*
X161150045Y-112989659D01*
X161792402Y-112933692D01*
X161792415Y-112933690D01*
X161794211Y-112933534D01*
X162435878Y-112839987D01*
X163071063Y-112709492D01*
X163559076Y-112579418D01*
X163695898Y-112542950D01*
X163695905Y-112542948D01*
X163697638Y-112542486D01*
X164200623Y-112376728D01*
X164311788Y-112340094D01*
X164311793Y-112340092D01*
X164313508Y-112339527D01*
X164315175Y-112338869D01*
X164315182Y-112338866D01*
X164914923Y-112101962D01*
X164914930Y-112101959D01*
X164916611Y-112101295D01*
X165504929Y-111828587D01*
X165875520Y-111630007D01*
X166074883Y-111523179D01*
X166074891Y-111523175D01*
X166076493Y-111522316D01*
X166629390Y-111183506D01*
X166630871Y-111182476D01*
X166630885Y-111182467D01*
X167160288Y-110814324D01*
X167160305Y-110814312D01*
X167161771Y-110813292D01*
X167466990Y-110573716D01*
X167670427Y-110414032D01*
X167670441Y-110414020D01*
X167671853Y-110412912D01*
X167677584Y-110407852D01*
X168156562Y-109984913D01*
X168157929Y-109983706D01*
X168162392Y-109979281D01*
X168508288Y-109636276D01*
X168618373Y-109527111D01*
X168657001Y-109484098D01*
X169050427Y-109046011D01*
X169050440Y-109045996D01*
X169051644Y-109044655D01*
X169456292Y-108537951D01*
X169457344Y-108536465D01*
X169457353Y-108536453D01*
X169829915Y-108010176D01*
X169830962Y-108008697D01*
X169862233Y-107958616D01*
X170149678Y-107498258D01*
X170174401Y-107458663D01*
X170376323Y-107089317D01*
X170484598Y-106891265D01*
X170484599Y-106891264D01*
X170485459Y-106889690D01*
X170502779Y-106853134D01*
X170762309Y-106305341D01*
X170763095Y-106303682D01*
X170781575Y-106258024D01*
X171005704Y-105704273D01*
X171005710Y-105704257D01*
X171006381Y-105702599D01*
X171214503Y-105088455D01*
X171386762Y-104463304D01*
X171443080Y-104200389D01*
X171522205Y-103831007D01*
X171522206Y-103831002D01*
X171522584Y-103829237D01*
X171525856Y-103808042D01*
X171621237Y-103190167D01*
X171621238Y-103190161D01*
X171621513Y-103188378D01*
X171630697Y-103092310D01*
X171683045Y-102544689D01*
X171683219Y-102542870D01*
X171701484Y-102055319D01*
X171707428Y-101896671D01*
X171707428Y-101896661D01*
X171707495Y-101894875D01*
X171695146Y-101289941D01*
X171694297Y-101248369D01*
X171694297Y-101248367D01*
X171694260Y-101246559D01*
X171678112Y-101040661D01*
X171643700Y-100601906D01*
X171643558Y-100600094D01*
X171610002Y-100355115D01*
X171555806Y-99959445D01*
X171555805Y-99959439D01*
X171555559Y-99957643D01*
X171555214Y-99955886D01*
X171555211Y-99955869D01*
X171430905Y-99323126D01*
X171430904Y-99323123D01*
X171430557Y-99321355D01*
X171268970Y-98693360D01*
X171225083Y-98556210D01*
X171094329Y-98147601D01*
X171071340Y-98075760D01*
X171069703Y-98071507D01*
X170838981Y-97472320D01*
X170838327Y-97470621D01*
X170570712Y-96879969D01*
X170269390Y-96305780D01*
X170018002Y-95887474D01*
X170000000Y-95822571D01*
X170000000Y-95120725D01*
X170020002Y-95052604D01*
X170073658Y-95006111D01*
X170145777Y-94996287D01*
X170263081Y-95014930D01*
X170263083Y-95014930D01*
X170269607Y-95015967D01*
X170276202Y-95015625D01*
X170276204Y-95015625D01*
X170421370Y-95008095D01*
X170421371Y-95008095D01*
X170427962Y-95007753D01*
X170434336Y-95006049D01*
X170434341Y-95006048D01*
X170574768Y-94968501D01*
X170574769Y-94968500D01*
X170581148Y-94966795D01*
X170587030Y-94963802D01*
X170587035Y-94963800D01*
X170716588Y-94897876D01*
X170716591Y-94897874D01*
X170722471Y-94894882D01*
X170838901Y-94800702D01*
X170846336Y-94795740D01*
X170853235Y-94785427D01*
X170853238Y-94785424D01*
X170853679Y-94784764D01*
X170869312Y-94765726D01*
X174566318Y-91068720D01*
X174585512Y-91052983D01*
X174585930Y-91052704D01*
X174596256Y-91045819D01*
X174601932Y-91037342D01*
X174606710Y-91032006D01*
X174606950Y-91031875D01*
X174607014Y-91031808D01*
X174607839Y-91030745D01*
X174761645Y-90858973D01*
X174761647Y-90858971D01*
X174764006Y-90856336D01*
X174771745Y-90845452D01*
X174908548Y-90653039D01*
X174910600Y-90650153D01*
X175033188Y-90428854D01*
X175130228Y-90195221D01*
X175200499Y-89952192D01*
X175239793Y-89722274D01*
X175246222Y-89703778D01*
X175250000Y-89700000D01*
X175250000Y-89585951D01*
X175250205Y-89578763D01*
X175256472Y-89469080D01*
X175256634Y-89467815D01*
X175256565Y-89467449D01*
X175256976Y-89460253D01*
X175258975Y-89450251D01*
X175256397Y-89437224D01*
X175254000Y-89412763D01*
X175254000Y-81737425D01*
X175256421Y-81712844D01*
X175256555Y-81712170D01*
X175258976Y-81700000D01*
X175257231Y-81691227D01*
X175251719Y-81638780D01*
X175250690Y-81628991D01*
X175250000Y-81615822D01*
X175250000Y-81450000D01*
X175205671Y-81405671D01*
X175185647Y-81379576D01*
X175116662Y-81260090D01*
X175113359Y-81254369D01*
X175007303Y-81136583D01*
X174914367Y-81069060D01*
X174884415Y-81047298D01*
X174884413Y-81047297D01*
X174879077Y-81043420D01*
X174836135Y-81024301D01*
X174798289Y-80998289D01*
X173536905Y-79736905D01*
X173502879Y-79674593D01*
X173500000Y-79647810D01*
X173500000Y-75200000D01*
X172000000Y-73700000D01*
X147500000Y-73700000D01*
X146469095Y-74730905D01*
X146406783Y-74764931D01*
X146335968Y-74759866D01*
X146279132Y-74717319D01*
X146254321Y-74650799D01*
X146254000Y-74641810D01*
X146254000Y-72880000D01*
X146274002Y-72811879D01*
X146327658Y-72765386D01*
X146380000Y-72754000D01*
X157462576Y-72754000D01*
X157487154Y-72756421D01*
X157500001Y-72758976D01*
X157512175Y-72756554D01*
X157513887Y-72756554D01*
X157519389Y-72755738D01*
X157647810Y-72743090D01*
X157789939Y-72699975D01*
X157795394Y-72697059D01*
X157795397Y-72697058D01*
X157915468Y-72632879D01*
X157915469Y-72632878D01*
X157920927Y-72629961D01*
X158035738Y-72535738D01*
X158129961Y-72420927D01*
X158199975Y-72289939D01*
X158243090Y-72147810D01*
X158255738Y-72019389D01*
X158256554Y-72013887D01*
X158256554Y-72012175D01*
X158258976Y-72000001D01*
X158256421Y-71987154D01*
X158254000Y-71962576D01*
X158254000Y-67201962D01*
X177903671Y-67201962D01*
X177928443Y-67299502D01*
X177932284Y-67310348D01*
X178012394Y-67484120D01*
X178018145Y-67494081D01*
X178128579Y-67650343D01*
X178136057Y-67659098D01*
X178273114Y-67792612D01*
X178282058Y-67799855D01*
X178441156Y-67906161D01*
X178451266Y-67911651D01*
X178627077Y-67987185D01*
X178638020Y-67990740D01*
X178703332Y-68005519D01*
X178717405Y-68004630D01*
X178720828Y-67995681D01*
X179229000Y-67995681D01*
X179232966Y-68009187D01*
X179241672Y-68010433D01*
X179420497Y-67949730D01*
X179430994Y-67945056D01*
X179597958Y-67851552D01*
X179607430Y-67845042D01*
X179754553Y-67722682D01*
X179762682Y-67714553D01*
X179885042Y-67567430D01*
X179891552Y-67557958D01*
X179985056Y-67390994D01*
X179989730Y-67380497D01*
X180050443Y-67201644D01*
X180049210Y-67192993D01*
X180035642Y-67189000D01*
X179247115Y-67189000D01*
X179231876Y-67193475D01*
X179230671Y-67194865D01*
X179229000Y-67202548D01*
X179229000Y-67995681D01*
X178720828Y-67995681D01*
X178721000Y-67995232D01*
X178721000Y-67207115D01*
X178716525Y-67191876D01*
X178715135Y-67190671D01*
X178707452Y-67189000D01*
X177918494Y-67189000D01*
X177904963Y-67192973D01*
X177903671Y-67201962D01*
X158254000Y-67201962D01*
X158254000Y-66677799D01*
X177902943Y-66677799D01*
X177909675Y-66681000D01*
X178702885Y-66681000D01*
X178718124Y-66676525D01*
X178719329Y-66675135D01*
X178721000Y-66667452D01*
X178721000Y-66662885D01*
X179229000Y-66662885D01*
X179233475Y-66678124D01*
X179234865Y-66679329D01*
X179242548Y-66681000D01*
X180032398Y-66681000D01*
X180045929Y-66677027D01*
X180047098Y-66668892D01*
X180011658Y-66543231D01*
X180007533Y-66532484D01*
X179922903Y-66360871D01*
X179916893Y-66351063D01*
X179802400Y-66197739D01*
X179794710Y-66189199D01*
X179654192Y-66059304D01*
X179645067Y-66052303D01*
X179483236Y-65950195D01*
X179472989Y-65944974D01*
X179295260Y-65874068D01*
X179284232Y-65870801D01*
X179246769Y-65863350D01*
X179233894Y-65864502D01*
X179229000Y-65879658D01*
X179229000Y-66662885D01*
X178721000Y-66662885D01*
X178721000Y-65876500D01*
X178717194Y-65863538D01*
X178702279Y-65861602D01*
X178693732Y-65863071D01*
X178682620Y-65866048D01*
X178503095Y-65932279D01*
X178492717Y-65937229D01*
X178328273Y-66035063D01*
X178318961Y-66041829D01*
X178175097Y-66167994D01*
X178167180Y-66176337D01*
X178048718Y-66326605D01*
X178042450Y-66336256D01*
X177953358Y-66505592D01*
X177948953Y-66516227D01*
X177903162Y-66663698D01*
X177902943Y-66677799D01*
X158254000Y-66677799D01*
X158254000Y-56232312D01*
X158255809Y-56211038D01*
X158256789Y-56205318D01*
X158256789Y-56205317D01*
X158258884Y-56193087D01*
X158256139Y-56180986D01*
X158255808Y-56168579D01*
X158256726Y-56168554D01*
X158255821Y-56157861D01*
X158265246Y-55983446D01*
X158267972Y-55963320D01*
X158310689Y-55768036D01*
X158316614Y-55748610D01*
X158390149Y-55562731D01*
X158399118Y-55544509D01*
X158452707Y-55454717D01*
X158501566Y-55372851D01*
X158513339Y-55356318D01*
X158605621Y-55246633D01*
X158642036Y-55203351D01*
X158656321Y-55188915D01*
X158807914Y-55058619D01*
X158824333Y-55046665D01*
X158917013Y-54990017D01*
X158994896Y-54942413D01*
X159013017Y-54933255D01*
X159198109Y-54857764D01*
X159217472Y-54851634D01*
X159302743Y-54832037D01*
X159412294Y-54806860D01*
X159432390Y-54803921D01*
X159631872Y-54791030D01*
X159652177Y-54791358D01*
G37*
%TD.AperFunction*%
%TA.AperFunction,Conductor*%
G36*
X178350502Y-106554485D02*
G01*
X178426594Y-106605328D01*
X178470720Y-106634812D01*
X178476023Y-106637090D01*
X178476026Y-106637092D01*
X178564707Y-106675192D01*
X178657228Y-106714942D01*
X178730244Y-106731464D01*
X178849579Y-106758467D01*
X178849584Y-106758468D01*
X178855216Y-106759742D01*
X178860987Y-106759969D01*
X178860989Y-106759969D01*
X178920756Y-106762317D01*
X179058053Y-106767712D01*
X179158499Y-106753148D01*
X179253231Y-106739413D01*
X179253236Y-106739412D01*
X179258945Y-106738584D01*
X179264409Y-106736729D01*
X179264414Y-106736728D01*
X179445693Y-106675192D01*
X179445698Y-106675190D01*
X179451165Y-106673334D01*
X179572599Y-106605328D01*
X179607445Y-106585813D01*
X179676653Y-106569979D01*
X179743435Y-106594076D01*
X179786588Y-106650453D01*
X179795011Y-106695747D01*
X179795011Y-106970000D01*
X179775009Y-107038121D01*
X179721353Y-107084614D01*
X179669011Y-107096000D01*
X179272115Y-107096000D01*
X179256876Y-107100475D01*
X179255671Y-107101865D01*
X179254000Y-107109548D01*
X179254000Y-109285884D01*
X179258475Y-109301123D01*
X179259865Y-109302328D01*
X179267548Y-109303999D01*
X179669011Y-109303999D01*
X179737132Y-109324001D01*
X179783625Y-109377657D01*
X179795011Y-109429999D01*
X179795011Y-118615827D01*
X179775009Y-118683948D01*
X179758106Y-118704922D01*
X178819595Y-119643433D01*
X178757283Y-119677459D01*
X178686468Y-119672394D01*
X178629632Y-119629847D01*
X178604821Y-119563327D01*
X178604500Y-119554338D01*
X178604500Y-119020499D01*
X178624502Y-118952378D01*
X178678158Y-118905885D01*
X178730500Y-118894499D01*
X178922572Y-118894499D01*
X178925966Y-118894130D01*
X178925972Y-118894130D01*
X178976433Y-118888649D01*
X178976437Y-118888648D01*
X178984291Y-118887795D01*
X179065921Y-118857194D01*
X179111254Y-118840200D01*
X179111256Y-118840199D01*
X179119661Y-118837048D01*
X179133321Y-118826811D01*
X179228171Y-118755725D01*
X179235347Y-118750347D01*
X179285175Y-118683861D01*
X179316665Y-118641844D01*
X179316666Y-118641842D01*
X179322048Y-118634661D01*
X179328734Y-118616828D01*
X179370023Y-118506686D01*
X179370023Y-118506684D01*
X179372795Y-118499291D01*
X179377722Y-118453944D01*
X179379131Y-118440970D01*
X179379131Y-118440969D01*
X179379500Y-118437573D01*
X179379499Y-117042428D01*
X179375929Y-117009557D01*
X179373649Y-116988567D01*
X179373648Y-116988563D01*
X179372795Y-116980709D01*
X179336261Y-116883253D01*
X179325200Y-116853746D01*
X179325199Y-116853744D01*
X179322048Y-116845339D01*
X179315201Y-116836202D01*
X179250798Y-116750269D01*
X179235347Y-116729653D01*
X179119661Y-116642952D01*
X179111256Y-116639801D01*
X179111254Y-116639800D01*
X178991686Y-116594977D01*
X178991684Y-116594977D01*
X178984291Y-116592205D01*
X178976441Y-116591352D01*
X178976440Y-116591352D01*
X178925970Y-116585869D01*
X178925969Y-116585869D01*
X178922573Y-116585500D01*
X178459267Y-116585500D01*
X178391146Y-116565498D01*
X178344653Y-116511842D01*
X178334549Y-116441568D01*
X178364043Y-116376988D01*
X178423769Y-116338604D01*
X178441188Y-116334804D01*
X178489835Y-116327751D01*
X178501019Y-116325066D01*
X178690917Y-116260604D01*
X178701420Y-116255928D01*
X178826830Y-116185696D01*
X178836693Y-116175619D01*
X178833738Y-116167949D01*
X178237811Y-115572021D01*
X178223868Y-115564408D01*
X178222034Y-115564539D01*
X178215420Y-115568790D01*
X177621092Y-116163119D01*
X177614899Y-116174461D01*
X177624781Y-116186950D01*
X177667199Y-116215292D01*
X177677307Y-116220780D01*
X177861564Y-116299943D01*
X177872497Y-116303495D01*
X178018833Y-116336608D01*
X178080860Y-116371151D01*
X178114364Y-116433745D01*
X178108710Y-116504516D01*
X178065691Y-116560995D01*
X177998966Y-116585251D01*
X177991036Y-116585501D01*
X177527428Y-116585501D01*
X177524034Y-116585870D01*
X177524028Y-116585870D01*
X177473567Y-116591351D01*
X177473563Y-116591352D01*
X177465709Y-116592205D01*
X177390678Y-116620332D01*
X177338746Y-116639800D01*
X177338744Y-116639801D01*
X177330339Y-116642952D01*
X177214653Y-116729653D01*
X177199202Y-116750269D01*
X177134800Y-116836202D01*
X177127952Y-116845339D01*
X177124801Y-116853744D01*
X177124800Y-116853746D01*
X177096450Y-116929371D01*
X177077205Y-116980709D01*
X177070500Y-117042427D01*
X177070501Y-118437572D01*
X177070870Y-118440966D01*
X177070870Y-118440972D01*
X177074248Y-118472067D01*
X177077205Y-118499291D01*
X177090812Y-118535587D01*
X177121267Y-118616828D01*
X177127952Y-118634661D01*
X177133334Y-118641842D01*
X177133335Y-118641844D01*
X177164825Y-118683861D01*
X177214653Y-118750347D01*
X177221829Y-118755725D01*
X177316680Y-118826811D01*
X177330339Y-118837048D01*
X177338744Y-118840199D01*
X177338746Y-118840200D01*
X177458314Y-118885023D01*
X177458316Y-118885023D01*
X177465709Y-118887795D01*
X177473559Y-118888648D01*
X177473560Y-118888648D01*
X177524021Y-118894130D01*
X177527427Y-118894500D01*
X177719500Y-118894500D01*
X177787621Y-118914502D01*
X177834114Y-118968158D01*
X177845500Y-119020500D01*
X177845500Y-119765616D01*
X177825498Y-119833737D01*
X177808595Y-119854711D01*
X174879711Y-122783595D01*
X174817399Y-122817621D01*
X174790616Y-122820500D01*
X174553920Y-122820500D01*
X174529972Y-122817951D01*
X174528307Y-122817872D01*
X174518124Y-122815680D01*
X174507783Y-122816904D01*
X174484777Y-122819627D01*
X174478846Y-122819977D01*
X174478854Y-122820072D01*
X174473676Y-122820500D01*
X174468476Y-122820500D01*
X174463347Y-122821354D01*
X174463344Y-122821354D01*
X174449435Y-122823669D01*
X174443557Y-122824506D01*
X174402999Y-122829306D01*
X174402998Y-122829306D01*
X174392659Y-122830530D01*
X174384407Y-122834493D01*
X174375374Y-122835996D01*
X174366205Y-122840943D01*
X174366203Y-122840944D01*
X174330268Y-122860334D01*
X174324975Y-122863031D01*
X174285913Y-122881787D01*
X174285907Y-122881791D01*
X174278768Y-122885219D01*
X174274492Y-122888813D01*
X174272553Y-122890752D01*
X174270638Y-122892508D01*
X174270552Y-122892555D01*
X174270439Y-122892433D01*
X174269904Y-122892905D01*
X174264186Y-122895990D01*
X174257118Y-122903636D01*
X174257117Y-122903637D01*
X174227607Y-122935561D01*
X174224178Y-122939127D01*
X174044391Y-123118915D01*
X173879711Y-123283595D01*
X173817398Y-123317620D01*
X173790615Y-123320500D01*
X167553920Y-123320500D01*
X167529973Y-123317951D01*
X167528307Y-123317872D01*
X167518124Y-123315680D01*
X167507782Y-123316904D01*
X167507779Y-123316904D01*
X167484787Y-123319626D01*
X167478846Y-123319977D01*
X167478854Y-123320072D01*
X167473674Y-123320500D01*
X167468476Y-123320500D01*
X167463354Y-123321353D01*
X167463349Y-123321353D01*
X167449427Y-123323671D01*
X167443550Y-123324508D01*
X167437049Y-123325277D01*
X167402997Y-123329307D01*
X167402995Y-123329308D01*
X167392659Y-123330531D01*
X167384410Y-123334492D01*
X167375374Y-123335996D01*
X167366205Y-123340943D01*
X167366203Y-123340944D01*
X167330240Y-123360348D01*
X167324951Y-123363043D01*
X167285915Y-123381788D01*
X167278768Y-123385220D01*
X167274492Y-123388814D01*
X167272552Y-123390754D01*
X167270641Y-123392507D01*
X167270551Y-123392556D01*
X167270439Y-123392433D01*
X167269904Y-123392905D01*
X167264186Y-123395990D01*
X167257119Y-123403635D01*
X167227584Y-123435586D01*
X167224154Y-123439152D01*
X164629711Y-126033595D01*
X164567399Y-126067621D01*
X164540616Y-126070500D01*
X163209384Y-126070500D01*
X163141263Y-126050498D01*
X163120289Y-126033595D01*
X161565090Y-124478396D01*
X161531064Y-124416084D01*
X161536129Y-124345269D01*
X161578676Y-124288433D01*
X161642765Y-124263820D01*
X161686227Y-124259865D01*
X161694469Y-124259115D01*
X161701490Y-124258476D01*
X161862476Y-124206168D01*
X162007873Y-124119494D01*
X162130455Y-124002762D01*
X162148579Y-123975483D01*
X162202936Y-123929813D01*
X162253527Y-123919210D01*
X163249356Y-123919210D01*
X163258788Y-123916145D01*
X163258790Y-123916145D01*
X163270577Y-123912315D01*
X163289803Y-123907699D01*
X163302052Y-123905759D01*
X163311845Y-123904208D01*
X163331729Y-123894076D01*
X163349995Y-123886511D01*
X163361786Y-123882680D01*
X163371219Y-123879615D01*
X163389279Y-123866494D01*
X163406136Y-123856164D01*
X163426013Y-123846036D01*
X163448801Y-123823248D01*
X163448805Y-123823245D01*
X168655222Y-118616828D01*
X168717534Y-118582802D01*
X168788349Y-118587867D01*
X168845185Y-118630414D01*
X168870220Y-118700978D01*
X168870403Y-118705637D01*
X168870500Y-118710582D01*
X168870500Y-119740616D01*
X168850498Y-119808737D01*
X168833595Y-119829711D01*
X168269784Y-120393522D01*
X168251036Y-120408664D01*
X168249811Y-120409779D01*
X168241060Y-120415429D01*
X168234613Y-120423607D01*
X168234611Y-120423609D01*
X168220271Y-120441800D01*
X168216325Y-120446241D01*
X168216398Y-120446303D01*
X168213039Y-120450267D01*
X168209362Y-120453944D01*
X168198108Y-120469692D01*
X168194602Y-120474362D01*
X168162844Y-120514647D01*
X168159812Y-120523281D01*
X168154486Y-120530734D01*
X168140679Y-120576903D01*
X168139799Y-120579844D01*
X168137964Y-120585492D01*
X168123610Y-120626367D01*
X168120982Y-120633851D01*
X168120500Y-120639416D01*
X168120500Y-120642124D01*
X168120386Y-120644758D01*
X168120357Y-120644856D01*
X168120193Y-120644849D01*
X168120149Y-120645553D01*
X168118287Y-120651778D01*
X168118696Y-120662183D01*
X168120403Y-120705635D01*
X168120500Y-120710582D01*
X168120500Y-121105187D01*
X168100498Y-121173308D01*
X168077330Y-121200135D01*
X168010039Y-121258838D01*
X167918950Y-121388444D01*
X167861406Y-121536037D01*
X167860414Y-121543570D01*
X167860414Y-121543571D01*
X167845359Y-121657930D01*
X167840729Y-121693096D01*
X167849421Y-121771824D01*
X167856893Y-121839500D01*
X167858113Y-121850553D01*
X167860723Y-121857684D01*
X167860723Y-121857686D01*
X167901081Y-121967969D01*
X167912553Y-121999319D01*
X167916789Y-122005622D01*
X167916789Y-122005623D01*
X167978605Y-122097614D01*
X168000908Y-122130805D01*
X168006527Y-122135918D01*
X168006528Y-122135919D01*
X168023326Y-122151204D01*
X168118076Y-122237419D01*
X168257293Y-122313008D01*
X168410522Y-122353207D01*
X168494477Y-122354526D01*
X168561319Y-122355576D01*
X168561322Y-122355576D01*
X168568916Y-122355695D01*
X168723332Y-122320329D01*
X168830450Y-122266455D01*
X168858072Y-122252563D01*
X168858075Y-122252561D01*
X168864855Y-122249151D01*
X168870626Y-122244222D01*
X168870629Y-122244220D01*
X168979536Y-122151204D01*
X168979536Y-122151203D01*
X168985314Y-122146269D01*
X169077755Y-122017624D01*
X169136842Y-121870641D01*
X169159162Y-121713807D01*
X169159307Y-121700000D01*
X169140276Y-121542733D01*
X169084280Y-121394546D01*
X169039406Y-121329253D01*
X168998855Y-121270251D01*
X168998854Y-121270249D01*
X168994553Y-121263992D01*
X168921681Y-121199065D01*
X168884126Y-121138816D01*
X168879500Y-121104989D01*
X168879500Y-120909384D01*
X168899502Y-120841263D01*
X168916405Y-120820289D01*
X169480216Y-120256478D01*
X169498964Y-120241336D01*
X169500189Y-120240221D01*
X169508940Y-120234571D01*
X169515387Y-120226393D01*
X169515389Y-120226391D01*
X169529729Y-120208200D01*
X169533678Y-120203756D01*
X169533604Y-120203694D01*
X169536957Y-120199737D01*
X169540638Y-120196056D01*
X169551865Y-120180346D01*
X169555421Y-120175609D01*
X169571625Y-120155055D01*
X169587156Y-120135353D01*
X169590189Y-120126716D01*
X169595513Y-120119266D01*
X169610202Y-120070151D01*
X169612034Y-120064514D01*
X169626390Y-120023633D01*
X169626390Y-120023632D01*
X169629018Y-120016149D01*
X169629500Y-120010584D01*
X169629500Y-120007876D01*
X169629614Y-120005242D01*
X169629643Y-120005144D01*
X169629807Y-120005151D01*
X169629851Y-120004447D01*
X169631713Y-119998222D01*
X169629597Y-119944365D01*
X169629500Y-119939418D01*
X169629500Y-118909384D01*
X169649502Y-118841263D01*
X169666405Y-118820289D01*
X170096178Y-118390516D01*
X170158490Y-118356490D01*
X170187252Y-118353627D01*
X170311318Y-118355576D01*
X170311321Y-118355576D01*
X170318916Y-118355695D01*
X170473332Y-118320329D01*
X170553385Y-118280067D01*
X170608072Y-118252563D01*
X170608075Y-118252561D01*
X170614855Y-118249151D01*
X170620626Y-118244222D01*
X170620629Y-118244220D01*
X170729536Y-118151204D01*
X170729536Y-118151203D01*
X170735314Y-118146269D01*
X170827755Y-118017624D01*
X170886842Y-117870641D01*
X170894737Y-117815166D01*
X170908581Y-117717891D01*
X170908581Y-117717888D01*
X170909162Y-117713807D01*
X170909307Y-117700000D01*
X170908233Y-117691120D01*
X170902094Y-117640394D01*
X170890276Y-117542733D01*
X170834280Y-117394546D01*
X170806972Y-117354812D01*
X170748855Y-117270251D01*
X170748854Y-117270249D01*
X170744553Y-117263992D01*
X170626275Y-117158611D01*
X170486274Y-117084484D01*
X170467079Y-117079662D01*
X170463088Y-117078660D01*
X170401893Y-117042665D01*
X170369872Y-116979299D01*
X170377193Y-116908681D01*
X170404689Y-116867361D01*
X172096622Y-115175428D01*
X177066831Y-115175428D01*
X177079947Y-115375531D01*
X177081748Y-115386901D01*
X177131109Y-115581263D01*
X177134950Y-115592110D01*
X177218907Y-115774227D01*
X177224658Y-115784188D01*
X177237781Y-115802758D01*
X177248371Y-115811147D01*
X177261669Y-115804120D01*
X177852979Y-115212811D01*
X177859356Y-115201132D01*
X178589408Y-115201132D01*
X178589539Y-115202966D01*
X178593790Y-115209580D01*
X179189037Y-115804826D01*
X179201412Y-115811583D01*
X179207992Y-115806657D01*
X179280928Y-115676420D01*
X179285604Y-115665917D01*
X179350066Y-115476019D01*
X179352751Y-115464836D01*
X179381823Y-115264328D01*
X179382453Y-115256945D01*
X179383847Y-115203704D01*
X179383604Y-115196305D01*
X179365066Y-114994553D01*
X179362969Y-114983238D01*
X179308535Y-114790231D01*
X179304413Y-114779492D01*
X179215718Y-114599636D01*
X179212571Y-114594501D01*
X179202737Y-114587120D01*
X179190321Y-114593890D01*
X178597021Y-115187189D01*
X178589408Y-115201132D01*
X177859356Y-115201132D01*
X177860592Y-115198868D01*
X177860461Y-115197034D01*
X177856210Y-115190420D01*
X177259477Y-114593688D01*
X177247102Y-114586931D01*
X177241136Y-114591397D01*
X177156967Y-114751375D01*
X177152562Y-114762009D01*
X177093095Y-114953525D01*
X177090703Y-114964779D01*
X177067132Y-115163927D01*
X177066831Y-115175428D01*
X172096622Y-115175428D01*
X174170645Y-113101405D01*
X174232957Y-113067379D01*
X174259740Y-113064500D01*
X177059453Y-113064500D01*
X177127574Y-113084502D01*
X177173879Y-113137749D01*
X177220890Y-113239723D01*
X177343350Y-113413000D01*
X177495337Y-113561059D01*
X177500133Y-113564264D01*
X177500136Y-113564266D01*
X177601955Y-113632299D01*
X177671760Y-113678941D01*
X177677063Y-113681219D01*
X177677066Y-113681221D01*
X177714461Y-113697287D01*
X177866711Y-113762699D01*
X177909986Y-113772491D01*
X178072458Y-113809255D01*
X178134485Y-113843798D01*
X178167989Y-113906391D01*
X178162335Y-113977162D01*
X178119316Y-114033642D01*
X178065987Y-114056328D01*
X177930741Y-114079567D01*
X177919620Y-114082547D01*
X177731478Y-114151956D01*
X177721100Y-114156906D01*
X177623824Y-114214780D01*
X177614226Y-114225113D01*
X177617713Y-114233502D01*
X178212189Y-114827979D01*
X178226132Y-114835592D01*
X178227966Y-114835461D01*
X178234580Y-114831210D01*
X178828636Y-114237153D01*
X178835393Y-114224778D01*
X178829363Y-114216722D01*
X178756036Y-114170456D01*
X178745785Y-114165233D01*
X178559527Y-114090924D01*
X178548489Y-114087654D01*
X178372365Y-114052621D01*
X178309455Y-114019714D01*
X178274323Y-113958019D01*
X178278123Y-113887124D01*
X178319649Y-113829538D01*
X178378865Y-113804346D01*
X178424449Y-113797736D01*
X178495667Y-113787410D01*
X178501131Y-113785555D01*
X178501136Y-113785554D01*
X178596713Y-113753110D01*
X178696589Y-113719207D01*
X178774221Y-113675731D01*
X178876670Y-113618357D01*
X178876674Y-113618354D01*
X178881717Y-113615530D01*
X179044852Y-113479852D01*
X179180530Y-113316717D01*
X179183354Y-113311674D01*
X179183357Y-113311670D01*
X179281383Y-113136632D01*
X179281384Y-113136630D01*
X179284207Y-113131589D01*
X179326050Y-113008321D01*
X179350554Y-112936136D01*
X179350555Y-112936131D01*
X179352410Y-112930667D01*
X179354624Y-112915404D01*
X179374461Y-112778585D01*
X179382857Y-112720681D01*
X179384446Y-112660000D01*
X179368919Y-112491024D01*
X179365560Y-112454462D01*
X179365559Y-112454459D01*
X179365031Y-112448708D01*
X179360547Y-112432806D01*
X179309004Y-112250051D01*
X179309003Y-112250049D01*
X179307436Y-112244492D01*
X179293093Y-112215406D01*
X179216145Y-112059372D01*
X179213590Y-112054191D01*
X179182489Y-112012541D01*
X179090089Y-111888803D01*
X179090088Y-111888802D01*
X179086636Y-111884179D01*
X179062524Y-111861890D01*
X178935066Y-111744069D01*
X178935063Y-111744067D01*
X178930826Y-111740150D01*
X178751377Y-111626926D01*
X178708809Y-111609943D01*
X178652950Y-111566121D01*
X178629500Y-111492913D01*
X178629500Y-111143166D01*
X178629499Y-111143160D01*
X178629499Y-111110934D01*
X178622606Y-111089718D01*
X178617990Y-111070493D01*
X178616049Y-111058241D01*
X178614498Y-111048445D01*
X178604366Y-111028560D01*
X178596801Y-111010296D01*
X178592970Y-110998507D01*
X178592969Y-110998506D01*
X178589904Y-110989071D01*
X178576791Y-110971022D01*
X178566457Y-110954161D01*
X178563185Y-110947738D01*
X178556326Y-110934277D01*
X178365005Y-110742956D01*
X178191405Y-110569355D01*
X178157379Y-110507043D01*
X178154500Y-110480260D01*
X178154500Y-109430000D01*
X178174502Y-109361879D01*
X178228158Y-109315386D01*
X178280500Y-109304000D01*
X178727885Y-109304000D01*
X178743124Y-109299525D01*
X178744329Y-109298135D01*
X178746000Y-109290452D01*
X178746000Y-107114116D01*
X178741525Y-107098877D01*
X178740135Y-107097672D01*
X178732452Y-107096001D01*
X178280500Y-107096001D01*
X178212379Y-107075999D01*
X178165886Y-107022343D01*
X178154500Y-106970001D01*
X178154500Y-106659250D01*
X178174502Y-106591129D01*
X178228158Y-106544636D01*
X178298432Y-106534532D01*
X178350502Y-106554485D01*
G37*
%TD.AperFunction*%
%TA.AperFunction,Conductor*%
G36*
X124397523Y-100134671D02*
G01*
X124404106Y-100140800D01*
X124888595Y-100625289D01*
X124922621Y-100687601D01*
X124925500Y-100714384D01*
X124925500Y-103697408D01*
X124905498Y-103765529D01*
X124857875Y-103809070D01*
X124774278Y-103852773D01*
X124774273Y-103852776D01*
X124768818Y-103855628D01*
X124619879Y-103975378D01*
X124497036Y-104121776D01*
X124494068Y-104127174D01*
X124494065Y-104127179D01*
X124443880Y-104218467D01*
X124404969Y-104289246D01*
X124403108Y-104295113D01*
X124403107Y-104295115D01*
X124349754Y-104463304D01*
X124347183Y-104471410D01*
X124325880Y-104661328D01*
X124331951Y-104733623D01*
X124341349Y-104845534D01*
X124341872Y-104851767D01*
X124394549Y-105035473D01*
X124397367Y-105040955D01*
X124397368Y-105040959D01*
X124479085Y-105199963D01*
X124479088Y-105199967D01*
X124481905Y-105205449D01*
X124600612Y-105355220D01*
X124746149Y-105479082D01*
X124751527Y-105482088D01*
X124751529Y-105482089D01*
X124795684Y-105506766D01*
X124912972Y-105572316D01*
X125094728Y-105631372D01*
X125284493Y-105654000D01*
X125290628Y-105653528D01*
X125290630Y-105653528D01*
X125354393Y-105648622D01*
X125475039Y-105639339D01*
X125659108Y-105587945D01*
X125787202Y-105523241D01*
X125857023Y-105510381D01*
X125922714Y-105537311D01*
X125963417Y-105595481D01*
X125970011Y-105635707D01*
X125970011Y-105741105D01*
X125950009Y-105809226D01*
X125933106Y-105830200D01*
X121525144Y-110238162D01*
X121462832Y-110272188D01*
X121389360Y-110266097D01*
X121315039Y-110236446D01*
X121309379Y-110235320D01*
X121309375Y-110235319D01*
X121121613Y-110197971D01*
X121121610Y-110197971D01*
X121115946Y-110196844D01*
X121110171Y-110196768D01*
X121110167Y-110196768D01*
X121008793Y-110195441D01*
X120912971Y-110194187D01*
X120907274Y-110195166D01*
X120907273Y-110195166D01*
X120718607Y-110227585D01*
X120712910Y-110228564D01*
X120522463Y-110298824D01*
X120348010Y-110402612D01*
X120343670Y-110406418D01*
X120343666Y-110406421D01*
X120232746Y-110503696D01*
X120195392Y-110536455D01*
X120069720Y-110695869D01*
X120067031Y-110700980D01*
X120067029Y-110700983D01*
X119988273Y-110850673D01*
X119938853Y-110901645D01*
X119869721Y-110917808D01*
X119802825Y-110894029D01*
X119759404Y-110837858D01*
X119750765Y-110792005D01*
X119750765Y-109261650D01*
X119770767Y-109193529D01*
X119824423Y-109147036D01*
X119894697Y-109136932D01*
X119959277Y-109166426D01*
X119991191Y-109208898D01*
X120037396Y-109309124D01*
X120043145Y-109319081D01*
X120153579Y-109475343D01*
X120161057Y-109484098D01*
X120298114Y-109617612D01*
X120307058Y-109624855D01*
X120466156Y-109731161D01*
X120476266Y-109736651D01*
X120652077Y-109812185D01*
X120663020Y-109815740D01*
X120728332Y-109830519D01*
X120742405Y-109829630D01*
X120745828Y-109820681D01*
X121254000Y-109820681D01*
X121257966Y-109834187D01*
X121266672Y-109835433D01*
X121445497Y-109774730D01*
X121455994Y-109770056D01*
X121622958Y-109676552D01*
X121632430Y-109670042D01*
X121779553Y-109547682D01*
X121787682Y-109539553D01*
X121910042Y-109392430D01*
X121916552Y-109382958D01*
X122010056Y-109215994D01*
X122014730Y-109205497D01*
X122075443Y-109026644D01*
X122074210Y-109017993D01*
X122060642Y-109014000D01*
X121272115Y-109014000D01*
X121256876Y-109018475D01*
X121255671Y-109019865D01*
X121254000Y-109027548D01*
X121254000Y-109820681D01*
X120745828Y-109820681D01*
X120746000Y-109820232D01*
X120746000Y-108487885D01*
X121254000Y-108487885D01*
X121258475Y-108503124D01*
X121259865Y-108504329D01*
X121267548Y-108506000D01*
X122057398Y-108506000D01*
X122070929Y-108502027D01*
X122072098Y-108493892D01*
X122036658Y-108368231D01*
X122032533Y-108357484D01*
X121947903Y-108185871D01*
X121941893Y-108176063D01*
X121827400Y-108022739D01*
X121819710Y-108014199D01*
X121679192Y-107884304D01*
X121670067Y-107877303D01*
X121508236Y-107775195D01*
X121497989Y-107769974D01*
X121320260Y-107699068D01*
X121309232Y-107695801D01*
X121271769Y-107688350D01*
X121258894Y-107689502D01*
X121254000Y-107704658D01*
X121254000Y-108487885D01*
X120746000Y-108487885D01*
X120746000Y-107701500D01*
X120742194Y-107688538D01*
X120727279Y-107686602D01*
X120718732Y-107688071D01*
X120707620Y-107691048D01*
X120528095Y-107757279D01*
X120517717Y-107762229D01*
X120353273Y-107860063D01*
X120343961Y-107866829D01*
X120200097Y-107992994D01*
X120192180Y-108001337D01*
X120073718Y-108151605D01*
X120067450Y-108161256D01*
X119988273Y-108311747D01*
X119938854Y-108362719D01*
X119869721Y-108378882D01*
X119802825Y-108355103D01*
X119759405Y-108298932D01*
X119750765Y-108253079D01*
X119750765Y-107288119D01*
X119770767Y-107219998D01*
X119787670Y-107199024D01*
X124039727Y-102946967D01*
X124058475Y-102931825D01*
X124059700Y-102930710D01*
X124068451Y-102925060D01*
X124074898Y-102916882D01*
X124074900Y-102916880D01*
X124089240Y-102898689D01*
X124093186Y-102894248D01*
X124093113Y-102894186D01*
X124096472Y-102890222D01*
X124100149Y-102886545D01*
X124111403Y-102870797D01*
X124114909Y-102866127D01*
X124146667Y-102825842D01*
X124149699Y-102817208D01*
X124155025Y-102809755D01*
X124169714Y-102760639D01*
X124171547Y-102754997D01*
X124185901Y-102714122D01*
X124185901Y-102714121D01*
X124188529Y-102706638D01*
X124189011Y-102701073D01*
X124189011Y-102698365D01*
X124189125Y-102695731D01*
X124189154Y-102695633D01*
X124189318Y-102695640D01*
X124189362Y-102694936D01*
X124191224Y-102688711D01*
X124189108Y-102634854D01*
X124189011Y-102629907D01*
X124189011Y-100229895D01*
X124209013Y-100161774D01*
X124262669Y-100115281D01*
X124332943Y-100105177D01*
X124397523Y-100134671D01*
G37*
%TD.AperFunction*%
%TD*%
%TA.AperFunction,Conductor*%
%TO.N,+12V*%
G36*
X141688121Y-71720002D02*
G01*
X141734614Y-71773658D01*
X141746000Y-71826000D01*
X141746000Y-71962576D01*
X141743579Y-71987154D01*
X141741024Y-72000001D01*
X141743446Y-72012175D01*
X141743446Y-72013887D01*
X141744262Y-72019389D01*
X141756910Y-72147810D01*
X141800025Y-72289939D01*
X141870039Y-72420927D01*
X141964262Y-72535738D01*
X142079073Y-72629961D01*
X142084531Y-72632878D01*
X142084532Y-72632879D01*
X142204603Y-72697058D01*
X142204606Y-72697059D01*
X142210061Y-72699975D01*
X142352190Y-72743090D01*
X142480611Y-72755738D01*
X142486113Y-72756554D01*
X142487825Y-72756554D01*
X142499999Y-72758976D01*
X142512846Y-72756421D01*
X142537424Y-72754000D01*
X145874000Y-72754000D01*
X145942121Y-72774002D01*
X145988614Y-72827658D01*
X146000000Y-72880000D01*
X146000000Y-88147810D01*
X145979998Y-88215931D01*
X145963095Y-88236905D01*
X145286905Y-88913095D01*
X145224593Y-88947121D01*
X145197810Y-88950000D01*
X143126000Y-88950000D01*
X143057879Y-88929998D01*
X143011386Y-88876342D01*
X143000000Y-88824000D01*
X143000000Y-75450000D01*
X141250000Y-73700000D01*
X138052190Y-73700000D01*
X137984069Y-73679998D01*
X137963095Y-73663095D01*
X137036905Y-72736905D01*
X137002879Y-72674593D01*
X137000000Y-72647810D01*
X137000000Y-71826000D01*
X137020002Y-71757879D01*
X137073658Y-71711386D01*
X137126000Y-71700000D01*
X141620000Y-71700000D01*
X141688121Y-71720002D01*
G37*
%TD.AperFunction*%
%TD*%
M02*
