%TF.GenerationSoftware,KiCad,Pcbnew,(6.0.0-0)*%
%TF.CreationDate,2022-04-04T00:03:28-05:00*%
%TF.ProjectId,SmartNeonPSU,536d6172-744e-4656-9f6e-5053552e6b69,rev?*%
%TF.SameCoordinates,Original*%
%TF.FileFunction,Soldermask,Bot*%
%TF.FilePolarity,Negative*%
%FSLAX46Y46*%
G04 Gerber Fmt 4.6, Leading zero omitted, Abs format (unit mm)*
G04 Created by KiCad (PCBNEW (6.0.0-0)) date 2022-04-04 00:03:28*
%MOMM*%
%LPD*%
G01*
G04 APERTURE LIST*
G04 Aperture macros list*
%AMRoundRect*
0 Rectangle with rounded corners*
0 $1 Rounding radius*
0 $2 $3 $4 $5 $6 $7 $8 $9 X,Y pos of 4 corners*
0 Add a 4 corners polygon primitive as box body*
4,1,4,$2,$3,$4,$5,$6,$7,$8,$9,$2,$3,0*
0 Add four circle primitives for the rounded corners*
1,1,$1+$1,$2,$3*
1,1,$1+$1,$4,$5*
1,1,$1+$1,$6,$7*
1,1,$1+$1,$8,$9*
0 Add four rect primitives between the rounded corners*
20,1,$1+$1,$2,$3,$4,$5,0*
20,1,$1+$1,$4,$5,$6,$7,0*
20,1,$1+$1,$6,$7,$8,$9,0*
20,1,$1+$1,$8,$9,$2,$3,0*%
%AMFreePoly0*
4,1,22,0.500000,-0.750000,0.000000,-0.750000,0.000000,-0.745033,-0.079941,-0.743568,-0.215256,-0.701293,-0.333266,-0.622738,-0.424486,-0.514219,-0.481581,-0.384460,-0.499164,-0.250000,-0.500000,-0.250000,-0.500000,0.250000,-0.499164,0.250000,-0.499963,0.256109,-0.478152,0.396186,-0.417904,0.524511,-0.324060,0.630769,-0.204165,0.706417,-0.067858,0.745374,0.000000,0.744959,0.000000,0.750000,
0.500000,0.750000,0.500000,-0.750000,0.500000,-0.750000,$1*%
%AMFreePoly1*
4,1,20,0.000000,0.744959,0.073905,0.744508,0.209726,0.703889,0.328688,0.626782,0.421226,0.519385,0.479903,0.390333,0.500000,0.250000,0.500000,-0.250000,0.499851,-0.262216,0.476331,-0.402017,0.414519,-0.529596,0.319384,-0.634700,0.198574,-0.708877,0.061801,-0.746166,0.000000,-0.745033,0.000000,-0.750000,-0.500000,-0.750000,-0.500000,0.750000,0.000000,0.750000,0.000000,0.744959,
0.000000,0.744959,$1*%
G04 Aperture macros list end*
%ADD10C,0.800000*%
%ADD11C,6.400000*%
%ADD12O,6.000000X2.700000*%
%ADD13RoundRect,0.250200X0.649800X-0.649800X0.649800X0.649800X-0.649800X0.649800X-0.649800X-0.649800X0*%
%ADD14C,1.800000*%
%ADD15C,1.440000*%
%ADD16R,1.700000X1.700000*%
%ADD17O,1.700000X1.700000*%
%ADD18RoundRect,0.250000X0.250000X0.475000X-0.250000X0.475000X-0.250000X-0.475000X0.250000X-0.475000X0*%
%ADD19FreePoly0,180.000000*%
%ADD20FreePoly1,180.000000*%
%ADD21RoundRect,0.249999X0.850001X-0.450001X0.850001X0.450001X-0.850001X0.450001X-0.850001X-0.450001X0*%
G04 APERTURE END LIST*
D10*
%TO.C,H4*%
X175302944Y-76602944D03*
X178697056Y-79997056D03*
X178697056Y-76602944D03*
X179400000Y-78300000D03*
X175302944Y-79997056D03*
X177000000Y-80700000D03*
X174600000Y-78300000D03*
X177000000Y-75900000D03*
D11*
X177000000Y-78300000D03*
%TD*%
D10*
%TO.C,H3*%
X178697056Y-128602944D03*
X175302944Y-128602944D03*
X177000000Y-127900000D03*
X174600000Y-130300000D03*
X175302944Y-131997056D03*
D11*
X177000000Y-130300000D03*
D10*
X178697056Y-131997056D03*
X177000000Y-132700000D03*
X179400000Y-130300000D03*
%TD*%
D12*
%TO.C,J5*%
X160500000Y-97550000D03*
X160500000Y-106050000D03*
%TD*%
D13*
%TO.C,U1*%
X178225000Y-117740000D03*
D14*
X178225000Y-115200000D03*
X178225000Y-112660000D03*
%TD*%
D15*
%TO.C,RV2*%
X120225000Y-104675000D03*
X122765000Y-102135000D03*
X125305000Y-104675000D03*
%TD*%
D12*
%TO.C,J6*%
X139500000Y-106050000D03*
X139500000Y-97550000D03*
%TD*%
D10*
%TO.C,H2*%
X121302944Y-131997056D03*
X124697056Y-128602944D03*
X123000000Y-127900000D03*
X125400000Y-130300000D03*
X123000000Y-132700000D03*
X120600000Y-130300000D03*
X121302944Y-128602944D03*
D11*
X123000000Y-130300000D03*
D10*
X124697056Y-131997056D03*
%TD*%
D16*
%TO.C,J3*%
X121000000Y-124000000D03*
D17*
X121000000Y-121460000D03*
X121000000Y-118920000D03*
X121000000Y-116380000D03*
X121000000Y-113840000D03*
X121000000Y-111300000D03*
X121000000Y-108760000D03*
%TD*%
D16*
%TO.C,J1*%
X121000000Y-67000000D03*
D17*
X121000000Y-64460000D03*
%TD*%
D10*
%TO.C,H1*%
X121302944Y-79997056D03*
X123000000Y-75900000D03*
X124697056Y-79997056D03*
X125400000Y-78300000D03*
X120600000Y-78300000D03*
X124697056Y-76602944D03*
X121302944Y-76602944D03*
X123000000Y-80700000D03*
D11*
X123000000Y-78300000D03*
%TD*%
D15*
%TO.C,RV1*%
X120225000Y-98925000D03*
X122765000Y-96385000D03*
X125305000Y-98925000D03*
%TD*%
D16*
%TO.C,J4*%
X178975000Y-69475000D03*
D17*
X178975000Y-66935000D03*
X178975000Y-64395000D03*
%TD*%
D16*
%TO.C,J2*%
X179000000Y-108200000D03*
D17*
X179000000Y-105660000D03*
X179000000Y-103120000D03*
X179000000Y-100580000D03*
X179000000Y-98040000D03*
X179000000Y-95500000D03*
X179000000Y-92960000D03*
X179000000Y-90420000D03*
X179000000Y-87880000D03*
X179000000Y-85340000D03*
%TD*%
D18*
%TO.C,C2*%
X143950000Y-84950000D03*
X142050000Y-84950000D03*
%TD*%
D19*
%TO.C,JP2*%
X127380000Y-116380000D03*
D20*
X126080000Y-116380000D03*
%TD*%
D19*
%TO.C,JP1*%
X127380000Y-121460000D03*
D20*
X126080000Y-121460000D03*
%TD*%
D21*
%TO.C,C21*%
X153722317Y-96050000D03*
X153722317Y-91950000D03*
%TD*%
M02*
