M48
; DRILL file {KiCad (6.0.0-0)} date Monday, April 04, 2022 at 12:03:26 AM
; FORMAT={-:-/ absolute / inch / decimal}
; #@! TF.CreationDate,2022-04-04T00:03:26-05:00
; #@! TF.GenerationSoftware,Kicad,Pcbnew,(6.0.0-0)
; #@! TF.FileFunction,Plated,1,2,PTH
FMAT,2
INCH
; #@! TA.AperFunction,Plated,PTH,ViaDrill
T1C0.0157
; #@! TA.AperFunction,Plated,PTH,ViaDrill
T2C0.0177
; #@! TA.AperFunction,Plated,PTH,ViaDrill
T3C0.0197
; #@! TA.AperFunction,Plated,PTH,ComponentDrill
T4C0.0197
; #@! TA.AperFunction,Plated,PTH,ViaDrill
T5C0.0236
; #@! TA.AperFunction,Plated,PTH,ComponentDrill
T6C0.0315
; #@! TA.AperFunction,Plated,PTH,ComponentDrill
T7C0.0354
; #@! TA.AperFunction,Plated,PTH,ComponentDrill
T8C0.0394
; #@! TA.AperFunction,Plated,PTH,ComponentDrill
T9C0.0591
; #@! TA.AperFunction,Plated,PTH,ComponentDrill
T10C0.1260
%
G90
G05
T1
X4.8459Y-3.4156
X4.8917Y-3.2953
X4.8917Y-3.3346
X4.9409Y-3.5807
X4.9803Y-3.6102
X5.0295Y-3.8071
X5.0492Y-4.2795
X5.0689Y-3.0846
X5.085Y-4.6077
X5.0886Y-3.5217
X5.1066Y-4.6879
X5.128Y-2.6457
X5.128Y-2.7835
X5.1349Y-3.5039
X5.142Y-5.0577
X5.1673Y-2.6457
X5.1673Y-2.7835
X5.1673Y-3.5334
X5.2067Y-2.6457
X5.2067Y-2.7835
X5.2362Y-4.6573
X5.2461Y-2.6457
X5.2461Y-2.7835
X5.2461Y-3.5217
X5.2461Y-4.4764
X5.3248Y-3.5217
X5.3642Y-4.9291
X5.3642Y-5.0276
X5.4035Y-3.5217
X5.4232Y-2.8425
X5.4331Y-4.9783
X5.4724Y-2.8425
X5.4882Y-4.811
X5.4961Y-2.2461
X5.502Y-3.1181
X5.502Y-3.1673
X5.502Y-3.2165
X5.502Y-4.9291
X5.502Y-5.0276
X5.5217Y-2.8425
X5.5315Y-4.811
X5.5512Y-3.1181
X5.5512Y-3.1673
X5.5512Y-3.2165
X5.5709Y-2.8425
X5.6004Y-3.3839
X5.6004Y-3.4331
X5.6102Y-4.7421
X5.6201Y-2.9016
X5.6398Y-4.7717
X5.6405Y-4.9636
X5.6496Y-3.3839
X5.6496Y-3.4331
X5.6496Y-3.4823
X5.6594Y-4.7126
X5.6654Y-5.0866
X5.6665Y-4.9086
X5.6693Y-2.9016
X5.6693Y-2.9508
X5.6988Y-3.3839
X5.6988Y-3.4331
X5.6988Y-3.4823
X5.7185Y-2.9016
X5.7185Y-2.9508
X5.7913Y-4.8692
X5.8366Y-4.6043
X5.8366Y-4.6437
X5.8366Y-4.6831
X5.9055Y-4.5846
X5.9055Y-4.624
X5.9055Y-4.6634
X5.9055Y-4.7028
X5.9252Y-4.5059
X5.9252Y-4.5453
X5.9449Y-4.5846
X5.9449Y-4.624
X5.9449Y-4.6634
X5.9449Y-4.7028
X5.9843Y-4.6043
X5.9843Y-4.6437
X5.9843Y-4.6831
X6.0925Y-4.752
X6.1575Y-5.2237
X6.2195Y-4.9281
X6.2244Y-5.2238
X6.315Y-2.2461
X6.3681Y-4.752
X6.437Y-5.0295
X6.4665Y-4.9193
X6.4961Y-4.4764
X6.4961Y-5.0295
X6.6339Y-4.7913
X6.6929Y-4.2795
X6.7028Y-4.6339
X6.8012Y-4.5846
X6.8898Y-4.8819
X7.1169Y-4.7639
T2
X4.9788Y-3.5383
X5.3155Y-3.6622
X5.5413Y-3.502
T3
X4.9114Y-2.8819
X5.1211Y-3.2136
X5.1998Y-3.2136
X5.4134Y-3.2205
X6.3602Y-4.8628
T4
X4.748Y-3.0827
X4.748Y-5.1299
X4.7757Y-3.0159
X4.7757Y-3.1495
X4.7757Y-5.0631
X4.7757Y-5.1967
X4.8425Y-2.9882
X4.8425Y-3.1772
X4.8425Y-5.0354
X4.8425Y-5.2244
X4.9093Y-3.0159
X4.9093Y-3.1495
X4.9093Y-5.0631
X4.9093Y-5.1967
X4.937Y-3.0827
X4.937Y-5.1299
X6.874Y-3.0827
X6.874Y-5.1299
X6.9017Y-3.0159
X6.9017Y-3.1495
X6.9017Y-5.0631
X6.9017Y-5.1967
X6.9685Y-2.9882
X6.9685Y-3.1772
X6.9685Y-5.0354
X6.9685Y-5.2244
X7.0353Y-3.0159
X7.0353Y-3.1495
X7.0353Y-5.0631
X7.0353Y-5.1967
X7.063Y-3.0827
X7.063Y-5.1299
T5
X6.0177Y-4.5413
T6
X4.7333Y-3.8947
X4.7333Y-4.1211
X4.8333Y-3.7947
X4.8333Y-4.0211
X4.9333Y-3.8947
X4.9333Y-4.1211
T7
X7.0167Y-4.4354
X7.0167Y-4.5354
X7.0167Y-4.6354
T8
X4.7638Y-2.5378
X4.7638Y-2.6378
X4.7638Y-4.2819
X4.7638Y-4.3819
X4.7638Y-4.4819
X4.7638Y-4.5819
X4.7638Y-4.6819
X4.7638Y-4.7819
X4.7638Y-4.8819
X7.0463Y-2.5352
X7.0463Y-2.6352
X7.0463Y-2.7352
X7.0472Y-3.3598
X7.0472Y-3.4598
X7.0472Y-3.5598
X7.0472Y-3.6598
X7.0472Y-3.7598
X7.0472Y-3.8598
X7.0472Y-3.9598
X7.0472Y-4.0598
X7.0472Y-4.1598
X7.0472Y-4.2598
T10
X4.8425Y-3.0827
X4.8425Y-5.1299
X6.9685Y-3.0827
X6.9685Y-5.1299
T9
G00X5.4281Y-3.8406
M15
G01X5.5561Y-3.8406
M16
G05
G00X5.4281Y-4.1752
M15
G01X5.5561Y-4.1752
M16
G05
G00X6.2549Y-3.8406
M15
G01X6.3829Y-3.8406
M16
G05
G00X6.2549Y-4.1752
M15
G01X6.3829Y-4.1752
M16
G05
T0
M30
