%TF.GenerationSoftware,KiCad,Pcbnew,(6.0.0-0)*%
%TF.CreationDate,2022-04-04T00:03:27-05:00*%
%TF.ProjectId,SmartNeonPSU,536d6172-744e-4656-9f6e-5053552e6b69,rev?*%
%TF.SameCoordinates,Original*%
%TF.FileFunction,Paste,Top*%
%TF.FilePolarity,Positive*%
%FSLAX46Y46*%
G04 Gerber Fmt 4.6, Leading zero omitted, Abs format (unit mm)*
G04 Created by KiCad (PCBNEW (6.0.0-0)) date 2022-04-04 00:03:27*
%MOMM*%
%LPD*%
G01*
G04 APERTURE LIST*
G04 Aperture macros list*
%AMRoundRect*
0 Rectangle with rounded corners*
0 $1 Rounding radius*
0 $2 $3 $4 $5 $6 $7 $8 $9 X,Y pos of 4 corners*
0 Add a 4 corners polygon primitive as box body*
4,1,4,$2,$3,$4,$5,$6,$7,$8,$9,$2,$3,0*
0 Add four circle primitives for the rounded corners*
1,1,$1+$1,$2,$3*
1,1,$1+$1,$4,$5*
1,1,$1+$1,$6,$7*
1,1,$1+$1,$8,$9*
0 Add four rect primitives between the rounded corners*
20,1,$1+$1,$2,$3,$4,$5,0*
20,1,$1+$1,$4,$5,$6,$7,0*
20,1,$1+$1,$6,$7,$8,$9,0*
20,1,$1+$1,$8,$9,$2,$3,0*%
%AMFreePoly0*
4,1,9,3.862500,-0.866500,0.737500,-0.866500,0.737500,-0.450000,-0.737500,-0.450000,-0.737500,0.450000,0.737500,0.450000,0.737500,0.866500,3.862500,0.866500,3.862500,-0.866500,3.862500,-0.866500,$1*%
G04 Aperture macros list end*
%ADD10RoundRect,0.250000X-0.262500X-0.450000X0.262500X-0.450000X0.262500X0.450000X-0.262500X0.450000X0*%
%ADD11RoundRect,0.250000X-0.450000X0.262500X-0.450000X-0.262500X0.450000X-0.262500X0.450000X0.262500X0*%
%ADD12RoundRect,0.000000X-0.442500X-0.090000X0.442500X-0.090000X0.442500X0.090000X-0.442500X0.090000X0*%
%ADD13R,0.900000X1.000000*%
%ADD14RoundRect,0.250000X0.262500X0.450000X-0.262500X0.450000X-0.262500X-0.450000X0.262500X-0.450000X0*%
%ADD15RoundRect,0.150000X0.150000X-0.587500X0.150000X0.587500X-0.150000X0.587500X-0.150000X-0.587500X0*%
%ADD16R,0.900000X1.300000*%
%ADD17FreePoly0,270.000000*%
%ADD18RoundRect,0.250000X-0.475000X0.250000X-0.475000X-0.250000X0.475000X-0.250000X0.475000X0.250000X0*%
%ADD19RoundRect,0.250000X0.250000X0.475000X-0.250000X0.475000X-0.250000X-0.475000X0.250000X-0.475000X0*%
%ADD20RoundRect,0.150000X-0.825000X-0.150000X0.825000X-0.150000X0.825000X0.150000X-0.825000X0.150000X0*%
%ADD21RoundRect,0.250000X-0.250000X-0.475000X0.250000X-0.475000X0.250000X0.475000X-0.250000X0.475000X0*%
%ADD22RoundRect,0.243750X0.456250X-0.243750X0.456250X0.243750X-0.456250X0.243750X-0.456250X-0.243750X0*%
%ADD23RoundRect,0.250000X0.450000X-0.262500X0.450000X0.262500X-0.450000X0.262500X-0.450000X-0.262500X0*%
%ADD24R,1.528000X1.016000*%
%ADD25RoundRect,0.250000X0.712500X2.475000X-0.712500X2.475000X-0.712500X-2.475000X0.712500X-2.475000X0*%
%ADD26RoundRect,0.250000X0.475000X-0.250000X0.475000X0.250000X-0.475000X0.250000X-0.475000X-0.250000X0*%
%ADD27R,1.400000X0.630000*%
%ADD28R,0.630000X1.400000*%
%ADD29R,3.500000X3.500000*%
%ADD30R,1.100000X1.100000*%
%ADD31RoundRect,0.250000X1.825000X0.700000X-1.825000X0.700000X-1.825000X-0.700000X1.825000X-0.700000X0*%
G04 APERTURE END LIST*
D10*
%TO.C,R23*%
X139587500Y-90450000D03*
X141412500Y-90450000D03*
%TD*%
D11*
%TO.C,R4*%
X159000000Y-115337500D03*
X159000000Y-117162500D03*
%TD*%
D12*
%TO.C,U3*%
X125887500Y-82500000D03*
X125887500Y-83000000D03*
X125887500Y-83500000D03*
X125887500Y-84000000D03*
X125887500Y-84500000D03*
X125887500Y-85000000D03*
X125887500Y-85500000D03*
X125887500Y-86000000D03*
X125887500Y-86500000D03*
X125887500Y-87000000D03*
X125887500Y-87500000D03*
X125887500Y-88000000D03*
X125887500Y-88500000D03*
X125887500Y-89000000D03*
X125887500Y-89500000D03*
X131612500Y-89500000D03*
X131612500Y-89000000D03*
X131612500Y-88500000D03*
X131612500Y-88000000D03*
X131612500Y-87500000D03*
X131612500Y-87000000D03*
X131612500Y-86500000D03*
X131612500Y-86000000D03*
X131612500Y-85500000D03*
X131612500Y-85000000D03*
X131612500Y-84500000D03*
X131612500Y-84000000D03*
X131612500Y-83500000D03*
X131612500Y-83000000D03*
X131612500Y-82500000D03*
%TD*%
D10*
%TO.C,R8*%
X123897500Y-107450000D03*
X125722500Y-107450000D03*
%TD*%
D13*
%TO.C,SW2*%
X175700000Y-124200000D03*
X179800000Y-124200000D03*
X179800000Y-125800000D03*
X175700000Y-125800000D03*
%TD*%
D14*
%TO.C,R7*%
X125722500Y-121460000D03*
X123897500Y-121460000D03*
%TD*%
D11*
%TO.C,R14*%
X159000000Y-126087500D03*
X159000000Y-127912500D03*
%TD*%
D15*
%TO.C,Q2*%
X174240000Y-95167500D03*
X176140000Y-95167500D03*
X175190000Y-93292500D03*
%TD*%
D16*
%TO.C,U2*%
X152000000Y-115350000D03*
D17*
X150500000Y-115437500D03*
D16*
X149000000Y-115350000D03*
%TD*%
D18*
%TO.C,C4*%
X155500000Y-115300000D03*
X155500000Y-117200000D03*
%TD*%
D11*
%TO.C,R2*%
X155500000Y-121337500D03*
X155500000Y-123162500D03*
%TD*%
D14*
%TO.C,R1*%
X125722500Y-109950000D03*
X123897500Y-109950000D03*
%TD*%
D19*
%TO.C,C3*%
X121950000Y-88200000D03*
X120050000Y-88200000D03*
%TD*%
D20*
%TO.C,Q4*%
X139775000Y-82795000D03*
X139775000Y-84065000D03*
X139775000Y-85335000D03*
X139775000Y-86605000D03*
X144725000Y-86605000D03*
X144725000Y-85335000D03*
X144725000Y-84065000D03*
X144725000Y-82795000D03*
%TD*%
D21*
%TO.C,C8*%
X120050000Y-93200000D03*
X121950000Y-93200000D03*
%TD*%
D10*
%TO.C,R19*%
X174277500Y-105660000D03*
X176102500Y-105660000D03*
%TD*%
%TO.C,R6*%
X123897500Y-112450000D03*
X125722500Y-112450000D03*
%TD*%
D11*
%TO.C,R24*%
X130486222Y-91787500D03*
X130486222Y-93612500D03*
%TD*%
D22*
%TO.C,D3*%
X162500000Y-132682725D03*
X162500000Y-130807725D03*
%TD*%
D19*
%TO.C,C11*%
X131950000Y-76450000D03*
X130050000Y-76450000D03*
%TD*%
D23*
%TO.C,R3*%
X162500000Y-123162500D03*
X162500000Y-121337500D03*
%TD*%
D11*
%TO.C,R17*%
X155500000Y-126087500D03*
X155500000Y-127912500D03*
%TD*%
D21*
%TO.C,C7*%
X120050000Y-85700000D03*
X121950000Y-85700000D03*
%TD*%
%TO.C,C14*%
X120050000Y-71200000D03*
X121950000Y-71200000D03*
%TD*%
D11*
%TO.C,R25*%
X125500000Y-91787500D03*
X125500000Y-93612500D03*
%TD*%
D23*
%TO.C,R20*%
X166000000Y-123162500D03*
X166000000Y-121337500D03*
%TD*%
D14*
%TO.C,R16*%
X121912500Y-73700000D03*
X120087500Y-73700000D03*
%TD*%
D18*
%TO.C,C12*%
X136500000Y-81800000D03*
X136500000Y-83700000D03*
%TD*%
D21*
%TO.C,C10*%
X149050000Y-122000000D03*
X150950000Y-122000000D03*
%TD*%
D22*
%TO.C,D2*%
X166000000Y-132687500D03*
X166000000Y-130812500D03*
%TD*%
D14*
%TO.C,R13*%
X127912500Y-73700000D03*
X126087500Y-73700000D03*
%TD*%
D19*
%TO.C,C20*%
X145200000Y-80450000D03*
X143300000Y-80450000D03*
%TD*%
D11*
%TO.C,R10*%
X162500000Y-115337500D03*
X162500000Y-117162500D03*
%TD*%
D14*
%TO.C,R12*%
X125912500Y-71200000D03*
X124087500Y-71200000D03*
%TD*%
D21*
%TO.C,C18*%
X149050000Y-132500000D03*
X150950000Y-132500000D03*
%TD*%
D10*
%TO.C,R18*%
X174277500Y-98040000D03*
X176102500Y-98040000D03*
%TD*%
%TO.C,R15*%
X149087500Y-125500000D03*
X150912500Y-125500000D03*
%TD*%
D22*
%TO.C,D4*%
X155500000Y-132681414D03*
X155500000Y-130806414D03*
%TD*%
D21*
%TO.C,C9*%
X120050000Y-90700000D03*
X121950000Y-90700000D03*
%TD*%
D24*
%TO.C,TR1*%
X149000000Y-76250000D03*
X149000000Y-78750000D03*
X149000000Y-81250000D03*
X149000000Y-83750000D03*
X149000000Y-86250000D03*
X149000000Y-88750000D03*
X172000000Y-88750000D03*
X172000000Y-86250000D03*
X172000000Y-78750000D03*
X172000000Y-76250000D03*
%TD*%
D21*
%TO.C,C13*%
X130050000Y-79988216D03*
X131950000Y-79988216D03*
%TD*%
D19*
%TO.C,C6*%
X121950000Y-83200000D03*
X120050000Y-83200000D03*
%TD*%
D22*
%TO.C,D5*%
X159000000Y-132685346D03*
X159000000Y-130810346D03*
%TD*%
D21*
%TO.C,C5*%
X173785000Y-112660000D03*
X175685000Y-112660000D03*
%TD*%
D25*
%TO.C,F1*%
X136137500Y-60950000D03*
X129362500Y-60950000D03*
%TD*%
D26*
%TO.C,C22*%
X134500000Y-92400000D03*
X134500000Y-90500000D03*
%TD*%
D14*
%TO.C,R11*%
X125722500Y-114979974D03*
X123897500Y-114979974D03*
%TD*%
D11*
%TO.C,R22*%
X166000000Y-126087500D03*
X166000000Y-127912500D03*
%TD*%
%TO.C,R21*%
X162500000Y-126087500D03*
X162500000Y-127912500D03*
%TD*%
D27*
%TO.C,U4*%
X145500000Y-134205000D03*
X145500000Y-132935000D03*
X145500000Y-131665000D03*
X145500000Y-130395000D03*
X145500000Y-129125000D03*
X145500000Y-127855000D03*
X145500000Y-126585000D03*
X145500000Y-125315000D03*
X145500000Y-124045000D03*
X145500000Y-122775000D03*
X145500000Y-121505000D03*
X145500000Y-120235000D03*
X145500000Y-118965000D03*
X145500000Y-117695000D03*
D28*
X142715000Y-116695000D03*
X141445000Y-116695000D03*
X140175000Y-116695000D03*
X138905000Y-116695000D03*
X137635000Y-116695000D03*
X136365000Y-116695000D03*
X135095000Y-116695000D03*
X133825000Y-116695000D03*
X132555000Y-116695000D03*
X131285000Y-116695000D03*
D27*
X128500000Y-117695000D03*
X128500000Y-118965000D03*
X128500000Y-120235000D03*
X128500000Y-121505000D03*
X128500000Y-122775000D03*
X128500000Y-124045000D03*
X128500000Y-125315000D03*
X128500000Y-126585000D03*
X128500000Y-127855000D03*
X128500000Y-129125000D03*
X128500000Y-130395000D03*
X128500000Y-131665000D03*
X128500000Y-132935000D03*
X128500000Y-134205000D03*
D29*
X138000000Y-126705000D03*
%TD*%
D19*
%TO.C,C17*%
X176140000Y-108650000D03*
X174240000Y-108650000D03*
%TD*%
D15*
%TO.C,Q1*%
X174240000Y-102787500D03*
X176140000Y-102787500D03*
X175190000Y-100912500D03*
%TD*%
D13*
%TO.C,SW1*%
X179800000Y-120200000D03*
X175700000Y-120200000D03*
X179800000Y-121800000D03*
X175700000Y-121800000D03*
%TD*%
D18*
%TO.C,C15*%
X136500000Y-77750000D03*
X136500000Y-79650000D03*
%TD*%
D21*
%TO.C,C19*%
X149050000Y-129000000D03*
X150950000Y-129000000D03*
%TD*%
D18*
%TO.C,C16*%
X136500000Y-85750000D03*
X136500000Y-87650000D03*
%TD*%
D14*
%TO.C,R9*%
X125722500Y-118920000D03*
X123897500Y-118920000D03*
%TD*%
D23*
%TO.C,R5*%
X159000000Y-123162500D03*
X159000000Y-121337500D03*
%TD*%
D20*
%TO.C,Q3*%
X139775000Y-74295000D03*
X139775000Y-75565000D03*
X139775000Y-76835000D03*
X139775000Y-78105000D03*
X144725000Y-78105000D03*
X144725000Y-76835000D03*
X144725000Y-75565000D03*
X144725000Y-74295000D03*
%TD*%
D30*
%TO.C,D1*%
X139500000Y-63100000D03*
X139500000Y-60300000D03*
%TD*%
D31*
%TO.C,C1*%
X138725000Y-68950000D03*
X131775000Y-68950000D03*
%TD*%
M02*
