%TF.GenerationSoftware,KiCad,Pcbnew,(6.0.0-0)*%
%TF.CreationDate,2022-03-12T23:19:40-06:00*%
%TF.ProjectId,SmartNeonPSU,536d6172-744e-4656-9f6e-5053552e6b69,rev?*%
%TF.SameCoordinates,Original*%
%TF.FileFunction,Soldermask,Bot*%
%TF.FilePolarity,Negative*%
%FSLAX46Y46*%
G04 Gerber Fmt 4.6, Leading zero omitted, Abs format (unit mm)*
G04 Created by KiCad (PCBNEW (6.0.0-0)) date 2022-03-12 23:19:40*
%MOMM*%
%LPD*%
G01*
G04 APERTURE LIST*
G04 Aperture macros list*
%AMRoundRect*
0 Rectangle with rounded corners*
0 $1 Rounding radius*
0 $2 $3 $4 $5 $6 $7 $8 $9 X,Y pos of 4 corners*
0 Add a 4 corners polygon primitive as box body*
4,1,4,$2,$3,$4,$5,$6,$7,$8,$9,$2,$3,0*
0 Add four circle primitives for the rounded corners*
1,1,$1+$1,$2,$3*
1,1,$1+$1,$4,$5*
1,1,$1+$1,$6,$7*
1,1,$1+$1,$8,$9*
0 Add four rect primitives between the rounded corners*
20,1,$1+$1,$2,$3,$4,$5,0*
20,1,$1+$1,$4,$5,$6,$7,0*
20,1,$1+$1,$6,$7,$8,$9,0*
20,1,$1+$1,$8,$9,$2,$3,0*%
%AMHorizOval*
0 Thick line with rounded ends*
0 $1 width*
0 $2 $3 position (X,Y) of the first rounded end (center of the circle)*
0 $4 $5 position (X,Y) of the second rounded end (center of the circle)*
0 Add line between two ends*
20,1,$1,$2,$3,$4,$5,0*
0 Add two circle primitives to create the rounded ends*
1,1,$1,$2,$3*
1,1,$1,$4,$5*%
%AMRotRect*
0 Rectangle, with rotation*
0 The origin of the aperture is its center*
0 $1 length*
0 $2 width*
0 $3 Rotation angle, in degrees counterclockwise*
0 Add horizontal line*
21,1,$1,$2,0,0,$3*%
G04 Aperture macros list end*
%ADD10C,3.000000*%
%ADD11C,0.800000*%
%ADD12C,6.400000*%
%ADD13O,6.000000X2.700000*%
%ADD14C,1.440000*%
%ADD15R,1.700000X1.700000*%
%ADD16O,1.700000X1.700000*%
%ADD17RotRect,1.700000X1.700000X200.000000*%
%ADD18HorizOval,1.700000X0.000000X0.000000X0.000000X0.000000X0*%
%ADD19RotRect,3.500000X3.500000X290.000000*%
%ADD20RoundRect,0.750000X-1.196208X0.362749X-0.683178X-1.046790X1.196208X-0.362749X0.683178X1.046790X0*%
%ADD21RoundRect,0.875000X-1.121499X0.522963X-0.522963X-1.121499X1.121499X-0.522963X0.522963X1.121499X0*%
%ADD22C,2.600000*%
%ADD23RotRect,1.700000X1.700000X250.000000*%
%ADD24HorizOval,1.700000X0.000000X0.000000X0.000000X0.000000X0*%
%ADD25RoundRect,0.250000X0.250000X0.475000X-0.250000X0.475000X-0.250000X-0.475000X0.250000X-0.475000X0*%
%ADD26RoundRect,0.249999X0.850001X-0.450001X0.850001X0.450001X-0.850001X0.450001X-0.850001X-0.450001X0*%
G04 APERTURE END LIST*
D10*
%TO.C,SW3*%
X175273283Y-71099620D03*
X168695435Y-68705479D03*
X162117586Y-66311338D03*
%TD*%
D11*
%TO.C,H4*%
X175302944Y-76602944D03*
X178697056Y-79997056D03*
X178697056Y-76602944D03*
X179400000Y-78300000D03*
X175302944Y-79997056D03*
X177000000Y-80700000D03*
X174600000Y-78300000D03*
X177000000Y-75900000D03*
D12*
X177000000Y-78300000D03*
%TD*%
D11*
%TO.C,H3*%
X178697056Y-128602944D03*
X175302944Y-128602944D03*
X177000000Y-127900000D03*
X174600000Y-130300000D03*
X175302944Y-131997056D03*
D12*
X177000000Y-130300000D03*
D11*
X178697056Y-131997056D03*
X177000000Y-132700000D03*
X179400000Y-130300000D03*
%TD*%
D13*
%TO.C,J6*%
X160500000Y-97550000D03*
X160500000Y-106050000D03*
%TD*%
D14*
%TO.C,RV2*%
X120225000Y-104675000D03*
X122765000Y-102135000D03*
X125305000Y-104675000D03*
%TD*%
D13*
%TO.C,J7*%
X139500000Y-106050000D03*
X139500000Y-97550000D03*
%TD*%
D11*
%TO.C,H2*%
X121302944Y-131997056D03*
X124697056Y-128602944D03*
X123000000Y-127900000D03*
X125400000Y-130300000D03*
X123000000Y-132700000D03*
X120600000Y-130300000D03*
X121302944Y-128602944D03*
D12*
X123000000Y-130300000D03*
D11*
X124697056Y-131997056D03*
%TD*%
D15*
%TO.C,J4*%
X121000000Y-124000000D03*
D16*
X121000000Y-121460000D03*
X121000000Y-118920000D03*
X121000000Y-116380000D03*
X121000000Y-113840000D03*
X121000000Y-111300000D03*
X121000000Y-108760000D03*
%TD*%
D17*
%TO.C,J2*%
X136404033Y-60383167D03*
D18*
X135535302Y-57996348D03*
%TD*%
D19*
%TO.C,J1*%
X130915038Y-67608002D03*
D20*
X128862917Y-61969846D03*
D21*
X125472422Y-66396419D03*
%TD*%
D22*
%TO.C,TR1*%
X162500000Y-78200000D03*
X157500000Y-78200000D03*
X152500000Y-78200000D03*
X152500000Y-88200000D03*
X157500000Y-88200000D03*
X162500000Y-88200000D03*
%TD*%
D11*
%TO.C,H5*%
X147600000Y-61300000D03*
X152400000Y-61300000D03*
X151697056Y-62997056D03*
X151697056Y-59602944D03*
X148302944Y-62997056D03*
D12*
X150000000Y-61300000D03*
D11*
X150000000Y-63700000D03*
X150000000Y-58900000D03*
X148302944Y-59602944D03*
%TD*%
%TO.C,H1*%
X121302944Y-79997056D03*
X123000000Y-75900000D03*
X124697056Y-79997056D03*
X125400000Y-78300000D03*
X120600000Y-78300000D03*
X124697056Y-76602944D03*
X121302944Y-76602944D03*
X123000000Y-80700000D03*
D12*
X123000000Y-78300000D03*
%TD*%
D14*
%TO.C,RV1*%
X120225000Y-98925000D03*
X122765000Y-96385000D03*
X125305000Y-98925000D03*
%TD*%
D23*
%TO.C,J5*%
X173612452Y-62048133D03*
D24*
X171225633Y-61179402D03*
X168838813Y-60310671D03*
%TD*%
D15*
%TO.C,J3*%
X179000000Y-116000000D03*
D16*
X179000000Y-113460000D03*
X179000000Y-110920000D03*
X179000000Y-108380000D03*
X179000000Y-105840000D03*
X179000000Y-103300000D03*
X179000000Y-100760000D03*
X179000000Y-98220000D03*
X179000000Y-95680000D03*
X179000000Y-93140000D03*
%TD*%
D25*
%TO.C,C2*%
X143950000Y-84950000D03*
X142050000Y-84950000D03*
%TD*%
D26*
%TO.C,C20*%
X153722317Y-96050000D03*
X153722317Y-91950000D03*
%TD*%
M02*
