%TF.GenerationSoftware,KiCad,Pcbnew,(6.0.0-0)*%
%TF.CreationDate,2022-03-12T23:02:06-06:00*%
%TF.ProjectId,SmartNeonPSU,536d6172-744e-4656-9f6e-5053552e6b69,rev?*%
%TF.SameCoordinates,Original*%
%TF.FileFunction,Legend,Top*%
%TF.FilePolarity,Positive*%
%FSLAX46Y46*%
G04 Gerber Fmt 4.6, Leading zero omitted, Abs format (unit mm)*
G04 Created by KiCad (PCBNEW (6.0.0-0)) date 2022-03-12 23:02:06*
%MOMM*%
%LPD*%
G01*
G04 APERTURE LIST*
%ADD10C,0.200000*%
%ADD11C,0.300000*%
%ADD12C,0.500000*%
%ADD13C,0.160000*%
%ADD14C,0.381000*%
G04 APERTURE END LIST*
D10*
X162500000Y-120200000D02*
X162500000Y-120700000D01*
X154250000Y-118500000D02*
X154250000Y-124249998D01*
X180778000Y-117270000D02*
X180778000Y-102538000D01*
D11*
X152500000Y-129250000D02*
X169000000Y-129250000D01*
D10*
X160250000Y-124249998D02*
X160250000Y-123499998D01*
X162250000Y-120200000D02*
X162500000Y-120700000D01*
X128750000Y-106170383D02*
X128750000Y-113700000D01*
X160750000Y-118950000D02*
X160750000Y-119450000D01*
X128750000Y-113700000D02*
X123500000Y-113700000D01*
X160250000Y-119200000D02*
X164250000Y-119200000D01*
D12*
X139500000Y-111250000D02*
X160500000Y-111250000D01*
X160500000Y-111250000D02*
G75*
G03*
X160500000Y-92298000I0J9476000D01*
G01*
D10*
X154250000Y-124249998D02*
X160250000Y-124249998D01*
D11*
X169000000Y-134750000D02*
X169000000Y-129250000D01*
D10*
X160250000Y-114249998D02*
X157750000Y-114249998D01*
X160250000Y-120999998D02*
X160250000Y-117499998D01*
D12*
X139500000Y-92298000D02*
X160500000Y-92298000D01*
D10*
X128750000Y-106170383D02*
X123500000Y-106170383D01*
X162750000Y-120200000D02*
X162250000Y-120200000D01*
X162500000Y-120700000D02*
X162750000Y-120200000D01*
X160750000Y-119450000D02*
X160250000Y-119200000D01*
D11*
X152500000Y-129250000D02*
X152500000Y-134750000D01*
D10*
X157750000Y-114249998D02*
X157750000Y-115249998D01*
X163500000Y-119200000D02*
G75*
G03*
X162500000Y-120200000I-1J-999999D01*
G01*
X160250000Y-119200000D02*
X160750000Y-118950000D01*
D12*
X139500000Y-92298000D02*
G75*
G03*
X139500000Y-111250000I0J-9476000D01*
G01*
D10*
X160250000Y-115249998D02*
X160250000Y-114249998D01*
D13*
X164487333Y-118919833D02*
X164587333Y-118953166D01*
X164754000Y-118953166D01*
X164820666Y-118919833D01*
X164854000Y-118886500D01*
X164887333Y-118819833D01*
X164887333Y-118753166D01*
X164854000Y-118686500D01*
X164820666Y-118653166D01*
X164754000Y-118619833D01*
X164620666Y-118586500D01*
X164554000Y-118553166D01*
X164520666Y-118519833D01*
X164487333Y-118453166D01*
X164487333Y-118386500D01*
X164520666Y-118319833D01*
X164554000Y-118286500D01*
X164620666Y-118253166D01*
X164787333Y-118253166D01*
X164887333Y-118286500D01*
X165454000Y-118919833D02*
X165387333Y-118953166D01*
X165254000Y-118953166D01*
X165187333Y-118919833D01*
X165154000Y-118853166D01*
X165154000Y-118586500D01*
X165187333Y-118519833D01*
X165254000Y-118486500D01*
X165387333Y-118486500D01*
X165454000Y-118519833D01*
X165487333Y-118586500D01*
X165487333Y-118653166D01*
X165154000Y-118719833D01*
X166054000Y-118919833D02*
X165987333Y-118953166D01*
X165854000Y-118953166D01*
X165787333Y-118919833D01*
X165754000Y-118853166D01*
X165754000Y-118586500D01*
X165787333Y-118519833D01*
X165854000Y-118486500D01*
X165987333Y-118486500D01*
X166054000Y-118519833D01*
X166087333Y-118586500D01*
X166087333Y-118653166D01*
X165754000Y-118719833D01*
X166920666Y-118486500D02*
X166920666Y-118953166D01*
X166920666Y-118553166D02*
X166954000Y-118519833D01*
X167020666Y-118486500D01*
X167120666Y-118486500D01*
X167187333Y-118519833D01*
X167220666Y-118586500D01*
X167220666Y-118953166D01*
X167654000Y-118953166D02*
X167587333Y-118919833D01*
X167554000Y-118886500D01*
X167520666Y-118819833D01*
X167520666Y-118619833D01*
X167554000Y-118553166D01*
X167587333Y-118519833D01*
X167654000Y-118486500D01*
X167754000Y-118486500D01*
X167820666Y-118519833D01*
X167854000Y-118553166D01*
X167887333Y-118619833D01*
X167887333Y-118819833D01*
X167854000Y-118886500D01*
X167820666Y-118919833D01*
X167754000Y-118953166D01*
X167654000Y-118953166D01*
X168087333Y-118486500D02*
X168354000Y-118486500D01*
X168187333Y-118253166D02*
X168187333Y-118853166D01*
X168220666Y-118919833D01*
X168287333Y-118953166D01*
X168354000Y-118953166D01*
X168854000Y-118919833D02*
X168787333Y-118953166D01*
X168654000Y-118953166D01*
X168587333Y-118919833D01*
X168554000Y-118853166D01*
X168554000Y-118586500D01*
X168587333Y-118519833D01*
X168654000Y-118486500D01*
X168787333Y-118486500D01*
X168854000Y-118519833D01*
X168887333Y-118586500D01*
X168887333Y-118653166D01*
X168554000Y-118719833D01*
X169154000Y-118919833D02*
X169220666Y-118953166D01*
X169354000Y-118953166D01*
X169420666Y-118919833D01*
X169454000Y-118853166D01*
X169454000Y-118819833D01*
X169420666Y-118753166D01*
X169354000Y-118719833D01*
X169254000Y-118719833D01*
X169187333Y-118686500D01*
X169154000Y-118619833D01*
X169154000Y-118586500D01*
X169187333Y-118519833D01*
X169254000Y-118486500D01*
X169354000Y-118486500D01*
X169420666Y-118519833D01*
X164620666Y-120080166D02*
X164554000Y-120046833D01*
X164520666Y-120013500D01*
X164487333Y-119946833D01*
X164487333Y-119746833D01*
X164520666Y-119680166D01*
X164554000Y-119646833D01*
X164620666Y-119613500D01*
X164720666Y-119613500D01*
X164787333Y-119646833D01*
X164820666Y-119680166D01*
X164854000Y-119746833D01*
X164854000Y-119946833D01*
X164820666Y-120013500D01*
X164787333Y-120046833D01*
X164720666Y-120080166D01*
X164620666Y-120080166D01*
X165154000Y-119613500D02*
X165154000Y-120080166D01*
X165154000Y-119680166D02*
X165187333Y-119646833D01*
X165254000Y-119613500D01*
X165354000Y-119613500D01*
X165420666Y-119646833D01*
X165454000Y-119713500D01*
X165454000Y-120080166D01*
X166320666Y-120080166D02*
X166320666Y-119380166D01*
X166320666Y-119646833D02*
X166387333Y-119613500D01*
X166520666Y-119613500D01*
X166587333Y-119646833D01*
X166620666Y-119680166D01*
X166654000Y-119746833D01*
X166654000Y-119946833D01*
X166620666Y-120013500D01*
X166587333Y-120046833D01*
X166520666Y-120080166D01*
X166387333Y-120080166D01*
X166320666Y-120046833D01*
X167254000Y-120080166D02*
X167254000Y-119713500D01*
X167220666Y-119646833D01*
X167154000Y-119613500D01*
X167020666Y-119613500D01*
X166954000Y-119646833D01*
X167254000Y-120046833D02*
X167187333Y-120080166D01*
X167020666Y-120080166D01*
X166954000Y-120046833D01*
X166920666Y-119980166D01*
X166920666Y-119913500D01*
X166954000Y-119846833D01*
X167020666Y-119813500D01*
X167187333Y-119813500D01*
X167254000Y-119780166D01*
X167887333Y-120046833D02*
X167820666Y-120080166D01*
X167687333Y-120080166D01*
X167620666Y-120046833D01*
X167587333Y-120013500D01*
X167554000Y-119946833D01*
X167554000Y-119746833D01*
X167587333Y-119680166D01*
X167620666Y-119646833D01*
X167687333Y-119613500D01*
X167820666Y-119613500D01*
X167887333Y-119646833D01*
X168187333Y-120080166D02*
X168187333Y-119380166D01*
X168254000Y-119813500D02*
X168454000Y-120080166D01*
X168454000Y-119613500D02*
X168187333Y-119880166D01*
X169254000Y-120046833D02*
X169320666Y-120080166D01*
X169454000Y-120080166D01*
X169520666Y-120046833D01*
X169554000Y-119980166D01*
X169554000Y-119946833D01*
X169520666Y-119880166D01*
X169454000Y-119846833D01*
X169354000Y-119846833D01*
X169287333Y-119813500D01*
X169254000Y-119746833D01*
X169254000Y-119713500D01*
X169287333Y-119646833D01*
X169354000Y-119613500D01*
X169454000Y-119613500D01*
X169520666Y-119646833D01*
X169854000Y-120080166D02*
X169854000Y-119613500D01*
X169854000Y-119380166D02*
X169820666Y-119413500D01*
X169854000Y-119446833D01*
X169887333Y-119413500D01*
X169854000Y-119380166D01*
X169854000Y-119446833D01*
X170487333Y-120080166D02*
X170487333Y-119380166D01*
X170487333Y-120046833D02*
X170420666Y-120080166D01*
X170287333Y-120080166D01*
X170220666Y-120046833D01*
X170187333Y-120013500D01*
X170154000Y-119946833D01*
X170154000Y-119746833D01*
X170187333Y-119680166D01*
X170220666Y-119646833D01*
X170287333Y-119613500D01*
X170420666Y-119613500D01*
X170487333Y-119646833D01*
X171087333Y-120046833D02*
X171020666Y-120080166D01*
X170887333Y-120080166D01*
X170820666Y-120046833D01*
X170787333Y-119980166D01*
X170787333Y-119713500D01*
X170820666Y-119646833D01*
X170887333Y-119613500D01*
X171020666Y-119613500D01*
X171087333Y-119646833D01*
X171120666Y-119713500D01*
X171120666Y-119780166D01*
X170787333Y-119846833D01*
X171420666Y-120013500D02*
X171454000Y-120046833D01*
X171420666Y-120080166D01*
X171387333Y-120046833D01*
X171420666Y-120013500D01*
X171420666Y-120080166D01*
X171420666Y-119813500D02*
X171387333Y-119413500D01*
X171420666Y-119380166D01*
X171454000Y-119413500D01*
X171420666Y-119813500D01*
X171420666Y-119380166D01*
X129906333Y-113462666D02*
X129939666Y-113362666D01*
X129939666Y-113196000D01*
X129906333Y-113129333D01*
X129873000Y-113096000D01*
X129806333Y-113062666D01*
X129739666Y-113062666D01*
X129673000Y-113096000D01*
X129639666Y-113129333D01*
X129606333Y-113196000D01*
X129573000Y-113329333D01*
X129539666Y-113396000D01*
X129506333Y-113429333D01*
X129439666Y-113462666D01*
X129373000Y-113462666D01*
X129306333Y-113429333D01*
X129273000Y-113396000D01*
X129239666Y-113329333D01*
X129239666Y-113162666D01*
X129273000Y-113062666D01*
X129906333Y-112496000D02*
X129939666Y-112562666D01*
X129939666Y-112696000D01*
X129906333Y-112762666D01*
X129839666Y-112796000D01*
X129573000Y-112796000D01*
X129506333Y-112762666D01*
X129473000Y-112696000D01*
X129473000Y-112562666D01*
X129506333Y-112496000D01*
X129573000Y-112462666D01*
X129639666Y-112462666D01*
X129706333Y-112796000D01*
X129906333Y-111896000D02*
X129939666Y-111962666D01*
X129939666Y-112096000D01*
X129906333Y-112162666D01*
X129839666Y-112196000D01*
X129573000Y-112196000D01*
X129506333Y-112162666D01*
X129473000Y-112096000D01*
X129473000Y-111962666D01*
X129506333Y-111896000D01*
X129573000Y-111862666D01*
X129639666Y-111862666D01*
X129706333Y-112196000D01*
X129473000Y-111029333D02*
X129939666Y-111029333D01*
X129539666Y-111029333D02*
X129506333Y-110996000D01*
X129473000Y-110929333D01*
X129473000Y-110829333D01*
X129506333Y-110762666D01*
X129573000Y-110729333D01*
X129939666Y-110729333D01*
X129939666Y-110296000D02*
X129906333Y-110362666D01*
X129873000Y-110396000D01*
X129806333Y-110429333D01*
X129606333Y-110429333D01*
X129539666Y-110396000D01*
X129506333Y-110362666D01*
X129473000Y-110296000D01*
X129473000Y-110196000D01*
X129506333Y-110129333D01*
X129539666Y-110096000D01*
X129606333Y-110062666D01*
X129806333Y-110062666D01*
X129873000Y-110096000D01*
X129906333Y-110129333D01*
X129939666Y-110196000D01*
X129939666Y-110296000D01*
X129473000Y-109862666D02*
X129473000Y-109596000D01*
X129239666Y-109762666D02*
X129839666Y-109762666D01*
X129906333Y-109729333D01*
X129939666Y-109662666D01*
X129939666Y-109596000D01*
X129906333Y-109096000D02*
X129939666Y-109162666D01*
X129939666Y-109296000D01*
X129906333Y-109362666D01*
X129839666Y-109396000D01*
X129573000Y-109396000D01*
X129506333Y-109362666D01*
X129473000Y-109296000D01*
X129473000Y-109162666D01*
X129506333Y-109096000D01*
X129573000Y-109062666D01*
X129639666Y-109062666D01*
X129706333Y-109396000D01*
X129906333Y-108796000D02*
X129939666Y-108729333D01*
X129939666Y-108596000D01*
X129906333Y-108529333D01*
X129839666Y-108496000D01*
X129806333Y-108496000D01*
X129739666Y-108529333D01*
X129706333Y-108596000D01*
X129706333Y-108696000D01*
X129673000Y-108762666D01*
X129606333Y-108796000D01*
X129573000Y-108796000D01*
X129506333Y-108762666D01*
X129473000Y-108696000D01*
X129473000Y-108596000D01*
X129506333Y-108529333D01*
X131066666Y-113329333D02*
X131033333Y-113396000D01*
X131000000Y-113429333D01*
X130933333Y-113462666D01*
X130733333Y-113462666D01*
X130666666Y-113429333D01*
X130633333Y-113396000D01*
X130600000Y-113329333D01*
X130600000Y-113229333D01*
X130633333Y-113162666D01*
X130666666Y-113129333D01*
X130733333Y-113096000D01*
X130933333Y-113096000D01*
X131000000Y-113129333D01*
X131033333Y-113162666D01*
X131066666Y-113229333D01*
X131066666Y-113329333D01*
X130600000Y-112796000D02*
X131066666Y-112796000D01*
X130666666Y-112796000D02*
X130633333Y-112762666D01*
X130600000Y-112696000D01*
X130600000Y-112596000D01*
X130633333Y-112529333D01*
X130700000Y-112496000D01*
X131066666Y-112496000D01*
X131066666Y-111629333D02*
X130366666Y-111629333D01*
X130633333Y-111629333D02*
X130600000Y-111562666D01*
X130600000Y-111429333D01*
X130633333Y-111362666D01*
X130666666Y-111329333D01*
X130733333Y-111296000D01*
X130933333Y-111296000D01*
X131000000Y-111329333D01*
X131033333Y-111362666D01*
X131066666Y-111429333D01*
X131066666Y-111562666D01*
X131033333Y-111629333D01*
X131066666Y-110696000D02*
X130700000Y-110696000D01*
X130633333Y-110729333D01*
X130600000Y-110796000D01*
X130600000Y-110929333D01*
X130633333Y-110996000D01*
X131033333Y-110696000D02*
X131066666Y-110762666D01*
X131066666Y-110929333D01*
X131033333Y-110996000D01*
X130966666Y-111029333D01*
X130900000Y-111029333D01*
X130833333Y-110996000D01*
X130800000Y-110929333D01*
X130800000Y-110762666D01*
X130766666Y-110696000D01*
X131033333Y-110062666D02*
X131066666Y-110129333D01*
X131066666Y-110262666D01*
X131033333Y-110329333D01*
X131000000Y-110362666D01*
X130933333Y-110396000D01*
X130733333Y-110396000D01*
X130666666Y-110362666D01*
X130633333Y-110329333D01*
X130600000Y-110262666D01*
X130600000Y-110129333D01*
X130633333Y-110062666D01*
X131066666Y-109762666D02*
X130366666Y-109762666D01*
X130800000Y-109696000D02*
X131066666Y-109496000D01*
X130600000Y-109496000D02*
X130866666Y-109762666D01*
X132160333Y-113462666D02*
X132193666Y-113396000D01*
X132193666Y-113262666D01*
X132160333Y-113196000D01*
X132093666Y-113162666D01*
X132060333Y-113162666D01*
X131993666Y-113196000D01*
X131960333Y-113262666D01*
X131960333Y-113362666D01*
X131927000Y-113429333D01*
X131860333Y-113462666D01*
X131827000Y-113462666D01*
X131760333Y-113429333D01*
X131727000Y-113362666D01*
X131727000Y-113262666D01*
X131760333Y-113196000D01*
X132193666Y-112862666D02*
X131727000Y-112862666D01*
X131493666Y-112862666D02*
X131527000Y-112896000D01*
X131560333Y-112862666D01*
X131527000Y-112829333D01*
X131493666Y-112862666D01*
X131560333Y-112862666D01*
X132193666Y-112229333D02*
X131493666Y-112229333D01*
X132160333Y-112229333D02*
X132193666Y-112296000D01*
X132193666Y-112429333D01*
X132160333Y-112496000D01*
X132127000Y-112529333D01*
X132060333Y-112562666D01*
X131860333Y-112562666D01*
X131793666Y-112529333D01*
X131760333Y-112496000D01*
X131727000Y-112429333D01*
X131727000Y-112296000D01*
X131760333Y-112229333D01*
X132160333Y-111629333D02*
X132193666Y-111696000D01*
X132193666Y-111829333D01*
X132160333Y-111896000D01*
X132093666Y-111929333D01*
X131827000Y-111929333D01*
X131760333Y-111896000D01*
X131727000Y-111829333D01*
X131727000Y-111696000D01*
X131760333Y-111629333D01*
X131827000Y-111596000D01*
X131893666Y-111596000D01*
X131960333Y-111929333D01*
X132127000Y-111296000D02*
X132160333Y-111262666D01*
X132193666Y-111296000D01*
X132160333Y-111329333D01*
X132127000Y-111296000D01*
X132193666Y-111296000D01*
X131927000Y-111296000D02*
X131527000Y-111329333D01*
X131493666Y-111296000D01*
X131527000Y-111262666D01*
X131927000Y-111296000D01*
X131493666Y-111296000D01*
X155173809Y-118548855D02*
X155440476Y-118548855D01*
X155554761Y-118967902D02*
X155173809Y-118967902D01*
X155173809Y-118167902D01*
X155554761Y-118167902D01*
X155897619Y-118967902D02*
X155897619Y-118167902D01*
X156354761Y-118967902D01*
X156354761Y-118167902D01*
X157345238Y-118967902D02*
X157345238Y-118167902D01*
X157650000Y-118167902D01*
X157726190Y-118205998D01*
X157764285Y-118244093D01*
X157802380Y-118320283D01*
X157802380Y-118434569D01*
X157764285Y-118510759D01*
X157726190Y-118548855D01*
X157650000Y-118586950D01*
X157345238Y-118586950D01*
X158488095Y-118434569D02*
X158488095Y-118967902D01*
X158145238Y-118434569D02*
X158145238Y-118853617D01*
X158183333Y-118929807D01*
X158259523Y-118967902D01*
X158373809Y-118967902D01*
X158450000Y-118929807D01*
X158488095Y-118891712D01*
X158983333Y-118967902D02*
X158907142Y-118929807D01*
X158869047Y-118853617D01*
X158869047Y-118167902D01*
X159402380Y-118967902D02*
X159326190Y-118929807D01*
X159288095Y-118853617D01*
X159288095Y-118167902D01*
X155154761Y-120255902D02*
X154888095Y-119874950D01*
X154697619Y-120255902D02*
X154697619Y-119455902D01*
X155002380Y-119455902D01*
X155078571Y-119493998D01*
X155116666Y-119532093D01*
X155154761Y-119608283D01*
X155154761Y-119722569D01*
X155116666Y-119798759D01*
X155078571Y-119836855D01*
X155002380Y-119874950D01*
X154697619Y-119874950D01*
X155802380Y-120217807D02*
X155726190Y-120255902D01*
X155573809Y-120255902D01*
X155497619Y-120217807D01*
X155459523Y-120141617D01*
X155459523Y-119836855D01*
X155497619Y-119760664D01*
X155573809Y-119722569D01*
X155726190Y-119722569D01*
X155802380Y-119760664D01*
X155840476Y-119836855D01*
X155840476Y-119913045D01*
X155459523Y-119989236D01*
X156145238Y-120217807D02*
X156221428Y-120255902D01*
X156373809Y-120255902D01*
X156450000Y-120217807D01*
X156488095Y-120141617D01*
X156488095Y-120103521D01*
X156450000Y-120027331D01*
X156373809Y-119989236D01*
X156259523Y-119989236D01*
X156183333Y-119951140D01*
X156145238Y-119874950D01*
X156145238Y-119836855D01*
X156183333Y-119760664D01*
X156259523Y-119722569D01*
X156373809Y-119722569D01*
X156450000Y-119760664D01*
X156830952Y-120255902D02*
X156830952Y-119722569D01*
X156830952Y-119455902D02*
X156792857Y-119493998D01*
X156830952Y-119532093D01*
X156869047Y-119493998D01*
X156830952Y-119455902D01*
X156830952Y-119532093D01*
X157173809Y-120217807D02*
X157250000Y-120255902D01*
X157402380Y-120255902D01*
X157478571Y-120217807D01*
X157516666Y-120141617D01*
X157516666Y-120103521D01*
X157478571Y-120027331D01*
X157402380Y-119989236D01*
X157288095Y-119989236D01*
X157211904Y-119951140D01*
X157173809Y-119874950D01*
X157173809Y-119836855D01*
X157211904Y-119760664D01*
X157288095Y-119722569D01*
X157402380Y-119722569D01*
X157478571Y-119760664D01*
X157745238Y-119722569D02*
X158050000Y-119722569D01*
X157859523Y-119455902D02*
X157859523Y-120141617D01*
X157897619Y-120217807D01*
X157973809Y-120255902D01*
X158050000Y-120255902D01*
X158430952Y-120255902D02*
X158354761Y-120217807D01*
X158316666Y-120179712D01*
X158278571Y-120103521D01*
X158278571Y-119874950D01*
X158316666Y-119798759D01*
X158354761Y-119760664D01*
X158430952Y-119722569D01*
X158545238Y-119722569D01*
X158621428Y-119760664D01*
X158659523Y-119798759D01*
X158697619Y-119874950D01*
X158697619Y-120103521D01*
X158659523Y-120179712D01*
X158621428Y-120217807D01*
X158545238Y-120255902D01*
X158430952Y-120255902D01*
X159040476Y-120255902D02*
X159040476Y-119722569D01*
X159040476Y-119874950D02*
X159078571Y-119798759D01*
X159116666Y-119760664D01*
X159192857Y-119722569D01*
X159269047Y-119722569D01*
X159497619Y-120217807D02*
X159573809Y-120255902D01*
X159726190Y-120255902D01*
X159802380Y-120217807D01*
X159840476Y-120141617D01*
X159840476Y-120103521D01*
X159802380Y-120027331D01*
X159726190Y-119989236D01*
X159611904Y-119989236D01*
X159535714Y-119951140D01*
X159497619Y-119874950D01*
X159497619Y-119836855D01*
X159535714Y-119760664D01*
X159611904Y-119722569D01*
X159726190Y-119722569D01*
X159802380Y-119760664D01*
D10*
%TO.C,R23*%
X142857142Y-90902380D02*
X142523809Y-90426190D01*
X142285714Y-90902380D02*
X142285714Y-89902380D01*
X142666666Y-89902380D01*
X142761904Y-89950000D01*
X142809523Y-89997619D01*
X142857142Y-90092857D01*
X142857142Y-90235714D01*
X142809523Y-90330952D01*
X142761904Y-90378571D01*
X142666666Y-90426190D01*
X142285714Y-90426190D01*
X143238095Y-89997619D02*
X143285714Y-89950000D01*
X143380952Y-89902380D01*
X143619047Y-89902380D01*
X143714285Y-89950000D01*
X143761904Y-89997619D01*
X143809523Y-90092857D01*
X143809523Y-90188095D01*
X143761904Y-90330952D01*
X143190476Y-90902380D01*
X143809523Y-90902380D01*
X144142857Y-89902380D02*
X144761904Y-89902380D01*
X144428571Y-90283333D01*
X144571428Y-90283333D01*
X144666666Y-90330952D01*
X144714285Y-90378571D01*
X144761904Y-90473809D01*
X144761904Y-90711904D01*
X144714285Y-90807142D01*
X144666666Y-90854761D01*
X144571428Y-90902380D01*
X144285714Y-90902380D01*
X144190476Y-90854761D01*
X144142857Y-90807142D01*
%TO.C,R4*%
X161102380Y-116416666D02*
X160626190Y-116750000D01*
X161102380Y-116988095D02*
X160102380Y-116988095D01*
X160102380Y-116607142D01*
X160150000Y-116511904D01*
X160197619Y-116464285D01*
X160292857Y-116416666D01*
X160435714Y-116416666D01*
X160530952Y-116464285D01*
X160578571Y-116511904D01*
X160626190Y-116607142D01*
X160626190Y-116988095D01*
X160435714Y-115559523D02*
X161102380Y-115559523D01*
X160054761Y-115797619D02*
X160769047Y-116035714D01*
X160769047Y-115416666D01*
%TO.C,SW3*%
X179674324Y-70141360D02*
X179767932Y-70023405D01*
X179849365Y-69799668D01*
X179837191Y-69693887D01*
X179808731Y-69632853D01*
X179735523Y-69555532D01*
X179646028Y-69522959D01*
X179540247Y-69535133D01*
X179479213Y-69563594D01*
X179401892Y-69636802D01*
X179291998Y-69799504D01*
X179214678Y-69872712D01*
X179153644Y-69901172D01*
X179047863Y-69913346D01*
X178958368Y-69880773D01*
X178885160Y-69803452D01*
X178856700Y-69742418D01*
X178844526Y-69636637D01*
X178925959Y-69412901D01*
X179019566Y-69294946D01*
X179088826Y-68965428D02*
X180109952Y-69083712D01*
X179503890Y-68660423D01*
X180240245Y-68725734D01*
X179381986Y-68159977D01*
X179479706Y-67891494D02*
X179691433Y-67309779D01*
X179935404Y-67753304D01*
X179984264Y-67619062D01*
X180061585Y-67545854D01*
X180122619Y-67517393D01*
X180228400Y-67505219D01*
X180452136Y-67586653D01*
X180525344Y-67663973D01*
X180553805Y-67725007D01*
X180565979Y-67830788D01*
X180468259Y-68099272D01*
X180390938Y-68172480D01*
X180329904Y-68200941D01*
%TO.C,U2*%
X127988095Y-80652380D02*
X127988095Y-81461904D01*
X128035714Y-81557142D01*
X128083333Y-81604761D01*
X128178571Y-81652380D01*
X128369047Y-81652380D01*
X128464285Y-81604761D01*
X128511904Y-81557142D01*
X128559523Y-81461904D01*
X128559523Y-80652380D01*
X128988095Y-80747619D02*
X129035714Y-80700000D01*
X129130952Y-80652380D01*
X129369047Y-80652380D01*
X129464285Y-80700000D01*
X129511904Y-80747619D01*
X129559523Y-80842857D01*
X129559523Y-80938095D01*
X129511904Y-81080952D01*
X128940476Y-81652380D01*
X129559523Y-81652380D01*
D13*
X126200000Y-90316666D02*
X126600000Y-90316666D01*
X126400000Y-91016666D02*
X126400000Y-90316666D01*
X126833333Y-91016666D02*
X126833333Y-90316666D01*
X127100000Y-90316666D01*
X127166666Y-90350000D01*
X127200000Y-90383333D01*
X127233333Y-90450000D01*
X127233333Y-90550000D01*
X127200000Y-90616666D01*
X127166666Y-90650000D01*
X127100000Y-90683333D01*
X126833333Y-90683333D01*
X127500000Y-90983333D02*
X127600000Y-91016666D01*
X127766666Y-91016666D01*
X127833333Y-90983333D01*
X127866666Y-90950000D01*
X127900000Y-90883333D01*
X127900000Y-90816666D01*
X127866666Y-90750000D01*
X127833333Y-90716666D01*
X127766666Y-90683333D01*
X127633333Y-90650000D01*
X127566666Y-90616666D01*
X127533333Y-90583333D01*
X127500000Y-90516666D01*
X127500000Y-90450000D01*
X127533333Y-90383333D01*
X127566666Y-90350000D01*
X127633333Y-90316666D01*
X127800000Y-90316666D01*
X127900000Y-90350000D01*
X128500000Y-90316666D02*
X128366666Y-90316666D01*
X128300000Y-90350000D01*
X128266666Y-90383333D01*
X128200000Y-90483333D01*
X128166666Y-90616666D01*
X128166666Y-90883333D01*
X128200000Y-90950000D01*
X128233333Y-90983333D01*
X128300000Y-91016666D01*
X128433333Y-91016666D01*
X128500000Y-90983333D01*
X128533333Y-90950000D01*
X128566666Y-90883333D01*
X128566666Y-90716666D01*
X128533333Y-90650000D01*
X128500000Y-90616666D01*
X128433333Y-90583333D01*
X128300000Y-90583333D01*
X128233333Y-90616666D01*
X128200000Y-90650000D01*
X128166666Y-90716666D01*
X128966666Y-90616666D02*
X128900000Y-90583333D01*
X128866666Y-90550000D01*
X128833333Y-90483333D01*
X128833333Y-90450000D01*
X128866666Y-90383333D01*
X128900000Y-90350000D01*
X128966666Y-90316666D01*
X129100000Y-90316666D01*
X129166666Y-90350000D01*
X129200000Y-90383333D01*
X129233333Y-90450000D01*
X129233333Y-90483333D01*
X129200000Y-90550000D01*
X129166666Y-90583333D01*
X129100000Y-90616666D01*
X128966666Y-90616666D01*
X128900000Y-90650000D01*
X128866666Y-90683333D01*
X128833333Y-90750000D01*
X128833333Y-90883333D01*
X128866666Y-90950000D01*
X128900000Y-90983333D01*
X128966666Y-91016666D01*
X129100000Y-91016666D01*
X129166666Y-90983333D01*
X129200000Y-90950000D01*
X129233333Y-90883333D01*
X129233333Y-90750000D01*
X129200000Y-90683333D01*
X129166666Y-90650000D01*
X129100000Y-90616666D01*
X129666666Y-90316666D02*
X129733333Y-90316666D01*
X129800000Y-90350000D01*
X129833333Y-90383333D01*
X129866666Y-90450000D01*
X129900000Y-90583333D01*
X129900000Y-90750000D01*
X129866666Y-90883333D01*
X129833333Y-90950000D01*
X129800000Y-90983333D01*
X129733333Y-91016666D01*
X129666666Y-91016666D01*
X129600000Y-90983333D01*
X129566666Y-90950000D01*
X129533333Y-90883333D01*
X129500000Y-90750000D01*
X129500000Y-90583333D01*
X129533333Y-90450000D01*
X129566666Y-90383333D01*
X129600000Y-90350000D01*
X129666666Y-90316666D01*
X130333333Y-90316666D02*
X130400000Y-90316666D01*
X130466666Y-90350000D01*
X130500000Y-90383333D01*
X130533333Y-90450000D01*
X130566666Y-90583333D01*
X130566666Y-90750000D01*
X130533333Y-90883333D01*
X130500000Y-90950000D01*
X130466666Y-90983333D01*
X130400000Y-91016666D01*
X130333333Y-91016666D01*
X130266666Y-90983333D01*
X130233333Y-90950000D01*
X130200000Y-90883333D01*
X130166666Y-90750000D01*
X130166666Y-90583333D01*
X130200000Y-90450000D01*
X130233333Y-90383333D01*
X130266666Y-90350000D01*
X130333333Y-90316666D01*
X131000000Y-90316666D02*
X131066666Y-90316666D01*
X131133333Y-90350000D01*
X131166666Y-90383333D01*
X131200000Y-90450000D01*
X131233333Y-90583333D01*
X131233333Y-90750000D01*
X131200000Y-90883333D01*
X131166666Y-90950000D01*
X131133333Y-90983333D01*
X131066666Y-91016666D01*
X131000000Y-91016666D01*
X130933333Y-90983333D01*
X130900000Y-90950000D01*
X130866666Y-90883333D01*
X130833333Y-90750000D01*
X130833333Y-90583333D01*
X130866666Y-90450000D01*
X130900000Y-90383333D01*
X130933333Y-90350000D01*
X131000000Y-90316666D01*
D10*
%TO.C,R8*%
X127143333Y-107902380D02*
X126810000Y-107426190D01*
X126571904Y-107902380D02*
X126571904Y-106902380D01*
X126952857Y-106902380D01*
X127048095Y-106950000D01*
X127095714Y-106997619D01*
X127143333Y-107092857D01*
X127143333Y-107235714D01*
X127095714Y-107330952D01*
X127048095Y-107378571D01*
X126952857Y-107426190D01*
X126571904Y-107426190D01*
X127714761Y-107330952D02*
X127619523Y-107283333D01*
X127571904Y-107235714D01*
X127524285Y-107140476D01*
X127524285Y-107092857D01*
X127571904Y-106997619D01*
X127619523Y-106950000D01*
X127714761Y-106902380D01*
X127905238Y-106902380D01*
X128000476Y-106950000D01*
X128048095Y-106997619D01*
X128095714Y-107092857D01*
X128095714Y-107140476D01*
X128048095Y-107235714D01*
X128000476Y-107283333D01*
X127905238Y-107330952D01*
X127714761Y-107330952D01*
X127619523Y-107378571D01*
X127571904Y-107426190D01*
X127524285Y-107521428D01*
X127524285Y-107711904D01*
X127571904Y-107807142D01*
X127619523Y-107854761D01*
X127714761Y-107902380D01*
X127905238Y-107902380D01*
X128000476Y-107854761D01*
X128048095Y-107807142D01*
X128095714Y-107711904D01*
X128095714Y-107521428D01*
X128048095Y-107426190D01*
X128000476Y-107378571D01*
X127905238Y-107330952D01*
%TO.C,SW2*%
X174654761Y-126333333D02*
X174702380Y-126190476D01*
X174702380Y-125952380D01*
X174654761Y-125857142D01*
X174607142Y-125809523D01*
X174511904Y-125761904D01*
X174416666Y-125761904D01*
X174321428Y-125809523D01*
X174273809Y-125857142D01*
X174226190Y-125952380D01*
X174178571Y-126142857D01*
X174130952Y-126238095D01*
X174083333Y-126285714D01*
X173988095Y-126333333D01*
X173892857Y-126333333D01*
X173797619Y-126285714D01*
X173750000Y-126238095D01*
X173702380Y-126142857D01*
X173702380Y-125904761D01*
X173750000Y-125761904D01*
X173702380Y-125428571D02*
X174702380Y-125190476D01*
X173988095Y-125000000D01*
X174702380Y-124809523D01*
X173702380Y-124571428D01*
X173797619Y-124238095D02*
X173750000Y-124190476D01*
X173702380Y-124095238D01*
X173702380Y-123857142D01*
X173750000Y-123761904D01*
X173797619Y-123714285D01*
X173892857Y-123666666D01*
X173988095Y-123666666D01*
X174130952Y-123714285D01*
X174702380Y-124285714D01*
X174702380Y-123666666D01*
D13*
X181316666Y-125699998D02*
X180616666Y-125699998D01*
X180616666Y-125233331D02*
X180616666Y-125099998D01*
X180650000Y-125033331D01*
X180716666Y-124966664D01*
X180850000Y-124933331D01*
X181083333Y-124933331D01*
X181216666Y-124966664D01*
X181283333Y-125033331D01*
X181316666Y-125099998D01*
X181316666Y-125233331D01*
X181283333Y-125299998D01*
X181216666Y-125366664D01*
X181083333Y-125399998D01*
X180850000Y-125399998D01*
X180716666Y-125366664D01*
X180650000Y-125299998D01*
X180616666Y-125233331D01*
X180616666Y-124499998D02*
X180616666Y-124433331D01*
X180650000Y-124366664D01*
X180683333Y-124333331D01*
X180750000Y-124299998D01*
X180883333Y-124266664D01*
X181050000Y-124266664D01*
X181183333Y-124299998D01*
X181250000Y-124333331D01*
X181283333Y-124366664D01*
X181316666Y-124433331D01*
X181316666Y-124499998D01*
X181283333Y-124566664D01*
X181250000Y-124599998D01*
X181183333Y-124633331D01*
X181050000Y-124666664D01*
X180883333Y-124666664D01*
X180750000Y-124633331D01*
X180683333Y-124599998D01*
X180650000Y-124566664D01*
X180616666Y-124499998D01*
D10*
%TO.C,R7*%
X124643333Y-123652380D02*
X124310000Y-123176190D01*
X124071904Y-123652380D02*
X124071904Y-122652380D01*
X124452857Y-122652380D01*
X124548095Y-122700000D01*
X124595714Y-122747619D01*
X124643333Y-122842857D01*
X124643333Y-122985714D01*
X124595714Y-123080952D01*
X124548095Y-123128571D01*
X124452857Y-123176190D01*
X124071904Y-123176190D01*
X124976666Y-122652380D02*
X125643333Y-122652380D01*
X125214761Y-123652380D01*
%TO.C,R14*%
X161202380Y-127642855D02*
X160726190Y-127976188D01*
X161202380Y-128214283D02*
X160202380Y-128214283D01*
X160202380Y-127833331D01*
X160250000Y-127738093D01*
X160297619Y-127690474D01*
X160392857Y-127642855D01*
X160535714Y-127642855D01*
X160630952Y-127690474D01*
X160678571Y-127738093D01*
X160726190Y-127833331D01*
X160726190Y-128214283D01*
X161202380Y-126690474D02*
X161202380Y-127261902D01*
X161202380Y-126976188D02*
X160202380Y-126976188D01*
X160345238Y-127071426D01*
X160440476Y-127166664D01*
X160488095Y-127261902D01*
X160535714Y-125833331D02*
X161202380Y-125833331D01*
X160154761Y-126071426D02*
X160869047Y-126309521D01*
X160869047Y-125690474D01*
%TO.C,Q2*%
X172344761Y-102577619D02*
X172249523Y-102530000D01*
X172154285Y-102434761D01*
X172011428Y-102291904D01*
X171916190Y-102244285D01*
X171820952Y-102244285D01*
X171868571Y-102482380D02*
X171773333Y-102434761D01*
X171678095Y-102339523D01*
X171630476Y-102149047D01*
X171630476Y-101815714D01*
X171678095Y-101625238D01*
X171773333Y-101530000D01*
X171868571Y-101482380D01*
X172059047Y-101482380D01*
X172154285Y-101530000D01*
X172249523Y-101625238D01*
X172297142Y-101815714D01*
X172297142Y-102149047D01*
X172249523Y-102339523D01*
X172154285Y-102434761D01*
X172059047Y-102482380D01*
X171868571Y-102482380D01*
X172678095Y-101577619D02*
X172725714Y-101530000D01*
X172820952Y-101482380D01*
X173059047Y-101482380D01*
X173154285Y-101530000D01*
X173201904Y-101577619D01*
X173249523Y-101672857D01*
X173249523Y-101768095D01*
X173201904Y-101910952D01*
X172630476Y-102482380D01*
X173249523Y-102482380D01*
D13*
X171806666Y-100096666D02*
X171806666Y-99396666D01*
X172040000Y-99896666D01*
X172273333Y-99396666D01*
X172273333Y-100096666D01*
X172606666Y-100096666D02*
X172606666Y-99396666D01*
X172840000Y-99896666D01*
X173073333Y-99396666D01*
X173073333Y-100096666D01*
X173373333Y-100063333D02*
X173473333Y-100096666D01*
X173640000Y-100096666D01*
X173706666Y-100063333D01*
X173740000Y-100030000D01*
X173773333Y-99963333D01*
X173773333Y-99896666D01*
X173740000Y-99830000D01*
X173706666Y-99796666D01*
X173640000Y-99763333D01*
X173506666Y-99730000D01*
X173440000Y-99696666D01*
X173406666Y-99663333D01*
X173373333Y-99596666D01*
X173373333Y-99530000D01*
X173406666Y-99463333D01*
X173440000Y-99430000D01*
X173506666Y-99396666D01*
X173673333Y-99396666D01*
X173773333Y-99430000D01*
X174040000Y-100063333D02*
X174140000Y-100096666D01*
X174306666Y-100096666D01*
X174373333Y-100063333D01*
X174406666Y-100030000D01*
X174440000Y-99963333D01*
X174440000Y-99896666D01*
X174406666Y-99830000D01*
X174373333Y-99796666D01*
X174306666Y-99763333D01*
X174173333Y-99730000D01*
X174106666Y-99696666D01*
X174073333Y-99663333D01*
X174040000Y-99596666D01*
X174040000Y-99530000D01*
X174073333Y-99463333D01*
X174106666Y-99430000D01*
X174173333Y-99396666D01*
X174340000Y-99396666D01*
X174440000Y-99430000D01*
X174840000Y-99696666D02*
X174773333Y-99663333D01*
X174740000Y-99630000D01*
X174706666Y-99563333D01*
X174706666Y-99530000D01*
X174740000Y-99463333D01*
X174773333Y-99430000D01*
X174840000Y-99396666D01*
X174973333Y-99396666D01*
X175040000Y-99430000D01*
X175073333Y-99463333D01*
X175106666Y-99530000D01*
X175106666Y-99563333D01*
X175073333Y-99630000D01*
X175040000Y-99663333D01*
X174973333Y-99696666D01*
X174840000Y-99696666D01*
X174773333Y-99730000D01*
X174740000Y-99763333D01*
X174706666Y-99830000D01*
X174706666Y-99963333D01*
X174740000Y-100030000D01*
X174773333Y-100063333D01*
X174840000Y-100096666D01*
X174973333Y-100096666D01*
X175040000Y-100063333D01*
X175073333Y-100030000D01*
X175106666Y-99963333D01*
X175106666Y-99830000D01*
X175073333Y-99763333D01*
X175040000Y-99730000D01*
X174973333Y-99696666D01*
X175540000Y-99396666D02*
X175606666Y-99396666D01*
X175673333Y-99430000D01*
X175706666Y-99463333D01*
X175740000Y-99530000D01*
X175773333Y-99663333D01*
X175773333Y-99830000D01*
X175740000Y-99963333D01*
X175706666Y-100030000D01*
X175673333Y-100063333D01*
X175606666Y-100096666D01*
X175540000Y-100096666D01*
X175473333Y-100063333D01*
X175440000Y-100030000D01*
X175406666Y-99963333D01*
X175373333Y-99830000D01*
X175373333Y-99663333D01*
X175406666Y-99530000D01*
X175440000Y-99463333D01*
X175473333Y-99430000D01*
X175540000Y-99396666D01*
X176406666Y-99396666D02*
X176073333Y-99396666D01*
X176040000Y-99730000D01*
X176073333Y-99696666D01*
X176140000Y-99663333D01*
X176306666Y-99663333D01*
X176373333Y-99696666D01*
X176406666Y-99730000D01*
X176440000Y-99796666D01*
X176440000Y-99963333D01*
X176406666Y-100030000D01*
X176373333Y-100063333D01*
X176306666Y-100096666D01*
X176140000Y-100096666D01*
X176073333Y-100063333D01*
X176040000Y-100030000D01*
X176873333Y-99396666D02*
X176940000Y-99396666D01*
X177006666Y-99430000D01*
X177040000Y-99463333D01*
X177073333Y-99530000D01*
X177106666Y-99663333D01*
X177106666Y-99830000D01*
X177073333Y-99963333D01*
X177040000Y-100030000D01*
X177006666Y-100063333D01*
X176940000Y-100096666D01*
X176873333Y-100096666D01*
X176806666Y-100063333D01*
X176773333Y-100030000D01*
X176740000Y-99963333D01*
X176706666Y-99830000D01*
X176706666Y-99663333D01*
X176740000Y-99530000D01*
X176773333Y-99463333D01*
X176806666Y-99430000D01*
X176873333Y-99396666D01*
D10*
%TO.C,U1*%
X153202380Y-118061904D02*
X154011904Y-118061904D01*
X154107142Y-118014285D01*
X154154761Y-117966666D01*
X154202380Y-117871428D01*
X154202380Y-117680952D01*
X154154761Y-117585714D01*
X154107142Y-117538095D01*
X154011904Y-117490476D01*
X153202380Y-117490476D01*
X154202380Y-116490476D02*
X154202380Y-117061904D01*
X154202380Y-116776190D02*
X153202380Y-116776190D01*
X153345238Y-116871428D01*
X153440476Y-116966666D01*
X153488095Y-117061904D01*
D13*
X147250000Y-114066666D02*
X147583333Y-114066666D01*
X147183333Y-114266666D02*
X147416666Y-113566666D01*
X147650000Y-114266666D01*
X147883333Y-114266666D02*
X147883333Y-113566666D01*
X148150000Y-113566666D01*
X148216666Y-113600000D01*
X148250000Y-113633333D01*
X148283333Y-113700000D01*
X148283333Y-113800000D01*
X148250000Y-113866666D01*
X148216666Y-113900000D01*
X148150000Y-113933333D01*
X147883333Y-113933333D01*
X148550000Y-113633333D02*
X148583333Y-113600000D01*
X148650000Y-113566666D01*
X148816666Y-113566666D01*
X148883333Y-113600000D01*
X148916666Y-113633333D01*
X148950000Y-113700000D01*
X148950000Y-113766666D01*
X148916666Y-113866666D01*
X148516666Y-114266666D01*
X148950000Y-114266666D01*
X149216666Y-113633333D02*
X149250000Y-113600000D01*
X149316666Y-113566666D01*
X149483333Y-113566666D01*
X149550000Y-113600000D01*
X149583333Y-113633333D01*
X149616666Y-113700000D01*
X149616666Y-113766666D01*
X149583333Y-113866666D01*
X149183333Y-114266666D01*
X149616666Y-114266666D01*
X150050000Y-113566666D02*
X150116666Y-113566666D01*
X150183333Y-113600000D01*
X150216666Y-113633333D01*
X150250000Y-113700000D01*
X150283333Y-113833333D01*
X150283333Y-114000000D01*
X150250000Y-114133333D01*
X150216666Y-114200000D01*
X150183333Y-114233333D01*
X150116666Y-114266666D01*
X150050000Y-114266666D01*
X149983333Y-114233333D01*
X149950000Y-114200000D01*
X149916666Y-114133333D01*
X149883333Y-114000000D01*
X149883333Y-113833333D01*
X149916666Y-113700000D01*
X149950000Y-113633333D01*
X149983333Y-113600000D01*
X150050000Y-113566666D01*
X150916666Y-113566666D02*
X150583333Y-113566666D01*
X150550000Y-113900000D01*
X150583333Y-113866666D01*
X150650000Y-113833333D01*
X150816666Y-113833333D01*
X150883333Y-113866666D01*
X150916666Y-113900000D01*
X150950000Y-113966666D01*
X150950000Y-114133333D01*
X150916666Y-114200000D01*
X150883333Y-114233333D01*
X150816666Y-114266666D01*
X150650000Y-114266666D01*
X150583333Y-114233333D01*
X150550000Y-114200000D01*
X151250000Y-114000000D02*
X151783333Y-114000000D01*
X152050000Y-113566666D02*
X152483333Y-113566666D01*
X152250000Y-113833333D01*
X152350000Y-113833333D01*
X152416666Y-113866666D01*
X152450000Y-113900000D01*
X152483333Y-113966666D01*
X152483333Y-114133333D01*
X152450000Y-114200000D01*
X152416666Y-114233333D01*
X152350000Y-114266666D01*
X152150000Y-114266666D01*
X152083333Y-114233333D01*
X152050000Y-114200000D01*
X152716666Y-113566666D02*
X153150000Y-113566666D01*
X152916666Y-113833333D01*
X153016666Y-113833333D01*
X153083333Y-113866666D01*
X153116666Y-113900000D01*
X153150000Y-113966666D01*
X153150000Y-114133333D01*
X153116666Y-114200000D01*
X153083333Y-114233333D01*
X153016666Y-114266666D01*
X152816666Y-114266666D01*
X152750000Y-114233333D01*
X152716666Y-114200000D01*
X153583333Y-113933333D02*
X153583333Y-114266666D01*
X153350000Y-113566666D02*
X153583333Y-113933333D01*
X153816666Y-113566666D01*
D10*
%TO.C,C4*%
X157537142Y-116416666D02*
X157584761Y-116464285D01*
X157632380Y-116607142D01*
X157632380Y-116702380D01*
X157584761Y-116845238D01*
X157489523Y-116940476D01*
X157394285Y-116988095D01*
X157203809Y-117035714D01*
X157060952Y-117035714D01*
X156870476Y-116988095D01*
X156775238Y-116940476D01*
X156680000Y-116845238D01*
X156632380Y-116702380D01*
X156632380Y-116607142D01*
X156680000Y-116464285D01*
X156727619Y-116416666D01*
X156965714Y-115559523D02*
X157632380Y-115559523D01*
X156584761Y-115797619D02*
X157299047Y-116035714D01*
X157299047Y-115416666D01*
%TO.C,R2*%
X157702380Y-122416664D02*
X157226190Y-122749998D01*
X157702380Y-122988093D02*
X156702380Y-122988093D01*
X156702380Y-122607140D01*
X156750000Y-122511902D01*
X156797619Y-122464283D01*
X156892857Y-122416664D01*
X157035714Y-122416664D01*
X157130952Y-122464283D01*
X157178571Y-122511902D01*
X157226190Y-122607140D01*
X157226190Y-122988093D01*
X156797619Y-122035712D02*
X156750000Y-121988093D01*
X156702380Y-121892855D01*
X156702380Y-121654759D01*
X156750000Y-121559521D01*
X156797619Y-121511902D01*
X156892857Y-121464283D01*
X156988095Y-121464283D01*
X157130952Y-121511902D01*
X157702380Y-122083331D01*
X157702380Y-121464283D01*
%TO.C,R1*%
X127083333Y-110402380D02*
X126750000Y-109926190D01*
X126511904Y-110402380D02*
X126511904Y-109402380D01*
X126892857Y-109402380D01*
X126988095Y-109450000D01*
X127035714Y-109497619D01*
X127083333Y-109592857D01*
X127083333Y-109735714D01*
X127035714Y-109830952D01*
X126988095Y-109878571D01*
X126892857Y-109926190D01*
X126511904Y-109926190D01*
X128035714Y-110402380D02*
X127464285Y-110402380D01*
X127750000Y-110402380D02*
X127750000Y-109402380D01*
X127654761Y-109545238D01*
X127559523Y-109640476D01*
X127464285Y-109688095D01*
%TO.C,C3*%
X123333333Y-88557142D02*
X123285714Y-88604761D01*
X123142857Y-88652380D01*
X123047619Y-88652380D01*
X122904761Y-88604761D01*
X122809523Y-88509523D01*
X122761904Y-88414285D01*
X122714285Y-88223809D01*
X122714285Y-88080952D01*
X122761904Y-87890476D01*
X122809523Y-87795238D01*
X122904761Y-87700000D01*
X123047619Y-87652380D01*
X123142857Y-87652380D01*
X123285714Y-87700000D01*
X123333333Y-87747619D01*
X123666666Y-87652380D02*
X124285714Y-87652380D01*
X123952380Y-88033333D01*
X124095238Y-88033333D01*
X124190476Y-88080952D01*
X124238095Y-88128571D01*
X124285714Y-88223809D01*
X124285714Y-88461904D01*
X124238095Y-88557142D01*
X124190476Y-88604761D01*
X124095238Y-88652380D01*
X123809523Y-88652380D01*
X123714285Y-88604761D01*
X123666666Y-88557142D01*
D13*
X119116666Y-89066666D02*
X119116666Y-88733333D01*
X119316666Y-89133333D02*
X118616666Y-88900000D01*
X119316666Y-88666666D01*
X118950000Y-88200000D02*
X118983333Y-88100000D01*
X119016666Y-88066666D01*
X119083333Y-88033333D01*
X119183333Y-88033333D01*
X119250000Y-88066666D01*
X119283333Y-88100000D01*
X119316666Y-88166666D01*
X119316666Y-88433333D01*
X118616666Y-88433333D01*
X118616666Y-88200000D01*
X118650000Y-88133333D01*
X118683333Y-88100000D01*
X118750000Y-88066666D01*
X118816666Y-88066666D01*
X118883333Y-88100000D01*
X118916666Y-88133333D01*
X118950000Y-88200000D01*
X118950000Y-88433333D01*
X119316666Y-87333333D02*
X118983333Y-87566666D01*
X119316666Y-87733333D02*
X118616666Y-87733333D01*
X118616666Y-87466666D01*
X118650000Y-87400000D01*
X118683333Y-87366666D01*
X118750000Y-87333333D01*
X118850000Y-87333333D01*
X118916666Y-87366666D01*
X118950000Y-87400000D01*
X118983333Y-87466666D01*
X118983333Y-87733333D01*
D10*
%TO.C,J6*%
X152166666Y-96702380D02*
X152166666Y-97416666D01*
X152119047Y-97559523D01*
X152023809Y-97654761D01*
X151880952Y-97702380D01*
X151785714Y-97702380D01*
X153071428Y-96702380D02*
X152880952Y-96702380D01*
X152785714Y-96750000D01*
X152738095Y-96797619D01*
X152642857Y-96940476D01*
X152595238Y-97130952D01*
X152595238Y-97511904D01*
X152642857Y-97607142D01*
X152690476Y-97654761D01*
X152785714Y-97702380D01*
X152976190Y-97702380D01*
X153071428Y-97654761D01*
X153119047Y-97607142D01*
X153166666Y-97511904D01*
X153166666Y-97273809D01*
X153119047Y-97178571D01*
X153071428Y-97130952D01*
X152976190Y-97083333D01*
X152785714Y-97083333D01*
X152690476Y-97130952D01*
X152642857Y-97178571D01*
X152595238Y-97273809D01*
D13*
%TO.C,TP6*%
X139621428Y-88773809D02*
X139735714Y-88811904D01*
X139926190Y-88811904D01*
X140002380Y-88773809D01*
X140040476Y-88735714D01*
X140078571Y-88659523D01*
X140078571Y-88583333D01*
X140040476Y-88507142D01*
X140002380Y-88469047D01*
X139926190Y-88430952D01*
X139773809Y-88392857D01*
X139697619Y-88354761D01*
X139659523Y-88316666D01*
X139621428Y-88240476D01*
X139621428Y-88164285D01*
X139659523Y-88088095D01*
X139697619Y-88050000D01*
X139773809Y-88011904D01*
X139964285Y-88011904D01*
X140078571Y-88050000D01*
X140878571Y-88735714D02*
X140840476Y-88773809D01*
X140726190Y-88811904D01*
X140650000Y-88811904D01*
X140535714Y-88773809D01*
X140459523Y-88697619D01*
X140421428Y-88621428D01*
X140383333Y-88469047D01*
X140383333Y-88354761D01*
X140421428Y-88202380D01*
X140459523Y-88126190D01*
X140535714Y-88050000D01*
X140650000Y-88011904D01*
X140726190Y-88011904D01*
X140840476Y-88050000D01*
X140878571Y-88088095D01*
D10*
%TO.C,Q4*%
X142154761Y-88747619D02*
X142059523Y-88700000D01*
X141964285Y-88604761D01*
X141821428Y-88461904D01*
X141726190Y-88414285D01*
X141630952Y-88414285D01*
X141678571Y-88652380D02*
X141583333Y-88604761D01*
X141488095Y-88509523D01*
X141440476Y-88319047D01*
X141440476Y-87985714D01*
X141488095Y-87795238D01*
X141583333Y-87700000D01*
X141678571Y-87652380D01*
X141869047Y-87652380D01*
X141964285Y-87700000D01*
X142059523Y-87795238D01*
X142107142Y-87985714D01*
X142107142Y-88319047D01*
X142059523Y-88509523D01*
X141964285Y-88604761D01*
X141869047Y-88652380D01*
X141678571Y-88652380D01*
X142964285Y-87985714D02*
X142964285Y-88652380D01*
X142726190Y-87604761D02*
X142488095Y-88319047D01*
X143107142Y-88319047D01*
D13*
X138316666Y-86683333D02*
X137616666Y-86683333D01*
X138316666Y-85950000D02*
X137983333Y-86183333D01*
X138316666Y-86350000D02*
X137616666Y-86350000D01*
X137616666Y-86083333D01*
X137650000Y-86016666D01*
X137683333Y-85983333D01*
X137750000Y-85950000D01*
X137850000Y-85950000D01*
X137916666Y-85983333D01*
X137950000Y-86016666D01*
X137983333Y-86083333D01*
X137983333Y-86350000D01*
X137950000Y-85416666D02*
X137950000Y-85650000D01*
X138316666Y-85650000D02*
X137616666Y-85650000D01*
X137616666Y-85316666D01*
X137616666Y-85116666D02*
X137616666Y-84650000D01*
X138316666Y-84950000D01*
X137616666Y-84450000D02*
X137616666Y-84016666D01*
X137883333Y-84250000D01*
X137883333Y-84150000D01*
X137916666Y-84083333D01*
X137950000Y-84050000D01*
X138016666Y-84016666D01*
X138183333Y-84016666D01*
X138250000Y-84050000D01*
X138283333Y-84083333D01*
X138316666Y-84150000D01*
X138316666Y-84350000D01*
X138283333Y-84416666D01*
X138250000Y-84450000D01*
X137616666Y-83583333D02*
X137616666Y-83516666D01*
X137650000Y-83450000D01*
X137683333Y-83416666D01*
X137750000Y-83383333D01*
X137883333Y-83350000D01*
X138050000Y-83350000D01*
X138183333Y-83383333D01*
X138250000Y-83416666D01*
X138283333Y-83450000D01*
X138316666Y-83516666D01*
X138316666Y-83583333D01*
X138283333Y-83650000D01*
X138250000Y-83683333D01*
X138183333Y-83716666D01*
X138050000Y-83750000D01*
X137883333Y-83750000D01*
X137750000Y-83716666D01*
X137683333Y-83683333D01*
X137650000Y-83650000D01*
X137616666Y-83583333D01*
X137616666Y-83116666D02*
X137616666Y-82683333D01*
X137883333Y-82916666D01*
X137883333Y-82816666D01*
X137916666Y-82750000D01*
X137950000Y-82716666D01*
X138016666Y-82683333D01*
X138183333Y-82683333D01*
X138250000Y-82716666D01*
X138283333Y-82750000D01*
X138316666Y-82816666D01*
X138316666Y-83016666D01*
X138283333Y-83083333D01*
X138250000Y-83116666D01*
D10*
%TO.C,C7*%
X123333333Y-93557142D02*
X123285714Y-93604761D01*
X123142857Y-93652380D01*
X123047619Y-93652380D01*
X122904761Y-93604761D01*
X122809523Y-93509523D01*
X122761904Y-93414285D01*
X122714285Y-93223809D01*
X122714285Y-93080952D01*
X122761904Y-92890476D01*
X122809523Y-92795238D01*
X122904761Y-92700000D01*
X123047619Y-92652380D01*
X123142857Y-92652380D01*
X123285714Y-92700000D01*
X123333333Y-92747619D01*
X123666666Y-92652380D02*
X124333333Y-92652380D01*
X123904761Y-93652380D01*
D13*
X119250000Y-93283333D02*
X119283333Y-93316666D01*
X119316666Y-93416666D01*
X119316666Y-93483333D01*
X119283333Y-93583333D01*
X119216666Y-93650000D01*
X119150000Y-93683333D01*
X119016666Y-93716666D01*
X118916666Y-93716666D01*
X118783333Y-93683333D01*
X118716666Y-93650000D01*
X118650000Y-93583333D01*
X118616666Y-93483333D01*
X118616666Y-93416666D01*
X118650000Y-93316666D01*
X118683333Y-93283333D01*
X119116666Y-93016666D02*
X119116666Y-92683333D01*
X119316666Y-93083333D02*
X118616666Y-92850000D01*
X119316666Y-92616666D01*
D10*
%TO.C,R19*%
X171607142Y-113912380D02*
X171273809Y-113436190D01*
X171035714Y-113912380D02*
X171035714Y-112912380D01*
X171416666Y-112912380D01*
X171511904Y-112960000D01*
X171559523Y-113007619D01*
X171607142Y-113102857D01*
X171607142Y-113245714D01*
X171559523Y-113340952D01*
X171511904Y-113388571D01*
X171416666Y-113436190D01*
X171035714Y-113436190D01*
X172559523Y-113912380D02*
X171988095Y-113912380D01*
X172273809Y-113912380D02*
X172273809Y-112912380D01*
X172178571Y-113055238D01*
X172083333Y-113150476D01*
X171988095Y-113198095D01*
X173035714Y-113912380D02*
X173226190Y-113912380D01*
X173321428Y-113864761D01*
X173369047Y-113817142D01*
X173464285Y-113674285D01*
X173511904Y-113483809D01*
X173511904Y-113102857D01*
X173464285Y-113007619D01*
X173416666Y-112960000D01*
X173321428Y-112912380D01*
X173130952Y-112912380D01*
X173035714Y-112960000D01*
X172988095Y-113007619D01*
X172940476Y-113102857D01*
X172940476Y-113340952D01*
X172988095Y-113436190D01*
X173035714Y-113483809D01*
X173130952Y-113531428D01*
X173321428Y-113531428D01*
X173416666Y-113483809D01*
X173464285Y-113436190D01*
X173511904Y-113340952D01*
%TO.C,R6*%
X127143333Y-112902380D02*
X126810000Y-112426190D01*
X126571904Y-112902380D02*
X126571904Y-111902380D01*
X126952857Y-111902380D01*
X127048095Y-111950000D01*
X127095714Y-111997619D01*
X127143333Y-112092857D01*
X127143333Y-112235714D01*
X127095714Y-112330952D01*
X127048095Y-112378571D01*
X126952857Y-112426190D01*
X126571904Y-112426190D01*
X128000476Y-111902380D02*
X127810000Y-111902380D01*
X127714761Y-111950000D01*
X127667142Y-111997619D01*
X127571904Y-112140476D01*
X127524285Y-112330952D01*
X127524285Y-112711904D01*
X127571904Y-112807142D01*
X127619523Y-112854761D01*
X127714761Y-112902380D01*
X127905238Y-112902380D01*
X128000476Y-112854761D01*
X128048095Y-112807142D01*
X128095714Y-112711904D01*
X128095714Y-112473809D01*
X128048095Y-112378571D01*
X128000476Y-112330952D01*
X127905238Y-112283333D01*
X127714761Y-112283333D01*
X127619523Y-112330952D01*
X127571904Y-112378571D01*
X127524285Y-112473809D01*
%TO.C,R24*%
X129202380Y-93342857D02*
X128726190Y-93676190D01*
X129202380Y-93914285D02*
X128202380Y-93914285D01*
X128202380Y-93533333D01*
X128250000Y-93438095D01*
X128297619Y-93390476D01*
X128392857Y-93342857D01*
X128535714Y-93342857D01*
X128630952Y-93390476D01*
X128678571Y-93438095D01*
X128726190Y-93533333D01*
X128726190Y-93914285D01*
X128297619Y-92961904D02*
X128250000Y-92914285D01*
X128202380Y-92819047D01*
X128202380Y-92580952D01*
X128250000Y-92485714D01*
X128297619Y-92438095D01*
X128392857Y-92390476D01*
X128488095Y-92390476D01*
X128630952Y-92438095D01*
X129202380Y-93009523D01*
X129202380Y-92390476D01*
X128535714Y-91533333D02*
X129202380Y-91533333D01*
X128154761Y-91771428D02*
X128869047Y-92009523D01*
X128869047Y-91390476D01*
%TO.C,D3*%
X164702380Y-132483320D02*
X163702380Y-132483320D01*
X163702380Y-132245225D01*
X163750000Y-132102367D01*
X163845238Y-132007129D01*
X163940476Y-131959510D01*
X164130952Y-131911891D01*
X164273809Y-131911891D01*
X164464285Y-131959510D01*
X164559523Y-132007129D01*
X164654761Y-132102367D01*
X164702380Y-132245225D01*
X164702380Y-132483320D01*
X163702380Y-131578558D02*
X163702380Y-130959510D01*
X164083333Y-131292844D01*
X164083333Y-131149986D01*
X164130952Y-131054748D01*
X164178571Y-131007129D01*
X164273809Y-130959510D01*
X164511904Y-130959510D01*
X164607142Y-131007129D01*
X164654761Y-131054748D01*
X164702380Y-131149986D01*
X164702380Y-131435701D01*
X164654761Y-131530939D01*
X164607142Y-131578558D01*
D13*
X161633331Y-133861893D02*
X162066664Y-133861893D01*
X161833331Y-134128560D01*
X161933331Y-134128560D01*
X161999998Y-134161893D01*
X162033331Y-134195227D01*
X162066664Y-134261893D01*
X162066664Y-134428560D01*
X162033331Y-134495227D01*
X161999998Y-134528560D01*
X161933331Y-134561893D01*
X161733331Y-134561893D01*
X161666664Y-134528560D01*
X161633331Y-134495227D01*
X162266664Y-133861893D02*
X162499998Y-134561893D01*
X162733331Y-133861893D01*
X162899998Y-133861893D02*
X163333331Y-133861893D01*
X163099998Y-134128560D01*
X163199998Y-134128560D01*
X163266664Y-134161893D01*
X163299998Y-134195227D01*
X163333331Y-134261893D01*
X163333331Y-134428560D01*
X163299998Y-134495227D01*
X163266664Y-134528560D01*
X163199998Y-134561893D01*
X162999998Y-134561893D01*
X162933331Y-134528560D01*
X162899998Y-134495227D01*
%TO.C,TP5*%
X134178571Y-75773809D02*
X134292857Y-75811904D01*
X134483333Y-75811904D01*
X134559523Y-75773809D01*
X134597619Y-75735714D01*
X134635714Y-75659523D01*
X134635714Y-75583333D01*
X134597619Y-75507142D01*
X134559523Y-75469047D01*
X134483333Y-75430952D01*
X134330952Y-75392857D01*
X134254761Y-75354761D01*
X134216666Y-75316666D01*
X134178571Y-75240476D01*
X134178571Y-75164285D01*
X134216666Y-75088095D01*
X134254761Y-75050000D01*
X134330952Y-75011904D01*
X134521428Y-75011904D01*
X134635714Y-75050000D01*
X134940476Y-75583333D02*
X135321428Y-75583333D01*
X134864285Y-75811904D02*
X135130952Y-75011904D01*
X135397619Y-75811904D01*
D10*
%TO.C,C10*%
X130357142Y-75307142D02*
X130309523Y-75354761D01*
X130166666Y-75402380D01*
X130071428Y-75402380D01*
X129928571Y-75354761D01*
X129833333Y-75259523D01*
X129785714Y-75164285D01*
X129738095Y-74973809D01*
X129738095Y-74830952D01*
X129785714Y-74640476D01*
X129833333Y-74545238D01*
X129928571Y-74450000D01*
X130071428Y-74402380D01*
X130166666Y-74402380D01*
X130309523Y-74450000D01*
X130357142Y-74497619D01*
X131309523Y-75402380D02*
X130738095Y-75402380D01*
X131023809Y-75402380D02*
X131023809Y-74402380D01*
X130928571Y-74545238D01*
X130833333Y-74640476D01*
X130738095Y-74688095D01*
X131928571Y-74402380D02*
X132023809Y-74402380D01*
X132119047Y-74450000D01*
X132166666Y-74497619D01*
X132214285Y-74592857D01*
X132261904Y-74783333D01*
X132261904Y-75021428D01*
X132214285Y-75211904D01*
X132166666Y-75307142D01*
X132119047Y-75354761D01*
X132023809Y-75402380D01*
X131928571Y-75402380D01*
X131833333Y-75354761D01*
X131785714Y-75307142D01*
X131738095Y-75211904D01*
X131690476Y-75021428D01*
X131690476Y-74783333D01*
X131738095Y-74592857D01*
X131785714Y-74497619D01*
X131833333Y-74450000D01*
X131928571Y-74402380D01*
%TO.C,R3*%
X164702380Y-122416664D02*
X164226190Y-122749998D01*
X164702380Y-122988093D02*
X163702380Y-122988093D01*
X163702380Y-122607140D01*
X163750000Y-122511902D01*
X163797619Y-122464283D01*
X163892857Y-122416664D01*
X164035714Y-122416664D01*
X164130952Y-122464283D01*
X164178571Y-122511902D01*
X164226190Y-122607140D01*
X164226190Y-122988093D01*
X163702380Y-122083331D02*
X163702380Y-121464283D01*
X164083333Y-121797617D01*
X164083333Y-121654759D01*
X164130952Y-121559521D01*
X164178571Y-121511902D01*
X164273809Y-121464283D01*
X164511904Y-121464283D01*
X164607142Y-121511902D01*
X164654761Y-121559521D01*
X164702380Y-121654759D01*
X164702380Y-121940474D01*
X164654761Y-122035712D01*
X164607142Y-122083331D01*
%TO.C,R17*%
X157602380Y-127642857D02*
X157126190Y-127976190D01*
X157602380Y-128214285D02*
X156602380Y-128214285D01*
X156602380Y-127833333D01*
X156650000Y-127738095D01*
X156697619Y-127690476D01*
X156792857Y-127642857D01*
X156935714Y-127642857D01*
X157030952Y-127690476D01*
X157078571Y-127738095D01*
X157126190Y-127833333D01*
X157126190Y-128214285D01*
X157602380Y-126690476D02*
X157602380Y-127261904D01*
X157602380Y-126976190D02*
X156602380Y-126976190D01*
X156745238Y-127071428D01*
X156840476Y-127166666D01*
X156888095Y-127261904D01*
X156602380Y-126357142D02*
X156602380Y-125690476D01*
X157602380Y-126119047D01*
%TO.C,C6*%
X123333333Y-86057142D02*
X123285714Y-86104761D01*
X123142857Y-86152380D01*
X123047619Y-86152380D01*
X122904761Y-86104761D01*
X122809523Y-86009523D01*
X122761904Y-85914285D01*
X122714285Y-85723809D01*
X122714285Y-85580952D01*
X122761904Y-85390476D01*
X122809523Y-85295238D01*
X122904761Y-85200000D01*
X123047619Y-85152380D01*
X123142857Y-85152380D01*
X123285714Y-85200000D01*
X123333333Y-85247619D01*
X124190476Y-85152380D02*
X124000000Y-85152380D01*
X123904761Y-85200000D01*
X123857142Y-85247619D01*
X123761904Y-85390476D01*
X123714285Y-85580952D01*
X123714285Y-85961904D01*
X123761904Y-86057142D01*
X123809523Y-86104761D01*
X123904761Y-86152380D01*
X124095238Y-86152380D01*
X124190476Y-86104761D01*
X124238095Y-86057142D01*
X124285714Y-85961904D01*
X124285714Y-85723809D01*
X124238095Y-85628571D01*
X124190476Y-85580952D01*
X124095238Y-85533333D01*
X123904761Y-85533333D01*
X123809523Y-85580952D01*
X123761904Y-85628571D01*
X123714285Y-85723809D01*
D13*
X118950000Y-85950000D02*
X118983333Y-85850000D01*
X119016666Y-85816666D01*
X119083333Y-85783333D01*
X119183333Y-85783333D01*
X119250000Y-85816666D01*
X119283333Y-85850000D01*
X119316666Y-85916666D01*
X119316666Y-86183333D01*
X118616666Y-86183333D01*
X118616666Y-85950000D01*
X118650000Y-85883333D01*
X118683333Y-85850000D01*
X118750000Y-85816666D01*
X118816666Y-85816666D01*
X118883333Y-85850000D01*
X118916666Y-85883333D01*
X118950000Y-85950000D01*
X118950000Y-86183333D01*
X118950000Y-85250000D02*
X118950000Y-85483333D01*
X119316666Y-85483333D02*
X118616666Y-85483333D01*
X118616666Y-85150000D01*
D10*
%TO.C,C13*%
X123357142Y-73057142D02*
X123309523Y-73104761D01*
X123166666Y-73152380D01*
X123071428Y-73152380D01*
X122928571Y-73104761D01*
X122833333Y-73009523D01*
X122785714Y-72914285D01*
X122738095Y-72723809D01*
X122738095Y-72580952D01*
X122785714Y-72390476D01*
X122833333Y-72295238D01*
X122928571Y-72200000D01*
X123071428Y-72152380D01*
X123166666Y-72152380D01*
X123309523Y-72200000D01*
X123357142Y-72247619D01*
X124309523Y-73152380D02*
X123738095Y-73152380D01*
X124023809Y-73152380D02*
X124023809Y-72152380D01*
X123928571Y-72295238D01*
X123833333Y-72390476D01*
X123738095Y-72438095D01*
X124642857Y-72152380D02*
X125261904Y-72152380D01*
X124928571Y-72533333D01*
X125071428Y-72533333D01*
X125166666Y-72580952D01*
X125214285Y-72628571D01*
X125261904Y-72723809D01*
X125261904Y-72961904D01*
X125214285Y-73057142D01*
X125166666Y-73104761D01*
X125071428Y-73152380D01*
X124785714Y-73152380D01*
X124690476Y-73104761D01*
X124642857Y-73057142D01*
D13*
X119283333Y-72016666D02*
X119316666Y-71916666D01*
X119316666Y-71750000D01*
X119283333Y-71683333D01*
X119250000Y-71650000D01*
X119183333Y-71616666D01*
X119116666Y-71616666D01*
X119050000Y-71650000D01*
X119016666Y-71683333D01*
X118983333Y-71750000D01*
X118950000Y-71883333D01*
X118916666Y-71950000D01*
X118883333Y-71983333D01*
X118816666Y-72016666D01*
X118750000Y-72016666D01*
X118683333Y-71983333D01*
X118650000Y-71950000D01*
X118616666Y-71883333D01*
X118616666Y-71716666D01*
X118650000Y-71616666D01*
X118616666Y-71416666D02*
X118616666Y-71016666D01*
X119316666Y-71216666D02*
X118616666Y-71216666D01*
X119250000Y-70383333D02*
X119283333Y-70416666D01*
X119316666Y-70516666D01*
X119316666Y-70583333D01*
X119283333Y-70683333D01*
X119216666Y-70750000D01*
X119150000Y-70783333D01*
X119016666Y-70816666D01*
X118916666Y-70816666D01*
X118783333Y-70783333D01*
X118716666Y-70750000D01*
X118650000Y-70683333D01*
X118616666Y-70583333D01*
X118616666Y-70516666D01*
X118650000Y-70416666D01*
X118683333Y-70383333D01*
D10*
%TO.C,R25*%
X127702380Y-93342857D02*
X127226190Y-93676190D01*
X127702380Y-93914285D02*
X126702380Y-93914285D01*
X126702380Y-93533333D01*
X126750000Y-93438095D01*
X126797619Y-93390476D01*
X126892857Y-93342857D01*
X127035714Y-93342857D01*
X127130952Y-93390476D01*
X127178571Y-93438095D01*
X127226190Y-93533333D01*
X127226190Y-93914285D01*
X126797619Y-92961904D02*
X126750000Y-92914285D01*
X126702380Y-92819047D01*
X126702380Y-92580952D01*
X126750000Y-92485714D01*
X126797619Y-92438095D01*
X126892857Y-92390476D01*
X126988095Y-92390476D01*
X127130952Y-92438095D01*
X127702380Y-93009523D01*
X127702380Y-92390476D01*
X126702380Y-91485714D02*
X126702380Y-91961904D01*
X127178571Y-92009523D01*
X127130952Y-91961904D01*
X127083333Y-91866666D01*
X127083333Y-91628571D01*
X127130952Y-91533333D01*
X127178571Y-91485714D01*
X127273809Y-91438095D01*
X127511904Y-91438095D01*
X127607142Y-91485714D01*
X127654761Y-91533333D01*
X127702380Y-91628571D01*
X127702380Y-91866666D01*
X127654761Y-91961904D01*
X127607142Y-92009523D01*
%TO.C,R20*%
X168202380Y-122892857D02*
X167726190Y-123226190D01*
X168202380Y-123464285D02*
X167202380Y-123464285D01*
X167202380Y-123083333D01*
X167250000Y-122988095D01*
X167297619Y-122940476D01*
X167392857Y-122892857D01*
X167535714Y-122892857D01*
X167630952Y-122940476D01*
X167678571Y-122988095D01*
X167726190Y-123083333D01*
X167726190Y-123464285D01*
X167297619Y-122511904D02*
X167250000Y-122464285D01*
X167202380Y-122369047D01*
X167202380Y-122130952D01*
X167250000Y-122035714D01*
X167297619Y-121988095D01*
X167392857Y-121940476D01*
X167488095Y-121940476D01*
X167630952Y-121988095D01*
X168202380Y-122559523D01*
X168202380Y-121940476D01*
X167202380Y-121321428D02*
X167202380Y-121226190D01*
X167250000Y-121130952D01*
X167297619Y-121083333D01*
X167392857Y-121035714D01*
X167583333Y-120988095D01*
X167821428Y-120988095D01*
X168011904Y-121035714D01*
X168107142Y-121083333D01*
X168154761Y-121130952D01*
X168202380Y-121226190D01*
X168202380Y-121321428D01*
X168154761Y-121416666D01*
X168107142Y-121464285D01*
X168011904Y-121511904D01*
X167821428Y-121559523D01*
X167583333Y-121559523D01*
X167392857Y-121511904D01*
X167297619Y-121464285D01*
X167250000Y-121416666D01*
X167202380Y-121321428D01*
%TO.C,RV2*%
X127604004Y-104045236D02*
X127127814Y-104378569D01*
X127604004Y-104616664D02*
X126604004Y-104616664D01*
X126604004Y-104235712D01*
X126651624Y-104140474D01*
X126699243Y-104092855D01*
X126794481Y-104045236D01*
X126937338Y-104045236D01*
X127032576Y-104092855D01*
X127080195Y-104140474D01*
X127127814Y-104235712D01*
X127127814Y-104616664D01*
X126604004Y-103759521D02*
X127604004Y-103426188D01*
X126604004Y-103092855D01*
X126699243Y-102807140D02*
X126651624Y-102759521D01*
X126604004Y-102664283D01*
X126604004Y-102426188D01*
X126651624Y-102330950D01*
X126699243Y-102283331D01*
X126794481Y-102235712D01*
X126889719Y-102235712D01*
X127032576Y-102283331D01*
X127604004Y-102854759D01*
X127604004Y-102235712D01*
D13*
X118700000Y-103850000D02*
X118733333Y-103750000D01*
X118766666Y-103716666D01*
X118833333Y-103683333D01*
X118933333Y-103683333D01*
X119000000Y-103716666D01*
X119033333Y-103750000D01*
X119066666Y-103816666D01*
X119066666Y-104083333D01*
X118366666Y-104083333D01*
X118366666Y-103850000D01*
X118400000Y-103783333D01*
X118433333Y-103750000D01*
X118500000Y-103716666D01*
X118566666Y-103716666D01*
X118633333Y-103750000D01*
X118666666Y-103783333D01*
X118700000Y-103850000D01*
X118700000Y-104083333D01*
X118700000Y-103150000D02*
X118733333Y-103050000D01*
X118766666Y-103016666D01*
X118833333Y-102983333D01*
X118933333Y-102983333D01*
X119000000Y-103016666D01*
X119033333Y-103050000D01*
X119066666Y-103116666D01*
X119066666Y-103383333D01*
X118366666Y-103383333D01*
X118366666Y-103150000D01*
X118400000Y-103083333D01*
X118433333Y-103050000D01*
X118500000Y-103016666D01*
X118566666Y-103016666D01*
X118633333Y-103050000D01*
X118666666Y-103083333D01*
X118700000Y-103150000D01*
X118700000Y-103383333D01*
X119066666Y-102283333D02*
X118733333Y-102516666D01*
X119066666Y-102683333D02*
X118366666Y-102683333D01*
X118366666Y-102416666D01*
X118400000Y-102350000D01*
X118433333Y-102316666D01*
X118500000Y-102283333D01*
X118600000Y-102283333D01*
X118666666Y-102316666D01*
X118700000Y-102350000D01*
X118733333Y-102416666D01*
X118733333Y-102683333D01*
D10*
%TO.C,R16*%
X123357142Y-74652380D02*
X123023809Y-74176190D01*
X122785714Y-74652380D02*
X122785714Y-73652380D01*
X123166666Y-73652380D01*
X123261904Y-73700000D01*
X123309523Y-73747619D01*
X123357142Y-73842857D01*
X123357142Y-73985714D01*
X123309523Y-74080952D01*
X123261904Y-74128571D01*
X123166666Y-74176190D01*
X122785714Y-74176190D01*
X124309523Y-74652380D02*
X123738095Y-74652380D01*
X124023809Y-74652380D02*
X124023809Y-73652380D01*
X123928571Y-73795238D01*
X123833333Y-73890476D01*
X123738095Y-73938095D01*
X125166666Y-73652380D02*
X124976190Y-73652380D01*
X124880952Y-73700000D01*
X124833333Y-73747619D01*
X124738095Y-73890476D01*
X124690476Y-74080952D01*
X124690476Y-74461904D01*
X124738095Y-74557142D01*
X124785714Y-74604761D01*
X124880952Y-74652380D01*
X125071428Y-74652380D01*
X125166666Y-74604761D01*
X125214285Y-74557142D01*
X125261904Y-74461904D01*
X125261904Y-74223809D01*
X125214285Y-74128571D01*
X125166666Y-74080952D01*
X125071428Y-74033333D01*
X124880952Y-74033333D01*
X124785714Y-74080952D01*
X124738095Y-74128571D01*
X124690476Y-74223809D01*
D13*
X119066666Y-75150000D02*
X118833333Y-75150000D01*
X118833333Y-75516666D02*
X118833333Y-74816666D01*
X119166666Y-74816666D01*
X119833333Y-75516666D02*
X119600000Y-75183333D01*
X119433333Y-75516666D02*
X119433333Y-74816666D01*
X119700000Y-74816666D01*
X119766666Y-74850000D01*
X119800000Y-74883333D01*
X119833333Y-74950000D01*
X119833333Y-75050000D01*
X119800000Y-75116666D01*
X119766666Y-75150000D01*
X119700000Y-75183333D01*
X119433333Y-75183333D01*
X120133333Y-75150000D02*
X120366666Y-75150000D01*
X120466666Y-75516666D02*
X120133333Y-75516666D01*
X120133333Y-74816666D01*
X120466666Y-74816666D01*
X121233333Y-75583333D02*
X121166666Y-75550000D01*
X121100000Y-75483333D01*
X121000000Y-75383333D01*
X120933333Y-75350000D01*
X120866666Y-75350000D01*
X120900000Y-75516666D02*
X120833333Y-75483333D01*
X120766666Y-75416666D01*
X120733333Y-75283333D01*
X120733333Y-75050000D01*
X120766666Y-74916666D01*
X120833333Y-74850000D01*
X120900000Y-74816666D01*
X121033333Y-74816666D01*
X121100000Y-74850000D01*
X121166666Y-74916666D01*
X121200000Y-75050000D01*
X121200000Y-75283333D01*
X121166666Y-75416666D01*
X121100000Y-75483333D01*
X121033333Y-75516666D01*
X120900000Y-75516666D01*
X119283333Y-74483333D02*
X119316666Y-74383333D01*
X119316666Y-74216666D01*
X119283333Y-74150000D01*
X119250000Y-74116666D01*
X119183333Y-74083333D01*
X119116666Y-74083333D01*
X119050000Y-74116666D01*
X119016666Y-74150000D01*
X118983333Y-74216666D01*
X118950000Y-74350000D01*
X118916666Y-74416666D01*
X118883333Y-74450000D01*
X118816666Y-74483333D01*
X118750000Y-74483333D01*
X118683333Y-74450000D01*
X118650000Y-74416666D01*
X118616666Y-74350000D01*
X118616666Y-74183333D01*
X118650000Y-74083333D01*
X118950000Y-73783333D02*
X118950000Y-73550000D01*
X119316666Y-73450000D02*
X119316666Y-73783333D01*
X118616666Y-73783333D01*
X118616666Y-73450000D01*
X118616666Y-73250000D02*
X118616666Y-72850000D01*
X119316666Y-73050000D02*
X118616666Y-73050000D01*
D10*
%TO.C,C11*%
X135107142Y-83392859D02*
X135154761Y-83440478D01*
X135202380Y-83583335D01*
X135202380Y-83678573D01*
X135154761Y-83821430D01*
X135059523Y-83916668D01*
X134964285Y-83964287D01*
X134773809Y-84011906D01*
X134630952Y-84011906D01*
X134440476Y-83964287D01*
X134345238Y-83916668D01*
X134250000Y-83821430D01*
X134202380Y-83678573D01*
X134202380Y-83583335D01*
X134250000Y-83440478D01*
X134297619Y-83392859D01*
X135202380Y-82440478D02*
X135202380Y-83011906D01*
X135202380Y-82726192D02*
X134202380Y-82726192D01*
X134345238Y-82821430D01*
X134440476Y-82916668D01*
X134488095Y-83011906D01*
X135202380Y-81488097D02*
X135202380Y-82059525D01*
X135202380Y-81773811D02*
X134202380Y-81773811D01*
X134345238Y-81869049D01*
X134440476Y-81964287D01*
X134488095Y-82059525D01*
%TO.C,C9*%
X149833333Y-120677142D02*
X149785714Y-120724761D01*
X149642857Y-120772380D01*
X149547619Y-120772380D01*
X149404761Y-120724761D01*
X149309523Y-120629523D01*
X149261904Y-120534285D01*
X149214285Y-120343809D01*
X149214285Y-120200952D01*
X149261904Y-120010476D01*
X149309523Y-119915238D01*
X149404761Y-119820000D01*
X149547619Y-119772380D01*
X149642857Y-119772380D01*
X149785714Y-119820000D01*
X149833333Y-119867619D01*
X150309523Y-120772380D02*
X150500000Y-120772380D01*
X150595238Y-120724761D01*
X150642857Y-120677142D01*
X150738095Y-120534285D01*
X150785714Y-120343809D01*
X150785714Y-119962857D01*
X150738095Y-119867619D01*
X150690476Y-119820000D01*
X150595238Y-119772380D01*
X150404761Y-119772380D01*
X150309523Y-119820000D01*
X150261904Y-119867619D01*
X150214285Y-119962857D01*
X150214285Y-120200952D01*
X150261904Y-120296190D01*
X150309523Y-120343809D01*
X150404761Y-120391428D01*
X150595238Y-120391428D01*
X150690476Y-120343809D01*
X150738095Y-120296190D01*
X150785714Y-120200952D01*
%TO.C,REF\u002A\u002A*%
X129036823Y-72287303D02*
X129752780Y-72026716D01*
X129525095Y-72514988D02*
X129264508Y-71799031D01*
X134695701Y-70219342D02*
X135411658Y-69958755D01*
%TO.C,D2*%
X168202380Y-132488093D02*
X167202380Y-132488093D01*
X167202380Y-132249998D01*
X167250000Y-132107140D01*
X167345238Y-132011902D01*
X167440476Y-131964283D01*
X167630952Y-131916664D01*
X167773809Y-131916664D01*
X167964285Y-131964283D01*
X168059523Y-132011902D01*
X168154761Y-132107140D01*
X168202380Y-132249998D01*
X168202380Y-132488093D01*
X167297619Y-131535712D02*
X167250000Y-131488093D01*
X167202380Y-131392855D01*
X167202380Y-131154759D01*
X167250000Y-131059521D01*
X167297619Y-131011902D01*
X167392857Y-130964283D01*
X167488095Y-130964283D01*
X167630952Y-131011902D01*
X168202380Y-131583331D01*
X168202380Y-130964283D01*
D13*
X164966664Y-133866668D02*
X165199998Y-134566668D01*
X165433331Y-133866668D01*
X165499998Y-134633335D02*
X166033331Y-134633335D01*
X166199998Y-134566668D02*
X166199998Y-133866668D01*
X166533331Y-134566668D02*
X166533331Y-133866668D01*
X166933331Y-134566668D01*
X166933331Y-133866668D01*
D10*
%TO.C,R13*%
X120357142Y-67652380D02*
X120023809Y-67176190D01*
X119785714Y-67652380D02*
X119785714Y-66652380D01*
X120166666Y-66652380D01*
X120261904Y-66700000D01*
X120309523Y-66747619D01*
X120357142Y-66842857D01*
X120357142Y-66985714D01*
X120309523Y-67080952D01*
X120261904Y-67128571D01*
X120166666Y-67176190D01*
X119785714Y-67176190D01*
X121309523Y-67652380D02*
X120738095Y-67652380D01*
X121023809Y-67652380D02*
X121023809Y-66652380D01*
X120928571Y-66795238D01*
X120833333Y-66890476D01*
X120738095Y-66938095D01*
X121642857Y-66652380D02*
X122261904Y-66652380D01*
X121928571Y-67033333D01*
X122071428Y-67033333D01*
X122166666Y-67080952D01*
X122214285Y-67128571D01*
X122261904Y-67223809D01*
X122261904Y-67461904D01*
X122214285Y-67557142D01*
X122166666Y-67604761D01*
X122071428Y-67652380D01*
X121785714Y-67652380D01*
X121690476Y-67604761D01*
X121642857Y-67557142D01*
D13*
X119316666Y-69250000D02*
X118616666Y-69250000D01*
X118616666Y-68983333D01*
X118650000Y-68916666D01*
X118683333Y-68883333D01*
X118750000Y-68850000D01*
X118850000Y-68850000D01*
X118916666Y-68883333D01*
X118950000Y-68916666D01*
X118983333Y-68983333D01*
X118983333Y-69250000D01*
X119316666Y-68550000D02*
X118616666Y-68550000D01*
X118950000Y-68550000D02*
X118950000Y-68150000D01*
X119316666Y-68150000D02*
X118616666Y-68150000D01*
D10*
%TO.C,C19*%
X140607142Y-80807142D02*
X140559523Y-80854761D01*
X140416666Y-80902380D01*
X140321428Y-80902380D01*
X140178571Y-80854761D01*
X140083333Y-80759523D01*
X140035714Y-80664285D01*
X139988095Y-80473809D01*
X139988095Y-80330952D01*
X140035714Y-80140476D01*
X140083333Y-80045238D01*
X140178571Y-79950000D01*
X140321428Y-79902380D01*
X140416666Y-79902380D01*
X140559523Y-79950000D01*
X140607142Y-79997619D01*
X141559523Y-80902380D02*
X140988095Y-80902380D01*
X141273809Y-80902380D02*
X141273809Y-79902380D01*
X141178571Y-80045238D01*
X141083333Y-80140476D01*
X140988095Y-80188095D01*
X142035714Y-80902380D02*
X142226190Y-80902380D01*
X142321428Y-80854761D01*
X142369047Y-80807142D01*
X142464285Y-80664285D01*
X142511904Y-80473809D01*
X142511904Y-80092857D01*
X142464285Y-79997619D01*
X142416666Y-79950000D01*
X142321428Y-79902380D01*
X142130952Y-79902380D01*
X142035714Y-79950000D01*
X141988095Y-79997619D01*
X141940476Y-80092857D01*
X141940476Y-80330952D01*
X141988095Y-80426190D01*
X142035714Y-80473809D01*
X142130952Y-80521428D01*
X142321428Y-80521428D01*
X142416666Y-80473809D01*
X142464285Y-80426190D01*
X142511904Y-80330952D01*
D13*
%TO.C,TP1*%
X129335714Y-95485714D02*
X129297619Y-95523809D01*
X129183333Y-95561904D01*
X129107142Y-95561904D01*
X128992857Y-95523809D01*
X128916666Y-95447619D01*
X128878571Y-95371428D01*
X128840476Y-95219047D01*
X128840476Y-95104761D01*
X128878571Y-94952380D01*
X128916666Y-94876190D01*
X128992857Y-94800000D01*
X129107142Y-94761904D01*
X129183333Y-94761904D01*
X129297619Y-94800000D01*
X129335714Y-94838095D01*
X129640476Y-95523809D02*
X129754761Y-95561904D01*
X129945238Y-95561904D01*
X130021428Y-95523809D01*
X130059523Y-95485714D01*
X130097619Y-95409523D01*
X130097619Y-95333333D01*
X130059523Y-95257142D01*
X130021428Y-95219047D01*
X129945238Y-95180952D01*
X129792857Y-95142857D01*
X129716666Y-95104761D01*
X129678571Y-95066666D01*
X129640476Y-94990476D01*
X129640476Y-94914285D01*
X129678571Y-94838095D01*
X129716666Y-94800000D01*
X129792857Y-94761904D01*
X129983333Y-94761904D01*
X130097619Y-94800000D01*
X130440476Y-95142857D02*
X130707142Y-95142857D01*
X130821428Y-95561904D02*
X130440476Y-95561904D01*
X130440476Y-94761904D01*
X130821428Y-94761904D01*
X131164285Y-95561904D02*
X131164285Y-94761904D01*
X131621428Y-95561904D01*
X131621428Y-94761904D01*
D10*
%TO.C,J7*%
X147416666Y-96702380D02*
X147416666Y-97416666D01*
X147369047Y-97559523D01*
X147273809Y-97654761D01*
X147130952Y-97702380D01*
X147035714Y-97702380D01*
X147797619Y-96702380D02*
X148464285Y-96702380D01*
X148035714Y-97702380D01*
%TO.C,J4*%
X120666666Y-125950757D02*
X120666666Y-126665043D01*
X120619047Y-126807900D01*
X120523809Y-126903138D01*
X120380952Y-126950757D01*
X120285714Y-126950757D01*
X121571428Y-126284091D02*
X121571428Y-126950757D01*
X121333333Y-125903138D02*
X121095238Y-126617424D01*
X121714285Y-126617424D01*
%TO.C,R10*%
X164583396Y-116892857D02*
X164107206Y-117226190D01*
X164583396Y-117464285D02*
X163583396Y-117464285D01*
X163583396Y-117083333D01*
X163631016Y-116988095D01*
X163678635Y-116940476D01*
X163773873Y-116892857D01*
X163916730Y-116892857D01*
X164011968Y-116940476D01*
X164059587Y-116988095D01*
X164107206Y-117083333D01*
X164107206Y-117464285D01*
X164583396Y-115940476D02*
X164583396Y-116511904D01*
X164583396Y-116226190D02*
X163583396Y-116226190D01*
X163726254Y-116321428D01*
X163821492Y-116416666D01*
X163869111Y-116511904D01*
X163583396Y-115321428D02*
X163583396Y-115226190D01*
X163631016Y-115130952D01*
X163678635Y-115083333D01*
X163773873Y-115035714D01*
X163964349Y-114988095D01*
X164202444Y-114988095D01*
X164392920Y-115035714D01*
X164488158Y-115083333D01*
X164535777Y-115130952D01*
X164583396Y-115226190D01*
X164583396Y-115321428D01*
X164535777Y-115416666D01*
X164488158Y-115464285D01*
X164392920Y-115511904D01*
X164202444Y-115559523D01*
X163964349Y-115559523D01*
X163773873Y-115511904D01*
X163678635Y-115464285D01*
X163631016Y-115416666D01*
X163583396Y-115321428D01*
%TO.C,R12*%
X124357142Y-70152380D02*
X124023809Y-69676190D01*
X123785714Y-70152380D02*
X123785714Y-69152380D01*
X124166666Y-69152380D01*
X124261904Y-69200000D01*
X124309523Y-69247619D01*
X124357142Y-69342857D01*
X124357142Y-69485714D01*
X124309523Y-69580952D01*
X124261904Y-69628571D01*
X124166666Y-69676190D01*
X123785714Y-69676190D01*
X125309523Y-70152380D02*
X124738095Y-70152380D01*
X125023809Y-70152380D02*
X125023809Y-69152380D01*
X124928571Y-69295238D01*
X124833333Y-69390476D01*
X124738095Y-69438095D01*
X125690476Y-69247619D02*
X125738095Y-69200000D01*
X125833333Y-69152380D01*
X126071428Y-69152380D01*
X126166666Y-69200000D01*
X126214285Y-69247619D01*
X126261904Y-69342857D01*
X126261904Y-69438095D01*
X126214285Y-69580952D01*
X125642857Y-70152380D01*
X126261904Y-70152380D01*
D13*
X127316666Y-71750000D02*
X126616666Y-71750000D01*
X126616666Y-71483333D01*
X126650000Y-71416666D01*
X126683333Y-71383333D01*
X126750000Y-71350000D01*
X126850000Y-71350000D01*
X126916666Y-71383333D01*
X126950000Y-71416666D01*
X126983333Y-71483333D01*
X126983333Y-71750000D01*
X127316666Y-71050000D02*
X126616666Y-71050000D01*
X126950000Y-71050000D02*
X126950000Y-70650000D01*
X127316666Y-70650000D02*
X126616666Y-70650000D01*
D10*
%TO.C,C17*%
X149357142Y-131177142D02*
X149309523Y-131224761D01*
X149166666Y-131272380D01*
X149071428Y-131272380D01*
X148928571Y-131224761D01*
X148833333Y-131129523D01*
X148785714Y-131034285D01*
X148738095Y-130843809D01*
X148738095Y-130700952D01*
X148785714Y-130510476D01*
X148833333Y-130415238D01*
X148928571Y-130320000D01*
X149071428Y-130272380D01*
X149166666Y-130272380D01*
X149309523Y-130320000D01*
X149357142Y-130367619D01*
X150309523Y-131272380D02*
X149738095Y-131272380D01*
X150023809Y-131272380D02*
X150023809Y-130272380D01*
X149928571Y-130415238D01*
X149833333Y-130510476D01*
X149738095Y-130558095D01*
X150642857Y-130272380D02*
X151309523Y-130272380D01*
X150880952Y-131272380D01*
%TO.C,R18*%
X171607142Y-106292380D02*
X171273809Y-105816190D01*
X171035714Y-106292380D02*
X171035714Y-105292380D01*
X171416666Y-105292380D01*
X171511904Y-105340000D01*
X171559523Y-105387619D01*
X171607142Y-105482857D01*
X171607142Y-105625714D01*
X171559523Y-105720952D01*
X171511904Y-105768571D01*
X171416666Y-105816190D01*
X171035714Y-105816190D01*
X172559523Y-106292380D02*
X171988095Y-106292380D01*
X172273809Y-106292380D02*
X172273809Y-105292380D01*
X172178571Y-105435238D01*
X172083333Y-105530476D01*
X171988095Y-105578095D01*
X173130952Y-105720952D02*
X173035714Y-105673333D01*
X172988095Y-105625714D01*
X172940476Y-105530476D01*
X172940476Y-105482857D01*
X172988095Y-105387619D01*
X173035714Y-105340000D01*
X173130952Y-105292380D01*
X173321428Y-105292380D01*
X173416666Y-105340000D01*
X173464285Y-105387619D01*
X173511904Y-105482857D01*
X173511904Y-105530476D01*
X173464285Y-105625714D01*
X173416666Y-105673333D01*
X173321428Y-105720952D01*
X173130952Y-105720952D01*
X173035714Y-105768571D01*
X172988095Y-105816190D01*
X172940476Y-105911428D01*
X172940476Y-106101904D01*
X172988095Y-106197142D01*
X173035714Y-106244761D01*
X173130952Y-106292380D01*
X173321428Y-106292380D01*
X173416666Y-106244761D01*
X173464285Y-106197142D01*
X173511904Y-106101904D01*
X173511904Y-105911428D01*
X173464285Y-105816190D01*
X173416666Y-105768571D01*
X173321428Y-105720952D01*
%TO.C,R15*%
X149357142Y-124302380D02*
X149023809Y-123826190D01*
X148785714Y-124302380D02*
X148785714Y-123302380D01*
X149166666Y-123302380D01*
X149261904Y-123350000D01*
X149309523Y-123397619D01*
X149357142Y-123492857D01*
X149357142Y-123635714D01*
X149309523Y-123730952D01*
X149261904Y-123778571D01*
X149166666Y-123826190D01*
X148785714Y-123826190D01*
X150309523Y-124302380D02*
X149738095Y-124302380D01*
X150023809Y-124302380D02*
X150023809Y-123302380D01*
X149928571Y-123445238D01*
X149833333Y-123540476D01*
X149738095Y-123588095D01*
X151214285Y-123302380D02*
X150738095Y-123302380D01*
X150690476Y-123778571D01*
X150738095Y-123730952D01*
X150833333Y-123683333D01*
X151071428Y-123683333D01*
X151166666Y-123730952D01*
X151214285Y-123778571D01*
X151261904Y-123873809D01*
X151261904Y-124111904D01*
X151214285Y-124207142D01*
X151166666Y-124254761D01*
X151071428Y-124302380D01*
X150833333Y-124302380D01*
X150738095Y-124254761D01*
X150690476Y-124207142D01*
%TO.C,D4*%
X157702380Y-132438095D02*
X156702380Y-132438095D01*
X156702380Y-132200000D01*
X156750000Y-132057142D01*
X156845238Y-131961904D01*
X156940476Y-131914285D01*
X157130952Y-131866666D01*
X157273809Y-131866666D01*
X157464285Y-131914285D01*
X157559523Y-131961904D01*
X157654761Y-132057142D01*
X157702380Y-132200000D01*
X157702380Y-132438095D01*
X157035714Y-131009523D02*
X157702380Y-131009523D01*
X156654761Y-131247619D02*
X157369047Y-131485714D01*
X157369047Y-130866666D01*
D13*
X153766664Y-134527249D02*
X153866664Y-134560582D01*
X154033331Y-134560582D01*
X154099998Y-134527249D01*
X154133331Y-134493916D01*
X154166664Y-134427249D01*
X154166664Y-134360582D01*
X154133331Y-134293916D01*
X154099998Y-134260582D01*
X154033331Y-134227249D01*
X153899998Y-134193916D01*
X153833331Y-134160582D01*
X153799998Y-134127249D01*
X153766664Y-134060582D01*
X153766664Y-133993916D01*
X153799998Y-133927249D01*
X153833331Y-133893916D01*
X153899998Y-133860582D01*
X154066664Y-133860582D01*
X154166664Y-133893916D01*
X154366664Y-133860582D02*
X154766664Y-133860582D01*
X154566664Y-134560582D02*
X154566664Y-133860582D01*
X154966664Y-134360582D02*
X155299998Y-134360582D01*
X154899998Y-134560582D02*
X155133331Y-133860582D01*
X155366664Y-134560582D01*
X155499998Y-133860582D02*
X155899998Y-133860582D01*
X155699998Y-134560582D02*
X155699998Y-133860582D01*
X156133331Y-133860582D02*
X156133331Y-134427249D01*
X156166664Y-134493916D01*
X156199998Y-134527249D01*
X156266664Y-134560582D01*
X156399998Y-134560582D01*
X156466664Y-134527249D01*
X156499998Y-134493916D01*
X156533331Y-134427249D01*
X156533331Y-133860582D01*
X156833331Y-134527249D02*
X156933331Y-134560582D01*
X157099998Y-134560582D01*
X157166664Y-134527249D01*
X157199998Y-134493916D01*
X157233331Y-134427249D01*
X157233331Y-134360582D01*
X157199998Y-134293916D01*
X157166664Y-134260582D01*
X157099998Y-134227249D01*
X156966664Y-134193916D01*
X156899998Y-134160582D01*
X156866664Y-134127249D01*
X156833331Y-134060582D01*
X156833331Y-133993916D01*
X156866664Y-133927249D01*
X156899998Y-133893916D01*
X156966664Y-133860582D01*
X157133331Y-133860582D01*
X157233331Y-133893916D01*
D10*
%TO.C,C8*%
X123333333Y-91057142D02*
X123285714Y-91104761D01*
X123142857Y-91152380D01*
X123047619Y-91152380D01*
X122904761Y-91104761D01*
X122809523Y-91009523D01*
X122761904Y-90914285D01*
X122714285Y-90723809D01*
X122714285Y-90580952D01*
X122761904Y-90390476D01*
X122809523Y-90295238D01*
X122904761Y-90200000D01*
X123047619Y-90152380D01*
X123142857Y-90152380D01*
X123285714Y-90200000D01*
X123333333Y-90247619D01*
X123904761Y-90580952D02*
X123809523Y-90533333D01*
X123761904Y-90485714D01*
X123714285Y-90390476D01*
X123714285Y-90342857D01*
X123761904Y-90247619D01*
X123809523Y-90200000D01*
X123904761Y-90152380D01*
X124095238Y-90152380D01*
X124190476Y-90200000D01*
X124238095Y-90247619D01*
X124285714Y-90342857D01*
X124285714Y-90390476D01*
X124238095Y-90485714D01*
X124190476Y-90533333D01*
X124095238Y-90580952D01*
X123904761Y-90580952D01*
X123809523Y-90628571D01*
X123761904Y-90676190D01*
X123714285Y-90771428D01*
X123714285Y-90961904D01*
X123761904Y-91057142D01*
X123809523Y-91104761D01*
X123904761Y-91152380D01*
X124095238Y-91152380D01*
X124190476Y-91104761D01*
X124238095Y-91057142D01*
X124285714Y-90961904D01*
X124285714Y-90771428D01*
X124238095Y-90676190D01*
X124190476Y-90628571D01*
X124095238Y-90580952D01*
D13*
X118616666Y-91233333D02*
X119316666Y-91000000D01*
X118616666Y-90766666D01*
X119116666Y-90566666D02*
X119116666Y-90233333D01*
X119316666Y-90633333D02*
X118616666Y-90400000D01*
X119316666Y-90166666D01*
D10*
%TO.C,J2*%
X136696543Y-62088338D02*
X136940843Y-62759547D01*
X136944956Y-62910075D01*
X136888035Y-63032143D01*
X136770079Y-63125750D01*
X136680585Y-63158324D01*
X137131842Y-62031252D02*
X137160302Y-61970218D01*
X137233510Y-61892898D01*
X137457246Y-61811464D01*
X137563028Y-61823638D01*
X137624062Y-61852099D01*
X137701382Y-61925307D01*
X137733956Y-62014801D01*
X137738068Y-62165330D01*
X137396541Y-62897737D01*
X137978256Y-62686010D01*
X139715002Y-60215519D02*
X138775310Y-60557539D01*
X138645016Y-60199561D01*
X138657190Y-60093779D01*
X138685651Y-60032745D01*
X138758859Y-59955425D01*
X138893100Y-59906565D01*
X138998882Y-59918739D01*
X139059916Y-59947199D01*
X139137236Y-60020407D01*
X139267530Y-60378385D01*
X138368143Y-59438857D02*
X138302996Y-59259868D01*
X138315170Y-59154087D01*
X138372091Y-59032019D01*
X138534794Y-58922125D01*
X138848024Y-58808118D01*
X139043300Y-58787719D01*
X139165368Y-58844640D01*
X139242689Y-58917848D01*
X139307835Y-59096837D01*
X139295661Y-59202618D01*
X139238740Y-59324686D01*
X139076038Y-59434580D01*
X138762807Y-59548587D01*
X138567531Y-59568986D01*
X138445463Y-59512065D01*
X138368143Y-59438857D01*
X138107556Y-58722901D02*
X138965815Y-58157144D01*
X138229460Y-58222455D01*
X138835522Y-57799166D01*
X137814396Y-57917450D01*
X138131575Y-57396605D02*
X138017568Y-57083374D01*
X138460928Y-56769979D02*
X138623795Y-57217452D01*
X137684102Y-57559472D01*
X137521236Y-57111999D01*
X138118908Y-55830286D02*
X137785442Y-56306384D01*
X138314348Y-56367254D02*
X137374656Y-56709274D01*
X137244362Y-56351296D01*
X137256536Y-56245514D01*
X137284997Y-56184480D01*
X137358205Y-56107160D01*
X137492446Y-56058300D01*
X137598228Y-56070474D01*
X137659262Y-56098934D01*
X137736582Y-56172142D01*
X137866876Y-56530120D01*
D13*
X134454011Y-61412802D02*
X134245542Y-60840037D01*
X133247303Y-58720532D02*
X133820068Y-58512063D01*
X133637920Y-58902680D02*
X133429451Y-58329915D01*
D10*
%TO.C,TR1*%
X168488095Y-90652380D02*
X169059523Y-90652380D01*
X168773809Y-91652380D02*
X168773809Y-90652380D01*
X169964285Y-91652380D02*
X169630952Y-91176190D01*
X169392857Y-91652380D02*
X169392857Y-90652380D01*
X169773809Y-90652380D01*
X169869047Y-90700000D01*
X169916666Y-90747619D01*
X169964285Y-90842857D01*
X169964285Y-90985714D01*
X169916666Y-91080952D01*
X169869047Y-91128571D01*
X169773809Y-91176190D01*
X169392857Y-91176190D01*
X170916666Y-91652380D02*
X170345238Y-91652380D01*
X170630952Y-91652380D02*
X170630952Y-90652380D01*
X170535714Y-90795238D01*
X170440476Y-90890476D01*
X170345238Y-90938095D01*
X163035714Y-73878571D02*
X162702380Y-73878571D01*
X162702380Y-74402380D02*
X162702380Y-73402380D01*
X163178571Y-73402380D01*
X163511904Y-74116666D02*
X163988095Y-74116666D01*
X163416666Y-74402380D02*
X163750000Y-73402380D01*
X164083333Y-74402380D01*
X164369047Y-73497619D02*
X164416666Y-73450000D01*
X164511904Y-73402380D01*
X164750000Y-73402380D01*
X164845238Y-73450000D01*
X164892857Y-73497619D01*
X164940476Y-73592857D01*
X164940476Y-73688095D01*
X164892857Y-73830952D01*
X164321428Y-74402380D01*
X164940476Y-74402380D01*
X165273809Y-73402380D02*
X165940476Y-73402380D01*
X165511904Y-74402380D01*
X166464285Y-73830952D02*
X166369047Y-73783333D01*
X166321428Y-73735714D01*
X166273809Y-73640476D01*
X166273809Y-73592857D01*
X166321428Y-73497619D01*
X166369047Y-73450000D01*
X166464285Y-73402380D01*
X166654761Y-73402380D01*
X166750000Y-73450000D01*
X166797619Y-73497619D01*
X166845238Y-73592857D01*
X166845238Y-73640476D01*
X166797619Y-73735714D01*
X166750000Y-73783333D01*
X166654761Y-73830952D01*
X166464285Y-73830952D01*
X166369047Y-73878571D01*
X166321428Y-73926190D01*
X166273809Y-74021428D01*
X166273809Y-74211904D01*
X166321428Y-74307142D01*
X166369047Y-74354761D01*
X166464285Y-74402380D01*
X166654761Y-74402380D01*
X166750000Y-74354761D01*
X166797619Y-74307142D01*
X166845238Y-74211904D01*
X166845238Y-74021428D01*
X166797619Y-73926190D01*
X166750000Y-73878571D01*
X166654761Y-73830952D01*
X167702380Y-73402380D02*
X167511904Y-73402380D01*
X167416666Y-73450000D01*
X167369047Y-73497619D01*
X167273809Y-73640476D01*
X167226190Y-73830952D01*
X167226190Y-74211904D01*
X167273809Y-74307142D01*
X167321428Y-74354761D01*
X167416666Y-74402380D01*
X167607142Y-74402380D01*
X167702380Y-74354761D01*
X167750000Y-74307142D01*
X167797619Y-74211904D01*
X167797619Y-73973809D01*
X167750000Y-73878571D01*
X167702380Y-73830952D01*
X167607142Y-73783333D01*
X167416666Y-73783333D01*
X167321428Y-73830952D01*
X167273809Y-73878571D01*
X167226190Y-73973809D01*
X168226190Y-74021428D02*
X168988095Y-74021428D01*
X169797619Y-73878571D02*
X169940476Y-73926190D01*
X169988095Y-73973809D01*
X170035714Y-74069047D01*
X170035714Y-74211904D01*
X169988095Y-74307142D01*
X169940476Y-74354761D01*
X169845238Y-74402380D01*
X169464285Y-74402380D01*
X169464285Y-73402380D01*
X169797619Y-73402380D01*
X169892857Y-73450000D01*
X169940476Y-73497619D01*
X169988095Y-73592857D01*
X169988095Y-73688095D01*
X169940476Y-73783333D01*
X169892857Y-73830952D01*
X169797619Y-73878571D01*
X169464285Y-73878571D01*
X170940476Y-74402380D02*
X170464285Y-74402380D01*
X170464285Y-73402380D01*
%TO.C,C12*%
X130357142Y-78807142D02*
X130309523Y-78854761D01*
X130166666Y-78902380D01*
X130071428Y-78902380D01*
X129928571Y-78854761D01*
X129833333Y-78759523D01*
X129785714Y-78664285D01*
X129738095Y-78473809D01*
X129738095Y-78330952D01*
X129785714Y-78140476D01*
X129833333Y-78045238D01*
X129928571Y-77950000D01*
X130071428Y-77902380D01*
X130166666Y-77902380D01*
X130309523Y-77950000D01*
X130357142Y-77997619D01*
X131309523Y-78902380D02*
X130738095Y-78902380D01*
X131023809Y-78902380D02*
X131023809Y-77902380D01*
X130928571Y-78045238D01*
X130833333Y-78140476D01*
X130738095Y-78188095D01*
X131690476Y-77997619D02*
X131738095Y-77950000D01*
X131833333Y-77902380D01*
X132071428Y-77902380D01*
X132166666Y-77950000D01*
X132214285Y-77997619D01*
X132261904Y-78092857D01*
X132261904Y-78188095D01*
X132214285Y-78330952D01*
X131642857Y-78902380D01*
X132261904Y-78902380D01*
%TO.C,C5*%
X123333333Y-83557142D02*
X123285714Y-83604761D01*
X123142857Y-83652380D01*
X123047619Y-83652380D01*
X122904761Y-83604761D01*
X122809523Y-83509523D01*
X122761904Y-83414285D01*
X122714285Y-83223809D01*
X122714285Y-83080952D01*
X122761904Y-82890476D01*
X122809523Y-82795238D01*
X122904761Y-82700000D01*
X123047619Y-82652380D01*
X123142857Y-82652380D01*
X123285714Y-82700000D01*
X123333333Y-82747619D01*
X124238095Y-82652380D02*
X123761904Y-82652380D01*
X123714285Y-83128571D01*
X123761904Y-83080952D01*
X123857142Y-83033333D01*
X124095238Y-83033333D01*
X124190476Y-83080952D01*
X124238095Y-83128571D01*
X124285714Y-83223809D01*
X124285714Y-83461904D01*
X124238095Y-83557142D01*
X124190476Y-83604761D01*
X124095238Y-83652380D01*
X123857142Y-83652380D01*
X123761904Y-83604761D01*
X123714285Y-83557142D01*
D13*
X118950000Y-83850000D02*
X118983333Y-83750000D01*
X119016666Y-83716666D01*
X119083333Y-83683333D01*
X119183333Y-83683333D01*
X119250000Y-83716666D01*
X119283333Y-83750000D01*
X119316666Y-83816666D01*
X119316666Y-84083333D01*
X118616666Y-84083333D01*
X118616666Y-83850000D01*
X118650000Y-83783333D01*
X118683333Y-83750000D01*
X118750000Y-83716666D01*
X118816666Y-83716666D01*
X118883333Y-83750000D01*
X118916666Y-83783333D01*
X118950000Y-83850000D01*
X118950000Y-84083333D01*
X118950000Y-83150000D02*
X118983333Y-83050000D01*
X119016666Y-83016666D01*
X119083333Y-82983333D01*
X119183333Y-82983333D01*
X119250000Y-83016666D01*
X119283333Y-83050000D01*
X119316666Y-83116666D01*
X119316666Y-83383333D01*
X118616666Y-83383333D01*
X118616666Y-83150000D01*
X118650000Y-83083333D01*
X118683333Y-83050000D01*
X118750000Y-83016666D01*
X118816666Y-83016666D01*
X118883333Y-83050000D01*
X118916666Y-83083333D01*
X118950000Y-83150000D01*
X118950000Y-83383333D01*
X119316666Y-82283333D02*
X118983333Y-82516666D01*
X119316666Y-82683333D02*
X118616666Y-82683333D01*
X118616666Y-82416666D01*
X118650000Y-82350000D01*
X118683333Y-82316666D01*
X118750000Y-82283333D01*
X118850000Y-82283333D01*
X118916666Y-82316666D01*
X118950000Y-82350000D01*
X118983333Y-82416666D01*
X118983333Y-82683333D01*
D10*
%TO.C,D5*%
X161202380Y-132485941D02*
X160202380Y-132485941D01*
X160202380Y-132247846D01*
X160250000Y-132104988D01*
X160345238Y-132009750D01*
X160440476Y-131962131D01*
X160630952Y-131914512D01*
X160773809Y-131914512D01*
X160964285Y-131962131D01*
X161059523Y-132009750D01*
X161154761Y-132104988D01*
X161202380Y-132247846D01*
X161202380Y-132485941D01*
X160202380Y-131009750D02*
X160202380Y-131485941D01*
X160678571Y-131533560D01*
X160630952Y-131485941D01*
X160583333Y-131390703D01*
X160583333Y-131152607D01*
X160630952Y-131057369D01*
X160678571Y-131009750D01*
X160773809Y-130962131D01*
X161011904Y-130962131D01*
X161107142Y-131009750D01*
X161154761Y-131057369D01*
X161202380Y-131152607D01*
X161202380Y-131390703D01*
X161154761Y-131485941D01*
X161107142Y-131533560D01*
D13*
X157883333Y-134197846D02*
X157650000Y-134197846D01*
X157650000Y-134564512D02*
X157650000Y-133864512D01*
X157983333Y-133864512D01*
X158216666Y-134364512D02*
X158550000Y-134364512D01*
X158150000Y-134564512D02*
X158383333Y-133864512D01*
X158616666Y-134564512D01*
X158850000Y-133864512D02*
X158850000Y-134431179D01*
X158883333Y-134497846D01*
X158916666Y-134531179D01*
X158983333Y-134564512D01*
X159116666Y-134564512D01*
X159183333Y-134531179D01*
X159216666Y-134497846D01*
X159250000Y-134431179D01*
X159250000Y-133864512D01*
X159916666Y-134564512D02*
X159583333Y-134564512D01*
X159583333Y-133864512D01*
X160050000Y-133864512D02*
X160450000Y-133864512D01*
X160250000Y-134564512D02*
X160250000Y-133864512D01*
D10*
%TO.C,J1*%
X134499471Y-67799413D02*
X134743771Y-68470622D01*
X134747884Y-68621150D01*
X134690963Y-68743218D01*
X134573007Y-68836825D01*
X134483513Y-68869399D01*
X135781184Y-68397085D02*
X135244216Y-68592525D01*
X135512700Y-68494805D02*
X135170680Y-67555113D01*
X135130045Y-67721928D01*
X135073124Y-67843996D01*
X134999916Y-67921316D01*
X123978845Y-64116683D02*
X124174286Y-64653650D01*
X124076565Y-64385167D02*
X123136873Y-64727187D01*
X123303688Y-64767821D01*
X123425756Y-64824743D01*
X123503077Y-64897951D01*
X122998354Y-64068152D02*
X122937320Y-64039691D01*
X122859999Y-63966483D01*
X122778566Y-63742747D01*
X122790740Y-63636966D01*
X122819201Y-63575932D01*
X122892408Y-63498611D01*
X122981903Y-63466038D01*
X123132431Y-63461925D01*
X123864839Y-63803452D01*
X123653112Y-63221738D01*
X122615699Y-63295274D02*
X123441385Y-62640023D01*
X122387686Y-62668813D01*
X123213372Y-62013562D02*
X122273679Y-62355582D01*
X122192246Y-62131845D01*
X122188133Y-61981317D01*
X122245054Y-61859249D01*
X122318262Y-61781928D01*
X122480964Y-61672034D01*
X122615206Y-61623174D01*
X122810482Y-61602775D01*
X122916263Y-61614949D01*
X123038331Y-61671870D01*
X123131938Y-61789825D01*
X123213372Y-62013562D01*
X122586417Y-60569475D02*
X122647451Y-60597936D01*
X122741058Y-60715891D01*
X122773632Y-60805385D01*
X122777744Y-60955914D01*
X122720823Y-61077982D01*
X122647615Y-61155302D01*
X122484913Y-61265196D01*
X122350671Y-61314056D01*
X122155395Y-61334456D01*
X122049614Y-61322282D01*
X121927546Y-61265361D01*
X121833939Y-61147406D01*
X121801366Y-61057911D01*
X121797253Y-60907383D01*
X121825713Y-60846349D01*
%TO.C,F1*%
X142666666Y-55628571D02*
X142333333Y-55628571D01*
X142333333Y-56152380D02*
X142333333Y-55152380D01*
X142809523Y-55152380D01*
X143714285Y-56152380D02*
X143142857Y-56152380D01*
X143428571Y-56152380D02*
X143428571Y-55152380D01*
X143333333Y-55295238D01*
X143238095Y-55390476D01*
X143142857Y-55438095D01*
D13*
%TO.C,TP2*%
X135071428Y-89511904D02*
X135338095Y-90311904D01*
X135604761Y-89511904D01*
X135833333Y-90273809D02*
X135947619Y-90311904D01*
X136138095Y-90311904D01*
X136214285Y-90273809D01*
X136252380Y-90235714D01*
X136290476Y-90159523D01*
X136290476Y-90083333D01*
X136252380Y-90007142D01*
X136214285Y-89969047D01*
X136138095Y-89930952D01*
X135985714Y-89892857D01*
X135909523Y-89854761D01*
X135871428Y-89816666D01*
X135833333Y-89740476D01*
X135833333Y-89664285D01*
X135871428Y-89588095D01*
X135909523Y-89550000D01*
X135985714Y-89511904D01*
X136176190Y-89511904D01*
X136290476Y-89550000D01*
X136633333Y-89892857D02*
X136900000Y-89892857D01*
X137014285Y-90311904D02*
X136633333Y-90311904D01*
X136633333Y-89511904D01*
X137014285Y-89511904D01*
X137357142Y-90311904D02*
X137357142Y-89511904D01*
X137814285Y-90311904D01*
X137814285Y-89511904D01*
D10*
%TO.C,C21*%
X133107142Y-92092857D02*
X133154761Y-92140476D01*
X133202380Y-92283333D01*
X133202380Y-92378571D01*
X133154761Y-92521428D01*
X133059523Y-92616666D01*
X132964285Y-92664285D01*
X132773809Y-92711904D01*
X132630952Y-92711904D01*
X132440476Y-92664285D01*
X132345238Y-92616666D01*
X132250000Y-92521428D01*
X132202380Y-92378571D01*
X132202380Y-92283333D01*
X132250000Y-92140476D01*
X132297619Y-92092857D01*
X132297619Y-91711904D02*
X132250000Y-91664285D01*
X132202380Y-91569047D01*
X132202380Y-91330952D01*
X132250000Y-91235714D01*
X132297619Y-91188095D01*
X132392857Y-91140476D01*
X132488095Y-91140476D01*
X132630952Y-91188095D01*
X133202380Y-91759523D01*
X133202380Y-91140476D01*
X133202380Y-90188095D02*
X133202380Y-90759523D01*
X133202380Y-90473809D02*
X132202380Y-90473809D01*
X132345238Y-90569047D01*
X132440476Y-90664285D01*
X132488095Y-90759523D01*
%TO.C,R11*%
X127107142Y-115432354D02*
X126773809Y-114956164D01*
X126535714Y-115432354D02*
X126535714Y-114432354D01*
X126916666Y-114432354D01*
X127011904Y-114479974D01*
X127059523Y-114527593D01*
X127107142Y-114622831D01*
X127107142Y-114765688D01*
X127059523Y-114860926D01*
X127011904Y-114908545D01*
X126916666Y-114956164D01*
X126535714Y-114956164D01*
X128059523Y-115432354D02*
X127488095Y-115432354D01*
X127773809Y-115432354D02*
X127773809Y-114432354D01*
X127678571Y-114575212D01*
X127583333Y-114670450D01*
X127488095Y-114718069D01*
X129011904Y-115432354D02*
X128440476Y-115432354D01*
X128726190Y-115432354D02*
X128726190Y-114432354D01*
X128630952Y-114575212D01*
X128535714Y-114670450D01*
X128440476Y-114718069D01*
%TO.C,R22*%
X168202380Y-127642855D02*
X167726190Y-127976188D01*
X168202380Y-128214283D02*
X167202380Y-128214283D01*
X167202380Y-127833331D01*
X167250000Y-127738093D01*
X167297619Y-127690474D01*
X167392857Y-127642855D01*
X167535714Y-127642855D01*
X167630952Y-127690474D01*
X167678571Y-127738093D01*
X167726190Y-127833331D01*
X167726190Y-128214283D01*
X167297619Y-127261902D02*
X167250000Y-127214283D01*
X167202380Y-127119045D01*
X167202380Y-126880950D01*
X167250000Y-126785712D01*
X167297619Y-126738093D01*
X167392857Y-126690474D01*
X167488095Y-126690474D01*
X167630952Y-126738093D01*
X168202380Y-127309521D01*
X168202380Y-126690474D01*
X167297619Y-126309521D02*
X167250000Y-126261902D01*
X167202380Y-126166664D01*
X167202380Y-125928569D01*
X167250000Y-125833331D01*
X167297619Y-125785712D01*
X167392857Y-125738093D01*
X167488095Y-125738093D01*
X167630952Y-125785712D01*
X168202380Y-126357140D01*
X168202380Y-125738093D01*
D13*
%TO.C,TP3*%
X119573809Y-80090476D02*
X119611904Y-79976190D01*
X119611904Y-79785714D01*
X119573809Y-79709523D01*
X119535714Y-79671428D01*
X119459523Y-79633333D01*
X119383333Y-79633333D01*
X119307142Y-79671428D01*
X119269047Y-79709523D01*
X119230952Y-79785714D01*
X119192857Y-79938095D01*
X119154761Y-80014285D01*
X119116666Y-80052380D01*
X119040476Y-80090476D01*
X118964285Y-80090476D01*
X118888095Y-80052380D01*
X118850000Y-80014285D01*
X118811904Y-79938095D01*
X118811904Y-79747619D01*
X118850000Y-79633333D01*
X119230952Y-79138095D02*
X119611904Y-79138095D01*
X118811904Y-79404761D02*
X119230952Y-79138095D01*
X118811904Y-78871428D01*
X119611904Y-78604761D02*
X118811904Y-78604761D01*
X119611904Y-78147619D01*
X118811904Y-78147619D01*
X119535714Y-77309523D02*
X119573809Y-77347619D01*
X119611904Y-77461904D01*
X119611904Y-77538095D01*
X119573809Y-77652380D01*
X119497619Y-77728571D01*
X119421428Y-77766666D01*
X119269047Y-77804761D01*
X119154761Y-77804761D01*
X119002380Y-77766666D01*
X118926190Y-77728571D01*
X118850000Y-77652380D01*
X118811904Y-77538095D01*
X118811904Y-77461904D01*
X118850000Y-77347619D01*
X118888095Y-77309523D01*
D10*
%TO.C,R21*%
X164702380Y-127642857D02*
X164226190Y-127976190D01*
X164702380Y-128214285D02*
X163702380Y-128214285D01*
X163702380Y-127833333D01*
X163750000Y-127738095D01*
X163797619Y-127690476D01*
X163892857Y-127642857D01*
X164035714Y-127642857D01*
X164130952Y-127690476D01*
X164178571Y-127738095D01*
X164226190Y-127833333D01*
X164226190Y-128214285D01*
X163797619Y-127261904D02*
X163750000Y-127214285D01*
X163702380Y-127119047D01*
X163702380Y-126880952D01*
X163750000Y-126785714D01*
X163797619Y-126738095D01*
X163892857Y-126690476D01*
X163988095Y-126690476D01*
X164130952Y-126738095D01*
X164702380Y-127309523D01*
X164702380Y-126690476D01*
X164702380Y-125738095D02*
X164702380Y-126309523D01*
X164702380Y-126023809D02*
X163702380Y-126023809D01*
X163845238Y-126119047D01*
X163940476Y-126214285D01*
X163988095Y-126309523D01*
%TO.C,U3*%
X146952380Y-134211904D02*
X147761904Y-134211904D01*
X147857142Y-134164285D01*
X147904761Y-134116666D01*
X147952380Y-134021428D01*
X147952380Y-133830952D01*
X147904761Y-133735714D01*
X147857142Y-133688095D01*
X147761904Y-133640476D01*
X146952380Y-133640476D01*
X146952380Y-133259523D02*
X146952380Y-132640476D01*
X147333333Y-132973809D01*
X147333333Y-132830952D01*
X147380952Y-132735714D01*
X147428571Y-132688095D01*
X147523809Y-132640476D01*
X147761904Y-132640476D01*
X147857142Y-132688095D01*
X147904761Y-132735714D01*
X147952380Y-132830952D01*
X147952380Y-133116666D01*
X147904761Y-133211904D01*
X147857142Y-133259523D01*
D13*
X131733333Y-114900000D02*
X131966666Y-114900000D01*
X132066666Y-115266666D02*
X131733333Y-115266666D01*
X131733333Y-114566666D01*
X132066666Y-114566666D01*
X132333333Y-115233333D02*
X132433333Y-115266666D01*
X132600000Y-115266666D01*
X132666666Y-115233333D01*
X132700000Y-115200000D01*
X132733333Y-115133333D01*
X132733333Y-115066666D01*
X132700000Y-115000000D01*
X132666666Y-114966666D01*
X132600000Y-114933333D01*
X132466666Y-114900000D01*
X132400000Y-114866666D01*
X132366666Y-114833333D01*
X132333333Y-114766666D01*
X132333333Y-114700000D01*
X132366666Y-114633333D01*
X132400000Y-114600000D01*
X132466666Y-114566666D01*
X132633333Y-114566666D01*
X132733333Y-114600000D01*
X133033333Y-115266666D02*
X133033333Y-114566666D01*
X133300000Y-114566666D01*
X133366666Y-114600000D01*
X133400000Y-114633333D01*
X133433333Y-114700000D01*
X133433333Y-114800000D01*
X133400000Y-114866666D01*
X133366666Y-114900000D01*
X133300000Y-114933333D01*
X133033333Y-114933333D01*
X133666666Y-114566666D02*
X134100000Y-114566666D01*
X133866666Y-114833333D01*
X133966666Y-114833333D01*
X134033333Y-114866666D01*
X134066666Y-114900000D01*
X134100000Y-114966666D01*
X134100000Y-115133333D01*
X134066666Y-115200000D01*
X134033333Y-115233333D01*
X133966666Y-115266666D01*
X133766666Y-115266666D01*
X133700000Y-115233333D01*
X133666666Y-115200000D01*
X134366666Y-114633333D02*
X134400000Y-114600000D01*
X134466666Y-114566666D01*
X134633333Y-114566666D01*
X134700000Y-114600000D01*
X134733333Y-114633333D01*
X134766666Y-114700000D01*
X134766666Y-114766666D01*
X134733333Y-114866666D01*
X134333333Y-115266666D01*
X134766666Y-115266666D01*
X135066666Y-115000000D02*
X135600000Y-115000000D01*
X135866666Y-114566666D02*
X136033333Y-115266666D01*
X136166666Y-114766666D01*
X136300000Y-115266666D01*
X136466666Y-114566666D01*
X137133333Y-115266666D02*
X136900000Y-114933333D01*
X136733333Y-115266666D02*
X136733333Y-114566666D01*
X137000000Y-114566666D01*
X137066666Y-114600000D01*
X137100000Y-114633333D01*
X137133333Y-114700000D01*
X137133333Y-114800000D01*
X137100000Y-114866666D01*
X137066666Y-114900000D01*
X137000000Y-114933333D01*
X136733333Y-114933333D01*
X137566666Y-114566666D02*
X137700000Y-114566666D01*
X137766666Y-114600000D01*
X137833333Y-114666666D01*
X137866666Y-114800000D01*
X137866666Y-115033333D01*
X137833333Y-115166666D01*
X137766666Y-115233333D01*
X137700000Y-115266666D01*
X137566666Y-115266666D01*
X137500000Y-115233333D01*
X137433333Y-115166666D01*
X137400000Y-115033333D01*
X137400000Y-114800000D01*
X137433333Y-114666666D01*
X137500000Y-114600000D01*
X137566666Y-114566666D01*
X138300000Y-114566666D02*
X138433333Y-114566666D01*
X138500000Y-114600000D01*
X138566666Y-114666666D01*
X138600000Y-114800000D01*
X138600000Y-115033333D01*
X138566666Y-115166666D01*
X138500000Y-115233333D01*
X138433333Y-115266666D01*
X138300000Y-115266666D01*
X138233333Y-115233333D01*
X138166666Y-115166666D01*
X138133333Y-115033333D01*
X138133333Y-114800000D01*
X138166666Y-114666666D01*
X138233333Y-114600000D01*
X138300000Y-114566666D01*
X138900000Y-115266666D02*
X138900000Y-114566666D01*
X139133333Y-115066666D01*
X139366666Y-114566666D01*
X139366666Y-115266666D01*
X139700000Y-115000000D02*
X140233333Y-115000000D01*
X140500000Y-114566666D02*
X140933333Y-114566666D01*
X140700000Y-114833333D01*
X140800000Y-114833333D01*
X140866666Y-114866666D01*
X140900000Y-114900000D01*
X140933333Y-114966666D01*
X140933333Y-115133333D01*
X140900000Y-115200000D01*
X140866666Y-115233333D01*
X140800000Y-115266666D01*
X140600000Y-115266666D01*
X140533333Y-115233333D01*
X140500000Y-115200000D01*
X141200000Y-114633333D02*
X141233333Y-114600000D01*
X141300000Y-114566666D01*
X141466666Y-114566666D01*
X141533333Y-114600000D01*
X141566666Y-114633333D01*
X141600000Y-114700000D01*
X141600000Y-114766666D01*
X141566666Y-114866666D01*
X141166666Y-115266666D01*
X141600000Y-115266666D01*
X141900000Y-115266666D02*
X141900000Y-114566666D01*
X142066666Y-114566666D01*
X142166666Y-114600000D01*
X142233333Y-114666666D01*
X142266666Y-114733333D01*
X142300000Y-114866666D01*
X142300000Y-114966666D01*
X142266666Y-115100000D01*
X142233333Y-115166666D01*
X142166666Y-115233333D01*
X142066666Y-115266666D01*
X141900000Y-115266666D01*
D10*
%TO.C,C16*%
X171607142Y-116807142D02*
X171559523Y-116854761D01*
X171416666Y-116902380D01*
X171321428Y-116902380D01*
X171178571Y-116854761D01*
X171083333Y-116759523D01*
X171035714Y-116664285D01*
X170988095Y-116473809D01*
X170988095Y-116330952D01*
X171035714Y-116140476D01*
X171083333Y-116045238D01*
X171178571Y-115950000D01*
X171321428Y-115902380D01*
X171416666Y-115902380D01*
X171559523Y-115950000D01*
X171607142Y-115997619D01*
X172559523Y-116902380D02*
X171988095Y-116902380D01*
X172273809Y-116902380D02*
X172273809Y-115902380D01*
X172178571Y-116045238D01*
X172083333Y-116140476D01*
X171988095Y-116188095D01*
X173416666Y-115902380D02*
X173226190Y-115902380D01*
X173130952Y-115950000D01*
X173083333Y-115997619D01*
X172988095Y-116140476D01*
X172940476Y-116330952D01*
X172940476Y-116711904D01*
X172988095Y-116807142D01*
X173035714Y-116854761D01*
X173130952Y-116902380D01*
X173321428Y-116902380D01*
X173416666Y-116854761D01*
X173464285Y-116807142D01*
X173511904Y-116711904D01*
X173511904Y-116473809D01*
X173464285Y-116378571D01*
X173416666Y-116330952D01*
X173321428Y-116283333D01*
X173130952Y-116283333D01*
X173035714Y-116330952D01*
X172988095Y-116378571D01*
X172940476Y-116473809D01*
D13*
%TO.C,TP4*%
X147323809Y-90011904D02*
X147476190Y-90011904D01*
X147552380Y-90050000D01*
X147628571Y-90126190D01*
X147666666Y-90278571D01*
X147666666Y-90545238D01*
X147628571Y-90697619D01*
X147552380Y-90773809D01*
X147476190Y-90811904D01*
X147323809Y-90811904D01*
X147247619Y-90773809D01*
X147171428Y-90697619D01*
X147133333Y-90545238D01*
X147133333Y-90278571D01*
X147171428Y-90126190D01*
X147247619Y-90050000D01*
X147323809Y-90011904D01*
X148466666Y-90735714D02*
X148428571Y-90773809D01*
X148314285Y-90811904D01*
X148238095Y-90811904D01*
X148123809Y-90773809D01*
X148047619Y-90697619D01*
X148009523Y-90621428D01*
X147971428Y-90469047D01*
X147971428Y-90354761D01*
X148009523Y-90202380D01*
X148047619Y-90126190D01*
X148123809Y-90050000D01*
X148238095Y-90011904D01*
X148314285Y-90011904D01*
X148428571Y-90050000D01*
X148466666Y-90088095D01*
X148809523Y-90811904D02*
X148809523Y-90011904D01*
X149114285Y-90011904D01*
X149190476Y-90050000D01*
X149228571Y-90088095D01*
X149266666Y-90164285D01*
X149266666Y-90278571D01*
X149228571Y-90354761D01*
X149190476Y-90392857D01*
X149114285Y-90430952D01*
X148809523Y-90430952D01*
D10*
%TO.C,RV1*%
X127529004Y-98295236D02*
X127052814Y-98628569D01*
X127529004Y-98866664D02*
X126529004Y-98866664D01*
X126529004Y-98485712D01*
X126576624Y-98390474D01*
X126624243Y-98342855D01*
X126719481Y-98295236D01*
X126862338Y-98295236D01*
X126957576Y-98342855D01*
X127005195Y-98390474D01*
X127052814Y-98485712D01*
X127052814Y-98866664D01*
X126529004Y-98009521D02*
X127529004Y-97676188D01*
X126529004Y-97342855D01*
X127529004Y-96485712D02*
X127529004Y-97057140D01*
X127529004Y-96771426D02*
X126529004Y-96771426D01*
X126671862Y-96866664D01*
X126767100Y-96961902D01*
X126814719Y-97057140D01*
D13*
X118866666Y-98316666D02*
X118866666Y-97983333D01*
X119066666Y-98383333D02*
X118366666Y-98150000D01*
X119066666Y-97916666D01*
X118700000Y-97450000D02*
X118733333Y-97350000D01*
X118766666Y-97316666D01*
X118833333Y-97283333D01*
X118933333Y-97283333D01*
X119000000Y-97316666D01*
X119033333Y-97350000D01*
X119066666Y-97416666D01*
X119066666Y-97683333D01*
X118366666Y-97683333D01*
X118366666Y-97450000D01*
X118400000Y-97383333D01*
X118433333Y-97350000D01*
X118500000Y-97316666D01*
X118566666Y-97316666D01*
X118633333Y-97350000D01*
X118666666Y-97383333D01*
X118700000Y-97450000D01*
X118700000Y-97683333D01*
X119066666Y-96583333D02*
X118733333Y-96816666D01*
X119066666Y-96983333D02*
X118366666Y-96983333D01*
X118366666Y-96716666D01*
X118400000Y-96650000D01*
X118433333Y-96616666D01*
X118500000Y-96583333D01*
X118600000Y-96583333D01*
X118666666Y-96616666D01*
X118700000Y-96650000D01*
X118733333Y-96716666D01*
X118733333Y-96983333D01*
D10*
%TO.C,Q1*%
X172344761Y-110197619D02*
X172249523Y-110150000D01*
X172154285Y-110054761D01*
X172011428Y-109911904D01*
X171916190Y-109864285D01*
X171820952Y-109864285D01*
X171868571Y-110102380D02*
X171773333Y-110054761D01*
X171678095Y-109959523D01*
X171630476Y-109769047D01*
X171630476Y-109435714D01*
X171678095Y-109245238D01*
X171773333Y-109150000D01*
X171868571Y-109102380D01*
X172059047Y-109102380D01*
X172154285Y-109150000D01*
X172249523Y-109245238D01*
X172297142Y-109435714D01*
X172297142Y-109769047D01*
X172249523Y-109959523D01*
X172154285Y-110054761D01*
X172059047Y-110102380D01*
X171868571Y-110102380D01*
X173249523Y-110102380D02*
X172678095Y-110102380D01*
X172963809Y-110102380D02*
X172963809Y-109102380D01*
X172868571Y-109245238D01*
X172773333Y-109340476D01*
X172678095Y-109388095D01*
D13*
X171806666Y-107716666D02*
X171806666Y-107016666D01*
X172040000Y-107516666D01*
X172273333Y-107016666D01*
X172273333Y-107716666D01*
X172606666Y-107716666D02*
X172606666Y-107016666D01*
X172840000Y-107516666D01*
X173073333Y-107016666D01*
X173073333Y-107716666D01*
X173373333Y-107683333D02*
X173473333Y-107716666D01*
X173640000Y-107716666D01*
X173706666Y-107683333D01*
X173740000Y-107650000D01*
X173773333Y-107583333D01*
X173773333Y-107516666D01*
X173740000Y-107450000D01*
X173706666Y-107416666D01*
X173640000Y-107383333D01*
X173506666Y-107350000D01*
X173440000Y-107316666D01*
X173406666Y-107283333D01*
X173373333Y-107216666D01*
X173373333Y-107150000D01*
X173406666Y-107083333D01*
X173440000Y-107050000D01*
X173506666Y-107016666D01*
X173673333Y-107016666D01*
X173773333Y-107050000D01*
X174040000Y-107683333D02*
X174140000Y-107716666D01*
X174306666Y-107716666D01*
X174373333Y-107683333D01*
X174406666Y-107650000D01*
X174440000Y-107583333D01*
X174440000Y-107516666D01*
X174406666Y-107450000D01*
X174373333Y-107416666D01*
X174306666Y-107383333D01*
X174173333Y-107350000D01*
X174106666Y-107316666D01*
X174073333Y-107283333D01*
X174040000Y-107216666D01*
X174040000Y-107150000D01*
X174073333Y-107083333D01*
X174106666Y-107050000D01*
X174173333Y-107016666D01*
X174340000Y-107016666D01*
X174440000Y-107050000D01*
X174840000Y-107316666D02*
X174773333Y-107283333D01*
X174740000Y-107250000D01*
X174706666Y-107183333D01*
X174706666Y-107150000D01*
X174740000Y-107083333D01*
X174773333Y-107050000D01*
X174840000Y-107016666D01*
X174973333Y-107016666D01*
X175040000Y-107050000D01*
X175073333Y-107083333D01*
X175106666Y-107150000D01*
X175106666Y-107183333D01*
X175073333Y-107250000D01*
X175040000Y-107283333D01*
X174973333Y-107316666D01*
X174840000Y-107316666D01*
X174773333Y-107350000D01*
X174740000Y-107383333D01*
X174706666Y-107450000D01*
X174706666Y-107583333D01*
X174740000Y-107650000D01*
X174773333Y-107683333D01*
X174840000Y-107716666D01*
X174973333Y-107716666D01*
X175040000Y-107683333D01*
X175073333Y-107650000D01*
X175106666Y-107583333D01*
X175106666Y-107450000D01*
X175073333Y-107383333D01*
X175040000Y-107350000D01*
X174973333Y-107316666D01*
X175540000Y-107016666D02*
X175606666Y-107016666D01*
X175673333Y-107050000D01*
X175706666Y-107083333D01*
X175740000Y-107150000D01*
X175773333Y-107283333D01*
X175773333Y-107450000D01*
X175740000Y-107583333D01*
X175706666Y-107650000D01*
X175673333Y-107683333D01*
X175606666Y-107716666D01*
X175540000Y-107716666D01*
X175473333Y-107683333D01*
X175440000Y-107650000D01*
X175406666Y-107583333D01*
X175373333Y-107450000D01*
X175373333Y-107283333D01*
X175406666Y-107150000D01*
X175440000Y-107083333D01*
X175473333Y-107050000D01*
X175540000Y-107016666D01*
X176406666Y-107016666D02*
X176073333Y-107016666D01*
X176040000Y-107350000D01*
X176073333Y-107316666D01*
X176140000Y-107283333D01*
X176306666Y-107283333D01*
X176373333Y-107316666D01*
X176406666Y-107350000D01*
X176440000Y-107416666D01*
X176440000Y-107583333D01*
X176406666Y-107650000D01*
X176373333Y-107683333D01*
X176306666Y-107716666D01*
X176140000Y-107716666D01*
X176073333Y-107683333D01*
X176040000Y-107650000D01*
X176873333Y-107016666D02*
X176940000Y-107016666D01*
X177006666Y-107050000D01*
X177040000Y-107083333D01*
X177073333Y-107150000D01*
X177106666Y-107283333D01*
X177106666Y-107450000D01*
X177073333Y-107583333D01*
X177040000Y-107650000D01*
X177006666Y-107683333D01*
X176940000Y-107716666D01*
X176873333Y-107716666D01*
X176806666Y-107683333D01*
X176773333Y-107650000D01*
X176740000Y-107583333D01*
X176706666Y-107450000D01*
X176706666Y-107283333D01*
X176740000Y-107150000D01*
X176773333Y-107083333D01*
X176806666Y-107050000D01*
X176873333Y-107016666D01*
D10*
%TO.C,SW1*%
X174654761Y-122333333D02*
X174702380Y-122190476D01*
X174702380Y-121952380D01*
X174654761Y-121857142D01*
X174607142Y-121809523D01*
X174511904Y-121761904D01*
X174416666Y-121761904D01*
X174321428Y-121809523D01*
X174273809Y-121857142D01*
X174226190Y-121952380D01*
X174178571Y-122142857D01*
X174130952Y-122238095D01*
X174083333Y-122285714D01*
X173988095Y-122333333D01*
X173892857Y-122333333D01*
X173797619Y-122285714D01*
X173750000Y-122238095D01*
X173702380Y-122142857D01*
X173702380Y-121904761D01*
X173750000Y-121761904D01*
X173702380Y-121428571D02*
X174702380Y-121190476D01*
X173988095Y-121000000D01*
X174702380Y-120809523D01*
X173702380Y-120571428D01*
X174702380Y-119666666D02*
X174702380Y-120238095D01*
X174702380Y-119952380D02*
X173702380Y-119952380D01*
X173845238Y-120047619D01*
X173940476Y-120142857D01*
X173988095Y-120238095D01*
D13*
X181316666Y-122066666D02*
X180983333Y-122300000D01*
X181316666Y-122466666D02*
X180616666Y-122466666D01*
X180616666Y-122200000D01*
X180650000Y-122133333D01*
X180683333Y-122100000D01*
X180750000Y-122066666D01*
X180850000Y-122066666D01*
X180916666Y-122100000D01*
X180950000Y-122133333D01*
X180983333Y-122200000D01*
X180983333Y-122466666D01*
X180950000Y-121766666D02*
X180950000Y-121533333D01*
X181316666Y-121433333D02*
X181316666Y-121766666D01*
X180616666Y-121766666D01*
X180616666Y-121433333D01*
X181283333Y-121166666D02*
X181316666Y-121066666D01*
X181316666Y-120900000D01*
X181283333Y-120833333D01*
X181250000Y-120800000D01*
X181183333Y-120766666D01*
X181116666Y-120766666D01*
X181050000Y-120800000D01*
X181016666Y-120833333D01*
X180983333Y-120900000D01*
X180950000Y-121033333D01*
X180916666Y-121100000D01*
X180883333Y-121133333D01*
X180816666Y-121166666D01*
X180750000Y-121166666D01*
X180683333Y-121133333D01*
X180650000Y-121100000D01*
X180616666Y-121033333D01*
X180616666Y-120866666D01*
X180650000Y-120766666D01*
X180950000Y-120466666D02*
X180950000Y-120233333D01*
X181316666Y-120133333D02*
X181316666Y-120466666D01*
X180616666Y-120466666D01*
X180616666Y-120133333D01*
X180616666Y-119933333D02*
X180616666Y-119533333D01*
X181316666Y-119733333D02*
X180616666Y-119733333D01*
D10*
%TO.C,C14*%
X135107142Y-79342857D02*
X135154761Y-79390476D01*
X135202380Y-79533333D01*
X135202380Y-79628571D01*
X135154761Y-79771428D01*
X135059523Y-79866666D01*
X134964285Y-79914285D01*
X134773809Y-79961904D01*
X134630952Y-79961904D01*
X134440476Y-79914285D01*
X134345238Y-79866666D01*
X134250000Y-79771428D01*
X134202380Y-79628571D01*
X134202380Y-79533333D01*
X134250000Y-79390476D01*
X134297619Y-79342857D01*
X135202380Y-78390476D02*
X135202380Y-78961904D01*
X135202380Y-78676190D02*
X134202380Y-78676190D01*
X134345238Y-78771428D01*
X134440476Y-78866666D01*
X134488095Y-78961904D01*
X134535714Y-77533333D02*
X135202380Y-77533333D01*
X134154761Y-77771428D02*
X134869047Y-78009523D01*
X134869047Y-77390476D01*
%TO.C,C18*%
X149357142Y-127677142D02*
X149309523Y-127724761D01*
X149166666Y-127772380D01*
X149071428Y-127772380D01*
X148928571Y-127724761D01*
X148833333Y-127629523D01*
X148785714Y-127534285D01*
X148738095Y-127343809D01*
X148738095Y-127200952D01*
X148785714Y-127010476D01*
X148833333Y-126915238D01*
X148928571Y-126820000D01*
X149071428Y-126772380D01*
X149166666Y-126772380D01*
X149309523Y-126820000D01*
X149357142Y-126867619D01*
X150309523Y-127772380D02*
X149738095Y-127772380D01*
X150023809Y-127772380D02*
X150023809Y-126772380D01*
X149928571Y-126915238D01*
X149833333Y-127010476D01*
X149738095Y-127058095D01*
X150880952Y-127200952D02*
X150785714Y-127153333D01*
X150738095Y-127105714D01*
X150690476Y-127010476D01*
X150690476Y-126962857D01*
X150738095Y-126867619D01*
X150785714Y-126820000D01*
X150880952Y-126772380D01*
X151071428Y-126772380D01*
X151166666Y-126820000D01*
X151214285Y-126867619D01*
X151261904Y-126962857D01*
X151261904Y-127010476D01*
X151214285Y-127105714D01*
X151166666Y-127153333D01*
X151071428Y-127200952D01*
X150880952Y-127200952D01*
X150785714Y-127248571D01*
X150738095Y-127296190D01*
X150690476Y-127391428D01*
X150690476Y-127581904D01*
X150738095Y-127677142D01*
X150785714Y-127724761D01*
X150880952Y-127772380D01*
X151071428Y-127772380D01*
X151166666Y-127724761D01*
X151214285Y-127677142D01*
X151261904Y-127581904D01*
X151261904Y-127391428D01*
X151214285Y-127296190D01*
X151166666Y-127248571D01*
X151071428Y-127200952D01*
%TO.C,C15*%
X135107142Y-87342857D02*
X135154761Y-87390476D01*
X135202380Y-87533333D01*
X135202380Y-87628571D01*
X135154761Y-87771428D01*
X135059523Y-87866666D01*
X134964285Y-87914285D01*
X134773809Y-87961904D01*
X134630952Y-87961904D01*
X134440476Y-87914285D01*
X134345238Y-87866666D01*
X134250000Y-87771428D01*
X134202380Y-87628571D01*
X134202380Y-87533333D01*
X134250000Y-87390476D01*
X134297619Y-87342857D01*
X135202380Y-86390476D02*
X135202380Y-86961904D01*
X135202380Y-86676190D02*
X134202380Y-86676190D01*
X134345238Y-86771428D01*
X134440476Y-86866666D01*
X134488095Y-86961904D01*
X134202380Y-85485714D02*
X134202380Y-85961904D01*
X134678571Y-86009523D01*
X134630952Y-85961904D01*
X134583333Y-85866666D01*
X134583333Y-85628571D01*
X134630952Y-85533333D01*
X134678571Y-85485714D01*
X134773809Y-85438095D01*
X135011904Y-85438095D01*
X135107142Y-85485714D01*
X135154761Y-85533333D01*
X135202380Y-85628571D01*
X135202380Y-85866666D01*
X135154761Y-85961904D01*
X135107142Y-86009523D01*
%TO.C,R9*%
X124635674Y-117852380D02*
X124302341Y-117376190D01*
X124064245Y-117852380D02*
X124064245Y-116852380D01*
X124445198Y-116852380D01*
X124540436Y-116900000D01*
X124588055Y-116947619D01*
X124635674Y-117042857D01*
X124635674Y-117185714D01*
X124588055Y-117280952D01*
X124540436Y-117328571D01*
X124445198Y-117376190D01*
X124064245Y-117376190D01*
X125111864Y-117852380D02*
X125302341Y-117852380D01*
X125397579Y-117804761D01*
X125445198Y-117757142D01*
X125540436Y-117614285D01*
X125588055Y-117423809D01*
X125588055Y-117042857D01*
X125540436Y-116947619D01*
X125492817Y-116900000D01*
X125397579Y-116852380D01*
X125207102Y-116852380D01*
X125111864Y-116900000D01*
X125064245Y-116947619D01*
X125016626Y-117042857D01*
X125016626Y-117280952D01*
X125064245Y-117376190D01*
X125111864Y-117423809D01*
X125207102Y-117471428D01*
X125397579Y-117471428D01*
X125492817Y-117423809D01*
X125540436Y-117376190D01*
X125588055Y-117280952D01*
%TO.C,J5*%
X175586800Y-63121463D02*
X176258009Y-63365763D01*
X176375964Y-63459370D01*
X176432886Y-63581438D01*
X176428773Y-63731966D01*
X176396199Y-63821461D01*
X175912534Y-62226517D02*
X175749667Y-62673990D01*
X176180853Y-62881604D01*
X176152392Y-62820570D01*
X176140218Y-62714789D01*
X176221652Y-62491052D01*
X176298972Y-62417845D01*
X176360006Y-62389384D01*
X176465788Y-62377210D01*
X176689524Y-62458643D01*
X176762732Y-62535964D01*
X176791192Y-62596998D01*
X176803366Y-62702779D01*
X176721933Y-62926516D01*
X176644612Y-62999723D01*
X176583578Y-63028184D01*
X169925198Y-58077828D02*
X170238429Y-58191835D01*
X170193517Y-58732915D02*
X169746045Y-58570048D01*
X170088065Y-57630356D01*
X170535537Y-57793222D01*
X170848768Y-57907229D02*
X171133210Y-59074935D01*
X171475230Y-58135242D02*
X170506748Y-58846922D01*
X171698966Y-58216676D02*
X172235934Y-58412116D01*
X171625430Y-59254088D02*
X171967450Y-58314396D01*
X171950835Y-59473876D02*
X172666791Y-59734463D01*
X172894640Y-59665368D02*
X173012595Y-59758975D01*
X173236331Y-59840409D01*
X173342113Y-59828235D01*
X173403147Y-59799774D01*
X173480467Y-59726566D01*
X173513041Y-59637072D01*
X173500867Y-59531291D01*
X173472406Y-59470257D01*
X173399198Y-59392936D01*
X173236496Y-59283042D01*
X173163288Y-59205721D01*
X173134827Y-59144688D01*
X173122653Y-59038906D01*
X173155227Y-58949412D01*
X173232547Y-58876204D01*
X173293581Y-58847743D01*
X173399362Y-58835569D01*
X173623099Y-58917003D01*
X173741054Y-59010610D01*
X174070572Y-59079870D02*
X173952288Y-60100995D01*
X174375577Y-59494933D01*
X174310266Y-60231289D01*
X174876022Y-59373030D01*
%TO.C,R5*%
X161202380Y-122416666D02*
X160726190Y-122750000D01*
X161202380Y-122988095D02*
X160202380Y-122988095D01*
X160202380Y-122607142D01*
X160250000Y-122511904D01*
X160297619Y-122464285D01*
X160392857Y-122416666D01*
X160535714Y-122416666D01*
X160630952Y-122464285D01*
X160678571Y-122511904D01*
X160726190Y-122607142D01*
X160726190Y-122988095D01*
X160202380Y-121511904D02*
X160202380Y-121988095D01*
X160678571Y-122035714D01*
X160630952Y-121988095D01*
X160583333Y-121892857D01*
X160583333Y-121654761D01*
X160630952Y-121559523D01*
X160678571Y-121511904D01*
X160773809Y-121464285D01*
X161011904Y-121464285D01*
X161107142Y-121511904D01*
X161154761Y-121559523D01*
X161202380Y-121654761D01*
X161202380Y-121892857D01*
X161154761Y-121988095D01*
X161107142Y-122035714D01*
%TO.C,Q3*%
X142154761Y-73347619D02*
X142059523Y-73300000D01*
X141964285Y-73204761D01*
X141821428Y-73061904D01*
X141726190Y-73014285D01*
X141630952Y-73014285D01*
X141678571Y-73252380D02*
X141583333Y-73204761D01*
X141488095Y-73109523D01*
X141440476Y-72919047D01*
X141440476Y-72585714D01*
X141488095Y-72395238D01*
X141583333Y-72300000D01*
X141678571Y-72252380D01*
X141869047Y-72252380D01*
X141964285Y-72300000D01*
X142059523Y-72395238D01*
X142107142Y-72585714D01*
X142107142Y-72919047D01*
X142059523Y-73109523D01*
X141964285Y-73204761D01*
X141869047Y-73252380D01*
X141678571Y-73252380D01*
X142440476Y-72252380D02*
X143059523Y-72252380D01*
X142726190Y-72633333D01*
X142869047Y-72633333D01*
X142964285Y-72680952D01*
X143011904Y-72728571D01*
X143059523Y-72823809D01*
X143059523Y-73061904D01*
X143011904Y-73157142D01*
X142964285Y-73204761D01*
X142869047Y-73252380D01*
X142583333Y-73252380D01*
X142488095Y-73204761D01*
X142440476Y-73157142D01*
D13*
X138316666Y-78183333D02*
X137616666Y-78183333D01*
X138316666Y-77450000D02*
X137983333Y-77683333D01*
X138316666Y-77850000D02*
X137616666Y-77850000D01*
X137616666Y-77583333D01*
X137650000Y-77516666D01*
X137683333Y-77483333D01*
X137750000Y-77450000D01*
X137850000Y-77450000D01*
X137916666Y-77483333D01*
X137950000Y-77516666D01*
X137983333Y-77583333D01*
X137983333Y-77850000D01*
X137950000Y-76916666D02*
X137950000Y-77150000D01*
X138316666Y-77150000D02*
X137616666Y-77150000D01*
X137616666Y-76816666D01*
X137616666Y-76616666D02*
X137616666Y-76150000D01*
X138316666Y-76450000D01*
X137616666Y-75950000D02*
X137616666Y-75516666D01*
X137883333Y-75750000D01*
X137883333Y-75650000D01*
X137916666Y-75583333D01*
X137950000Y-75550000D01*
X138016666Y-75516666D01*
X138183333Y-75516666D01*
X138250000Y-75550000D01*
X138283333Y-75583333D01*
X138316666Y-75650000D01*
X138316666Y-75850000D01*
X138283333Y-75916666D01*
X138250000Y-75950000D01*
X137616666Y-75083333D02*
X137616666Y-75016666D01*
X137650000Y-74950000D01*
X137683333Y-74916666D01*
X137750000Y-74883333D01*
X137883333Y-74850000D01*
X138050000Y-74850000D01*
X138183333Y-74883333D01*
X138250000Y-74916666D01*
X138283333Y-74950000D01*
X138316666Y-75016666D01*
X138316666Y-75083333D01*
X138283333Y-75150000D01*
X138250000Y-75183333D01*
X138183333Y-75216666D01*
X138050000Y-75250000D01*
X137883333Y-75250000D01*
X137750000Y-75216666D01*
X137683333Y-75183333D01*
X137650000Y-75150000D01*
X137616666Y-75083333D01*
X137616666Y-74616666D02*
X137616666Y-74183333D01*
X137883333Y-74416666D01*
X137883333Y-74316666D01*
X137916666Y-74250000D01*
X137950000Y-74216666D01*
X138016666Y-74183333D01*
X138183333Y-74183333D01*
X138250000Y-74216666D01*
X138283333Y-74250000D01*
X138316666Y-74316666D01*
X138316666Y-74516666D01*
X138283333Y-74583333D01*
X138250000Y-74616666D01*
D10*
%TO.C,D1*%
X140452380Y-72188095D02*
X139452380Y-72188095D01*
X139452380Y-71950000D01*
X139500000Y-71807142D01*
X139595238Y-71711904D01*
X139690476Y-71664285D01*
X139880952Y-71616666D01*
X140023809Y-71616666D01*
X140214285Y-71664285D01*
X140309523Y-71711904D01*
X140404761Y-71807142D01*
X140452380Y-71950000D01*
X140452380Y-72188095D01*
X140452380Y-70664285D02*
X140452380Y-71235714D01*
X140452380Y-70950000D02*
X139452380Y-70950000D01*
X139595238Y-71045238D01*
X139690476Y-71140476D01*
X139738095Y-71235714D01*
%TO.C,C1*%
X153333333Y-64807142D02*
X153285714Y-64854761D01*
X153142857Y-64902380D01*
X153047619Y-64902380D01*
X152904761Y-64854761D01*
X152809523Y-64759523D01*
X152761904Y-64664285D01*
X152714285Y-64473809D01*
X152714285Y-64330952D01*
X152761904Y-64140476D01*
X152809523Y-64045238D01*
X152904761Y-63950000D01*
X153047619Y-63902380D01*
X153142857Y-63902380D01*
X153285714Y-63950000D01*
X153333333Y-63997619D01*
X154285714Y-64902380D02*
X153714285Y-64902380D01*
X154000000Y-64902380D02*
X154000000Y-63902380D01*
X153904761Y-64045238D01*
X153809523Y-64140476D01*
X153714285Y-64188095D01*
%TO.C,J3*%
X177930978Y-117952380D02*
X177930978Y-118666666D01*
X177883359Y-118809523D01*
X177788121Y-118904761D01*
X177645264Y-118952380D01*
X177550026Y-118952380D01*
X178311931Y-117952380D02*
X178930978Y-117952380D01*
X178597645Y-118333333D01*
X178740502Y-118333333D01*
X178835740Y-118380952D01*
X178883359Y-118428571D01*
X178930978Y-118523809D01*
X178930978Y-118761904D01*
X178883359Y-118857142D01*
X178835740Y-118904761D01*
X178740502Y-118952380D01*
X178454788Y-118952380D01*
X178359550Y-118904761D01*
X178311931Y-118857142D01*
%TO.C,R23*%
X140272936Y-91185000D02*
X140727064Y-91185000D01*
X140272936Y-89715000D02*
X140727064Y-89715000D01*
%TO.C,R4*%
X159735000Y-116022936D02*
X159735000Y-116477064D01*
X158265000Y-116022936D02*
X158265000Y-116477064D01*
%TO.C,SW3*%
X184102934Y-57073671D02*
X164369389Y-49891248D01*
X178374959Y-69887347D02*
X160520799Y-63388964D01*
X160520799Y-63388964D02*
X165309081Y-50233268D01*
X165309081Y-50233268D02*
X183163241Y-56731650D01*
X183163241Y-56731650D02*
X178374959Y-69887347D01*
%TO.C,U2*%
X128750000Y-81990000D02*
X125150000Y-81990000D01*
X128750000Y-81990000D02*
X130950000Y-81990000D01*
X128750000Y-90010000D02*
X130950000Y-90010000D01*
X128750000Y-90010000D02*
X126550000Y-90010000D01*
%TO.C,R8*%
X124582936Y-106715000D02*
X125037064Y-106715000D01*
X124582936Y-108185000D02*
X125037064Y-108185000D01*
%TO.C,SW2*%
X179950000Y-123450000D02*
X175550000Y-123450000D01*
X175550000Y-126550000D02*
X179950000Y-126550000D01*
X175550000Y-125050000D02*
X175550000Y-124950000D01*
X179950000Y-125050000D02*
X179950000Y-124950000D01*
%TO.C,R7*%
X125037064Y-122195000D02*
X124582936Y-122195000D01*
X125037064Y-120725000D02*
X124582936Y-120725000D01*
%TO.C,R14*%
X159735000Y-126772936D02*
X159735000Y-127227064D01*
X158265000Y-126772936D02*
X158265000Y-127227064D01*
%TO.C,Q2*%
X173630000Y-102030000D02*
X173630000Y-101380000D01*
X173630000Y-102030000D02*
X173630000Y-103705000D01*
X176750000Y-102030000D02*
X176750000Y-101380000D01*
X176750000Y-102030000D02*
X176750000Y-102680000D01*
%TO.C,U1*%
X148140000Y-118660000D02*
X148140000Y-115940000D01*
X149450000Y-118660000D02*
X148140000Y-118660000D01*
X148140000Y-115940000D02*
X148370000Y-115940000D01*
X152860000Y-115940000D02*
X152630000Y-115940000D01*
X152860000Y-118660000D02*
X151550000Y-118660000D01*
X152630000Y-114800000D02*
X152630000Y-115940000D01*
X152860000Y-115940000D02*
X152860000Y-118660000D01*
%TO.C,C4*%
X156235000Y-115988748D02*
X156235000Y-116511252D01*
X154765000Y-115988748D02*
X154765000Y-116511252D01*
%TO.C,R2*%
X156235000Y-122022936D02*
X156235000Y-122477064D01*
X154765000Y-122022936D02*
X154765000Y-122477064D01*
%TO.C,R1*%
X125037064Y-110685000D02*
X124582936Y-110685000D01*
X125037064Y-109215000D02*
X124582936Y-109215000D01*
%TO.C,C3*%
X121261252Y-88935000D02*
X120738748Y-88935000D01*
X121261252Y-87465000D02*
X120738748Y-87465000D01*
%TO.C,J6*%
X168500000Y-101800000D02*
G75*
G03*
X168500000Y-101800000I-8000000J0D01*
G01*
%TO.C,TP6*%
X139200000Y-88450000D02*
G75*
G03*
X139200000Y-88450000I-700000J0D01*
G01*
%TO.C,Q4*%
X142250000Y-82140000D02*
X138800000Y-82140000D01*
X142250000Y-87260000D02*
X144200000Y-87260000D01*
X142250000Y-87260000D02*
X140300000Y-87260000D01*
X142250000Y-82140000D02*
X144200000Y-82140000D01*
%TO.C,C7*%
X120738748Y-92465000D02*
X121261252Y-92465000D01*
X120738748Y-93935000D02*
X121261252Y-93935000D01*
%TO.C,R19*%
X174962936Y-112725000D02*
X175417064Y-112725000D01*
X174962936Y-114195000D02*
X175417064Y-114195000D01*
%TO.C,R6*%
X124582936Y-111715000D02*
X125037064Y-111715000D01*
X124582936Y-113185000D02*
X125037064Y-113185000D01*
%TO.C,R24*%
X129751222Y-92472936D02*
X129751222Y-92927064D01*
X131221222Y-92472936D02*
X131221222Y-92927064D01*
%TO.C,D3*%
X163460000Y-133430225D02*
X163460000Y-130745225D01*
X161540000Y-133430225D02*
X163460000Y-133430225D01*
X161540000Y-130745225D02*
X161540000Y-133430225D01*
%TO.C,TP5*%
X137200000Y-75450000D02*
G75*
G03*
X137200000Y-75450000I-700000J0D01*
G01*
%TO.C,C10*%
X130738748Y-77185000D02*
X131261252Y-77185000D01*
X130738748Y-75715000D02*
X131261252Y-75715000D01*
%TO.C,R3*%
X163235000Y-122477064D02*
X163235000Y-122022936D01*
X161765000Y-122477064D02*
X161765000Y-122022936D01*
%TO.C,R17*%
X156235000Y-126772936D02*
X156235000Y-127227064D01*
X154765000Y-126772936D02*
X154765000Y-127227064D01*
%TO.C,C6*%
X120738748Y-84965000D02*
X121261252Y-84965000D01*
X120738748Y-86435000D02*
X121261252Y-86435000D01*
%TO.C,C13*%
X120738748Y-71935000D02*
X121261252Y-71935000D01*
X120738748Y-70465000D02*
X121261252Y-70465000D01*
%TO.C,R25*%
X126235000Y-92472936D02*
X126235000Y-92927064D01*
X124765000Y-92472936D02*
X124765000Y-92927064D01*
%TO.C,R20*%
X166735000Y-122477064D02*
X166735000Y-122022936D01*
X165265000Y-122477064D02*
X165265000Y-122022936D01*
%TO.C,RV2*%
X126240000Y-105815000D02*
X126240000Y-105170000D01*
X119290000Y-104180000D02*
X119290000Y-101075000D01*
X119290000Y-105815000D02*
X119290000Y-105170000D01*
X126240000Y-105815000D02*
X119290000Y-105815000D01*
X126240000Y-104180000D02*
X126240000Y-101075000D01*
X126240000Y-101075000D02*
X119290000Y-101075000D01*
%TO.C,R16*%
X121227064Y-72965000D02*
X120772936Y-72965000D01*
X121227064Y-74435000D02*
X120772936Y-74435000D01*
%TO.C,C11*%
X135765000Y-82488748D02*
X135765000Y-83011252D01*
X137235000Y-82488748D02*
X137235000Y-83011252D01*
%TO.C,C9*%
X149738748Y-122735000D02*
X150261252Y-122735000D01*
X149738748Y-121265000D02*
X150261252Y-121265000D01*
D14*
%TO.C,REF\u002A\u002A*%
X149100840Y-107399160D02*
X150401320Y-104597540D01*
X149502160Y-109398140D02*
X150101600Y-108699640D01*
X149502160Y-109398140D02*
X149400560Y-108498980D01*
X149100840Y-107399160D02*
X150299720Y-106599060D01*
X150299720Y-106599060D02*
X149502160Y-109398140D01*
X150701040Y-106299340D02*
X150101600Y-106698120D01*
X154699000Y-109992500D02*
X145301000Y-109992500D01*
X145301000Y-109992500D02*
X150000000Y-103007500D01*
X149900940Y-104399420D02*
X149100840Y-107399160D01*
X150000000Y-103007500D02*
X154699000Y-109992500D01*
X149502160Y-109398140D02*
X150701040Y-106299340D01*
D10*
X132224348Y-71129523D02*
X130344963Y-71813563D01*
X134103734Y-70445483D02*
X133258010Y-70753301D01*
X131846571Y-72065156D02*
G75*
G03*
X131288715Y-70751746I377777J935633D01*
G01*
X135968426Y-70103463D02*
G75*
G03*
X135968426Y-70103463I-925000J0D01*
G01*
X132399348Y-71129523D02*
G75*
G03*
X132399348Y-71129523I-175000J0D01*
G01*
X130330270Y-72155583D02*
G75*
G03*
X130330270Y-72155583I-924999J0D01*
G01*
%TO.C,D2*%
X165040000Y-130750000D02*
X165040000Y-133435000D01*
X165040000Y-133435000D02*
X166960000Y-133435000D01*
X166960000Y-133435000D02*
X166960000Y-130750000D01*
%TO.C,R13*%
X120772936Y-67965000D02*
X121227064Y-67965000D01*
X120772936Y-69435000D02*
X121227064Y-69435000D01*
%TO.C,C19*%
X144511252Y-81185000D02*
X143988748Y-81185000D01*
X144511252Y-79715000D02*
X143988748Y-79715000D01*
%TO.C,TP1*%
X128450000Y-95200000D02*
G75*
G03*
X128450000Y-95200000I-700000J0D01*
G01*
%TO.C,J7*%
X147500000Y-101800000D02*
G75*
G03*
X147500000Y-101800000I-8000000J0D01*
G01*
%TO.C,J4*%
X121000000Y-125330000D02*
X119670000Y-125330000D01*
X122330000Y-107430000D02*
X119670000Y-107430000D01*
X119670000Y-122730000D02*
X119670000Y-107430000D01*
X122330000Y-122730000D02*
X119670000Y-122730000D01*
X119670000Y-125330000D02*
X119670000Y-124000000D01*
X122330000Y-122730000D02*
X122330000Y-107430000D01*
%TO.C,R10*%
X161765000Y-116022936D02*
X161765000Y-116477064D01*
X163235000Y-116022936D02*
X163235000Y-116477064D01*
%TO.C,R12*%
X124772936Y-70465000D02*
X125227064Y-70465000D01*
X124772936Y-71935000D02*
X125227064Y-71935000D01*
%TO.C,C17*%
X149738748Y-131765000D02*
X150261252Y-131765000D01*
X149738748Y-133235000D02*
X150261252Y-133235000D01*
%TO.C,R18*%
X174962936Y-106575000D02*
X175417064Y-106575000D01*
X174962936Y-105105000D02*
X175417064Y-105105000D01*
%TO.C,R15*%
X149772936Y-124765000D02*
X150227064Y-124765000D01*
X149772936Y-126235000D02*
X150227064Y-126235000D01*
%TO.C,D4*%
X154540000Y-133428914D02*
X156460000Y-133428914D01*
X156460000Y-133428914D02*
X156460000Y-130743914D01*
X154540000Y-130743914D02*
X154540000Y-133428914D01*
%TO.C,C8*%
X120738748Y-91435000D02*
X121261252Y-91435000D01*
X120738748Y-89965000D02*
X121261252Y-89965000D01*
%TO.C,J2*%
X135609129Y-62087845D02*
X135154242Y-60838054D01*
X136858920Y-61632958D02*
X135609129Y-62087845D01*
X136330206Y-56291670D02*
X133830624Y-57201443D01*
X134719876Y-59644644D02*
X133830624Y-57201443D01*
X137219459Y-58734871D02*
X134719876Y-59644644D01*
X137219459Y-58734871D02*
X136330206Y-56291670D01*
%TO.C,TR1*%
X150900000Y-74500000D02*
X149900000Y-74500000D01*
X164250000Y-76250000D02*
X164250000Y-81000000D01*
X150100000Y-76250000D02*
X164250000Y-76250000D01*
X164250000Y-86250000D02*
X164250000Y-84000000D01*
X153750000Y-83750000D02*
X150100000Y-83750000D01*
X153750000Y-81000000D02*
X153750000Y-83750000D01*
X149850000Y-75500000D02*
X149850000Y-74500000D01*
X156750000Y-82750000D02*
X164250000Y-82750000D01*
X156750000Y-82250000D02*
X164250000Y-82250000D01*
X156750000Y-88750000D02*
X150100000Y-88750000D01*
X164250000Y-86250000D02*
X170900000Y-86250000D01*
X156750000Y-88750000D02*
X156750000Y-84000000D01*
X156750000Y-81000000D02*
X153750000Y-81000000D01*
X170900000Y-90245000D02*
X150100000Y-90245000D01*
X150100000Y-90245000D02*
X150100000Y-74755000D01*
X150100000Y-74755000D02*
X170900000Y-74755000D01*
X170900000Y-74755000D02*
X170900000Y-90245000D01*
X158000000Y-81000000D02*
G75*
G03*
X159250000Y-81000000I625000J0D01*
G01*
X156750000Y-81000000D02*
G75*
G03*
X158000000Y-81000000I625000J0D01*
G01*
X163000000Y-84000000D02*
G75*
G03*
X161750000Y-84000000I-625000J0D01*
G01*
X161750000Y-84000000D02*
G75*
G03*
X160500000Y-84000000I-625000J0D01*
G01*
X161750000Y-81000000D02*
G75*
G03*
X163000000Y-81000000I625000J0D01*
G01*
X160500000Y-84000000D02*
G75*
G03*
X159250000Y-84000000I-625000J0D01*
G01*
X163000000Y-81000000D02*
G75*
G03*
X164250000Y-81000000I625000J0D01*
G01*
X159250000Y-81000000D02*
G75*
G03*
X160500000Y-81000000I625000J0D01*
G01*
X158000000Y-84000000D02*
G75*
G03*
X156750000Y-84000000I-625000J0D01*
G01*
X160500000Y-81000000D02*
G75*
G03*
X161750000Y-81000000I625000J0D01*
G01*
X159250000Y-84000000D02*
G75*
G03*
X158000000Y-84000000I-625000J0D01*
G01*
X164250000Y-84000000D02*
G75*
G03*
X163000000Y-84000000I-625000J0D01*
G01*
%TO.C,C12*%
X130738748Y-79253216D02*
X131261252Y-79253216D01*
X130738748Y-80723216D02*
X131261252Y-80723216D01*
%TO.C,C5*%
X121261252Y-82465000D02*
X120738748Y-82465000D01*
X121261252Y-83935000D02*
X120738748Y-83935000D01*
%TO.C,D5*%
X158040000Y-133432846D02*
X159960000Y-133432846D01*
X158040000Y-130747846D02*
X158040000Y-133432846D01*
X159960000Y-133432846D02*
X159960000Y-130747846D01*
%TO.C,J1*%
X135545442Y-66880433D02*
X133102241Y-67769685D01*
X126900270Y-70027018D02*
X126250432Y-68241602D01*
X135442664Y-66013290D02*
X135801785Y-66999967D01*
X124882351Y-64482832D02*
X121872574Y-56213536D01*
X134815107Y-67359088D02*
X135801785Y-66999967D01*
X129437440Y-69103564D02*
X126900270Y-70027018D01*
X121872574Y-56213536D02*
X130517746Y-53066951D01*
X130517746Y-53066951D02*
X135545442Y-66880433D01*
%TO.C,F1*%
X140330000Y-63153752D02*
X140330000Y-58746248D01*
X145670000Y-63153752D02*
X145670000Y-58746248D01*
%TO.C,TP2*%
X137200000Y-91450000D02*
G75*
G03*
X137200000Y-91450000I-700000J0D01*
G01*
%TO.C,C21*%
X134985000Y-91711252D02*
X134985000Y-91188748D01*
X133515000Y-91711252D02*
X133515000Y-91188748D01*
%TO.C,R11*%
X125037064Y-115714974D02*
X124582936Y-115714974D01*
X125037064Y-114244974D02*
X124582936Y-114244974D01*
%TO.C,R22*%
X165265000Y-126772936D02*
X165265000Y-127227064D01*
X166735000Y-126772936D02*
X166735000Y-127227064D01*
%TO.C,TP3*%
X120206652Y-81152934D02*
G75*
G03*
X120206652Y-81152934I-700000J0D01*
G01*
%TO.C,R21*%
X163235000Y-126772936D02*
X163235000Y-127227064D01*
X161765000Y-126772936D02*
X161765000Y-127227064D01*
%TO.C,U3*%
X146120000Y-116850000D02*
X146120000Y-116070000D01*
X146120000Y-141815000D02*
X146120000Y-135395000D01*
X146120000Y-135395000D02*
X146500000Y-135395000D01*
X146120000Y-141815000D02*
X127880000Y-141815000D01*
X146120000Y-116070000D02*
X145120000Y-116070000D01*
X127880000Y-141815000D02*
X127880000Y-135395000D01*
X127880000Y-116850000D02*
X127880000Y-116070000D01*
X127880000Y-116070000D02*
X128880000Y-116070000D01*
%TO.C,C16*%
X175451252Y-115715000D02*
X174928748Y-115715000D01*
X175451252Y-117185000D02*
X174928748Y-117185000D01*
%TO.C,TP4*%
X146700000Y-90450000D02*
G75*
G03*
X146700000Y-90450000I-700000J0D01*
G01*
%TO.C,RV1*%
X126240000Y-100065000D02*
X126240000Y-99420000D01*
X119290000Y-98430000D02*
X119290000Y-95325000D01*
X126240000Y-100065000D02*
X119290000Y-100065000D01*
X126240000Y-95325000D02*
X119290000Y-95325000D01*
X126240000Y-98430000D02*
X126240000Y-95325000D01*
X119290000Y-100065000D02*
X119290000Y-99420000D01*
%TO.C,Q1*%
X176750000Y-109650000D02*
X176750000Y-110300000D01*
X173630000Y-109650000D02*
X173630000Y-109000000D01*
X176750000Y-109650000D02*
X176750000Y-109000000D01*
X173630000Y-109650000D02*
X173630000Y-111325000D01*
%TO.C,SW1*%
X179950000Y-121050000D02*
X179950000Y-120950000D01*
X179950000Y-119450000D02*
X175550000Y-119450000D01*
X175550000Y-122550000D02*
X179950000Y-122550000D01*
X175550000Y-121050000D02*
X175550000Y-120950000D01*
%TO.C,C14*%
X135765000Y-78438748D02*
X135765000Y-78961252D01*
X137235000Y-78438748D02*
X137235000Y-78961252D01*
%TO.C,C18*%
X149738748Y-128265000D02*
X150261252Y-128265000D01*
X149738748Y-129735000D02*
X150261252Y-129735000D01*
%TO.C,C15*%
X135765000Y-86438748D02*
X135765000Y-86961252D01*
X137235000Y-86438748D02*
X137235000Y-86961252D01*
%TO.C,R9*%
X125037064Y-118185000D02*
X124582936Y-118185000D01*
X125037064Y-119655000D02*
X124582936Y-119655000D01*
%TO.C,J5*%
X174862243Y-62503020D02*
X174407356Y-63752811D01*
X172873929Y-60363976D02*
X171964156Y-62863559D01*
X174407356Y-63752811D02*
X173157565Y-63297924D01*
X171964156Y-62863559D02*
X167134136Y-61105575D01*
X168043909Y-58605993D02*
X167134136Y-61105575D01*
X172873929Y-60363976D02*
X168043909Y-58605993D01*
%TO.C,R5*%
X159735000Y-122477064D02*
X159735000Y-122022936D01*
X158265000Y-122477064D02*
X158265000Y-122022936D01*
%TO.C,Q3*%
X142250000Y-73640000D02*
X144200000Y-73640000D01*
X142250000Y-73640000D02*
X138800000Y-73640000D01*
X142250000Y-78760000D02*
X144200000Y-78760000D01*
X142250000Y-78760000D02*
X140300000Y-78760000D01*
%TO.C,D1*%
X141000000Y-70400000D02*
X141000000Y-66550000D01*
X139000000Y-70400000D02*
X139000000Y-66550000D01*
X139000000Y-70400000D02*
X141000000Y-70400000D01*
%TO.C,C1*%
X146804437Y-65240000D02*
X154260000Y-65240000D01*
X144500000Y-67290000D02*
X145500000Y-67290000D01*
X145000000Y-66790000D02*
X145000000Y-67790000D01*
X145740000Y-72695563D02*
X146804437Y-73760000D01*
X145740000Y-66304437D02*
X145740000Y-68290000D01*
X145740000Y-66304437D02*
X146804437Y-65240000D01*
X154260000Y-73760000D02*
X154260000Y-70710000D01*
X154260000Y-65240000D02*
X154260000Y-68290000D01*
X145740000Y-72695563D02*
X145740000Y-70710000D01*
X146804437Y-73760000D02*
X154260000Y-73760000D01*
%TO.C,J3*%
X180330000Y-91810000D02*
X177670000Y-91810000D01*
X180330000Y-114730000D02*
X180330000Y-91810000D01*
X177670000Y-114730000D02*
X177670000Y-91810000D01*
X180330000Y-114730000D02*
X177670000Y-114730000D01*
X177670000Y-117330000D02*
X177670000Y-116000000D01*
X179000000Y-117330000D02*
X177670000Y-117330000D01*
%TD*%
M02*
