M48
; DRILL file {KiCad (6.0.0-0)} date Saturday, March 12, 2022 at 11:02:10 PM
; FORMAT={-:-/ absolute / inch / decimal}
; #@! TF.CreationDate,2022-03-12T23:02:10-06:00
; #@! TF.GenerationSoftware,Kicad,Pcbnew,(6.0.0-0)
; #@! TF.FileFunction,Plated,1,2,PTH
FMAT,2
INCH
; #@! TA.AperFunction,Plated,PTH,ViaDrill
T1C0.0157
; #@! TA.AperFunction,Plated,PTH,ViaDrill
T2C0.0177
; #@! TA.AperFunction,Plated,PTH,ViaDrill
T3C0.0197
; #@! TA.AperFunction,Plated,PTH,ComponentDrill
T4C0.0197
; #@! TA.AperFunction,Plated,PTH,ViaDrill
T5C0.0236
; #@! TA.AperFunction,Plated,PTH,ComponentDrill
T6C0.0315
; #@! TA.AperFunction,Plated,PTH,ComponentDrill
T7C0.0394
; #@! TA.AperFunction,Plated,PTH,ComponentDrill
T8C0.0591
; #@! TA.AperFunction,Plated,PTH,ComponentDrill
T9C0.0650
; #@! TA.AperFunction,Plated,PTH,ComponentDrill
T10C0.1260
%
G90
G05
T1
X4.8459Y-3.4156
X4.8917Y-3.2953
X4.8917Y-3.3346
X4.9409Y-3.5807
X4.9803Y-3.6102
X4.9902Y-2.8031
X5.0295Y-3.8071
X5.0492Y-4.2795
X5.0492Y-4.4764
X5.085Y-4.6077
X5.0886Y-3.5217
X5.1066Y-4.6879
X5.1349Y-3.5039
X5.142Y-5.0577
X5.1673Y-3.5334
X5.2362Y-4.6573
X5.2461Y-3.5217
X5.2461Y-4.4764
X5.3248Y-3.5217
X5.3642Y-4.9193
X5.3642Y-5.0276
X5.4035Y-3.5217
X5.4729Y-4.7707
X5.502Y-3.1181
X5.502Y-3.1673
X5.502Y-3.2165
X5.502Y-4.9193
X5.502Y-5.0276
X5.5136Y-4.7708
X5.5512Y-3.1181
X5.5512Y-3.1673
X5.5512Y-3.2165
X5.5709Y-2.7244
X5.5709Y-2.7736
X5.5709Y-2.8228
X5.6004Y-3.3839
X5.6004Y-3.4331
X5.6102Y-4.7421
X5.6201Y-2.7244
X5.6201Y-2.7736
X5.6201Y-2.8228
X5.6201Y-2.872
X5.6339Y-4.9094
X5.6398Y-4.7717
X5.6496Y-3.3839
X5.6496Y-3.4331
X5.6496Y-3.4823
X5.6594Y-4.7126
X5.6654Y-5.0866
X5.6693Y-2.7244
X5.6693Y-2.7736
X5.6693Y-2.8228
X5.6693Y-2.872
X5.6988Y-3.3839
X5.6988Y-3.4331
X5.6988Y-3.4823
X5.8366Y-4.6043
X5.8366Y-4.6437
X5.8366Y-4.6831
X5.9055Y-4.5846
X5.9055Y-4.624
X5.9055Y-4.6634
X5.9055Y-4.7028
X5.9252Y-4.5059
X5.9252Y-4.5453
X5.9449Y-4.5846
X5.9449Y-4.624
X5.9449Y-4.6634
X5.9449Y-4.7028
X5.9843Y-2.6654
X5.9843Y-2.8031
X5.9843Y-4.6043
X5.9843Y-4.6437
X5.9843Y-4.6831
X6.0236Y-2.6654
X6.0236Y-2.8031
X6.063Y-2.6654
X6.063Y-2.8031
X6.0925Y-4.752
X6.1024Y-2.6654
X6.1024Y-2.8031
X6.1575Y-5.2237
X6.2106Y-4.9094
X6.2244Y-5.2238
X6.3287Y-4.7736
X6.437Y-5.0295
X6.4665Y-4.9193
X6.4961Y-4.4764
X6.4961Y-5.0295
X6.6339Y-4.7028
X6.6339Y-4.7913
X6.6929Y-4.2795
X6.6929Y-4.4764
X6.7028Y-4.6339
X6.8012Y-4.5846
X6.8898Y-4.8819
X7.1169Y-4.7639
T2
X4.9788Y-3.5383
X5.3248Y-3.6398
X5.5413Y-3.502
T3
X5.1211Y-3.2136
X5.1998Y-3.2136
X5.2523Y-3.0908
X5.4134Y-3.2205
X6.3602Y-4.8628
T4
X4.748Y-3.0827
X4.748Y-5.1299
X4.7757Y-3.0159
X4.7757Y-3.1495
X4.7757Y-5.0631
X4.7757Y-5.1967
X4.8425Y-2.9882
X4.8425Y-3.1772
X4.8425Y-5.0354
X4.8425Y-5.2244
X4.9093Y-3.0159
X4.9093Y-3.1495
X4.9093Y-5.0631
X4.9093Y-5.1967
X4.937Y-3.0827
X4.937Y-5.1299
X5.811Y-2.4134
X5.8387Y-2.3466
X5.8387Y-2.4802
X5.9055Y-2.3189
X5.9055Y-2.5079
X5.9723Y-2.3466
X5.9723Y-2.4802
X6.0Y-2.4134
X6.874Y-3.0827
X6.874Y-5.1299
X6.9017Y-3.0159
X6.9017Y-3.1495
X6.9017Y-5.0631
X6.9017Y-5.1967
X6.9685Y-2.9882
X6.9685Y-3.1772
X6.9685Y-5.0354
X6.9685Y-5.2244
X7.0353Y-3.0159
X7.0353Y-3.1495
X7.0353Y-5.0631
X7.0353Y-5.1967
X7.063Y-3.0827
X7.063Y-5.1299
T5
X5.1201Y-3.0512
X6.0177Y-4.5413
T6
X4.7333Y-3.8947
X4.7333Y-4.1211
X4.8333Y-3.7947
X4.8333Y-4.0211
X4.9333Y-3.8947
X4.9333Y-4.1211
T7
X4.7638Y-4.2819
X4.7638Y-4.3819
X4.7638Y-4.4819
X4.7638Y-4.5819
X4.7638Y-4.6819
X4.7638Y-4.7819
X4.7638Y-4.8819
X5.336Y-2.2833
X5.3702Y-2.3773
X6.6472Y-2.3744
X6.7412Y-2.4086
X6.8351Y-2.4428
X7.0472Y-3.6669
X7.0472Y-3.7669
X7.0472Y-3.8669
X7.0472Y-3.9669
X7.0472Y-4.0669
X7.0472Y-4.1669
X7.0472Y-4.2669
X7.0472Y-4.3669
X7.0472Y-4.4669
X7.0472Y-4.5669
T9
X6.3826Y-2.6107
X6.6416Y-2.7049
X6.9005Y-2.7992
T10
X4.8425Y-3.0827
X4.8425Y-5.1299
X5.9055Y-2.4134
X6.9685Y-3.0827
X6.9685Y-5.1299
T7
G00X4.9264Y-2.577
M15
G01X4.9533Y-2.651
M16
G05
G00X5.1103Y-2.4263
M15
G01X5.0363Y-2.4532
M16
G05
G00X5.1911Y-2.6483
M15
G01X5.1171Y-2.6752
M16
G05
T8
G00X5.4281Y-3.8406
M15
G01X5.5561Y-3.8406
M16
G05
G00X5.4281Y-4.1752
M15
G01X5.5561Y-4.1752
M16
G05
G00X6.2549Y-3.8406
M15
G01X6.3829Y-3.8406
M16
G05
G00X6.2549Y-4.1752
M15
G01X6.3829Y-4.1752
M16
G05
T0
M30
